ply
format ascii 1.0
element vertex 50
property float x
property float y
property float z
element face 64
property list uchar int vertex_indices
end_header
-0.56761330366134643555 0.81065529584884643555 0
-0.31761327385902404785 0.81065529584884643555 0
-0.067613273859024047852 0.81065529584884643555 0
0.18238672614097595215 0.81065529584884643555 0
0.43238672614097595215 0.81065529584884643555 0
-0.56761330366134643555 1.0606552362442016602 0
-0.31761327385902404785 1.0606552362442016602 0
-0.067613273859024047852 1.0606552362442016602 0
0.182386741042137146 1.0606552362442016602 0
0.43238672614097595215 1.0606552362442016602 0
-0.56761330366134643555 1.3106552362442016602 0
-0.31761327385902404785 1.3106552362442016602 0
-0.067613273859024047852 1.3106552362442016602 0
0.18238672614097595215 1.3106552362442016602 0
0.43238672614097595215 1.3106552362442016602 0
-0.56761330366134643555 1.5606552362442016602 0
-0.31761327385902404785 1.5606552362442016602 0
-0.067613273859024047852 1.5606552362442016602 0
0.18238672614097595215 1.5606552362442016602 0
0.43238672614097595215 1.5606552362442016602 0
-0.56761330366134643555 1.8106552362442016602 0
-0.31761327385902404785 1.8106552362442016602 0
-0.067613273859024047852 1.8106552362442016602 0
0.18238672614097595215 1.8106552362442016602 0
0.43238672614097595215 1.8106552362442016602 0
-0.5000044703483581543 -0.50001055002212524414 0
-0.25000450015068054199 -0.50001060962677001953 0
-4.4844978219771292061e-06 -0.50001066923141479492 0
0.2499955594539642334 -0.50001060962677001953 0
0.49999561905860900879 -0.50001049041748046875 0
-0.50000452995300292969 -0.25001060962677001953 0
-0.25000450015068054199 -0.25001063942909240723 0
-4.494865152082638815e-06 -0.25001066923141479492 0
0.24999551475048065186 -0.25001063942909240723 0
0.4999955296516418457 -0.25001057982444763184 0
-0.50000452995300292969 -1.0620011380524374545e-05 0
-0.25000450015068054199 -1.0650742297002580017e-05 0
-4.4997359509579837322e-06 -1.0665408808563370258e-05 0
0.24999549984931945801 -1.0650854164850898087e-05 0
0.49999549984931945801 -1.0620210559864062816e-05 0
-0.5000044703483581543 0.24998939037322998047 0
-0.25000450015068054199 0.24998933076858520508 0
-4.494713266467442736e-06 0.24998931586742401123 0
0.24999551475048065186 0.24998934566974639893 0
0.49999549984931945801 0.24998937547206878662 0
-0.50000441074371337891 0.49998944997787475586 0
-0.2500044703483581543 0.49998933076858520508 0
-4.4842790885013528168e-06 0.49998930096626281738 0
0.24999549984931945801 0.49998933076858520508 0
0.4999955296516418457 0.49998939037322998047 0
3 0 1 6
3 0 6 5
3 1 2 7
3 1 7 6
3 2 3 8
3 2 8 7
3 3 4 9
3 3 9 8
3 5 6 11
3 5 11 10
3 6 7 12
3 6 12 11
3 7 8 13
3 7 13 12
3 8 9 14
3 8 14 13
3 10 11 16
3 10 16 15
3 11 12 17
3 11 17 16
3 12 13 18
3 12 18 17
3 13 14 19
3 13 19 18
3 15 16 21
3 15 21 20
3 16 17 22
3 16 22 21
3 17 18 23
3 17 23 22
3 18 19 24
3 18 24 23
3 25 26 31
3 25 31 30
3 26 27 32
3 26 32 31
3 27 28 33
3 27 33 32
3 28 29 34
3 28 34 33
3 30 31 36
3 30 36 35
3 31 32 37
3 31 37 36
3 32 33 38
3 32 38 37
3 33 34 39
3 33 39 38
3 35 36 41
3 35 41 40
3 36 37 42
3 36 42 41
3 37 38 43
3 37 43 42
3 38 39 44
3 38 44 43
3 40 41 46
3 40 46 45
3 41 42 47
3 41 47 46
3 42 43 48
3 42 48 47
3 43 44 49
3 43 49 48
