ply
format ascii 1.0
element vertex 50
property float x
property float y
property float z
element face 64
property list uchar int vertex_indices
end_header
-0.82498180866241455078 -0.49992737174034118652 0
-0.57498180866241455078 -0.49992737174034118652 0
-0.32498180866241455078 -0.49992737174034118652 0
-0.074981801211833953857 -0.49992737174034118652 0
0.17501820623874664307 -0.49992737174034118652 0
-0.82498180866241455078 -0.24992743134498596191 0
-0.57498180866241455078 -0.24992743134498596191 0
-0.32498180866241455078 -0.24992743134498596191 0
-0.074981801211833953857 -0.24992743134498596191 0
0.17501820623874664307 -0.24992743134498596191 0
-0.82498180866241455078 7.2565271693747490644e-05 0
-0.57498180866241455078 7.2565053415019065142e-05 0
-0.32498180866241455078 7.2564842412248253822e-05 0
-0.074981801211833953857 7.256462413351982832e-05 0
0.17501820623874664307 7.2564413130749017e-05 0
-0.82498180866241455078 0.25007256865501403809 0
-0.57498180866241455078 0.25007256865501403809 0
-0.32498180866241455078 0.25007256865501403809 0
-0.074981801211833953857 0.25007256865501403809 0
0.17501820623874664307 0.25007256865501403809 0
-0.82498180866241455078 0.50007253885269165039 0
-0.57498180866241455078 0.50007253885269165039 0
-0.32498180866241455078 0.50007253885269165039 0
-0.074981801211833953857 0.50007253885269165039 0
0.17501820623874664307 0.50007253885269165039 0
-0.50002175569534301758 -0.50008493661880493164 0
-0.25002184510231018066 -0.50008565187454223633 0
-2.1657964680343866348e-05 -0.5000858306884765625 0
0.24997860193252563477 -0.50008565187454223633 0
0.4999790489673614502 -0.50008463859558105469 0
-0.50002175569534301758 -0.25008535385131835938 0
-0.25002169609069824219 -0.25008565187454223633 0
-2.1697464035241864622e-05 -0.2500858306884765625 0
0.24997831881046295166 -0.25008568167686462402 0
0.4999783635139465332 -0.25008523464202880859 0
-0.50002175569534301758 -8.5445411968976259232e-05 0
-0.25002172589302062988 -8.5695712186861783266e-05 0
-2.1716092305723577738e-05 -8.5817184299230575562e-05 0
0.24997827410697937012 -8.5695690358988940716e-05 0
0.49997821450233459473 -8.5445375589188188314e-05 0
-0.5000216364860534668 0.24991476535797119141 0
-0.25002169609069824219 0.24991430342197418213 0
-2.1697484044125303626e-05 0.2499141693115234375 0
0.24997830390930175781 0.24991433322429656982 0
0.49997821450233459473 0.24991463124752044678 0
-0.50002092123031616211 0.49991536140441894531 0
-0.25002139806747436523 0.49991437792778015137 0
-2.1658001060131937265e-05 0.4999141693115234375 0
0.24997816979885101318 0.49991434812545776367 0
0.49997821450233459473 0.49991503357887268066 0
3 0 1 6
3 0 6 5
3 1 2 7
3 1 7 6
3 2 3 8
3 2 8 7
3 3 4 9
3 3 9 8
3 5 6 11
3 5 11 10
3 6 7 12
3 6 12 11
3 7 8 13
3 7 13 12
3 8 9 14
3 8 14 13
3 10 11 16
3 10 16 15
3 11 12 17
3 11 17 16
3 12 13 18
3 12 18 17
3 13 14 19
3 13 19 18
3 15 16 21
3 15 21 20
3 16 17 22
3 16 22 21
3 17 18 23
3 17 23 22
3 18 19 24
3 18 24 23
3 25 26 31
3 25 31 30
3 26 27 32
3 26 32 31
3 27 28 33
3 27 33 32
3 28 29 34
3 28 34 33
3 30 31 36
3 30 36 35
3 31 32 37
3 31 37 36
3 32 33 38
3 32 38 37
3 33 34 39
3 33 39 38
3 35 36 41
3 35 41 40
3 36 37 42
3 36 42 41
3 37 38 43
3 37 43 42
3 38 39 44
3 38 44 43
3 40 41 46
3 40 46 45
3 41 42 47
3 41 47 46
3 42 43 48
3 42 48 47
3 43 44 49
3 43 49 48
