ply
format ascii 1.0
element vertex 50
property float x
property float y
property float z
element face 64
property list uchar int vertex_indices
end_header
-0.4999999701976776123 -0.49992731213569641113 0
-0.2499999701976776123 -0.49992731213569641113 0
3.3369172314223760623e-08 -0.49992731213569641113 0
0.2500000298023223877 -0.49992731213569641113 0
0.50000005960464477539 -0.49992731213569641113 0
-0.4999999701976776123 -0.24992737174034118652 0
-0.2499999701976776123 -0.24992735683917999268 0
3.273773074852215359e-08 -0.24992735683917999268 0
0.2500000298023223877 -0.24992735683917999268 0
0.50000005960464477539 -0.24992735683917999268 0
-0.4999999701976776123 7.2635426477063447237e-05 0
-0.2499999701976776123 7.2636059485375881195e-05 0
3.2106285630106867757e-08 7.263668521773070097e-05 0
0.2500000298023223877 7.2637318226043134928e-05 0
0.50000005960464477539 7.2637951234355568886e-05 0
-0.4999999701976776123 0.25007262825965881348 0
-0.2499999701976776123 0.25007262825965881348 0
3.1474840511691581924e-08 0.25007262825965881348 0
0.2500000298023223877 0.25007262825965881348 0
0.50000005960464477539 0.25007262825965881348 0
-0.4999999701976776123 0.50007265806198120117 0
-0.2499999701976776123 0.50007265806198120117 0
3.0843398945989974891e-08 0.50007265806198120117 0
0.2500000298023223877 0.50007265806198120117 0
0.50000005960464477539 0.50007265806198120117 0
-0.50000041723251342773 -0.50008493661880493164 0
-0.25000035762786865234 -0.50008565187454223633 0
-1.3643041540944977896e-07 -0.5000858306884765625 0
0.25000008940696716309 -0.50008565187454223633 0
0.50000041723251342773 -0.50008475780487060547 0
-0.50000017881393432617 -0.25008532404899597168 0
-0.25000011920928955078 -0.25008568167686462402 0
-1.1180492265339125879e-07 -0.2500858604907989502 0
0.24999989569187164307 -0.25008571147918701172 0
0.49999991059303283691 -0.25008532404899597168 0
-0.50000017881393432617 -8.5461630078498274088e-05 0
-0.25000011920928955078 -8.5718093032483011484e-05 0
-9.9268504527572076768e-08 -8.5842715634498745203e-05 0
0.24999988079071044922 -8.5718093032483011484e-05 0
0.49999985098838806152 -8.5461630078498274088e-05 0
-0.50000005960464477539 0.24991469085216522217 0
-0.25000008940696716309 0.24991427361965179443 0
-1.1180632952800806379e-07 0.2499141395092010498 0
0.24999988079071044922 0.24991431832313537598 0
0.49999979138374328613 0.24991467595100402832 0
-0.49999961256980895996 0.49991521239280700684 0
-0.24999991059303283691 0.49991434812545776367 0
-1.3643325758039281936e-07 0.4999141395092010498 0
0.2499996572732925415 0.49991434812545776367 0
0.49999961256980895996 0.49991509318351745605 0
3 0 1 6
3 0 6 5
3 1 2 7
3 1 7 6
3 2 3 8
3 2 8 7
3 3 4 9
3 3 9 8
3 5 6 11
3 5 11 10
3 6 7 12
3 6 12 11
3 7 8 13
3 7 13 12
3 8 9 14
3 8 14 13
3 10 11 16
3 10 16 15
3 11 12 17
3 11 17 16
3 12 13 18
3 12 18 17
3 13 14 19
3 13 19 18
3 15 16 21
3 15 21 20
3 16 17 22
3 16 22 21
3 17 18 23
3 17 23 22
3 18 19 24
3 18 24 23
3 25 26 31
3 25 31 30
3 26 27 32
3 26 32 31
3 27 28 33
3 27 33 32
3 28 29 34
3 28 34 33
3 30 31 36
3 30 36 35
3 31 32 37
3 31 37 36
3 32 33 38
3 32 38 37
3 33 34 39
3 33 39 38
3 35 36 41
3 35 41 40
3 36 37 42
3 36 42 41
3 37 38 43
3 37 43 42
3 38 39 44
3 38 44 43
3 40 41 46
3 40 46 45
3 41 42 47
3 41 47 46
3 42 43 48
3 42 48 47
3 43 44 49
3 43 49 48
