ply
format ascii 1.0
element vertex 50
property float x
property float y
property float z
element face 64
property list uchar int vertex_indices
end_header
0.47494629025459289551 -0.49992802739143371582 0
0.7249463200569152832 -0.49992802739143371582 0
0.9749463200569152832 -0.49992802739143371582 0
1.2249462604522705078 -0.49992802739143371582 0
1.4749462604522705078 -0.49992802739143371582 0
0.47494629025459289551 -0.24992807209491729736 0
0.7249463200569152832 -0.24992807209491729736 0
0.9749463200569152832 -0.24992807209491729736 0
1.2249462604522705078 -0.24992807209491729736 0
1.4749462604522705078 -0.24992807209491729736 0
0.47494629025459289551 7.1922324423212558031e-05 0
0.7249463200569152832 7.1922739152796566486e-05 0
0.9749463200569152832 7.1923146606422960758e-05 0
1.2249462604522705078 7.1923561336006969213e-05 0
1.4749462604522705078 7.1923976065590977669e-05 0
0.47494629025459289551 0.25007191300392150879 0
0.7249463200569152832 0.25007191300392150879 0
0.9749463200569152832 0.25007191300392150879 0
1.2249462604522705078 0.25007191300392150879 0
1.4749462604522705078 0.25007191300392150879 0
0.47494629025459289551 0.50007194280624389648 0
0.7249463200569152832 0.50007194280624389648 0
0.9749463200569152832 0.50007194280624389648 0
1.2249462604522705078 0.50007194280624389648 0
1.4749462604522705078 0.50007194280624389648 0
-0.49993693828582763672 -0.50008434057235717773 0
-0.24993656575679779053 -0.50008523464202880859 0
6.3742445490788668394e-05 -0.50008547306060791016 0
0.25006386637687683105 -0.50008535385131835938 0
0.50006377696990966797 -0.50008481740951538086 0
-0.49993616342544555664 -0.25008481740951538086 0
-0.24993607401847839355 -0.25008532404899597168 0
6.3957399106584489346e-05 -0.25008550286293029785 0
0.25006398558616638184 -0.25008538365364074707 0
0.50006395578384399414 -0.25008511543273925781 0
-0.49993598461151123047 -8.509789040545001626e-05 0
-0.24993593990802764893 -8.5370797023642808199e-05 0
6.4062413002829998732e-05 -8.5503837908618152142e-05 0
0.25006407499313354492 -8.5370811575558036566e-05 0
0.50006401538848876953 -8.509791223332285881e-05 0
-0.49993604421615600586 0.24991488456726074219 0
-0.24993602931499481201 0.24991461634635925293 0
6.3957406382542103529e-05 0.2499144822359085083 0
0.25006392598152160645 0.24991467595100402832 0
0.50006383657455444336 0.24991518259048461914 0
-0.49993622303009033203 0.49991518259048461914 0
-0.24993614852428436279 0.49991464614868164062 0
6.3742467318661510944e-05 0.49991452693939208984 0
0.25006344914436340332 0.49991473555564880371 0
0.50006306171417236328 0.49991565942764282227 0
3 0 1 6
3 0 6 5
3 1 2 7
3 1 7 6
3 2 3 8
3 2 8 7
3 3 4 9
3 3 9 8
3 5 6 11
3 5 11 10
3 6 7 12
3 6 12 11
3 7 8 13
3 7 13 12
3 8 9 14
3 8 14 13
3 10 11 16
3 10 16 15
3 11 12 17
3 11 17 16
3 12 13 18
3 12 18 17
3 13 14 19
3 13 19 18
3 15 16 21
3 15 21 20
3 16 17 22
3 16 22 21
3 17 18 23
3 17 23 22
3 18 19 24
3 18 24 23
3 25 26 31
3 25 31 30
3 26 27 32
3 26 32 31
3 27 28 33
3 27 33 32
3 28 29 34
3 28 34 33
3 30 31 36
3 30 36 35
3 31 32 37
3 31 37 36
3 32 33 38
3 32 38 37
3 33 34 39
3 33 39 38
3 35 36 41
3 35 41 40
3 36 37 42
3 36 42 41
3 37 38 43
3 37 43 42
3 38 39 44
3 38 44 43
3 40 41 46
3 40 46 45
3 41 42 47
3 41 47 46
3 42 43 48
3 42 48 47
3 43 44 49
3 43 49 48
