ply
format ascii 1.0
element vertex 50
property float x
property float y
property float z
element face 64
property list uchar int vertex_indices
end_header
-1.1499636173248291016 -0.49992728233337402344 0
-0.89996367692947387695 -0.49992728233337402344 0
-0.64996367692947387695 -0.49992728233337402344 0
-0.39996367692947387695 -0.49992728233337402344 0
-0.14996367692947387695 -0.49992728233337402344 0
-1.1499636173248291016 -0.24992732703685760498 0
-0.89996367692947387695 -0.24992732703685760498 0
-0.64996367692947387695 -0.24992732703685760498 0
-0.39996367692947387695 -0.24992732703685760498 0
-0.14996367692947387695 -0.24992732703685760498 0
-1.1499636173248291016 7.2672686656005680561e-05 0
-0.89996367692947387695 7.267257751664146781e-05 0
-0.64996367692947387695 7.2672468377277255058e-05 0
-0.39996367692947387695 7.267236651387065649e-05 0
-0.14996367692947387695 7.2672257374506443739e-05 0
-1.1499636173248291016 0.25007265806198120117 0
-0.89996367692947387695 0.25007265806198120117 0
-0.64996367692947387695 0.25007265806198120117 0
-0.39996367692947387695 0.25007265806198120117 0
-0.14996367692947387695 0.25007265806198120117 0
-1.1499636173248291016 0.50007265806198120117 0
-0.89996367692947387695 0.50007265806198120117 0
-0.64996367692947387695 0.50007265806198120117 0
-0.39996367692947387695 0.50007265806198120117 0
-0.14996367692947387695 0.50007265806198120117 0
-0.5000432133674621582 -0.50008535385131835938 0
-0.25004336237907409668 -0.50008600950241088867 0
-4.3206371628912165761e-05 -0.50008612871170043945 0
0.24995708465576171875 -0.50008594989776611328 0
0.49995768070220947266 -0.50008481740951538086 0
-0.50004339218139648438 -0.25008571147918701172 0
-0.25004330277442932129 -0.25008594989776611328 0
-4.3309988541295751929e-05 -0.25008612871170043945 0
0.24995669722557067871 -0.25008597970008850098 0
0.4999567568302154541 -0.25008550286293029785 0
-0.50004339218139648438 -8.5748477431479841471e-05 0
-0.25004339218139648438 -8.5992614913266152143e-05 0
-4.3359774281270802021e-05 -8.6110951087903231382e-05 0
0.24995662271976470947 -8.5992593085393309593e-05 0
0.49995657801628112793 -8.574843377573415637e-05 0
-0.50004327297210693359 0.249914512038230896 0
-0.25004330277442932129 0.24991400539875030518 0
-4.331001036916859448e-05 0.24991387128829956055 0
0.24995669722557067871 0.24991403520107269287 0
0.49995663762092590332 0.24991427361965179443 0
-0.50004231929779052734 0.49991521239280700684 0
-0.25004291534423828125 0.49991407990455627441 0
-4.3206415284657850862e-05 0.49991384148597717285 0
0.24995665252208709717 0.49991402029991149902 0
0.49995681643486022949 0.49991467595100402832 0
3 0 1 6
3 0 6 5
3 1 2 7
3 1 7 6
3 2 3 8
3 2 8 7
3 3 4 9
3 3 9 8
3 5 6 11
3 5 11 10
3 6 7 12
3 6 12 11
3 7 8 13
3 7 13 12
3 8 9 14
3 8 14 13
3 10 11 16
3 10 16 15
3 11 12 17
3 11 17 16
3 12 13 18
3 12 18 17
3 13 14 19
3 13 19 18
3 15 16 21
3 15 21 20
3 16 17 22
3 16 22 21
3 17 18 23
3 17 23 22
3 18 19 24
3 18 24 23
3 25 26 31
3 25 31 30
3 26 27 32
3 26 32 31
3 27 28 33
3 27 33 32
3 28 29 34
3 28 34 33
3 30 31 36
3 30 36 35
3 31 32 37
3 31 37 36
3 32 33 38
3 32 38 37
3 33 34 39
3 33 39 38
3 35 36 41
3 35 41 40
3 36 37 42
3 36 42 41
3 37 38 43
3 37 43 42
3 38 39 44
3 38 44 43
3 40 41 46
3 40 46 45
3 41 42 47
3 41 47 46
3 42 43 48
3 42 48 47
3 43 44 49
3 43 49 48
