ply
format ascii 1.0
element vertex 50
property float x
property float y
property float z
element face 64
property list uchar int vertex_indices
end_header
-1.474946141242980957 -0.49992787837982177734 0
-1.224946141242980957 -0.49992787837982177734 0
-0.97494608163833618164 -0.49992787837982177734 0
-0.72494608163833618164 -0.49992787837982177734 0
-0.47494608163833618164 -0.49992787837982177734 0
-1.474946141242980957 -0.24992793798446655273 0
-1.224946141242980957 -0.24992793798446655273 0
-0.97494608163833618164 -0.24992793798446655273 0
-0.72494608163833618164 -0.24992793798446655273 0
-0.47494608163833618164 -0.24992793798446655273 0
-1.474946141242980957 7.2063507104758173227e-05 0
-1.224946141242980957 7.2063936386257410049e-05 0
-0.97494608163833618164 7.2064358391799032688e-05 0
-0.72494608163833618164 7.206478767329826951e-05 0
-0.47494608163833618164 7.2065209678839892149e-05 0
-1.474946141242980957 0.25007206201553344727 0
-1.224946141242980957 0.25007206201553344727 0
-0.97494608163833618164 0.25007206201553344727 0
-0.72494608163833618164 0.25007206201553344727 0
-0.47494608163833618164 0.25007206201553344727 0
-1.474946141242980957 0.50007206201553344727 0
-1.224946141242980957 0.50007206201553344727 0
-0.97494608163833618164 0.50007206201553344727 0
-0.72494608163833618164 0.50007206201553344727 0
-0.47494608163833618164 0.50007206201553344727 0
-0.50006389617919921875 -0.50008493661880493164 0
-0.25006413459777832031 -0.50008553266525268555 0
-6.4015053794719278812e-05 -0.50008571147918701172 0
0.24993631243705749512 -0.50008547306060791016 0
0.4999370276927947998 -0.50008422136306762695 0
-0.50006425380706787109 -0.25008532404899597168 0
-0.25006416440010070801 -0.25008550286293029785 0
-6.4181112975347787142e-05 -0.25008568167686462402 0
0.24993583559989929199 -0.25008553266525268555 0
0.49993589520454406738 -0.25008499622344970703 0
-0.50006431341171264648 -8.5299012425821274519e-05 0
-0.25006428360939025879 -8.5535328253172338009e-05 0
-6.4261243096552789211e-05 -8.5649735410697758198e-05 0
0.24993571639060974121 -8.5535313701257109642e-05 0
0.49993568658828735352 -8.5298983321990817785e-05 0
-0.50006413459777832031 0.24991501867771148682 0
-0.25006416440010070801 0.24991446733474731445 0
-6.4181127527263015509e-05 0.24991431832313537598 0
0.24993583559989929199 0.24991449713706970215 0
0.4999357759952545166 0.24991467595100402832 0
-0.50006300210952758789 0.49991577863693237305 0
-0.25006368756294250488 0.49991455674171447754 0
-6.4015082898549735546e-05 0.49991428852081298828 0
0.24993588030338287354 0.49991443753242492676 0
0.49993613362312316895 0.49991506338119506836 0
3 0 1 6
3 0 6 5
3 1 2 7
3 1 7 6
3 2 3 8
3 2 8 7
3 3 4 9
3 3 9 8
3 5 6 11
3 5 11 10
3 6 7 12
3 6 12 11
3 7 8 13
3 7 13 12
3 8 9 14
3 8 14 13
3 10 11 16
3 10 16 15
3 11 12 17
3 11 17 16
3 12 13 18
3 12 18 17
3 13 14 19
3 13 19 18
3 15 16 21
3 15 21 20
3 16 17 22
3 16 22 21
3 17 18 23
3 17 23 22
3 18 19 24
3 18 24 23
3 25 26 31
3 25 31 30
3 26 27 32
3 26 32 31
3 27 28 33
3 27 33 32
3 28 29 34
3 28 34 33
3 30 31 36
3 30 36 35
3 31 32 37
3 31 37 36
3 32 33 38
3 32 38 37
3 33 34 39
3 33 39 38
3 35 36 41
3 35 41 40
3 36 37 42
3 36 42 41
3 37 38 43
3 37 43 42
3 38 39 44
3 38 44 43
3 40 41 46
3 40 46 45
3 41 42 47
3 41 47 46
3 42 43 48
3 42 48 47
3 43 44 49
3 43 49 48
