ply
format ascii 1.0
element vertex 50
property float x
property float y
property float z
element face 64
property list uchar int vertex_indices
end_header
0.14996379613876342773 -0.49992740154266357422 0
0.39996379613876342773 -0.49992740154266357422 0
0.64996379613876342773 -0.49992740154266357422 0
0.89996379613876342773 -0.49992740154266357422 0
1.1499638557434082031 -0.49992740154266357422 0
0.14996379613876342773 -0.24992744624614715576 0
0.39996379613876342773 -0.24992744624614715576 0
0.64996379613876342773 -0.24992744624614715576 0
0.89996379613876342773 -0.24992744624614715576 0
1.1499638557434082031 -0.24992744624614715576 0
0.14996379613876342773 7.2550057666376233101e-05 0
0.39996379613876342773 7.2550334152765572071e-05 0
0.64996379613876342773 7.2550610639154911041e-05 0
0.89996379613876342773 7.2550887125544250011e-05 0
1.1499638557434082031 7.2551163611933588982e-05 0
0.14996379613876342773 0.25007253885269165039 0
0.39996379613876342773 0.25007253885269165039 0
0.64996379613876342773 0.25007253885269165039 0
0.89996379613876342773 0.25007253885269165039 0
1.1499638557434082031 0.25007253885269165039 0
0.14996379613876342773 0.50007253885269165039 0
0.39996379613876342773 0.50007253885269165039 0
0.64996379613876342773 0.50007253885269165039 0
0.89996379613876342773 0.50007253885269165039 0
1.1499638557434082031 0.50007253885269165039 0
-0.49995759129524230957 -0.50008487701416015625 0
-0.24995733797550201416 -0.50008577108383178711 0
4.2943494918290525675e-05 -0.50008594989776611328 0
0.25004309415817260742 -0.5000858306884765625 0
0.50004315376281738281 -0.5000851750373840332 0
-0.49995702505111694336 -0.25008535385131835938 0
-0.24995692074298858643 -0.2500858306884765625 0
4.3096359149785712361e-05 -0.25008600950241088867 0
0.25004312396049499512 -0.2500858604907989502 0
0.50004309415817260742 -0.25008556246757507324 0
-0.49995687603950500488 -8.558857371099293232e-05 0
-0.24995683133602142334 -8.5857354861218482256e-05 0
4.3171214201720431447e-05 -8.5988249338697642088e-05 0
0.25004315376281738281 -8.5857369413133710623e-05 0
0.50004309415817260742 -8.5588602814823389053e-05 0
-0.49995690584182739258 0.24991445243358612061 0
-0.24995689094066619873 0.2499141395092010498 0
4.309637733967974782e-05 0.24991400539875030518 0
0.25004306435585021973 0.24991418421268463135 0
0.50004297494888305664 0.24991464614868164062 0
-0.49995687603950500488 0.4999148249626159668 0
-0.24995690584182739258 0.4999141693115234375 0
4.29435276600997895e-05 0.49991402029991149902 0
0.25004267692565917969 0.49991422891616821289 0
0.50004237890243530273 0.49991509318351745605 0
3 0 1 6
3 0 6 5
3 1 2 7
3 1 7 6
3 2 3 8
3 2 8 7
3 3 4 9
3 3 9 8
3 5 6 11
3 5 11 10
3 6 7 12
3 6 12 11
3 7 8 13
3 7 13 12
3 8 9 14
3 8 14 13
3 10 11 16
3 10 16 15
3 11 12 17
3 11 17 16
3 12 13 18
3 12 18 17
3 13 14 19
3 13 19 18
3 15 16 21
3 15 21 20
3 16 17 22
3 16 22 21
3 17 18 23
3 17 23 22
3 18 19 24
3 18 24 23
3 25 26 31
3 25 31 30
3 26 27 32
3 26 32 31
3 27 28 33
3 27 33 32
3 28 29 34
3 28 34 33
3 30 31 36
3 30 36 35
3 31 32 37
3 31 37 36
3 32 33 38
3 32 38 37
3 33 34 39
3 33 39 38
3 35 36 41
3 35 41 40
3 36 37 42
3 36 42 41
3 37 38 43
3 37 43 42
3 38 39 44
3 38 44 43
3 40 41 46
3 40 46 45
3 41 42 47
3 41 47 46
3 42 43 48
3 42 48 47
3 43 44 49
3 43 49 48
