ply
format ascii 1.0
element vertex 50
property float x
property float y
property float z
element face 64
property list uchar int vertex_indices
end_header
-0.17501801252365112305 -0.49992740154266357422 0
0.074981987476348876953 -0.49992740154266357422 0
0.32498198747634887695 -0.49992740154266357422 0
0.57498198747634887695 -0.49992740154266357422 0
0.82498198747634887695 -0.49992740154266357422 0
-0.17501801252365112305 -0.24992747604846954346 0
0.074981987476348876953 -0.24992747604846954346 0
0.32498198747634887695 -0.24992747604846954346 0
0.57498198747634887695 -0.24992747604846954346 0
0.82498198747634887695 -0.24992747604846954346 0
-0.17501801252365112305 7.2529481258243322372e-05 0
0.074981987476348876953 7.2529313911218196154e-05 0
0.32498198747634887695 7.2529146564193069935e-05 0
0.57498198747634887695 7.2528979217167943716e-05 0
0.82498198747634887695 7.2528811870142817497e-05 0
-0.17501801252365112305 0.25007253885269165039 0
0.074981987476348876953 0.25007253885269165039 0
0.32498198747634887695 0.25007253885269165039 0
0.57498198747634887695 0.25007253885269165039 0
0.82498198747634887695 0.25007253885269165039 0
-0.17501801252365112305 0.50007253885269165039 0
0.074981987476348876953 0.50007253885269165039 0
0.32498198747634887695 0.50007253885269165039 0
0.57498198747634887695 0.50007253885269165039 0
0.82498198747634887695 0.50007253885269165039 0
-0.4999790191650390625 -0.50008475780487060547 0
-0.24997885525226593018 -0.50008559226989746094 0
2.1385556465247645974e-05 -0.50008577108383178711 0
0.25002157688140869141 -0.50008559226989746094 0
0.50002175569534301758 -0.50008481740951538086 0
-0.49997863173484802246 -0.2500852048397064209 0
-0.24997854232788085938 -0.25008559226989746094 0
2.1474306777236051857e-05 -0.25008577108383178711 0
0.25002148747444152832 -0.25008565187454223633 0
0.50002151727676391602 -0.25008529424667358398 0
-0.49997854232788085938 -8.5376304923556745052e-05 0
-0.24997849762439727783 -8.563893061364069581e-05 0
2.1518007997656241059e-05 -8.5766689153388142586e-05 0
0.25002151727676391602 -8.5638945165555924177e-05 0
0.50002145767211914062 -8.5376334027387201786e-05 0
-0.49997851252555847168 0.24991472065448760986 0
-0.24997851252555847168 0.24991436302661895752 0
2.1474321329151280224e-05 0.24991421401500701904 0
0.25002145767211914062 0.24991439282894134521 0
0.50002139806747436523 0.24991481006145477295 0
-0.49997824430465698242 0.49991518259048461914 0
-0.24997842311859130859 0.49991440773010253906 0
2.1385581931099295616e-05 0.49991422891616821289 0
0.25002112984657287598 0.49991443753242492676 0
0.5000209808349609375 0.49991524219512939453 0
3 0 1 6
3 0 6 5
3 1 2 7
3 1 7 6
3 2 3 8
3 2 8 7
3 3 4 9
3 3 9 8
3 5 6 11
3 5 11 10
3 6 7 12
3 6 12 11
3 7 8 13
3 7 13 12
3 8 9 14
3 8 14 13
3 10 11 16
3 10 16 15
3 11 12 17
3 11 17 16
3 12 13 18
3 12 18 17
3 13 14 19
3 13 19 18
3 15 16 21
3 15 21 20
3 16 17 22
3 16 22 21
3 17 18 23
3 17 23 22
3 18 19 24
3 18 24 23
3 25 26 31
3 25 31 30
3 26 27 32
3 26 32 31
3 27 28 33
3 27 33 32
3 28 29 34
3 28 34 33
3 30 31 36
3 30 36 35
3 31 32 37
3 31 37 36
3 32 33 38
3 32 38 37
3 33 34 39
3 33 39 38
3 35 36 41
3 35 41 40
3 36 37 42
3 36 42 41
3 37 38 43
3 37 43 42
3 38 39 44
3 38 44 43
3 40 41 46
3 40 46 45
3 41 42 47
3 41 47 46
3 42 43 48
3 42 48 47
3 43 44 49
3 43 49 48
