ply
format ascii 1.0
element vertex 866
property float x
property float y
property float z
element face 1680
property list uchar int vertex_indices
end_header
-1.5486607551574707031 0.14148847758769989014 1.6383821964263916016
-1.5734397172927856445 -0.23662528395652770996 1.8165900707244873047
-1.5860456228256225586 -0.43812951445579528809 1.8706818819046020508
-1.605814814567565918 -0.57636344432830810547 1.8941056728363037109
-1.6348479986190795898 -0.67839264869689941406 1.8974193334579467773
-1.6727155447006225586 -0.75401276350021362305 1.8834822177886962891
-1.7170544862747192383 -0.80768322944641113281 1.8535773754119873047
-1.7582759857177734375 -0.83718448877334594727 1.8061516284942626953
-1.7588593959808349609 -0.81075251102447509766 1.7792240381240844727
-1.675574183464050293 -0.83636265993118286133 0.84814167022705078125
-1.6384006738662719727 -0.82952344417572021484 0.53654003143310546875
-1.6158717870712280273 -0.80271774530410766602 0.36595571041107177734
-1.6007547378540039062 -0.76199966669082641602 0.24452446401119232178
-1.5903949737548828125 -0.70550912618637084961 0.15348537266254425049
-1.5836929082870483398 -0.63129848241806030273 0.086169965565204620361
-1.5801562070846557617 -0.53620779514312744141 0.039575193077325820923
-1.5796506404876708984 -0.41279673576354980469 0.012163490056991577148
-1.5827497243881225586 -0.23363715410232543945 0.0028193695470690727234
-1.5953743457794189453 0.20018249750137329102 -0.003970644436776638031
-1.6023966073989868164 0.37955078482627868652 -0.0005685599171556532383
-1.6103001832962036133 0.50376355648040771484 0.022603582590818405151
-1.6202579736709594727 0.60024410486221313477 0.065807327628135681152
-1.6330687999725341797 0.67644673585891723633 0.13032622635364532471
-1.6498366594314575195 0.73560482263565063477 0.21897321939468383789
-1.6726655960083007812 0.77987658977508544922 0.33814060688018798828
-1.7065871953964233398 0.81175029277801513672 0.50598216056823730469
-1.7675162553787231445 0.82878029346466064453 0.81284534931182861328
-1.8992717266082763672 0.83337539434432983398 1.734021306037902832
-1.9030587673187255859 0.8594207763671875 1.7582017183303833008
-1.861178278923034668 0.83237153291702270508 1.807589411735534668
-1.8184171915054321289 0.78126037120819091797 1.8456977605819702148
-1.7821832895278930664 0.70641809701919555664 1.8691086769104003906
-1.753977656364440918 0.60413819551467895508 1.8760505914688110352
-1.7347174882888793945 0.46477967500686645508 1.8639819622039794922
-1.7239513397216796875 0.26103875041007995605 1.8241546154022216797
-1.6914401054382324219 -0.12716622650623321533 1.6716012954711914062
-1.3944088220596313477 0.088127881288528442383 1.6265137195587158203
-1.4310992956161499023 -0.26517888903617858887 1.7854562997817993164
-1.4472419023513793945 -0.46318387985229492188 1.8513597249984741211
-1.4686295986175537109 -0.59942966699600219727 1.8804113864898681641
-1.4944108724594116211 -0.70010203123092651367 1.8839186429977416992
-1.523896336555480957 -0.77698928117752075195 1.865944981575012207
-1.55783843994140625 -0.83394610881805419922 1.8295385837554931641
-1.5949608087539672852 -0.86382544040679931641 1.7798539400100708008
-1.6006942987442016602 -0.862720489501953125 1.7803242206573486328
-1.5304502248764038086 -0.853031158447265625 0.86452537775039672852
-1.4978594779968261719 -0.83947545289993286133 0.5501988530158996582
-1.4791988134384155273 -0.81044870615005493164 0.37631872296333312988
-1.4668281078338623047 -0.76710182428359985352 0.25353458523750305176
-1.458293914794921875 -0.70815229415893554688 0.16278831660747528076
-1.4526746273040771484 -0.63197511434555053711 0.096973478794097900391
-1.4497196674346923828 -0.53567868471145629883 0.052559632807970046997
-1.4495230913162231445 -0.41172704100608825684 0.027536576613783836365
-1.4527925252914428711 -0.23192682862281799316 0.020396675914525985718
-1.4654384851455688477 0.20579898357391357422 0.014581389725208282471
-1.4726369380950927734 0.38572517037391662598 0.015999354422092437744
-1.4805028438568115234 0.51040977239608764648 0.037327289581298828125
-1.4900704622268676758 0.60779744386672973633 0.079301178455352783203
-1.5019383430480957031 0.68525898456573486328 0.14352519810199737549
-1.5169889926910400391 0.74577689170837402344 0.23314869403839111328
-1.5370624065399169922 0.79141455888748168945 0.35497227311134338379
-1.5664752721786499023 0.82458454370498657227 0.52762329578399658203
-1.6193598508834838867 0.84602707624435424805 0.83806753158569335938
-1.7345384359359741211 0.8694667816162109375 1.7293561697006225586
-1.7379933595657348633 0.86876630783081054688 1.729592442512512207
-1.7026828527450561523 0.85559737682342529297 1.788586735725402832
-1.6706937551498413086 0.80335712432861328125 1.8322179317474365234
-1.6430326700210571289 0.72788387537002563477 1.8544732332229614258
-1.6185781955718994141 0.62716269493103027344 1.8550406694412231445
-1.5975635051727294922 0.48911464214324951172 1.8340102434158325195
-1.579781651496887207 0.28641173243522644043 1.7864780426025390625
-1.543605804443359375 -0.082588806748390197754 1.6582032442092895508
-1.2470954656600952148 0.051986917853355407715 1.6024265289306640625
-1.2875825166702270508 -0.30216160416603088379 1.7560873031616210938
-1.3078507184982299805 -0.49560540914535522461 1.8284990787506103516
-1.328900456428527832 -0.62975931167602539062 1.8625872135162353516
-1.3512119054794311523 -0.72985672950744628906 1.8674303293228149414
-1.3744047880172729492 -0.8067213892936706543 1.8483771085739135742
-1.3988389968872070312 -0.86383819580078125 1.80953216552734375
-1.422954559326171875 -0.89760261774063110352 1.7594696283340454102
-1.4264130592346191406 -0.8969504237174987793 1.7597584724426269531
-1.3843327760696411133 -0.88195019960403442383 0.87228631973266601562
-1.358065485954284668 -0.85893422365188598633 0.55778414011001586914
-1.3430124521255493164 -0.82442700862884521484 0.38315919041633605957
-1.3329577445983886719 -0.77736991643905639648 0.26050612330436706543
-1.3259004354476928711 -0.71551376581192016602 0.17068582773208618164
-1.3212043046951293945 -0.63696700334548950195 0.10641176998615264893
-1.3188076019287109375 -0.53871881961822509766 0.063945718109607696533
-1.3189606666564941406 -0.41303598880767822266 0.041075125336647033691
-1.3225207328796386719 -0.23118965327739715576 0.036107722669839859009
-1.3353824615478515625 0.21208779513835906982 0.031237842515110969543
-1.3425829410552978516 0.39397349953651428223 0.031266968697309494019
-1.3502821922302246094 0.52008283138275146484 0.051059365272521972656
-1.3594048023223876953 0.61882990598678588867 0.09190654754638671875
-1.3703628778457641602 0.69757211208343505859 0.155577048659324646
-1.3837914466857910156 0.75915765762329101562 0.24526084959506988525
-1.4011255502700805664 0.80561852455139160156 0.3677743077278137207
-1.4257547855377197266 0.83938616514205932617 0.5418459773063659668
-1.4690320491790771484 0.8619067072868347168 0.85361999273300170898
-1.5611276626586914062 0.90128672122955322266 1.7297989130020141602
-1.55707550048828125 0.90185827016830444336 1.7301086187362670898
-1.537917017936706543 0.87870842218399047852 1.786394953727722168
-1.516881108283996582 0.82738667726516723633 1.8335295915603637695
-1.4958635568618774414 0.75149834156036376953 1.855319976806640625
-1.4751629829406738281 0.65181440114974975586 1.8512601852416992188
-1.4547423124313354492 0.51657283306121826172 1.8225449323654174805
-1.4334183931350708008 0.31666600704193115234 1.7671881914138793945
-1.39452362060546875 -0.051644444465637207031 1.6435697078704833984
-1.1017229557037353516 0.020220715552568435669 1.5734659433364868164
-1.1427266597747802734 -0.33777830004692077637 1.7278144359588623047
-1.1639715433120727539 -0.52859795093536376953 1.8083339929580688477
-1.1838399171829223633 -0.6613362431526184082 1.8474410772323608398
-1.2030858993530273438 -0.76150149106979370117 1.8540918827056884766
-1.2215687036514282227 -0.83888512849807739258 1.834784388542175293
-1.2394014596939086914 -0.89681291580200195312 1.7947816848754882812
-1.2547168731689453125 -0.93048554658889770508 1.7419006824493408203
-1.256914973258972168 -0.93012803792953491211 1.7419382333755493164
-1.2353495359420776367 -0.90368866920471191406 0.87407374382019042969
-1.2175071239471435547 -0.87687945365905761719 0.56089454889297485352
-1.2063879966735839844 -0.83791005611419677734 0.38691693544387817383
-1.1986730098724365234 -0.78718394041061401367 0.26537394523620605469
-1.1931306123733520508 -0.72248643636703491211 0.17707288265228271484
-1.1894370317459106445 -0.64170449972152709961 0.11462416499853134155
-1.1876868009567260742 -0.54162037372589111328 0.074169844388961791992
-1.1882305145263671875 -0.41424500942230224609 0.053358804434537887573
-1.1920320987701416016 -0.23033340275287628174 0.050348401069641113281
-1.2050735950469970703 0.21811287105083465576 0.046175442636013031006
-1.2121862173080444336 0.40196835994720458984 0.044737678021192550659
-1.2195869684219360352 0.52954906225204467773 0.062966085970401763916
-1.2281137704849243164 0.62967437505722045898 0.10253846645355224609
-1.2380303144454956055 0.70967704057693481445 0.16539123654365539551
-1.2497440576553344727 0.77223241329193115234 0.25469994544982910156
-1.2642897367477416992 0.81925380229949951172 0.37715461850166320801
-1.2842023372650146484 0.85330176353454589844 0.55136454105377197266
-1.3179496526718139648 0.87629896402359008789 0.86329442262649536133
-1.3887128829956054688 0.92548763751983642578 1.7419486045837402344
-1.3844735622406005859 0.92608243227005004883 1.7423099279403686523
-1.3734124898910522461 0.90601944923400878906 1.8021709918975830078
-1.3595069646835327148 0.85232537984848022461 1.8479677438735961914
-1.3439228534698486328 0.77516657114028930664 1.8684610128402709961
-1.326758265495300293 0.67528337240219116211 1.8598700761795043945
-1.307834625244140625 0.54186683893203735352 1.8237221240997314453
-1.2852544784545898438 0.34394982457160949707 1.7609052658081054688
-1.2453039884567260742 -0.027464313432574272156 1.6371763944625854492
-0.95489776134490966797 -0.0056735351681709289551 1.5561884641647338867
-0.99477988481521606445 -0.36722910404205322266 1.7109209299087524414
-1.0153779983520507812 -0.55620163679122924805 1.7976882457733154297
-1.0332366228103637695 -0.68764925003051757812 1.8411314487457275391
-1.0494825839996337891 -0.78759294748306274414 1.8494874238967895508
-1.0642137527465820312 -0.86488693952560424805 1.8305475711822509766
-1.0775966644287109375 -0.92272424697875976562 1.790766596794128418
-1.0879384279251098633 -0.95769476890563964844 1.7387068271636962891
-1.0893179178237915039 -0.95748484134674072266 1.7386698722839355469
-1.0856586694717407227 -0.92156845331192016602 0.8729903101921081543
-1.075867772102355957 -0.88980537652969360352 0.56109321117401123047
-1.0689207315444946289 -0.84744942188262939453 0.3882770240306854248
-1.0637449026107788086 -0.793701171875 0.26820147037506103516
-1.0598909854888916016 -0.72656935453414916992 0.18167993426322937012
-1.0573481321334838867 -0.64394402503967285156 0.12123187631368637085
-1.0563511848449707031 -0.54246842861175537109 0.082886017858982086182
-1.0573326349258422852 -0.41392713785171508789 0.064145311713218688965
-1.0613293647766113281 -0.22865350544452667236 0.062986254692077636719
-1.074454188346862793 0.2231953740119934082 0.059414636343717575073
-1.0813866853713989258 0.40834411978721618652 0.056374669075012207031
-1.0883527994155883789 0.53697162866592407227 0.072871625423431396484
-1.0961277484893798828 0.63820832967758178711 0.11095696687698364258
-1.1048654317855834961 0.71933579444885253906 0.17276522517204284668
-1.1147770881652832031 0.78276211023330688477 0.26149880886077880859
-1.1265290975570678711 0.8300545811653137207 0.38370764255523681641
-1.1418985128402709961 0.86357080936431884766 0.55776959657669067383
-1.1669287681579589844 0.88591367006301879883 0.86943256855010986328
-1.2185035943984985352 0.94803464412689208984 1.7482788562774658203
-1.217924952507019043 0.94812220335006713867 1.7484042644500732422
-1.210244297981262207 0.93105524778366088867 1.8095433712005615234
-1.2006195783615112305 0.87732195854187011719 1.8570598363876342773
-1.1892496347427368164 0.79863107204437255859 1.8772304058074951172
-1.175459742546081543 0.69760549068450927734 1.8656885623931884766
-1.1585670709609985352 0.56501877307891845703 1.8224211931228637695
-1.1367877721786499023 0.36938357353210449219 1.7490825653076171875
-1.0981403589248657227 -0.0040164017118513584137 1.6205017566680908203
-0.80764615535736083984 -0.026506809517741203308 1.5505325794219970703
-0.84481519460678100586 -0.3905531466007232666 1.7041647434234619141
-0.86385333538055419922 -0.578662872314453125 1.7932320833206176758
-0.8794651031494140625 -0.70962464809417724609 1.8386052846908569336
-0.89312994480133056641 -0.81000387668609619141 1.8472734689712524414
-0.9051513671875 -0.88781899213790893555 1.8277240991592407227
-0.91601729393005371094 -0.94695061445236206055 1.7887016534805297852
-0.9251620173454284668 -0.98430055379867553711 1.7378624677658081055
-0.92520660161972045898 -0.98432165384292602539 1.7377874851226806641
-0.93608915805816650391 -0.93704503774642944336 0.86976110935211181641
-0.93367880582809448242 -0.89981931447982788086 0.55886113643646240234
-0.93075186014175415039 -0.85392230749130249023 0.38735431432723999023
-0.92820370197296142578 -0.79737657308578491211 0.26885071396827697754
-0.9261760711669921875 -0.72807210683822631836 0.18418002128601074219
-0.92490977048873901367 -0.64389574527740478516 0.1257991790771484375
-0.92475789785385131836 -0.54139173030853271484 0.089622765779495239258
-0.92622017860412597656 -0.41215756535530090332 0.072992585599422454834
-0.9303849339485168457 -0.22620366513729095459 0.073677547276020050049
-0.94350844621658325195 0.22737389802932739258 0.070765204727649688721
-0.95019096136093139648 0.41313686966896057129 0.06616125255823135376
-0.95660638809204101562 0.54235398769378662109 0.080869249999523162842
-0.96349954605102539062 0.64440000057220458984 0.11732624471187591553
-0.97095501422882080078 0.72651064395904541016 0.17790670692920684814
-0.97902631759643554688 0.79078233242034912109 0.26591569185256958008
-0.98804378509521484375 0.83822774887084960938 0.3878345191478729248
-0.99909549951553344727 0.87057816982269287109 0.56180059909820556641
-1.0161252021789550781 0.8899008631706237793 0.87324637174606323242
-1.0497946739196777344 0.95505553483963012695 1.7324314117431640625
-1.0521131753921508789 0.95499932765960693359 1.7327638864517211914
-1.0459297895431518555 0.94501614570617675781 1.7957874536514282227
-1.0392378568649291992 0.89602696895599365234 1.8488819599151611328
-1.0312117338180541992 0.81829392910003662109 1.8743379116058349609
-1.0203766822814941406 0.7162939906120300293 1.8651690483093261719
-1.0057200193405151367 0.58386468887329101562 1.8187555074691772461
-0.98622649908065795898 0.39155349135398864746 1.7341325283050537109
-0.95203232765197753906 0.018943220376968383789 1.5955718755722045898
-0.66215842962265014648 -0.047908969223499298096 1.5379366874694824219
-0.69462352991104125977 -0.41274812817573547363 1.6928694248199462891
-0.71089828014373779297 -0.59975171089172363281 1.7842179536819458008
-0.72425484657287597656 -0.73070025444030761719 1.8295528888702392578
-0.73601514101028442383 -0.83153128623962402344 1.8359444141387939453
-0.74627137184143066406 -0.90901321172714233398 1.8127961158752441406
-0.75559902191162109375 -0.96708482503890991211 1.7706072330474853516
-0.7647692561149597168 -1.0074180364608764648 1.7210022211074829102
-0.76323682069778442383 -1.0076795816421508789 1.7207276821136474609
-0.78718483448028564453 -0.95161896944046020508 0.86453622579574584961
-0.79126256704330444336 -0.90852826833724975586 0.55434465408325195312
-0.79212754964828491211 -0.85890716314315795898 0.38412073254585266113
-0.79220247268676757812 -0.7995624542236328125 0.26718279719352722168
-0.79207378625869750977 -0.72819077968597412109 0.18434581160545349121
-0.79216444492340087891 -0.64261132478713989258 0.12802000343799591064
-0.79291677474975585938 -0.53927046060562133789 0.094013772904872894287
-0.79488313198089599609 -0.40960019826889038086 0.079505883157253265381
-0.79919034242630004883 -0.22334869205951690674 0.082055822014808654785
-0.81225538253784179688 0.23101030290126800537 0.079939916729927062988
-0.81865334510803222656 0.41700503230094909668 0.073988787829875946045
-0.82444089651107788086 0.54653489589691162109 0.087023697793483734131
-0.83036315441131591797 0.64919739961624145508 0.12184154242277145386
-0.83647441864013671875 0.73223841190338134766 0.18107250332832336426
-0.84271287918090820312 0.79749655723571777344 0.26819261908531188965
-0.84912294149398803711 0.84535807371139526367 0.38972362875938415527
-0.856113433837890625 0.87655615806579589844 0.5637086033821105957
-0.865673065185546875 0.89283144474029541016 0.87529176473617553711
-0.88484936952590942383 0.95928782224655151367 1.712810516357421875
-0.88611698150634765625 0.95925623178482055664 1.7129737138748168945
-0.88189047574996948242 0.94697350263595581055 1.7770774364471435547
-0.8769118189811706543 0.90431517362594604492 1.835862278938293457
-0.87087327241897583008 0.82973742485046386719 1.8694193363189697266
-0.86248862743377685547 0.7276261448860168457 1.8673845529556274414
-0.85050106048583984375 0.59467363357543945312 1.8240855932235717773
-0.83360993862152099609 0.40470489859580993652 1.7352128028869628906
-0.80474066734313964844 0.034175973385572433472 1.5891290903091430664
-0.51937723159790039062 -0.070529311895370483398 1.5138226747512817383
-0.54496663808822631836 -0.43591567873954772949 1.6722912788391113281
-0.55713194608688354492 -0.62098842859268188477 1.7696413993835449219
-0.56806105375289916992 -0.75184625387191772461 1.8178688287734985352
-0.57849979400634765625 -0.85385471582412719727 1.8243553638458251953
-0.58781236410140991211 -0.93223321437835693359 1.7987198829650878906
-0.59602582454681396484 -0.98992484807968139648 1.7525477409362792969
-0.60366928577423095703 -1.0302852392196655273 1.6995388269424438477
-0.60406541824340820312 -1.0302873849868774414 1.699497222900390625
-0.63885396718978881836 -0.96527689695358276367 0.85732877254486083984
-0.64879626035690307617 -0.91635173559188842773 0.54775542020797729492
-0.65325123071670532227 -0.86302888393402099609 0.37868887186050415039
-0.65592157840728759766 -0.80098724365234375 0.26320910453796386719
-0.65772360563278198242 -0.72767138481140136719 0.18209947645664215088
-0.65921115875244140625 -0.64080250263214111328 0.12772856652736663818
-0.66089111566543579102 -0.53673118352890014648 0.095810912549495697021
-0.66335737705230712891 -0.40674242377281188965 0.083374425768852233887
-0.66777080297470092773 -0.22035641968250274658 0.087788119912147521973
-0.68074250221252441406 0.2343991398811340332 0.086636245250701904297
-0.68685746192932128906 0.42049834132194519043 0.079671315848827362061
-0.691986083984375 0.55024492740631103516 0.091283589601516723633
-0.69689005613327026367 0.6534633636474609375 0.12457402050495147705
-0.70162296295166015625 0.73749750852584838867 0.18241286277770996094
-0.70604968070983886719 0.80408674478530883789 0.2684771418571472168
-0.70999425649642944336 0.85317504405975341797 0.38941600918769836426
-0.71331572532653808594 0.88437730073928833008 0.56326723098754882812
-0.71551346778869628906 0.8968912959098815918 0.87576770782470703125
-0.7229468226432800293 0.96504288911819458008 1.7136774063110351562
-0.72176378965377807617 0.96510136127471923828 1.713843226432800293
-0.71864366531372070312 0.9489288330078125 1.7767604589462280273
-0.71463298797607421875 0.90685164928436279297 1.8361856937408447266
-0.7097873687744140625 0.83431136608123779297 1.8741574287414550781
-0.70340305566787719727 0.73252111673355102539 1.8778059482574462891
-0.69451296329498291016 0.59879273176193237305 1.8398324251174926758
-0.68163955211639404297 0.40819174051284790039 1.7552559375762939453
-0.65937727689743041992 0.037469264119863510132 1.6111398935317993164
-0.37560477852821350098 -0.085996776819229125977 1.5005204677581787109
-0.39426830410957336426 -0.45423802733421325684 1.6571658849716186523
-0.40242585539817810059 -0.63811957836151123047 1.7588596343994140625
-0.41037487983703613281 -0.76721900701522827148 1.8128312826156616211
-0.41918089985847473145 -0.86877673864364624023 1.8240369558334350586
-0.42759880423545837402 -0.94730025529861450195 1.8001694679260253906
-0.43469139933586120605 -1.0032172203063964844 1.75264739990234375
-0.44037306308746337891 -1.0394911766052246094 1.6974177360534667969
-0.4442997276782989502 -1.0394525527954101562 1.6971186399459838867
-0.49059131741523742676 -0.97291409969329833984 0.84900009632110595703
-0.50626456737518310547 -0.92139410972595214844 0.53968578577041625977
-0.51425653696060180664 -0.86560153961181640625 0.37143361568450927734
-0.51951456069946289062 -0.80148899555206298828 0.25712388753890991211
-0.52326208353042602539 -0.72659188508987426758 0.17748855054378509521
-0.52615940570831298828 -0.63864892721176147461 0.12484919279813766479
-0.52876335382461547852 -0.53397852182388305664 0.094834916293621063232
-0.53170490264892578125 -0.40376043319702148438 0.08434069901704788208
-0.53618025779724121094 -0.21732538938522338867 0.09057296067476272583
-0.5490385890007019043 0.23767653107643127441 0.090563714504241943359
-0.55490171909332275391 0.42386075854301452637 0.082991056144237518311
-0.55938410758972167969 0.55379760265350341797 0.093534991145133972168
-0.56326258182525634766 0.6575374603271484375 0.12553714215755462646
-0.56660217046737670898 0.7426013946533203125 0.18207620084285736084
-0.56922984123229980469 0.81082075834274291992 0.26702657341957092285
-0.57082819938659667969 0.86211293935775756836 0.38720855116844177246
-0.57085943222045898438 0.8958002924919128418 0.56080222129821777344
-0.56746321916580200195 0.91009944677352905273 0.87361955642700195312
-0.5613206028938293457 0.97525644302368164062 1.732069849967956543
-0.55692243576049804688 0.97552824020385742188 1.7325806617736816406
-0.55469846725463867188 0.94729661941528320312 1.788827061653137207
-0.55149501562118530273 0.90423262119293212891 1.8452790975570678711
-0.54748427867889404297 0.83375316858291625977 1.8830131292343139648
-0.54273712635040283203 0.73394578695297241211 1.8886891603469848633
-0.53688293695449829102 0.60103243589401245117 1.8539146184921264648
-0.52890020608901977539 0.40935668349266052246 1.7751262187957763672
-0.51467239856719970703 0.036313079297542572021 1.6381114721298217773
-0.23074373602867126465 -0.088572919368743896484 1.5148885250091552734
-0.24143390357494354248 -0.46166744828224182129 1.6608273983001708984
-0.24582523107528686523 -0.64773082733154296875 1.75787353515625
-0.25046819448471069336 -0.77520501613616943359 1.8146510124206542969
-0.25701856613159179688 -0.8752409815788269043 1.8317648172378540039
-0.26450082659721374512 -0.95404040813446044922 1.812834620475769043
-0.27123096585273742676 -1.0097419023513793945 1.7669398784637451172
-0.27545771002769470215 -1.0411102771759033203 1.7099875211715698242
-0.28071326017379760742 -1.0410659313201904297 1.7095688581466674805
-0.3423760533332824707 -0.9720007777214050293 0.83995449542999267578
-0.36371257901191711426 -0.9215844273567199707 0.53070122003555297852
-0.37523373961448669434 -0.86554378271102905273 0.36279699206352233887
-0.3830814659595489502 -0.80056142807006835938 0.24920195341110229492
-0.38877958059310913086 -0.7247397303581237793 0.17063419520854949951
-0.39308696985244750977 -0.63608717918395996094 0.11937076598405838013
-0.39660358428955078125 -0.53101408481597900391 0.090965315699577331543
-0.39999440312385559082 -0.40067633986473083496 0.082199320197105407715
-0.4044927060604095459 -0.21426889300346374512 0.090145550668239593506
-0.41722521185874938965 0.24088226258754730225 0.091446042060852050781
-0.42287358641624450684 0.4271329045295715332 0.083701007068157196045
-0.42673942446708679199 0.55719459056854248047 0.093599840998649597168
-0.42960312962532043457 0.66131156682968139648 0.12466318905353546143
-0.4315363466739654541 0.74719411134719848633 0.18013836443424224854
-0.43234017491340637207 0.81684094667434692383 0.26407140493392944336
-0.43159541487693786621 0.87032711505889892578 0.3834374547004699707
-0.42846331000328063965 0.90719872713088989258 0.55656605958938598633
-0.41973960399627685547 0.92565828561782836914 0.86947023868560791016
-0.39846771955490112305 0.98864305019378662109 1.7437559366226196289
-0.39620912075042724609 0.98881953954696655273 1.7439345121383666992
-0.39223328232765197754 0.95756119489669799805 1.799008488655090332
-0.38859027624130249023 0.90936183929443359375 1.8506997823715209961
-0.38487476110458374023 0.83789092302322387695 1.8856641054153442383
-0.38147297501564025879 0.73839068412780761719 1.8905845880508422852
-0.37856540083885192871 0.60560631752014160156 1.8563489913940429688
-0.37522140145301818848 0.41329610347747802734 1.7793596982955932617
-0.3681087493896484375 0.038293950259685516357 1.6466195583343505859
-0.086389563977718353271 -0.086115270853042602539 1.5365366935729980469
-0.08899332582950592041 -0.46223413944244384766 1.6723097562789916992
-0.089083246886730194092 -0.65192818641662597656 1.7593979835510253906
-0.090263098478317260742 -0.77984166145324707031 1.8133486509323120117
-0.093862265348434448242 -0.87924391031265258789 1.8325458765029907227
-0.099846981465816497803 -0.95877969264984130859 1.8175055980682373047
-0.10707376152276992798 -1.015407562255859375 1.7734237909317016602
-0.11351291090250015259 -1.0438729524612426758 1.7157652378082275391
-0.11557648330926895142 -1.0438421964645385742 1.7156703472137451172
-0.19409643113613128662 -0.96836465597152709961 0.82919150590896606445
-0.22129669785499572754 -0.91846829652786254883 0.52043801546096801758
-0.23628202080726623535 -0.86320382356643676758 0.35272550582885742188
-0.24669028818607330322 -0.79828923940658569336 0.23948723077774047852
-0.25432750582695007324 -0.72215974330902099609 0.16157512366771697998
-0.26004135608673095703 -0.63315558433532714844 0.11128554493188858032
-0.26446840167045593262 -0.52787047624588012695 0.084132075309753417969
-0.26830017566680908203 -0.39750677347183227539 0.076813884079456329346
-0.27280122041702270508 -0.21118456125259399414 0.08630275726318359375
-0.28539919853210449219 0.24403530359268188477 0.089042305946350097656
-0.29085507988929748535 0.43033033609390258789 0.08153609931468963623
-0.29412379860877990723 0.56044012308120727539 0.091212578117847442627
-0.29598012566566467285 0.66475331783294677734 0.12171410024166107178
-0.29649448394775390625 0.75115287303924560547 0.17641943693161010742
-0.29543915390968322754 0.82178443670272827148 0.2595310509204864502
-0.29229718446731567383 0.87684774398803710938 0.37816357612609863281
-0.28593611717224121094 0.91617107391357421875 0.55074268579483032227
-0.27191841602325439453 0.93894296884536743164 0.86336332559585571289
-0.23607428371906280518 1.0048315525054931641 1.7387843132019042969
-0.23583850264549255371 1.0048311948776245117 1.7388653755187988281
-0.23113305866718292236 0.97516673803329467773 1.7973287105560302734
-0.22683429718017578125 0.92161321640014648438 1.8467280864715576172
-0.22315396368503570557 0.84655582904815673828 1.8783746957778930664
-0.22088278830051422119 0.74551576375961303711 1.8821569681167602539
-0.22064328193664550781 0.61145097017288208008 1.8488930463790893555
-0.22174628078937530518 0.41801524162292480469 1.7731148004531860352
-0.22160653769969940186 0.041982103139162063599 1.6421096324920654297
0.058058746159076690674 -0.088882312178611755371 1.5310871601104736328
0.062287300825119018555 -0.46475359797477722168 1.6663202047348022461
0.066051997244358062744 -0.65615010261535644531 1.7487376928329467773
0.067952983081340789795 -0.78589981794357299805 1.7981212139129638672
0.067107215523719787598 -0.88624602556228637695 1.8149935007095336914
0.062988638877868652344 -0.96682876348495483398 1.80034637451171875
0.055606022477149963379 -1.0247457027435302734 1.7564177513122558594
0.046916492283344268799 -1.0494127273559570312 1.6965932846069335938
0.047927107661962509155 -1.0494650602340698242 1.6963275671005249023
-0.045908536761999130249 -0.96705734729766845703 0.8155714869499206543
-0.079070977866649627686 -0.91528606414794921875 0.50790607929229736328
-0.097491368651390075684 -0.86010730266571044922 0.34065735340118408203
-0.11041784286499023438 -0.79537236690521240234 0.22772476077079772949
-0.11997053027153015137 -0.71920180320739746094 0.1502224653959274292
-0.1270863264799118042 -0.63004732131958007812 0.1005717739462852478
-0.13243268430233001709 -0.5246537327766418457 0.074317365884780883789
-0.13671594858169555664 -0.39429831504821777344 0.068127565085887908936
-0.1412194371223449707 -0.20807389914989471436 0.078920260071754455566
-0.15367665886878967285 0.24716466665267944336 0.083179362118244171143
-0.15894284844398498535 0.43349969387054443359 0.076280772686004638672
-0.16161291301250457764 0.56360954046249389648 0.086129978299140930176
-0.16245405375957489014 0.66797924041748046875 0.11642791330814361572
-0.16153261065483093262 0.75464922189712524414 0.17064145207405090332
-0.15858927369117736816 0.82589507102966308594 0.25311926007270812988
-0.15300521254539489746 0.88193947076797485352 0.37113511562347412109
-0.14333291351795196533 0.92256206274032592773 0.543209075927734375
-0.12372169643640518188 0.94721335172653198242 0.85544705390930175781
-0.073053680360317230225 1.0108331441879272461 1.7306394577026367188
-0.072593756020069122314 1.0108362436294555664 1.7307081222534179688
-0.069199286401271820068 0.98354822397232055664 1.7911509275436401367
-0.065351158380508422852 0.92843711376190185547 1.8399814367294311523
-0.062284637242555618286 0.85142207145690917969 1.8684226274490356445
-0.061256919056177139282 0.74986910820007324219 1.870190739631652832
-0.063357777893543243408 0.61529016494750976562 1.8381842374801635742
-0.06842673569917678833 0.42027252912521362305 1.7669014930725097656
-0.075234107673168182373 0.042968440800905227661 1.6405475139617919922
0.19818751513957977295 -0.097284369170665740967 1.4964375495910644531
0.21114881336688995361 -0.47137039899826049805 1.6372951269149780273
0.21991702914237976074 -0.66161745786666870117 1.7231394052505493164
0.22476880252361297607 -0.79228252172470092773 1.7711265087127685547
0.22589959204196929932 -0.89354890584945678711 1.7854275703430175781
0.22326314449310302734 -0.9746964573860168457 1.7698150873184204102
0.2168989032506942749 -1.0350072383880615234 1.7272909879684448242
0.20837458968162536621 -1.0577929019927978516 1.6661942005157470703
0.20990894734859466553 -1.0578715801239013672 1.6658563613891601562
0.10210666060447692871 -0.96893382072448730469 0.79878211021423339844
0.062942780554294586182 -0.91355484724044799805 0.49261903762817382812
0.04107854887843132019 -0.85732758045196533203 0.32616165280342102051
0.025649651885032653809 -0.79238557815551757812 0.21367473900318145752
0.01419588923454284668 -0.71615618467330932617 0.13650368154048919678
0.0056769172661006450653 -0.62691730260848999023 0.087252333760261535645
-0.00060512119671329855919 -0.52144771814346313477 0.0615693703293800354
-0.0053607937879860401154 -0.39108556509017944336 0.056156810373067855835
-0.0098788496106863021851 -0.20493023097515106201 0.067943871021270751953
-0.022190792486071586609 0.2503064274787902832 0.073753364384174346924
-0.02725937962532043457 0.43670180439949035645 0.067781969904899597168
-0.02931378781795501709 0.56680810451507568359 0.078166931867599487305
-0.029115205630660057068 0.67116689682006835938 0.10859540104866027832
-0.026728214696049690247 0.75797885656356811523 0.16256310045719146729
-0.021866818889975547791 0.82970523834228515625 0.24453310668468475342
-0.013817748986184597015 0.88663542270660400391 0.36196145415306091309
-0.00081736221909523010254 0.92833733558654785156 0.53352665901184082031
0.024512507021427154541 0.95391792058944702148 0.84533685445785522461
0.091212652623653411865 1.0138887166976928711 1.7295641899108886719
0.091371037065982818604 1.0138810873031616211 1.7296584844589233398
0.093846797943115234375 0.98644804954528808594 1.7892322540283203125
0.097062923014163970947 0.93048310279846191406 1.8362854719161987305
0.098922424018383026123 0.85241854190826416016 1.8606176376342773438
0.097997583448886871338 0.75117135047912597656 1.8575176000595092773
0.093124337494373321533 0.61750626564025878906 1.8230190277099609375
0.084279358386993408203 0.4217808842658996582 1.7548292875289916992
0.070893727242946624756 0.042765069752931594849 1.6348376274108886719
0.33758890628814697266 -0.10368568450212478638 1.4587218761444091797
0.35907372832298278809 -0.47678774595260620117 1.6023830175399780273
0.37327483296394348145 -0.66469293832778930664 1.6925128698348999023
0.381443023681640625 -0.7942377924919128418 1.7416875362396240234
0.38440045714378356934 -0.89476096630096435547 1.7550176382064819336
0.38289538025856018066 -0.97470682859420776367 1.7387419939041137695
0.37780153751373291016 -1.0355623960494995117 1.6988720893859863281
0.37123209238052368164 -1.0678640604019165039 1.6421016454696655273
0.37208867073059082031 -1.0678981542587280273 1.6418744325637817383
0.24987685680389404297 -0.97252047061920166016 0.77921521663665771484
0.20472064614295959473 -0.91285079717636108398 0.47464454174041748047
0.17937800288200378418 -0.85488367080688476562 0.30918109416961669922
0.16143150627613067627 -0.78939455747604370117 0.19727961719036102295
0.14806796610355377197 -0.71304607391357421875 0.12042423337697982788
0.1381305307149887085 -0.6237652897834777832 0.071387961506843566895
0.13088858127593994141 -0.51824647188186645508 0.045964498072862625122
0.12563346326351165771 -0.38785716891288757324 0.04094989970326423645
0.1210805848240852356 -0.2017304152250289917 0.053360313177108764648
0.10891772806644439697 0.25348910689353942871 0.06071005016565322876
0.10405535995960235596 0.43996629118919372559 0.055931866168975830078
0.10264002531766891479 0.57007777690887451172 0.067188374698162078857
0.10391701757907867432 0.67438167333602905273 0.098081998527050018311
0.10782149434089660645 0.76124107837677001953 0.15206609666347503662
0.11465649306774139404 0.8333962559700012207 0.23365151882171630859
0.12520955502986907959 0.89141350984573364258 0.35044765472412109375
0.14153833687305450439 0.93483340740203857422 0.52135109901428222656
0.17258687317371368408 0.961879730224609375 0.8324692845344543457
0.25552219152450561523 1.0162829160690307617 1.7193373441696166992
0.25306388735771179199 1.0162056684494018555 1.719879150390625
0.2570749819278717041 0.98734450340270996094 1.7776695489883422852
0.25991976261138916016 0.93111628293991088867 1.822949528694152832
0.25988900661468505859 0.85275930166244506836 1.8440675735473632812
0.25589859485626220703 0.75213462114334106445 1.8356622457504272461
0.24703174829483032227 0.62026268243789672852 1.7949965000152587891
0.23322017490863800049 0.42610153555870056152 1.7220607995986938477
0.21299114823341369629 0.046725202351808547974 1.6020739078521728516
0.47931084036827087402 -0.1045464053750038147 1.4299356937408447266
0.50822716951370239258 -0.47744324803352355957 1.571896672248840332
0.52692252397537231445 -0.66415727138519287109 1.6619246006011962891
0.53833138942718505859 -0.79232740402221679688 1.711270451545715332
0.54314351081848144531 -0.89157944917678833008 1.7236963510513305664
0.54252916574478149414 -0.96968746185302734375 1.7063623666763305664
0.53807830810546875 -1.0293498039245605469 1.6679232120513916016
0.53220087289810180664 -1.068646550178527832 1.6179128885269165039
0.53451633453369140625 -1.0687161684036254883 1.6173111200332641602
0.39749577641487121582 -0.97353750467300415039 0.75747829675674438477
0.3462568819522857666 -0.91135209798812866211 0.4543971717357635498
0.31737411022186279297 -0.85199046134948730469 0.2899297177791595459
0.29686707258224487305 -0.78604322671890258789 0.17863246798515319824
0.2815590202808380127 -0.70967793464660644531 0.10203435271978378296
0.27016839385032653809 -0.62046867609024047852 0.05302664637565612793
0.26192948222160339355 -0.51497274637222290039 0.02755046449601650238
0.2561385035514831543 -0.38456383347511291504 0.022538470104336738586
0.25152099132537841797 -0.19843944907188415527 0.035167656838893890381
0.23951384425163269043 0.25672537088394165039 0.04402497410774230957
0.23486690223217010498 0.44327220320701599121 0.040655769407749176025
0.23411913216114044189 0.57335835695266723633 0.053097974509000778198
0.23652587831020355225 0.67750734090805053711 0.084815546870231628418
0.24202345311641693115 0.76421678066253662109 0.1391534954309463501
0.25092643499374389648 0.83654934167861938477 0.22058869898319244385
0.2640819251537322998 0.89557754993438720703 0.33679321408271789551
0.28378543257713317871 0.94137912988662719727 0.5068257451057434082
0.32043334841728210449 0.97190624475479125977 0.81687527894973754883
0.41726922988891601562 1.0211777687072753906 1.6845227479934692383
0.41171729564666748047 1.0209412574768066406 1.6860136985778808594
0.41797775030136108398 0.98857194185256958008 1.7421324253082275391
0.42102599143981933594 0.93272864818572998047 1.7879909276962280273
0.41953644156455993652 0.85450875759124755859 1.8098583221435546875
0.41256844997406005859 0.75374656915664672852 1.8002661466598510742
0.39921554923057556152 0.62289136648178100586 1.7547719478607177734
0.37823820114135742188 0.43206936120986938477 1.6717408895492553711
0.34723320603370666504 0.054988417774438858032 1.5429347753524780273
0.62005686759948730469 -0.10447873175144195557 1.3961465358734130859
0.65662652254104614258 -0.47664085030555725098 1.5374975204467773438
0.67949938774108886719 -0.66337066888809204102 1.6264817714691162109
0.69377171993255615234 -0.7919470667839050293 1.6746561527252197266
0.70037490129470825195 -0.89172482490539550781 1.6854776144027709961
0.70069068670272827148 -0.96989834308624267578 1.6659214496612548828
0.69670283794403076172 -1.0295579433441162109 1.6263962984085083008
0.69012683629989624023 -1.0721338987350463867 1.5787905454635620117
0.69463485479354858398 -1.0723626613616943359 1.577449798583984375
0.5449962615966796875 -0.97314286231994628906 0.73341715335845947266
0.48754215240478515625 -0.90859496593475341797 0.43200638890266418457
0.4550355076789855957 -0.84826642274856567383 0.26851010322570800781
0.43190157413482666016 -0.78212332725524902344 0.15775421261787414551
0.41459134221076965332 -0.70593017339706420898 0.081301406025886535645
0.40169391036033630371 -0.6169388890266418457 0.032123263925313949585
0.39240702986717224121 -0.5115572810173034668 0.0062931044958531856537
0.38603278994560241699 -0.38115322589874267578 0.00090385711519047617912
0.38131162524223327637 -0.19501996040344238281 0.013358755037188529968
0.36947706341743469238 0.26001924276351928711 0.023693557828664779663
0.36506563425064086914 0.44657728075981140137 0.021910822018980979919
0.36502531170845031738 0.57654464244842529297 0.035828679800033569336
0.36862459778785705566 0.68034660816192626953 0.068744868040084838867
0.37580379843711853027 0.76654410362243652344 0.12385179847478866577
0.3868916630744934082 0.83845275640487670898 0.20553298294544219971
0.40280255675315856934 0.89765924215316772461 0.32143566012382507324
0.42607939243316650391 0.94510030746459960938 0.49066141247749328613
0.46816584467887878418 0.97989195585250854492 0.79934418201446533203
0.57671439647674560547 1.0277986526489257812 1.6421103477478027344
0.5720679163932800293 1.0276055335998535156 1.6433466672897338867
0.57691740989685058594 0.98992919921875 1.6973930597305297852
0.5795771479606628418 0.93289488554000854492 1.743613123893737793
0.57737880945205688477 0.85430824756622314453 1.7679997682571411133
0.56859356164932250977 0.75246542692184448242 1.7611525058746337891
0.55190372467041015625 0.62096560001373291016 1.7158994674682617188
0.52517312765121459961 0.43264281749725341797 1.6267473697662353516
0.48268586397171020508 0.059686671942472457886 1.4878064393997192383
0.75772207975387573242 -0.10511461645364761353 1.3507618904113769531
0.80280345678329467773 -0.47663226723670959473 1.4936616420745849609
0.83026880025863647461 -0.6635004878044128418 1.5847086906433105469
0.84742343425750732422 -0.79335778951644897461 1.6332947015762329102
0.85602664947509765625 -0.89480149745941162109 1.6439116001129150391
0.85774701833724975586 -0.97452980279922485352 1.6228461265563964844
0.85480123758316040039 -1.03462982177734375 1.5802154541015625
0.84965419769287109375 -1.0796616077423095703 1.5321053266525268555
0.85253930091857910156 -1.0798027515411376953 1.5312535762786865234
0.69221091270446777344 -0.9752871394157409668 0.7065632939338684082
0.62848877906799316406 -0.90613389015197753906 0.40709251165390014648
0.59226369857788085938 -0.84425055980682373047 0.24467761814594268799
0.56642258167266845703 -0.77784514427185058594 0.13443244993686676025
0.5470415949821472168 -0.70187705755233764648 0.058019820600748062134
0.53257822990417480469 -0.61317658424377441406 0.0084957461804151535034
0.52219235897064208984 -0.50795799493789672852 -0.017941564321517944336
0.51518970727920532227 -0.37757274508476257324 -0.02402683161199092865
0.51032787561416625977 -0.19142913818359375 -0.012074708007276058197
0.49870190024375915527 0.26338082551956176758 -0.00026796828024089336395
0.49456480145454406738 0.44986441731452941895 -0.00031435812707059085369
0.49528235197067260742 0.5795904994010925293 0.015322922728955745697
0.50013792514801025391 0.68282651901245117188 0.049770731478929519653
0.50907838344573974609 0.76810395717620849609 0.1060492396354675293
0.52245438098907470703 0.8388646245002746582 0.18842056393623352051
0.54126667976379394531 0.89700692892074584961 0.30446422100067138672
0.5683574676513671875 0.9440600275993347168 0.47323006391525268555
0.61635577678680419922 0.98022866249084472656 0.78058397769927978516
0.73553031682968139648 1.0278480052947998047 1.613186955451965332
0.73437649011611938477 1.0278375148773193359 1.6134172677993774414
0.7369416356086730957 0.98593217134475708008 1.6656230688095092773
0.73783433437347412109 0.92590123414993286133 1.7093693017959594727
0.73440474271774291992 0.84653812646865844727 1.7335698604583740234
0.72420704364776611328 0.74420577287673950195 1.7288970947265625
0.70532047748565673828 0.61172276735305786133 1.6870499849319458008
0.67536747455596923828 0.42295444011688232422 1.6004915237426757812
0.62489455938339233398 0.052784115076065063477 1.459051966667175293
0.89818686246871948242 -0.098058022558689117432 1.3162180185317993164
0.949954986572265625 -0.47121402621269226074 1.4558720588684082031
0.98076921701431274414 -0.65929543972015380859 1.5481581687927246094
1.0009605884552001953 -0.78970968723297119141 1.5994833707809448242
1.0123008489608764648 -0.89194929599761962891 1.6134126186370849609
1.0164169073104858398 -0.97317826747894287109 1.5946805477142333984
1.0154383182525634766 -1.0333243608474731445 1.5508971214294433594
1.0124973058700561523 -1.0747491121292114258 1.4984059333801269531
1.0118012428283691406 -1.0748760700225830078 1.4984191656112670898
0.8391920924186706543 -0.97309482097625732422 0.67814832925796508789
0.76901787519454956055 -0.90231311321258544922 0.38007262349128723145
0.72891038656234741211 -0.83939230442047119141 0.21850657463073730469
0.70026218891143798828 -0.77292484045028686523 0.10859619826078414917
0.6787402033805847168 -0.69731700420379638672 0.032049559056758880615
0.66265982389450073242 -0.60900419950485229492 -0.018011583015322685242
0.65113949775695800781 -0.5040162205696105957 -0.045279197394847869873
0.64348137378692626953 -0.37369388341903686523 -0.05231207236647605896
0.63845711946487426758 -0.18758720159530639648 -0.041102007031440734863
0.6270987391471862793 0.26680907607078552246 -0.027802191674709320068
0.62329000234603881836 0.45311558246612548828 -0.025980690494179725647
0.62481135129928588867 0.58248716592788696289 -0.0084425471723079681396
0.63096636533737182617 0.68498563766479492188 0.027779001742601394653
0.6417147517204284668 0.76904863119125366211 0.085529007017612457275
0.65744382143020629883 0.8381443023681640625 0.16893891990184783936
0.67926877737045288086 0.89432042837142944336 0.2855078577995300293
0.71037966012954711914 0.93935477733612060547 0.45420372486114501953
0.76480573415756225586 0.97362697124481201172 0.76050531864166259766
0.89831483364105224609 1.0153473615646362305 1.6045356988906860352
0.89938896894454956055 1.0152057409286499023 1.6045773029327392578
0.89933937788009643555 0.97206139564514160156 1.6532998085021972656
0.89776706695556640625 0.91028511524200439453 1.6919540166854858398
0.89218747615814208984 0.83080470561981201172 1.7118194103240966797
0.88000082969665527344 0.72935843467712402344 1.7050076723098754883
0.85892444849014282227 0.59723353385925292969 1.6640009880065917969
0.82630366086959838867 0.40718704462051391602 1.5822066068649291992
0.76942861080169677734 0.03784658387303352356 1.4438004493713378906
1.0425856113433837891 -0.075970657169818878174 1.3170909881591796875
1.1001476049423217773 -0.45217621326446533203 1.4440453052520751953
1.132607579231262207 -0.64386165142059326172 1.5289655923843383789
1.1551996469497680664 -0.77430075407028198242 1.580380558967590332
1.1696689128875732422 -0.87544423341751098633 1.597881317138671875
1.1772457361221313477 -0.95646327733993530273 1.5835050344467163086
1.1795879602432250977 -1.0166131258010864258 1.5425786972045898438
1.1784766912460327148 -1.04883575439453125 1.4869289398193359375
1.1760146617889404297 -1.0492576360702514648 1.4870208501815795898
0.98591619729995727539 -0.95753705501556396484 0.65010309219360351562
0.90905970335006713867 -0.89228045940399169922 0.35234558582305908203
0.86485832929611206055 -0.83134734630584716797 0.19074951112270355225
0.83328652381896972656 -0.76608175039291381836 0.08061574399471282959
0.80955713987350463867 -0.69143158197402954102 0.0035501976963132619858
0.79182046651840209961 -0.60383617877960205078 -0.047345090657472610474
0.77914434671401977539 -0.49929457902908325195 -0.075694151222705841064
0.7708180546760559082 -0.36920756101608276367 -0.083890706300735473633
0.76562106609344482422 -0.1833273768424987793 -0.07358656078577041626
0.75460761785507202148 0.2702198326587677002 -0.058770250529050827026
0.75118768215179443359 0.45616647601127624512 -0.054965425282716751099
0.75353646278381347656 0.5850391387939453125 -0.035406053066253662109
0.76099312305450439453 0.68665325641632080078 0.0027340787928551435471
0.77354502677917480469 0.76931303739547729492 0.062134772539138793945
0.79164147377014160156 0.836467742919921875 0.14679175615310668945
0.81656295061111450195 0.89027315378189086914 0.26411062479019165039
0.85195529460906982422 0.93265551328659057617 0.4329605400562286377
0.91347306966781616211 0.96360099315643310547 0.73826766014099121094
1.0637837648391723633 0.99846857786178588867 1.5933133363723754883
1.0637698173522949219 0.99844402074813842773 1.5934162139892578125
1.0628132820129394531 0.9577592015266418457 1.643370509147644043
1.0582342147827148438 0.89395195245742797852 1.6778101921081542969
1.0493364334106445312 0.81360411643981933594 1.6925139427185058594
1.0340732336044311523 0.71261465549468994141 1.6813869476318359375
1.0103286504745483398 0.5810616612434387207 1.638116002082824707
0.97530788183212280273 0.39073327183723449707 1.5567964315414428711
0.91322541236877441406 0.022831082344055175781 1.4185228347778320312
1.1857131719589233398 -0.045083925127983093262 1.3414314985275268555
1.2486965656280517578 -0.42207840085029602051 1.45389556884765625
1.2830309867858886719 -0.61800217628479003906 1.5234905481338500977
1.3075940608978271484 -0.74949413537979125977 1.5680702924728393555
1.32525634765625 -0.84964239597320556641 1.5839606523513793945
1.3367971181869506836 -0.92984205484390258789 1.5702691078186035156
1.3429286479949951172 -0.99004423618316650391 1.5305092334747314453
1.3437267541885375977 -1.0210725069046020508 1.4746677875518798828
1.3438463211059570312 -1.0210576057434082031 1.4745295047760009766
1.1320139169692993164 -0.93269610404968261719 0.62165778875350952148
1.0481960773468017578 -0.87500780820846557617 0.32409250736236572266
0.99986928701400756836 -0.81861442327499389648 0.16179671883583068848
0.96534818410873413086 -0.75606054067611694336 0.050819043070077896118
0.93940186500549316406 -0.68318653106689453125 -0.027238454669713973999
0.92000794410705566406 -0.5968030095100402832 -0.079318858683109283447
0.90617674589157104492 -0.49307522177696228027 -0.10900584608316421509
0.89718019962310791016 -0.36357146501541137695 -0.11854003369808197021
0.89180397987365722656 -0.17835165560245513916 -0.10923941433429718018
0.88122528791427612305 0.27335706353187561035 -0.092908017337322235107
0.87825876474380493164 0.45854178071022033691 -0.087021254003047943115
0.88143044710159301758 0.58662843704223632812 -0.065372772514820098877
0.89014041423797607422 0.6871235966682434082 -0.025249207392334938049
0.90442699193954467773 0.76815938949584960938 0.035887785255908966064
0.92483407258987426758 0.83312726020812988281 0.12189889699220657349
0.95287901163101196289 0.88430166244506835938 0.24006710946559906006
0.99282664060592651367 0.92378646135330200195 0.4091402590274810791
1.0624049901962280273 0.95104807615280151367 0.71349555253982543945
1.22823333740234375 0.9748325347900390625 1.5643186569213867188
1.2262269258499145508 0.97510278224945068359 1.5647640228271484375
1.2239412069320678711 0.93536478281021118164 1.6152356863021850586
1.2161946296691894531 0.87282514572143554688 1.6507556438446044922
1.2036104202270507812 0.79312902688980102539 1.6647393703460693359
1.1851392984390258789 0.69286763668060302734 1.6529918909072875977
1.1591870784759521484 0.56158900260925292969 1.6097143888473510742
1.1228488683700561523 0.37164586782455444336 1.5279844999313354492
1.0565930604934692383 0.0075404536910355091095 1.3859374523162841797
1.3303747177124023438 -0.013663847930729389191 1.356457829475402832
1.3950245380401611328 -0.38870841264724731445 1.46094512939453125
1.4297720193862915039 -0.58761030435562133789 1.5161619186401367188
1.4558724164962768555 -0.7208048701286315918 1.5498411655426025391
1.476443171501159668 -0.82014024257659912109 1.558981776237487793
1.4916083812713623047 -0.89795213937759399414 1.5410063266754150391
1.5011214017868041992 -0.95468980073928833008 1.4982057809829711914
1.5045022964477539062 -0.98267740011215209961 1.4410680532455444336
1.5083802938461303711 -0.98175716400146484375 1.4400230646133422852
1.2776398658752441406 -0.90373140573501586914 0.59108495712280273438
1.1860980987548828125 -0.85288673639297485352 0.29419267177581787109
1.1336114406585693359 -0.80150282382965087891 0.1312160789966583252
1.0962276458740234375 -0.74237513542175292969 0.019144648686051368713
1.0681612491607666016 -0.67183834314346313477 -0.060202594846487045288
1.0471895933151245117 -0.58711075782775878906 -0.11372566968202590942
1.0322540998458862305 -0.48461771011352539062 -0.14493915438652038574
1.0226103067398071289 -0.3561833500862121582 -0.15591551363468170166
1.0170608758926391602 -0.17231632769107818604 -0.14764241874217987061
1.007022857666015625 0.27586284279823303223 -0.12981151044368743896
1.0045927762985229492 0.45959126949310302734 -0.12174564599990844727
1.0085643529891967773 0.58639085292816162109 -0.09797713160514831543
1.0184323787689208984 0.68536245822906494141 -0.055872406810522079468
1.0343117713928222656 0.76441323757171630859 0.0070005492307245731354
1.0568717718124389648 0.8267892003059387207 0.094384633004665374756
1.087927699089050293 0.87479501962661743164 0.2134106755256652832
1.1325609683990478516 0.91092151403427124023 0.38265091180801391602
1.2110038995742797852 0.93403834104537963867 0.68630963563919067383
1.3947292566299438477 0.94844526052474975586 1.5340126752853393555
1.3920000791549682617 0.94887346029281616211 1.5345183610916137695
1.3833534717559814453 0.90572780370712280273 1.5823278427124023438
1.3712830543518066406 0.8447742462158203125 1.6201683282852172852
1.3549988269805908203 0.76626467704772949219 1.6370391845703125
1.3337320089340209961 0.66650295257568359375 1.6285184621810913086
1.3065659999847412109 0.53472828865051269531 1.589371800422668457
1.27086639404296875 0.34433332085609436035 1.5116419792175292969
1.2027428150177001953 -0.014360109344124794006 1.3665301799774169922
1.4773695468902587891 0.017885319888591766357 1.3559412956237792969
1.5411188602447509766 -0.35437345504760742188 1.4580969810485839844
1.5739635229110717773 -0.55575639009475708008 1.5032439231872558594
1.600815892219543457 -0.6913992762565612793 1.5263533592224121094
1.6242146492004394531 -0.79090130329132080078 1.5275989770889282227
1.6441295146942138672 -0.8669554591178894043 1.5048288106918334961
1.6595267057418823242 -0.91965854167938232422 1.4573291540145874023
1.669789433479309082 -0.94306570291519165039 1.3986459970474243164
1.6738524436950683594 -0.94209241867065429688 1.3975861072540283203
1.4227085113525390625 -0.87221574783325195312 0.5569826960563659668
1.322594761848449707 -0.82794529199600219727 0.26141694188117980957
1.2658598423004150391 -0.78124749660491943359 0.098312363028526306152
1.2257584333419799805 -0.72561174631118774414 -0.014625393785536289215
1.1957634687423706055 -0.65765237808227539062 -0.095249190926551818848
1.173379063606262207 -0.5748844146728515625 -0.15030170977115631104
1.1574456691741943359 -0.47397905588150024414 -0.18315748870372772217
1.1472010612487792969 -0.34705129265785217285 -0.19565272331237792969
1.1414995193481445312 -0.16520521044731140137 -0.18837505578994750977
1.1321218013763427734 0.27768152952194213867 -0.16900081932544708252
1.1303484439849853516 0.45925545692443847656 -0.15862381458282470703
1.1351001262664794922 0.58423662185668945312 -0.13270883262157440186
1.1460038423538208008 0.68123251199722290039 -0.088687509298324584961
1.1632775068283081055 0.75789284706115722656 -0.024216821417212486267
1.1877396106719970703 0.81721299886703491211 0.064341589808464050293
1.2215100526809692383 0.86119437217712402344 0.1839726567268371582
1.2704561948776245117 0.89228421449661254883 0.35301721096038818359
1.3581452369689941406 0.91092002391815185547 0.65603405237197875977
1.5652712583541870117 0.9113133549690246582 1.5170512199401855469
1.5609749555587768555 0.91222310066223144531 1.5175235271453857422
1.5429254770278930664 0.87004190683364868164 1.5638735294342041016
1.5238854885101318359 0.8100872039794921875 1.6014274358749389648
1.5029866695404052734 0.73284715414047241211 1.6206753253936767578
1.4789688587188720703 0.6334431767463684082 1.6160607337951660156
1.4514241218566894531 0.5005734562873840332 1.5825242996215820312
1.4181616306304931641 0.30843001604080200195 1.5115406513214111328
1.350421905517578125 -0.044677898287773132324 1.3641427755355834961
1.6251603364944458008 0.055137660354375839233 1.3597892522811889648
1.6870135068893432617 -0.31841561198234558105 1.4642685651779174805
1.7155977487564086914 -0.52254480123519897461 1.4997782707214355469
1.7421054840087890625 -0.66072750091552734375 1.5123140811920166016
1.7682919502258300781 -0.76060700416564941406 1.5053217411041259766
1.794068455696105957 -0.83472132682800292969 1.4780467748641967773
1.8201552629470825195 -0.88561671972274780273 1.4298559427261352539
1.8446362018585205078 -0.896518707275390625 1.3657486438751220703
1.8415939807891845703 -0.89734786748886108398 1.3660651445388793945
1.5660730600357055664 -0.84015315771102905273 0.51713037490844726562
1.4574779272079467773 -0.80246126651763916016 0.22412700951099395752
1.3966225385665893555 -0.76015949249267578125 0.062421962618827819824
1.354037165641784668 -0.70801788568496704102 -0.050463292747735977173
1.3223603963851928711 -0.64279723167419433594 -0.1319395899772644043
1.2987673282623291016 -0.56217694282531738281 -0.18844754993915557861
1.2819530963897705078 -0.46297100186347961426 -0.22309602797031402588
1.2711149454116821289 -0.33755043148994445801 -0.23738783597946166992
1.2652453184127807617 -0.15771527588367462158 -0.23120613396167755127
1.2566008567810058594 0.27949836850166320801 -0.2101214975118637085
1.2556143999099731445 0.45896026492118835449 -0.19724859297275543213
1.2611488103866577148 0.58211284875869750977 -0.16909109055995941162
1.2729921340942382812 0.67705506086349487305 -0.1232093125581741333
1.2915070056915283203 0.7512493133544921875 -0.057426363229751586914
1.3176804780960083008 0.80752557516098022461 0.031709782779216766357
1.3538993597030639648 0.84747517108917236328 0.15098364651203155518
1.4065492153167724609 0.87230819463729858398 0.31856936216354370117
1.5010305643081665039 0.87971210479736328125 0.61991941928863525391
1.7413651943206787109 0.87043929100036621094 1.5052335262298583984
1.7342760562896728516 0.87204092741012573242 1.5058623552322387695
1.7034239768981933594 0.83621960878372192383 1.5557371377944946289
1.6743050813674926758 0.77755725383758544922 1.5929028987884521484
1.6468703746795654297 0.7008196711540222168 1.6128695011138916016
1.6195393800735473633 0.60092771053314208984 1.6111989021301269531
1.5922924280166625977 0.46590393781661987305 1.5831201076507568359
1.5639921426773071289 0.269504547119140625 1.5173283815383911133
1.4990235567092895508 -0.081396497786045074463 1.3619856834411621094
1.7713415622711181641 0.1061220318078994751 1.3629590272903442383
1.8331092596054077148 -0.28851264715194702148 1.4881517887115478516
1.8541885614395141602 -0.49363857507705688477 1.5149632692337036133
1.8780461549758911133 -0.63270986080169677734 1.5167199373245239258
1.9069703817367553711 -0.73351037502288818359 1.5005072355270385742
1.9405386447906494141 -0.80599188804626464844 1.4684240818023681641
1.9774336814880371094 -0.85417896509170532227 1.4220502376556396484
2.0106990337371826172 -0.87796598672866821289 1.3654676675796508789
2.0031247138977050781 -0.85102939605712890625 1.3437029123306274414
1.7056937217712402344 -0.80778723955154418945 0.46806246042251586914
1.5906662940979003906 -0.77882456779479980469 0.1795917898416519165
1.5265105962753295898 -0.74112588167190551758 0.022842966020107269287
1.481792449951171875 -0.69286912679672241211 -0.087747760117053985596
1.4485775232315063477 -0.63080859184265136719 -0.16898456215858459473
1.4238386154174804688 -0.55256098508834838867 -0.22673013806343078613
1.4061394929885864258 -0.45480617880821228027 -0.26351118087768554688
1.3946365118026733398 -0.3300342261791229248 -0.28026068210601806641
1.3884472846984863281 -0.15080618858337402344 -0.27616211771965026855
1.3803459405899047852 0.28236433863639831543 -0.25331789255142211914
1.3800598382949829102 0.46115475893020629883 -0.23790113627910614014
1.3864014148712158203 0.5837166905403137207 -0.20724846422672271729
1.3992613554000854492 0.67740893363952636719 -0.15926916897296905518
1.4191590547561645508 0.74962246417999267578 -0.092251248657703399658
1.4472326040267944336 0.80344676971435546875 -0.003266909625381231308
1.4859724044799804688 0.84069198369979858398 0.11402331292629241943
1.5419532060623168945 0.86284548044204711914 0.27743795514106750488
1.6416311264038085938 0.86209857463836669922 0.57504212856292724609
1.8969763517379760742 0.81213265657424926758 1.4756063222885131836
1.9015374183654785156 0.83776837587356567383 1.5028650760650634766
1.8659855127334594727 0.80744159221649169922 1.5543007850646972656
1.8248054981231689453 0.75349819660186767578 1.5885946750640869141
1.7878098487854003906 0.67793458700180053711 1.6062830686569213867
1.7569180727005004883 0.57619822025299072266 1.6052848100662231445
1.7318950891494750977 0.43861535191535949707 1.5823179483413696289
1.7087900638580322266 0.23837676644325256348 1.5267667770385742188
1.6522612571716308594 -0.13594809174537658691 1.3484587669372558594
-1.7746677398681640625 -0.0041710156947374343872 0.96369451284408569336
1.7554242610931396484 0.023614274337887763977 0.64462071657180786133
3 0 37 36
3 0 1 37
3 1 38 37
3 1 2 38
3 2 39 38
3 2 3 39
3 3 40 39
3 3 4 40
3 4 41 40
3 4 5 41
3 5 42 41
3 5 6 42
3 6 43 42
3 6 7 43
3 7 44 43
3 7 8 44
3 8 45 44
3 8 9 45
3 9 46 45
3 9 10 46
3 10 47 46
3 10 11 47
3 11 48 47
3 11 12 48
3 12 49 48
3 12 13 49
3 13 50 49
3 13 14 50
3 14 51 50
3 14 15 51
3 15 52 51
3 15 16 52
3 16 53 52
3 16 17 53
3 17 54 53
3 17 18 54
3 18 55 54
3 18 19 55
3 19 56 55
3 19 20 56
3 20 57 56
3 20 21 57
3 21 58 57
3 21 22 58
3 22 59 58
3 22 23 59
3 23 60 59
3 23 24 60
3 24 61 60
3 24 25 61
3 25 62 61
3 25 26 62
3 26 63 62
3 26 27 63
3 27 64 63
3 27 28 64
3 28 65 64
3 28 29 65
3 29 66 65
3 29 30 66
3 30 67 66
3 30 31 67
3 31 68 67
3 31 32 68
3 32 69 68
3 32 33 69
3 33 70 69
3 33 34 70
3 34 71 70
3 34 35 71
3 36 73 72
3 36 37 73
3 37 74 73
3 37 38 74
3 38 75 74
3 38 39 75
3 39 76 75
3 39 40 76
3 40 77 76
3 40 41 77
3 41 78 77
3 41 42 78
3 42 79 78
3 42 43 79
3 43 80 79
3 43 44 80
3 44 81 80
3 44 45 81
3 45 82 81
3 45 46 82
3 46 83 82
3 46 47 83
3 47 84 83
3 47 48 84
3 48 85 84
3 48 49 85
3 49 86 85
3 49 50 86
3 50 87 86
3 50 51 87
3 51 88 87
3 51 52 88
3 52 89 88
3 52 53 89
3 53 90 89
3 53 54 90
3 54 91 90
3 54 55 91
3 55 92 91
3 55 56 92
3 56 93 92
3 56 57 93
3 57 94 93
3 57 58 94
3 58 95 94
3 58 59 95
3 59 96 95
3 59 60 96
3 60 97 96
3 60 61 97
3 61 98 97
3 61 62 98
3 62 99 98
3 62 63 99
3 63 100 99
3 63 64 100
3 64 101 100
3 64 65 101
3 65 102 101
3 65 66 102
3 66 103 102
3 66 67 103
3 67 104 103
3 67 68 104
3 68 105 104
3 68 69 105
3 69 106 105
3 69 70 106
3 70 107 106
3 70 71 107
3 72 109 108
3 72 73 109
3 73 110 109
3 73 74 110
3 74 111 110
3 74 75 111
3 75 112 111
3 75 76 112
3 76 113 112
3 76 77 113
3 77 114 113
3 77 78 114
3 78 115 114
3 78 79 115
3 79 116 115
3 79 80 116
3 80 117 116
3 80 81 117
3 81 118 117
3 81 82 118
3 82 119 118
3 82 83 119
3 83 120 119
3 83 84 120
3 84 121 120
3 84 85 121
3 85 122 121
3 85 86 122
3 86 123 122
3 86 87 123
3 87 124 123
3 87 88 124
3 88 125 124
3 88 89 125
3 89 126 125
3 89 90 126
3 90 127 126
3 90 91 127
3 91 128 127
3 91 92 128
3 92 129 128
3 92 93 129
3 93 130 129
3 93 94 130
3 94 131 130
3 94 95 131
3 95 132 131
3 95 96 132
3 96 133 132
3 96 97 133
3 97 134 133
3 97 98 134
3 98 135 134
3 98 99 135
3 99 136 135
3 99 100 136
3 100 137 136
3 100 101 137
3 101 138 137
3 101 102 138
3 102 139 138
3 102 103 139
3 103 140 139
3 103 104 140
3 104 141 140
3 104 105 141
3 105 142 141
3 105 106 142
3 106 143 142
3 106 107 143
3 108 145 144
3 108 109 145
3 109 146 145
3 109 110 146
3 110 147 146
3 110 111 147
3 111 148 147
3 111 112 148
3 112 149 148
3 112 113 149
3 113 150 149
3 113 114 150
3 114 151 150
3 114 115 151
3 115 152 151
3 115 116 152
3 116 153 152
3 116 117 153
3 117 154 153
3 117 118 154
3 118 155 154
3 118 119 155
3 119 156 155
3 119 120 156
3 120 157 156
3 120 121 157
3 121 158 157
3 121 122 158
3 122 159 158
3 122 123 159
3 123 160 159
3 123 124 160
3 124 161 160
3 124 125 161
3 125 162 161
3 125 126 162
3 126 163 162
3 126 127 163
3 127 164 163
3 127 128 164
3 128 165 164
3 128 129 165
3 129 166 165
3 129 130 166
3 130 167 166
3 130 131 167
3 131 168 167
3 131 132 168
3 132 169 168
3 132 133 169
3 133 170 169
3 133 134 170
3 134 171 170
3 134 135 171
3 135 172 171
3 135 136 172
3 136 173 172
3 136 137 173
3 137 174 173
3 137 138 174
3 138 175 174
3 138 139 175
3 139 176 175
3 139 140 176
3 140 177 176
3 140 141 177
3 141 178 177
3 141 142 178
3 142 179 178
3 142 143 179
3 144 181 180
3 144 145 181
3 145 182 181
3 145 146 182
3 146 183 182
3 146 147 183
3 147 184 183
3 147 148 184
3 148 185 184
3 148 149 185
3 149 186 185
3 149 150 186
3 150 187 186
3 150 151 187
3 151 188 187
3 151 152 188
3 152 189 188
3 152 153 189
3 153 190 189
3 153 154 190
3 154 191 190
3 154 155 191
3 155 192 191
3 155 156 192
3 156 193 192
3 156 157 193
3 157 194 193
3 157 158 194
3 158 195 194
3 158 159 195
3 159 196 195
3 159 160 196
3 160 197 196
3 160 161 197
3 161 198 197
3 161 162 198
3 162 199 198
3 162 163 199
3 163 200 199
3 163 164 200
3 164 201 200
3 164 165 201
3 165 202 201
3 165 166 202
3 166 203 202
3 166 167 203
3 167 204 203
3 167 168 204
3 168 205 204
3 168 169 205
3 169 206 205
3 169 170 206
3 170 207 206
3 170 171 207
3 171 208 207
3 171 172 208
3 172 209 208
3 172 173 209
3 173 210 209
3 173 174 210
3 174 211 210
3 174 175 211
3 175 212 211
3 175 176 212
3 176 213 212
3 176 177 213
3 177 214 213
3 177 178 214
3 178 215 214
3 178 179 215
3 180 217 216
3 180 181 217
3 181 218 217
3 181 182 218
3 182 219 218
3 182 183 219
3 183 220 219
3 183 184 220
3 184 221 220
3 184 185 221
3 185 222 221
3 185 186 222
3 186 223 222
3 186 187 223
3 187 224 223
3 187 188 224
3 188 225 224
3 188 189 225
3 189 226 225
3 189 190 226
3 190 227 226
3 190 191 227
3 191 228 227
3 191 192 228
3 192 229 228
3 192 193 229
3 193 230 229
3 193 194 230
3 194 231 230
3 194 195 231
3 195 232 231
3 195 196 232
3 196 233 232
3 196 197 233
3 197 234 233
3 197 198 234
3 198 235 234
3 198 199 235
3 199 236 235
3 199 200 236
3 200 237 236
3 200 201 237
3 201 238 237
3 201 202 238
3 202 239 238
3 202 203 239
3 203 240 239
3 203 204 240
3 204 241 240
3 204 205 241
3 205 242 241
3 205 206 242
3 206 243 242
3 206 207 243
3 207 244 243
3 207 208 244
3 208 245 244
3 208 209 245
3 209 246 245
3 209 210 246
3 210 247 246
3 210 211 247
3 211 248 247
3 211 212 248
3 212 249 248
3 212 213 249
3 213 250 249
3 213 214 250
3 214 251 250
3 214 215 251
3 216 253 252
3 216 217 253
3 217 254 253
3 217 218 254
3 218 255 254
3 218 219 255
3 219 256 255
3 219 220 256
3 220 257 256
3 220 221 257
3 221 258 257
3 221 222 258
3 222 259 258
3 222 223 259
3 223 260 259
3 223 224 260
3 224 261 260
3 224 225 261
3 225 262 261
3 225 226 262
3 226 263 262
3 226 227 263
3 227 264 263
3 227 228 264
3 228 265 264
3 228 229 265
3 229 266 265
3 229 230 266
3 230 267 266
3 230 231 267
3 231 268 267
3 231 232 268
3 232 269 268
3 232 233 269
3 233 270 269
3 233 234 270
3 234 271 270
3 234 235 271
3 235 272 271
3 235 236 272
3 236 273 272
3 236 237 273
3 237 274 273
3 237 238 274
3 238 275 274
3 238 239 275
3 239 276 275
3 239 240 276
3 240 277 276
3 240 241 277
3 241 278 277
3 241 242 278
3 242 279 278
3 242 243 279
3 243 280 279
3 243 244 280
3 244 281 280
3 244 245 281
3 245 282 281
3 245 246 282
3 246 283 282
3 246 247 283
3 247 284 283
3 247 248 284
3 248 285 284
3 248 249 285
3 249 286 285
3 249 250 286
3 250 287 286
3 250 251 287
3 252 289 288
3 252 253 289
3 253 290 289
3 253 254 290
3 254 291 290
3 254 255 291
3 255 292 291
3 255 256 292
3 256 293 292
3 256 257 293
3 257 294 293
3 257 258 294
3 258 295 294
3 258 259 295
3 259 296 295
3 259 260 296
3 260 297 296
3 260 261 297
3 261 298 297
3 261 262 298
3 262 299 298
3 262 263 299
3 263 300 299
3 263 264 300
3 264 301 300
3 264 265 301
3 265 302 301
3 265 266 302
3 266 303 302
3 266 267 303
3 267 304 303
3 267 268 304
3 268 305 304
3 268 269 305
3 269 306 305
3 269 270 306
3 270 307 306
3 270 271 307
3 271 308 307
3 271 272 308
3 272 309 308
3 272 273 309
3 273 310 309
3 273 274 310
3 274 311 310
3 274 275 311
3 275 312 311
3 275 276 312
3 276 313 312
3 276 277 313
3 277 314 313
3 277 278 314
3 278 315 314
3 278 279 315
3 279 316 315
3 279 280 316
3 280 317 316
3 280 281 317
3 281 318 317
3 281 282 318
3 282 319 318
3 282 283 319
3 283 320 319
3 283 284 320
3 284 321 320
3 284 285 321
3 285 322 321
3 285 286 322
3 286 323 322
3 286 287 323
3 288 325 324
3 288 289 325
3 289 326 325
3 289 290 326
3 290 327 326
3 290 291 327
3 291 328 327
3 291 292 328
3 292 329 328
3 292 293 329
3 293 330 329
3 293 294 330
3 294 331 330
3 294 295 331
3 295 332 331
3 295 296 332
3 296 333 332
3 296 297 333
3 297 334 333
3 297 298 334
3 298 335 334
3 298 299 335
3 299 336 335
3 299 300 336
3 300 337 336
3 300 301 337
3 301 338 337
3 301 302 338
3 302 339 338
3 302 303 339
3 303 340 339
3 303 304 340
3 304 341 340
3 304 305 341
3 305 342 341
3 305 306 342
3 306 343 342
3 306 307 343
3 307 344 343
3 307 308 344
3 308 345 344
3 308 309 345
3 309 346 345
3 309 310 346
3 310 347 346
3 310 311 347
3 311 348 347
3 311 312 348
3 312 349 348
3 312 313 349
3 313 350 349
3 313 314 350
3 314 351 350
3 314 315 351
3 315 352 351
3 315 316 352
3 316 353 352
3 316 317 353
3 317 354 353
3 317 318 354
3 318 355 354
3 318 319 355
3 319 356 355
3 319 320 356
3 320 357 356
3 320 321 357
3 321 358 357
3 321 322 358
3 322 359 358
3 322 323 359
3 324 361 360
3 324 325 361
3 325 362 361
3 325 326 362
3 326 363 362
3 326 327 363
3 327 364 363
3 327 328 364
3 328 365 364
3 328 329 365
3 329 366 365
3 329 330 366
3 330 367 366
3 330 331 367
3 331 368 367
3 331 332 368
3 332 369 368
3 332 333 369
3 333 370 369
3 333 334 370
3 334 371 370
3 334 335 371
3 335 372 371
3 335 336 372
3 336 373 372
3 336 337 373
3 337 374 373
3 337 338 374
3 338 375 374
3 338 339 375
3 339 376 375
3 339 340 376
3 340 377 376
3 340 341 377
3 341 378 377
3 341 342 378
3 342 379 378
3 342 343 379
3 343 380 379
3 343 344 380
3 344 381 380
3 344 345 381
3 345 382 381
3 345 346 382
3 346 383 382
3 346 347 383
3 347 384 383
3 347 348 384
3 348 385 384
3 348 349 385
3 349 386 385
3 349 350 386
3 350 387 386
3 350 351 387
3 351 388 387
3 351 352 388
3 352 389 388
3 352 353 389
3 353 390 389
3 353 354 390
3 354 391 390
3 354 355 391
3 355 392 391
3 355 356 392
3 356 393 392
3 356 357 393
3 357 394 393
3 357 358 394
3 358 395 394
3 358 359 395
3 360 397 396
3 360 361 397
3 361 398 397
3 361 362 398
3 362 399 398
3 362 363 399
3 363 400 399
3 363 364 400
3 364 401 400
3 364 365 401
3 365 402 401
3 365 366 402
3 366 403 402
3 366 367 403
3 367 404 403
3 367 368 404
3 368 405 404
3 368 369 405
3 369 406 405
3 369 370 406
3 370 407 406
3 370 371 407
3 371 408 407
3 371 372 408
3 372 409 408
3 372 373 409
3 373 410 409
3 373 374 410
3 374 411 410
3 374 375 411
3 375 412 411
3 375 376 412
3 376 413 412
3 376 377 413
3 377 414 413
3 377 378 414
3 378 415 414
3 378 379 415
3 379 416 415
3 379 380 416
3 380 417 416
3 380 381 417
3 381 418 417
3 381 382 418
3 382 419 418
3 382 383 419
3 383 420 419
3 383 384 420
3 384 421 420
3 384 385 421
3 385 422 421
3 385 386 422
3 386 423 422
3 386 387 423
3 387 424 423
3 387 388 424
3 388 425 424
3 388 389 425
3 389 426 425
3 389 390 426
3 390 427 426
3 390 391 427
3 391 428 427
3 391 392 428
3 392 429 428
3 392 393 429
3 393 430 429
3 393 394 430
3 394 431 430
3 394 395 431
3 396 433 432
3 396 397 433
3 397 434 433
3 397 398 434
3 398 435 434
3 398 399 435
3 399 436 435
3 399 400 436
3 400 437 436
3 400 401 437
3 401 438 437
3 401 402 438
3 402 439 438
3 402 403 439
3 403 440 439
3 403 404 440
3 404 441 440
3 404 405 441
3 405 442 441
3 405 406 442
3 406 443 442
3 406 407 443
3 407 444 443
3 407 408 444
3 408 445 444
3 408 409 445
3 409 446 445
3 409 410 446
3 410 447 446
3 410 411 447
3 411 448 447
3 411 412 448
3 412 449 448
3 412 413 449
3 413 450 449
3 413 414 450
3 414 451 450
3 414 415 451
3 415 452 451
3 415 416 452
3 416 453 452
3 416 417 453
3 417 454 453
3 417 418 454
3 418 455 454
3 418 419 455
3 419 456 455
3 419 420 456
3 420 457 456
3 420 421 457
3 421 458 457
3 421 422 458
3 422 459 458
3 422 423 459
3 423 460 459
3 423 424 460
3 424 461 460
3 424 425 461
3 425 462 461
3 425 426 462
3 426 463 462
3 426 427 463
3 427 464 463
3 427 428 464
3 428 465 464
3 428 429 465
3 429 466 465
3 429 430 466
3 430 467 466
3 430 431 467
3 432 469 468
3 432 433 469
3 433 470 469
3 433 434 470
3 434 471 470
3 434 435 471
3 435 472 471
3 435 436 472
3 436 473 472
3 436 437 473
3 437 474 473
3 437 438 474
3 438 475 474
3 438 439 475
3 439 476 475
3 439 440 476
3 440 477 476
3 440 441 477
3 441 478 477
3 441 442 478
3 442 479 478
3 442 443 479
3 443 480 479
3 443 444 480
3 444 481 480
3 444 445 481
3 445 482 481
3 445 446 482
3 446 483 482
3 446 447 483
3 447 484 483
3 447 448 484
3 448 485 484
3 448 449 485
3 449 486 485
3 449 450 486
3 450 487 486
3 450 451 487
3 451 488 487
3 451 452 488
3 452 489 488
3 452 453 489
3 453 490 489
3 453 454 490
3 454 491 490
3 454 455 491
3 455 492 491
3 455 456 492
3 456 493 492
3 456 457 493
3 457 494 493
3 457 458 494
3 458 495 494
3 458 459 495
3 459 496 495
3 459 460 496
3 460 497 496
3 460 461 497
3 461 498 497
3 461 462 498
3 462 499 498
3 462 463 499
3 463 500 499
3 463 464 500
3 464 501 500
3 464 465 501
3 465 502 501
3 465 466 502
3 466 503 502
3 466 467 503
3 468 505 504
3 468 469 505
3 469 506 505
3 469 470 506
3 470 507 506
3 470 471 507
3 471 508 507
3 471 472 508
3 472 509 508
3 472 473 509
3 473 510 509
3 473 474 510
3 474 511 510
3 474 475 511
3 475 512 511
3 475 476 512
3 476 513 512
3 476 477 513
3 477 514 513
3 477 478 514
3 478 515 514
3 478 479 515
3 479 516 515
3 479 480 516
3 480 517 516
3 480 481 517
3 481 518 517
3 481 482 518
3 482 519 518
3 482 483 519
3 483 520 519
3 483 484 520
3 484 521 520
3 484 485 521
3 485 522 521
3 485 486 522
3 486 523 522
3 486 487 523
3 487 524 523
3 487 488 524
3 488 525 524
3 488 489 525
3 489 526 525
3 489 490 526
3 490 527 526
3 490 491 527
3 491 528 527
3 491 492 528
3 492 529 528
3 492 493 529
3 493 530 529
3 493 494 530
3 494 531 530
3 494 495 531
3 495 532 531
3 495 496 532
3 496 533 532
3 496 497 533
3 497 534 533
3 497 498 534
3 498 535 534
3 498 499 535
3 499 536 535
3 499 500 536
3 500 537 536
3 500 501 537
3 501 538 537
3 501 502 538
3 502 539 538
3 502 503 539
3 504 541 540
3 504 505 541
3 505 542 541
3 505 506 542
3 506 543 542
3 506 507 543
3 507 544 543
3 507 508 544
3 508 545 544
3 508 509 545
3 509 546 545
3 509 510 546
3 510 547 546
3 510 511 547
3 511 548 547
3 511 512 548
3 512 549 548
3 512 513 549
3 513 550 549
3 513 514 550
3 514 551 550
3 514 515 551
3 515 552 551
3 515 516 552
3 516 553 552
3 516 517 553
3 517 554 553
3 517 518 554
3 518 555 554
3 518 519 555
3 519 556 555
3 519 520 556
3 520 557 556
3 520 521 557
3 521 558 557
3 521 522 558
3 522 559 558
3 522 523 559
3 523 560 559
3 523 524 560
3 524 561 560
3 524 525 561
3 525 562 561
3 525 526 562
3 526 563 562
3 526 527 563
3 527 564 563
3 527 528 564
3 528 565 564
3 528 529 565
3 529 566 565
3 529 530 566
3 530 567 566
3 530 531 567
3 531 568 567
3 531 532 568
3 532 569 568
3 532 533 569
3 533 570 569
3 533 534 570
3 534 571 570
3 534 535 571
3 535 572 571
3 535 536 572
3 536 573 572
3 536 537 573
3 537 574 573
3 537 538 574
3 538 575 574
3 538 539 575
3 540 577 576
3 540 541 577
3 541 578 577
3 541 542 578
3 542 579 578
3 542 543 579
3 543 580 579
3 543 544 580
3 544 581 580
3 544 545 581
3 545 582 581
3 545 546 582
3 546 583 582
3 546 547 583
3 547 584 583
3 547 548 584
3 548 585 584
3 548 549 585
3 549 586 585
3 549 550 586
3 550 587 586
3 550 551 587
3 551 588 587
3 551 552 588
3 552 589 588
3 552 553 589
3 553 590 589
3 553 554 590
3 554 591 590
3 554 555 591
3 555 592 591
3 555 556 592
3 556 593 592
3 556 557 593
3 557 594 593
3 557 558 594
3 558 595 594
3 558 559 595
3 559 596 595
3 559 560 596
3 560 597 596
3 560 561 597
3 561 598 597
3 561 562 598
3 562 599 598
3 562 563 599
3 563 600 599
3 563 564 600
3 564 601 600
3 564 565 601
3 565 602 601
3 565 566 602
3 566 603 602
3 566 567 603
3 567 604 603
3 567 568 604
3 568 605 604
3 568 569 605
3 569 606 605
3 569 570 606
3 570 607 606
3 570 571 607
3 571 608 607
3 571 572 608
3 572 609 608
3 572 573 609
3 573 610 609
3 573 574 610
3 574 611 610
3 574 575 611
3 576 613 612
3 576 577 613
3 577 614 613
3 577 578 614
3 578 615 614
3 578 579 615
3 579 616 615
3 579 580 616
3 580 617 616
3 580 581 617
3 581 618 617
3 581 582 618
3 582 619 618
3 582 583 619
3 583 620 619
3 583 584 620
3 584 621 620
3 584 585 621
3 585 622 621
3 585 586 622
3 586 623 622
3 586 587 623
3 587 624 623
3 587 588 624
3 588 625 624
3 588 589 625
3 589 626 625
3 589 590 626
3 590 627 626
3 590 591 627
3 591 628 627
3 591 592 628
3 592 629 628
3 592 593 629
3 593 630 629
3 593 594 630
3 594 631 630
3 594 595 631
3 595 632 631
3 595 596 632
3 596 633 632
3 596 597 633
3 597 634 633
3 597 598 634
3 598 635 634
3 598 599 635
3 599 636 635
3 599 600 636
3 600 637 636
3 600 601 637
3 601 638 637
3 601 602 638
3 602 639 638
3 602 603 639
3 603 640 639
3 603 604 640
3 604 641 640
3 604 605 641
3 605 642 641
3 605 606 642
3 606 643 642
3 606 607 643
3 607 644 643
3 607 608 644
3 608 645 644
3 608 609 645
3 609 646 645
3 609 610 646
3 610 647 646
3 610 611 647
3 612 649 648
3 612 613 649
3 613 650 649
3 613 614 650
3 614 651 650
3 614 615 651
3 615 652 651
3 615 616 652
3 616 653 652
3 616 617 653
3 617 654 653
3 617 618 654
3 618 655 654
3 618 619 655
3 619 656 655
3 619 620 656
3 620 657 656
3 620 621 657
3 621 658 657
3 621 622 658
3 622 659 658
3 622 623 659
3 623 660 659
3 623 624 660
3 624 661 660
3 624 625 661
3 625 662 661
3 625 626 662
3 626 663 662
3 626 627 663
3 627 664 663
3 627 628 664
3 628 665 664
3 628 629 665
3 629 666 665
3 629 630 666
3 630 667 666
3 630 631 667
3 631 668 667
3 631 632 668
3 632 669 668
3 632 633 669
3 633 670 669
3 633 634 670
3 634 671 670
3 634 635 671
3 635 672 671
3 635 636 672
3 636 673 672
3 636 637 673
3 637 674 673
3 637 638 674
3 638 675 674
3 638 639 675
3 639 676 675
3 639 640 676
3 640 677 676
3 640 641 677
3 641 678 677
3 641 642 678
3 642 679 678
3 642 643 679
3 643 680 679
3 643 644 680
3 644 681 680
3 644 645 681
3 645 682 681
3 645 646 682
3 646 683 682
3 646 647 683
3 648 685 684
3 648 649 685
3 649 686 685
3 649 650 686
3 650 687 686
3 650 651 687
3 651 688 687
3 651 652 688
3 652 689 688
3 652 653 689
3 653 690 689
3 653 654 690
3 654 691 690
3 654 655 691
3 655 692 691
3 655 656 692
3 656 693 692
3 656 657 693
3 657 694 693
3 657 658 694
3 658 695 694
3 658 659 695
3 659 696 695
3 659 660 696
3 660 697 696
3 660 661 697
3 661 698 697
3 661 662 698
3 662 699 698
3 662 663 699
3 663 700 699
3 663 664 700
3 664 701 700
3 664 665 701
3 665 702 701
3 665 666 702
3 666 703 702
3 666 667 703
3 667 704 703
3 667 668 704
3 668 705 704
3 668 669 705
3 669 706 705
3 669 670 706
3 670 707 706
3 670 671 707
3 671 708 707
3 671 672 708
3 672 709 708
3 672 673 709
3 673 710 709
3 673 674 710
3 674 711 710
3 674 675 711
3 675 712 711
3 675 676 712
3 676 713 712
3 676 677 713
3 677 714 713
3 677 678 714
3 678 715 714
3 678 679 715
3 679 716 715
3 679 680 716
3 680 717 716
3 680 681 717
3 681 718 717
3 681 682 718
3 682 719 718
3 682 683 719
3 684 721 720
3 684 685 721
3 685 722 721
3 685 686 722
3 686 723 722
3 686 687 723
3 687 724 723
3 687 688 724
3 688 725 724
3 688 689 725
3 689 726 725
3 689 690 726
3 690 727 726
3 690 691 727
3 691 728 727
3 691 692 728
3 692 729 728
3 692 693 729
3 693 730 729
3 693 694 730
3 694 731 730
3 694 695 731
3 695 732 731
3 695 696 732
3 696 733 732
3 696 697 733
3 697 734 733
3 697 698 734
3 698 735 734
3 698 699 735
3 699 736 735
3 699 700 736
3 700 737 736
3 700 701 737
3 701 738 737
3 701 702 738
3 702 739 738
3 702 703 739
3 703 740 739
3 703 704 740
3 704 741 740
3 704 705 741
3 705 742 741
3 705 706 742
3 706 743 742
3 706 707 743
3 707 744 743
3 707 708 744
3 708 745 744
3 708 709 745
3 709 746 745
3 709 710 746
3 710 747 746
3 710 711 747
3 711 748 747
3 711 712 748
3 712 749 748
3 712 713 749
3 713 750 749
3 713 714 750
3 714 751 750
3 714 715 751
3 715 752 751
3 715 716 752
3 716 753 752
3 716 717 753
3 717 754 753
3 717 718 754
3 718 755 754
3 718 719 755
3 720 757 756
3 720 721 757
3 721 758 757
3 721 722 758
3 722 759 758
3 722 723 759
3 723 760 759
3 723 724 760
3 724 761 760
3 724 725 761
3 725 762 761
3 725 726 762
3 726 763 762
3 726 727 763
3 727 764 763
3 727 728 764
3 728 765 764
3 728 729 765
3 729 766 765
3 729 730 766
3 730 767 766
3 730 731 767
3 731 768 767
3 731 732 768
3 732 769 768
3 732 733 769
3 733 770 769
3 733 734 770
3 734 771 770
3 734 735 771
3 735 772 771
3 735 736 772
3 736 773 772
3 736 737 773
3 737 774 773
3 737 738 774
3 738 775 774
3 738 739 775
3 739 776 775
3 739 740 776
3 740 777 776
3 740 741 777
3 741 778 777
3 741 742 778
3 742 779 778
3 742 743 779
3 743 780 779
3 743 744 780
3 744 781 780
3 744 745 781
3 745 782 781
3 745 746 782
3 746 783 782
3 746 747 783
3 747 784 783
3 747 748 784
3 748 785 784
3 748 749 785
3 749 786 785
3 749 750 786
3 750 787 786
3 750 751 787
3 751 788 787
3 751 752 788
3 752 789 788
3 752 753 789
3 753 790 789
3 753 754 790
3 754 791 790
3 754 755 791
3 756 793 792
3 756 757 793
3 757 794 793
3 757 758 794
3 758 795 794
3 758 759 795
3 759 796 795
3 759 760 796
3 760 797 796
3 760 761 797
3 761 798 797
3 761 762 798
3 762 799 798
3 762 763 799
3 763 800 799
3 763 764 800
3 764 801 800
3 764 765 801
3 765 802 801
3 765 766 802
3 766 803 802
3 766 767 803
3 767 804 803
3 767 768 804
3 768 805 804
3 768 769 805
3 769 806 805
3 769 770 806
3 770 807 806
3 770 771 807
3 771 808 807
3 771 772 808
3 772 809 808
3 772 773 809
3 773 810 809
3 773 774 810
3 774 811 810
3 774 775 811
3 775 812 811
3 775 776 812
3 776 813 812
3 776 777 813
3 777 814 813
3 777 778 814
3 778 815 814
3 778 779 815
3 779 816 815
3 779 780 816
3 780 817 816
3 780 781 817
3 781 818 817
3 781 782 818
3 782 819 818
3 782 783 819
3 783 820 819
3 783 784 820
3 784 821 820
3 784 785 821
3 785 822 821
3 785 786 822
3 786 823 822
3 786 787 823
3 787 824 823
3 787 788 824
3 788 825 824
3 788 789 825
3 789 826 825
3 789 790 826
3 790 827 826
3 790 791 827
3 792 829 828
3 792 793 829
3 793 830 829
3 793 794 830
3 794 831 830
3 794 795 831
3 795 832 831
3 795 796 832
3 796 833 832
3 796 797 833
3 797 834 833
3 797 798 834
3 798 835 834
3 798 799 835
3 799 836 835
3 799 800 836
3 800 837 836
3 800 801 837
3 801 838 837
3 801 802 838
3 802 839 838
3 802 803 839
3 803 840 839
3 803 804 840
3 804 841 840
3 804 805 841
3 805 842 841
3 805 806 842
3 806 843 842
3 806 807 843
3 807 844 843
3 807 808 844
3 808 845 844
3 808 809 845
3 809 846 845
3 809 810 846
3 810 847 846
3 810 811 847
3 811 848 847
3 811 812 848
3 812 849 848
3 812 813 849
3 813 850 849
3 813 814 850
3 814 851 850
3 814 815 851
3 815 852 851
3 815 816 852
3 816 853 852
3 816 817 853
3 817 854 853
3 817 818 854
3 818 855 854
3 818 819 855
3 819 856 855
3 819 820 856
3 820 857 856
3 820 821 857
3 821 858 857
3 821 822 858
3 822 859 858
3 822 823 859
3 823 860 859
3 823 824 860
3 824 861 860
3 824 825 861
3 825 862 861
3 825 826 862
3 826 863 862
3 826 827 863
3 864 1 0
3 864 2 1
3 864 3 2
3 864 4 3
3 864 5 4
3 864 6 5
3 864 7 6
3 864 8 7
3 864 9 8
3 864 10 9
3 864 11 10
3 864 12 11
3 864 13 12
3 864 14 13
3 864 15 14
3 864 16 15
3 864 17 16
3 864 18 17
3 864 19 18
3 864 20 19
3 864 21 20
3 864 22 21
3 864 23 22
3 864 24 23
3 864 25 24
3 864 26 25
3 864 27 26
3 864 28 27
3 864 29 28
3 864 30 29
3 864 31 30
3 864 32 31
3 864 33 32
3 864 34 33
3 864 35 34
3 865 828 829
3 865 829 830
3 865 830 831
3 865 831 832
3 865 832 833
3 865 833 834
3 865 834 835
3 865 835 836
3 865 836 837
3 865 837 838
3 865 838 839
3 865 839 840
3 865 840 841
3 865 841 842
3 865 842 843
3 865 843 844
3 865 844 845
3 865 845 846
3 865 846 847
3 865 847 848
3 865 848 849
3 865 849 850
3 865 850 851
3 865 851 852
3 865 852 853
3 865 853 854
3 865 854 855
3 865 855 856
3 865 856 857
3 865 857 858
3 865 858 859
3 865 859 860
3 865 860 861
3 865 861 862
3 865 862 863
