ply
format ascii 1.0
element vertex 290
property float x
property float y
property float z
element face 544
property list uchar int vertex_indices
end_header
-1.50000000 -0.28950000 1.55327998
-1.50000000 -0.51513827 1.50120869
-1.50000000 -0.65061851 1.39266415
-1.50000000 -0.72760879 1.21308773
-1.50000000 -0.75269967 0.76014991
-1.50000000 -0.72724144 0.34702139
-1.50000000 -0.64986167 0.16802844
-1.50000000 -0.51390309 0.05923373
-1.50000000 -0.28724365 0.00652940
-1.50000000 0.28724365 0.00652940
-1.50000000 0.51390309 0.05923373
-1.50000000 0.64986167 0.16802844
-1.50000000 0.72724144 0.34702139
-1.50000000 0.75269967 0.76014991
-1.50000000 0.72760879 1.21349446
-1.50000000 0.65061851 1.39330053
-1.50000000 0.51513827 1.50200660
-1.50000000 0.28950000 1.55416138
-1.30000000 -0.29228834 1.56873414
-1.30000000 -0.52009986 1.51399176
-1.30000000 -0.65688499 1.40205229
-1.30000000 -0.73461681 1.21865577
-1.30000000 -0.75994935 0.76014991
-1.30000000 -0.73424592 0.34702139
-1.30000000 -0.65612087 0.16802844
-1.30000000 -0.51885279 0.05923373
-1.30000000 -0.29001026 0.00652940
-1.30000000 0.29001026 0.00652940
-1.30000000 0.51885279 0.05923373
-1.30000000 0.65612087 0.16802844
-1.30000000 0.73424592 0.34702139
-1.30000000 0.75994935 0.76014991
-1.30000000 0.73461681 1.21348541
-1.30000000 0.65688499 1.39396244
-1.30000000 0.52009986 1.50384854
-1.30000000 0.29228834 1.55752966
-1.10000000 -0.29694492 1.55791623
-1.10000000 -0.52838580 1.50407306
-1.10000000 -0.66735011 1.39403204
-1.10000000 -0.74632032 1.21344769
-1.10000000 -0.77205644 0.76014991
-1.10000000 -0.74594352 0.34702139
-1.10000000 -0.66657381 0.16802844
-1.10000000 -0.52711886 0.05923373
-1.10000000 -0.29463054 0.00652940
-1.10000000 0.29463054 0.00652940
-1.10000000 0.52711886 0.05923373
-1.10000000 0.66657381 0.16802844
-1.10000000 0.74594352 0.34702139
-1.10000000 0.77205644 0.76014991
-1.10000000 0.74632032 1.21821133
-1.10000000 0.66735011 1.40148550
-1.10000000 0.52838580 1.51341836
-1.10000000 0.29694492 1.56823931
-0.90000000 -0.29934715 1.55327998
-0.90000000 -0.53266035 1.50120869
-0.90000000 -0.67274885 1.39266415
-0.90000000 -0.75235791 1.21308773
-0.90000000 -0.77830224 0.76014991
-0.90000000 -0.75197807 0.34702139
-0.90000000 -0.67196628 0.16802844
-0.90000000 -0.53138316 0.05923373
-0.90000000 -0.29701405 0.00652940
-0.90000000 0.29701405 0.00652940
-0.90000000 0.53138316 0.05923373
-0.90000000 0.67196628 0.16802844
-0.90000000 0.75197807 0.34702139
-0.90000000 0.77830224 0.76014991
-0.90000000 0.75235791 1.21349446
-0.90000000 0.67274885 1.39330053
-0.90000000 0.53266035 1.50200660
-0.90000000 0.29934715 1.55416138
-0.70000000 -0.29992475 1.54864374
-0.70000000 -0.53368813 1.49528074
-0.70000000 -0.67404695 1.38617912
-0.70000000 -0.75380961 1.20744954
-0.70000000 -0.77980400 0.76014991
-0.70000000 -0.75342903 0.34702139
-0.70000000 -0.67326286 0.16802844
-0.70000000 -0.53240848 0.05923373
-0.70000000 -0.29758715 0.00652940
-0.70000000 0.29758715 0.00652940
-0.70000000 0.53240848 0.05923373
-0.70000000 0.67326286 0.16802844
-0.70000000 0.75342903 0.34702139
-0.70000000 0.77980400 0.76014991
-0.70000000 0.75380961 1.20227917
-0.70000000 0.67404695 1.37808927
-0.70000000 0.53368813 1.48513752
-0.70000000 0.29992475 1.53743926
-0.50000000 -0.29999532 1.53782583
-0.50000000 -0.53381371 1.48536204
-0.50000000 -0.67420555 1.37815887
-0.50000000 -0.75398699 1.20224145
-0.50000000 -0.77998749 0.76014991
-0.50000000 -0.75360632 0.34702139
-0.50000000 -0.67342128 0.16802844
-0.50000000 -0.53253376 0.05923373
-0.50000000 -0.29765718 0.00652940
-0.50000000 0.29765718 0.00652940
-0.50000000 0.53253376 0.05923373
-0.50000000 0.67342128 0.16802844
-0.50000000 0.75360632 0.34702139
-0.50000000 0.77998749 0.76014991
-0.50000000 0.75398699 1.20700509
-0.50000000 0.67420555 1.38561234
-0.50000000 0.53381371 1.49470734
-0.50000000 0.29999532 1.54814891
-0.30000000 -0.29999984 1.55327998
-0.30000000 -0.53382176 1.50120869
-0.30000000 -0.67421572 1.39266415
-0.30000000 -0.75399836 1.21308773
-0.30000000 -0.77999925 0.76014991
-0.30000000 -0.75361768 0.34702139
-0.30000000 -0.67343143 0.16802844
-0.30000000 -0.53254179 0.05923373
-0.30000000 -0.29766166 0.00652940
-0.30000000 0.29766166 0.00652940
-0.30000000 0.53254179 0.05923373
-0.30000000 0.67343143 0.16802844
-0.30000000 0.75361768 0.34702139
-0.30000000 0.77999925 0.76014991
-0.30000000 0.75399836 1.21349446
-0.30000000 0.67421572 1.39330053
-0.30000000 0.53382176 1.50200660
-0.30000000 0.29999984 1.55416138
-0.10000000 -0.30000000 1.56873414
-0.10000000 -0.53382203 1.51399176
-0.10000000 -0.67421606 1.40205229
-0.10000000 -0.75399874 1.21865577
-0.10000000 -0.77999965 0.76014991
-0.10000000 -0.75361807 0.34702139
-0.10000000 -0.67343178 0.16802844
-0.10000000 -0.53254206 0.05923373
-0.10000000 -0.29766182 0.00652940
-0.10000000 0.29766182 0.00652940
-0.10000000 0.53254206 0.05923373
-0.10000000 0.67343178 0.16802844
-0.10000000 0.75361807 0.34702139
-0.10000000 0.77999965 0.76014991
-0.10000000 0.75399874 1.21348541
-0.10000000 0.67421606 1.39396244
-0.10000000 0.53382203 1.50384854
-0.10000000 0.30000000 1.55752966
0.10000000 -0.30000000 1.55791623
0.10000000 -0.53382203 1.50407306
0.10000000 -0.67421606 1.39403204
0.10000000 -0.75399874 1.21344769
0.10000000 -0.77999965 0.76014991
0.10000000 -0.75361807 0.34702139
0.10000000 -0.67343178 0.16802844
0.10000000 -0.53254206 0.05923373
0.10000000 -0.29766182 0.00652940
0.10000000 0.29766182 0.00652940
0.10000000 0.53254206 0.05923373
0.10000000 0.67343178 0.16802844
0.10000000 0.75361807 0.34702139
0.10000000 0.77999965 0.76014991
0.10000000 0.75399874 1.21821133
0.10000000 0.67421606 1.40148550
0.10000000 0.53382203 1.51341836
0.10000000 0.30000000 1.56823931
0.30000000 -0.29999984 1.55327998
0.30000000 -0.53382176 1.50120869
0.30000000 -0.67421572 1.39266415
0.30000000 -0.75399836 1.21308773
0.30000000 -0.77999925 0.76014991
0.30000000 -0.75361768 0.34702139
0.30000000 -0.67343143 0.16802844
0.30000000 -0.53254179 0.05923373
0.30000000 -0.29766166 0.00652940
0.30000000 0.29766166 0.00652940
0.30000000 0.53254179 0.05923373
0.30000000 0.67343143 0.16802844
0.30000000 0.75361768 0.34702139
0.30000000 0.77999925 0.76014991
0.30000000 0.75399836 1.21349446
0.30000000 0.67421572 1.39330053
0.30000000 0.53382176 1.50200660
0.30000000 0.29999984 1.55416138
0.50000000 -0.29999532 1.54864374
0.50000000 -0.53381371 1.49528074
0.50000000 -0.67420555 1.38617912
0.50000000 -0.75398699 1.20744954
0.50000000 -0.77998749 0.76014991
0.50000000 -0.75360632 0.34702139
0.50000000 -0.67342128 0.16802844
0.50000000 -0.53253376 0.05923373
0.50000000 -0.29765718 0.00652940
0.50000000 0.29765718 0.00652940
0.50000000 0.53253376 0.05923373
0.50000000 0.67342128 0.16802844
0.50000000 0.75360632 0.34702139
0.50000000 0.77998749 0.76014991
0.50000000 0.75398699 1.20227917
0.50000000 0.67420555 1.37808927
0.50000000 0.53381371 1.48513752
0.50000000 0.29999532 1.53743926
0.70000000 -0.29992475 1.53782583
0.70000000 -0.53368813 1.48536204
0.70000000 -0.67404695 1.37815887
0.70000000 -0.75380961 1.20224145
0.70000000 -0.77980400 0.76014991
0.70000000 -0.75342903 0.34702139
0.70000000 -0.67326286 0.16802844
0.70000000 -0.53240848 0.05923373
0.70000000 -0.29758715 0.00652940
0.70000000 0.29758715 0.00652940
0.70000000 0.53240848 0.05923373
0.70000000 0.67326286 0.16802844
0.70000000 0.75342903 0.34702139
0.70000000 0.77980400 0.76014991
0.70000000 0.75380961 1.20700509
0.70000000 0.67404695 1.38561234
0.70000000 0.53368813 1.49470734
0.70000000 0.29992475 1.54814891
0.90000000 -0.29934715 1.55327998
0.90000000 -0.53266035 1.50120869
0.90000000 -0.67274885 1.39266415
0.90000000 -0.75235791 1.21308773
0.90000000 -0.77830224 0.76014991
0.90000000 -0.75197807 0.34702139
0.90000000 -0.67196628 0.16802844
0.90000000 -0.53138316 0.05923373
0.90000000 -0.29701405 0.00652940
0.90000000 0.29701405 0.00652940
0.90000000 0.53138316 0.05923373
0.90000000 0.67196628 0.16802844
0.90000000 0.75197807 0.34702139
0.90000000 0.77830224 0.76014991
0.90000000 0.75235791 1.21349446
0.90000000 0.67274885 1.39330053
0.90000000 0.53266035 1.50200660
0.90000000 0.29934715 1.55416138
1.10000000 -0.29694492 1.56873414
1.10000000 -0.52838580 1.51399176
1.10000000 -0.66735011 1.40205229
1.10000000 -0.74632032 1.21865577
1.10000000 -0.77205644 0.76014991
1.10000000 -0.74594352 0.34702139
1.10000000 -0.66657381 0.16802844
1.10000000 -0.52711886 0.05923373
1.10000000 -0.29463054 0.00652940
1.10000000 0.29463054 0.00652940
1.10000000 0.52711886 0.05923373
1.10000000 0.66657381 0.16802844
1.10000000 0.74594352 0.34702139
1.10000000 0.77205644 0.76014991
1.10000000 0.74632032 1.21348541
1.10000000 0.66735011 1.39396244
1.10000000 0.52838580 1.50384854
1.10000000 0.29694492 1.55752966
1.30000000 -0.29228834 1.55791623
1.30000000 -0.52009986 1.50407306
1.30000000 -0.65688499 1.39403204
1.30000000 -0.73461681 1.21344769
1.30000000 -0.75994935 0.76014991
1.30000000 -0.73424592 0.34702139
1.30000000 -0.65612087 0.16802844
1.30000000 -0.51885279 0.05923373
1.30000000 -0.29001026 0.00652940
1.30000000 0.29001026 0.00652940
1.30000000 0.51885279 0.05923373
1.30000000 0.65612087 0.16802844
1.30000000 0.73424592 0.34702139
1.30000000 0.75994935 0.76014991
1.30000000 0.73461681 1.21821133
1.30000000 0.65688499 1.40148550
1.30000000 0.52009986 1.51341836
1.30000000 0.29228834 1.56823931
1.50000000 -0.28950000 1.55327998
1.50000000 -0.51513827 1.50120869
1.50000000 -0.65061851 1.39266415
1.50000000 -0.72760879 1.21308773
1.50000000 -0.75269967 0.76014991
1.50000000 -0.72724144 0.34702139
1.50000000 -0.64986167 0.16802844
1.50000000 -0.51390309 0.05923373
1.50000000 -0.28724365 0.00652940
1.50000000 0.28724365 0.00652940
1.50000000 0.51390309 0.05923373
1.50000000 0.64986167 0.16802844
1.50000000 0.72724144 0.34702139
1.50000000 0.75269967 0.76014991
1.50000000 0.72760879 1.21349446
1.50000000 0.65061851 1.39330053
1.50000000 0.51513827 1.50200660
1.50000000 0.28950000 1.55416138
-1.50000000 -0.00000000 0.77806274
1.50000000 -0.00000000 0.77806274
3 0 19 18
3 0 1 19
3 1 20 19
3 1 2 20
3 2 21 20
3 2 3 21
3 3 22 21
3 3 4 22
3 4 23 22
3 4 5 23
3 5 24 23
3 5 6 24
3 6 25 24
3 6 7 25
3 7 26 25
3 7 8 26
3 8 27 26
3 8 9 27
3 9 28 27
3 9 10 28
3 10 29 28
3 10 11 29
3 11 30 29
3 11 12 30
3 12 31 30
3 12 13 31
3 13 32 31
3 13 14 32
3 14 33 32
3 14 15 33
3 15 34 33
3 15 16 34
3 16 35 34
3 16 17 35
3 18 37 36
3 18 19 37
3 19 38 37
3 19 20 38
3 20 39 38
3 20 21 39
3 21 40 39
3 21 22 40
3 22 41 40
3 22 23 41
3 23 42 41
3 23 24 42
3 24 43 42
3 24 25 43
3 25 44 43
3 25 26 44
3 26 45 44
3 26 27 45
3 27 46 45
3 27 28 46
3 28 47 46
3 28 29 47
3 29 48 47
3 29 30 48
3 30 49 48
3 30 31 49
3 31 50 49
3 31 32 50
3 32 51 50
3 32 33 51
3 33 52 51
3 33 34 52
3 34 53 52
3 34 35 53
3 36 55 54
3 36 37 55
3 37 56 55
3 37 38 56
3 38 57 56
3 38 39 57
3 39 58 57
3 39 40 58
3 40 59 58
3 40 41 59
3 41 60 59
3 41 42 60
3 42 61 60
3 42 43 61
3 43 62 61
3 43 44 62
3 44 63 62
3 44 45 63
3 45 64 63
3 45 46 64
3 46 65 64
3 46 47 65
3 47 66 65
3 47 48 66
3 48 67 66
3 48 49 67
3 49 68 67
3 49 50 68
3 50 69 68
3 50 51 69
3 51 70 69
3 51 52 70
3 52 71 70
3 52 53 71
3 54 73 72
3 54 55 73
3 55 74 73
3 55 56 74
3 56 75 74
3 56 57 75
3 57 76 75
3 57 58 76
3 58 77 76
3 58 59 77
3 59 78 77
3 59 60 78
3 60 79 78
3 60 61 79
3 61 80 79
3 61 62 80
3 62 81 80
3 62 63 81
3 63 82 81
3 63 64 82
3 64 83 82
3 64 65 83
3 65 84 83
3 65 66 84
3 66 85 84
3 66 67 85
3 67 86 85
3 67 68 86
3 68 87 86
3 68 69 87
3 69 88 87
3 69 70 88
3 70 89 88
3 70 71 89
3 72 91 90
3 72 73 91
3 73 92 91
3 73 74 92
3 74 93 92
3 74 75 93
3 75 94 93
3 75 76 94
3 76 95 94
3 76 77 95
3 77 96 95
3 77 78 96
3 78 97 96
3 78 79 97
3 79 98 97
3 79 80 98
3 80 99 98
3 80 81 99
3 81 100 99
3 81 82 100
3 82 101 100
3 82 83 101
3 83 102 101
3 83 84 102
3 84 103 102
3 84 85 103
3 85 104 103
3 85 86 104
3 86 105 104
3 86 87 105
3 87 106 105
3 87 88 106
3 88 107 106
3 88 89 107
3 90 109 108
3 90 91 109
3 91 110 109
3 91 92 110
3 92 111 110
3 92 93 111
3 93 112 111
3 93 94 112
3 94 113 112
3 94 95 113
3 95 114 113
3 95 96 114
3 96 115 114
3 96 97 115
3 97 116 115
3 97 98 116
3 98 117 116
3 98 99 117
3 99 118 117
3 99 100 118
3 100 119 118
3 100 101 119
3 101 120 119
3 101 102 120
3 102 121 120
3 102 103 121
3 103 122 121
3 103 104 122
3 104 123 122
3 104 105 123
3 105 124 123
3 105 106 124
3 106 125 124
3 106 107 125
3 108 127 126
3 108 109 127
3 109 128 127
3 109 110 128
3 110 129 128
3 110 111 129
3 111 130 129
3 111 112 130
3 112 131 130
3 112 113 131
3 113 132 131
3 113 114 132
3 114 133 132
3 114 115 133
3 115 134 133
3 115 116 134
3 116 135 134
3 116 117 135
3 117 136 135
3 117 118 136
3 118 137 136
3 118 119 137
3 119 138 137
3 119 120 138
3 120 139 138
3 120 121 139
3 121 140 139
3 121 122 140
3 122 141 140
3 122 123 141
3 123 142 141
3 123 124 142
3 124 143 142
3 124 125 143
3 126 145 144
3 126 127 145
3 127 146 145
3 127 128 146
3 128 147 146
3 128 129 147
3 129 148 147
3 129 130 148
3 130 149 148
3 130 131 149
3 131 150 149
3 131 132 150
3 132 151 150
3 132 133 151
3 133 152 151
3 133 134 152
3 134 153 152
3 134 135 153
3 135 154 153
3 135 136 154
3 136 155 154
3 136 137 155
3 137 156 155
3 137 138 156
3 138 157 156
3 138 139 157
3 139 158 157
3 139 140 158
3 140 159 158
3 140 141 159
3 141 160 159
3 141 142 160
3 142 161 160
3 142 143 161
3 144 163 162
3 144 145 163
3 145 164 163
3 145 146 164
3 146 165 164
3 146 147 165
3 147 166 165
3 147 148 166
3 148 167 166
3 148 149 167
3 149 168 167
3 149 150 168
3 150 169 168
3 150 151 169
3 151 170 169
3 151 152 170
3 152 171 170
3 152 153 171
3 153 172 171
3 153 154 172
3 154 173 172
3 154 155 173
3 155 174 173
3 155 156 174
3 156 175 174
3 156 157 175
3 157 176 175
3 157 158 176
3 158 177 176
3 158 159 177
3 159 178 177
3 159 160 178
3 160 179 178
3 160 161 179
3 162 181 180
3 162 163 181
3 163 182 181
3 163 164 182
3 164 183 182
3 164 165 183
3 165 184 183
3 165 166 184
3 166 185 184
3 166 167 185
3 167 186 185
3 167 168 186
3 168 187 186
3 168 169 187
3 169 188 187
3 169 170 188
3 170 189 188
3 170 171 189
3 171 190 189
3 171 172 190
3 172 191 190
3 172 173 191
3 173 192 191
3 173 174 192
3 174 193 192
3 174 175 193
3 175 194 193
3 175 176 194
3 176 195 194
3 176 177 195
3 177 196 195
3 177 178 196
3 178 197 196
3 178 179 197
3 180 199 198
3 180 181 199
3 181 200 199
3 181 182 200
3 182 201 200
3 182 183 201
3 183 202 201
3 183 184 202
3 184 203 202
3 184 185 203
3 185 204 203
3 185 186 204
3 186 205 204
3 186 187 205
3 187 206 205
3 187 188 206
3 188 207 206
3 188 189 207
3 189 208 207
3 189 190 208
3 190 209 208
3 190 191 209
3 191 210 209
3 191 192 210
3 192 211 210
3 192 193 211
3 193 212 211
3 193 194 212
3 194 213 212
3 194 195 213
3 195 214 213
3 195 196 214
3 196 215 214
3 196 197 215
3 198 217 216
3 198 199 217
3 199 218 217
3 199 200 218
3 200 219 218
3 200 201 219
3 201 220 219
3 201 202 220
3 202 221 220
3 202 203 221
3 203 222 221
3 203 204 222
3 204 223 222
3 204 205 223
3 205 224 223
3 205 206 224
3 206 225 224
3 206 207 225
3 207 226 225
3 207 208 226
3 208 227 226
3 208 209 227
3 209 228 227
3 209 210 228
3 210 229 228
3 210 211 229
3 211 230 229
3 211 212 230
3 212 231 230
3 212 213 231
3 213 232 231
3 213 214 232
3 214 233 232
3 214 215 233
3 216 235 234
3 216 217 235
3 217 236 235
3 217 218 236
3 218 237 236
3 218 219 237
3 219 238 237
3 219 220 238
3 220 239 238
3 220 221 239
3 221 240 239
3 221 222 240
3 222 241 240
3 222 223 241
3 223 242 241
3 223 224 242
3 224 243 242
3 224 225 243
3 225 244 243
3 225 226 244
3 226 245 244
3 226 227 245
3 227 246 245
3 227 228 246
3 228 247 246
3 228 229 247
3 229 248 247
3 229 230 248
3 230 249 248
3 230 231 249
3 231 250 249
3 231 232 250
3 232 251 250
3 232 233 251
3 234 253 252
3 234 235 253
3 235 254 253
3 235 236 254
3 236 255 254
3 236 237 255
3 237 256 255
3 237 238 256
3 238 257 256
3 238 239 257
3 239 258 257
3 239 240 258
3 240 259 258
3 240 241 259
3 241 260 259
3 241 242 260
3 242 261 260
3 242 243 261
3 243 262 261
3 243 244 262
3 244 263 262
3 244 245 263
3 245 264 263
3 245 246 264
3 246 265 264
3 246 247 265
3 247 266 265
3 247 248 266
3 248 267 266
3 248 249 267
3 249 268 267
3 249 250 268
3 250 269 268
3 250 251 269
3 252 271 270
3 252 253 271
3 253 272 271
3 253 254 272
3 254 273 272
3 254 255 273
3 255 274 273
3 255 256 274
3 256 275 274
3 256 257 275
3 257 276 275
3 257 258 276
3 258 277 276
3 258 259 277
3 259 278 277
3 259 260 278
3 260 279 278
3 260 261 279
3 261 280 279
3 261 262 280
3 262 281 280
3 262 263 281
3 263 282 281
3 263 264 282
3 264 283 282
3 264 265 283
3 265 284 283
3 265 266 284
3 266 285 284
3 266 267 285
3 267 286 285
3 267 268 286
3 268 287 286
3 268 269 287
3 288 1 0
3 288 2 1
3 288 3 2
3 288 4 3
3 288 5 4
3 288 6 5
3 288 7 6
3 288 8 7
3 288 9 8
3 288 10 9
3 288 11 10
3 288 12 11
3 288 13 12
3 288 14 13
3 288 15 14
3 288 16 15
3 288 17 16
3 289 270 271
3 289 271 272
3 289 272 273
3 289 273 274
3 289 274 275
3 289 275 276
3 289 276 277
3 289 277 278
3 289 278 279
3 289 279 280
3 289 280 281
3 289 281 282
3 289 282 283
3 289 283 284
3 289 284 285
3 289 285 286
3 289 286 287
