ply
format ascii 1.0
element vertex 540
property float x
property float y
property float z
element face 960
property list uchar int vertex_indices
end_header
0.0000000000 1.7525126266 -0.2474873734
0.0000000000 1.8143844699 -0.1856155301
0.0000000000 1.8762563133 -0.1237436867
0.0000000000 1.9381281566 -0.0618718434
0.0000000000 2.0000000000 0.0000000000
0.0000000000 2.0618718434 0.0618718434
0.0000000000 2.1237436867 0.1237436867
0.0000000000 2.1856155301 0.1856155301
0.0000000000 2.2474873734 0.2474873734
-0.1845768086 1.7561310271 -0.2601006889
-0.1906968381 1.8143592180 -0.1950755167
-0.1968168676 1.8725874089 -0.1300503445
-0.2029368971 1.9308155998 -0.0650251722
-0.2090569265 1.9890437907 0.0000000000
-0.2151769560 2.0472719816 0.0650251722
-0.2212969855 2.1055001725 0.1300503445
-0.2274170150 2.1637283634 0.1950755167
-0.2335370444 2.2219565543 0.2601006889
-0.3700283083 1.7408463208 -0.2720010865
-0.3814770767 1.7947085409 -0.2040008149
-0.3929258450 1.8485707611 -0.1360005433
-0.4043746133 1.9024329813 -0.0680002716
-0.4158233816 1.9562952015 0.0000000000
-0.4272721500 2.0101574216 0.0680002716
-0.4387209183 2.0640196418 0.1360005433
-0.4501696866 2.1178818620 0.2040008149
-0.4616184549 2.1717440822 0.2720010865
-0.5544615175 1.7064570846 -0.2831559480
-0.5703546353 1.7553710716 -0.2123669610
-0.5862477531 1.8042850586 -0.1415779740
-0.6021408709 1.8531990456 -0.0707889870
-0.6180339887 1.9021130326 0.0000000000
-0.6339271066 1.9510270196 0.0707889870
-0.6498202244 1.9999410066 0.1415779740
-0.6657133422 2.0488549936 0.2123669610
-0.6816064600 2.0977689806 0.2831559480
-0.7359396577 1.6529475345 -0.2935346988
-0.7553230648 1.6964833797 -0.2201510241
-0.7747064719 1.7400192249 -0.1467673494
-0.7940898790 1.7835550701 -0.0733836747
-0.8134732862 1.8270909153 0.0000000000
-0.8328566933 1.8706267605 0.0733836747
-0.8522401004 1.9141626057 0.1467673494
-0.8716235075 1.9576984509 0.2201510241
-0.8910069146 2.0012342961 0.2935346988
-0.9125000000 1.5804963619 -0.3031088913
-0.9343750000 1.6183849733 -0.2273316685
-0.9562500000 1.6562735847 -0.1515544457
-0.9781250000 1.6941621962 -0.0757772228
-1.0000000000 1.7320508076 0.0000000000
-1.0218750000 1.7699394190 0.0757772228
-1.0437500000 1.8078280304 0.1515544457
-1.0656250000 1.8457166418 0.2273316685
-1.0875000000 1.8836052532 0.3031088913
-1.0821733824 1.4894838784 -0.3118522835
-1.1055226630 1.5216214060 -0.2338892126
-1.1288719435 1.5537589336 -0.1559261417
-1.1522212240 1.5858964612 -0.0779630709
-1.1755705046 1.6180339887 0.0000000000
-1.1989197851 1.6501715163 0.0779630709
-1.2222690657 1.6823090439 0.1559261417
-1.2456183462 1.7144465715 0.2338892126
-1.2689676267 1.7465840991 0.3118522835
-1.2430052349 1.3804971699 -0.3197409102
-1.2668192294 1.4069452902 -0.2398056826
-1.2906332238 1.4333934104 -0.1598704551
-1.3144472183 1.4598415307 -0.0799352275
-1.3382612127 1.4862896510 0.0000000000
-1.3620752072 1.5127377712 0.0799352275
-1.3858892016 1.5391858915 0.1598704551
-1.4097031961 1.5656340118 0.2398056826
-1.4335171905 1.5920821320 0.3197409102
-1.3930779004 1.2543329755 -0.3267531493
-1.4163808380 1.2753150348 -0.2450648620
-1.4396837757 1.2962970941 -0.1633765746
-1.4629867133 1.3172791534 -0.0816882873
-1.4862896510 1.3382612127 0.0000000000
-1.5095925886 1.3592432720 0.0816882873
-1.5328955262 1.3802253313 0.1633765746
-1.5561984639 1.4012073906 0.2450648620
-1.5795014015 1.4221894499 0.3267531493
-1.5305339887 1.1119980334 -0.3328697807
-1.5524089887 1.1278911512 -0.2496523355
-1.5742839887 1.1437842690 -0.1664348904
-1.5961589887 1.1596773868 -0.0832174452
-1.6180339887 1.1755705046 0.0000000000
-1.6399089887 1.1914636224 0.0832174452
-1.6617839887 1.2073567402 0.1664348904
-1.6836589887 1.2232498580 0.2496523355
-1.7055339887 1.2391429758 0.3328697807
-1.6536004538 0.9547066671 -0.3380740392
-1.6732130422 0.9660300003 -0.2535555294
-1.6928256307 0.9773533336 -0.1690370196
-1.7124382191 0.9886766668 -0.0845185098
-1.7320508076 1.0000000000 0.0000000000
-1.7516633960 1.0113233332 0.0845185098
-1.7712759845 1.0226466664 0.1690370196
-1.7908885729 1.0339699997 0.2535555294
-1.8105011614 1.0452933329 0.3380740392
-1.7606130420 0.7838754300 -0.3423516603
-1.7772325103 0.7912748941 -0.2567637452
-1.7938519787 0.7986743581 -0.1711758301
-1.8104714470 0.8060738221 -0.0855879151
-1.8270909153 0.8134732862 0.0000000000
-1.8437103836 0.8208727502 0.0855879151
-1.8603298519 0.8282722142 0.1711758301
-1.8769493202 0.8356716782 0.2567637452
-1.8935687885 0.8430711423 0.3423516603
-1.8500407265 0.6011146709 -0.3456909192
-1.8630588030 0.6053445003 -0.2592681894
-1.8760768796 0.6095743298 -0.1728454596
-1.8890949561 0.6138041593 -0.0864227298
-1.9021130326 0.6180339887 0.0000000000
-1.9151311091 0.6222638182 0.0864227298
-1.9281491856 0.6264936477 0.1728454596
-1.9411672621 0.6307234772 0.2592681894
-1.9541853387 0.6349533066 0.3456909192
-1.9205097085 0.4082169403 -0.3480826634
-1.9294560818 0.4101185506 -0.2610619975
-1.9384024550 0.4120201610 -0.1740413317
-1.9473488282 0.4139217713 -0.0870206658
-1.9562952015 0.4158233816 0.0000000000
-1.9652415747 0.4177249920 0.0870206658
-1.9741879479 0.4196266023 0.1740413317
-1.9831343212 0.4215282126 0.2610619975
-1.9920806944 0.4234298230 0.3480826634
-1.9708265517 0.2071422176 -0.3495203372
-1.9753808615 0.2076208948 -0.2621402529
-1.9799351712 0.2080995720 -0.1747601686
-1.9844894810 0.2085782493 -0.0873800843
-1.9890437907 0.2090569265 0.0000000000
-1.9935981005 0.2095356038 0.0873800843
-1.9981524103 0.2100142810 0.1747601686
-2.0027067200 0.2104929583 0.2621402529
-2.0072610298 0.2109716355 0.3495203372
-2.0000000000 0.0000000000 -0.3500000000
-2.0000000000 0.0000000000 -0.2625000000
-2.0000000000 0.0000000000 -0.1750000000
-2.0000000000 0.0000000000 -0.0875000000
-2.0000000000 0.0000000000 0.0000000000
-2.0000000000 0.0000000000 0.0875000000
-2.0000000000 0.0000000000 0.1750000000
-2.0000000000 0.0000000000 0.2625000000
-2.0000000000 0.0000000000 0.3500000000
-2.0072610298 -0.2109716355 -0.3495203372
-2.0027067200 -0.2104929583 -0.2621402529
-1.9981524103 -0.2100142810 -0.1747601686
-1.9935981005 -0.2095356038 -0.0873800843
-1.9890437907 -0.2090569265 0.0000000000
-1.9844894810 -0.2085782493 0.0873800843
-1.9799351712 -0.2080995720 0.1747601686
-1.9753808615 -0.2076208948 0.2621402529
-1.9708265517 -0.2071422176 0.3495203372
-1.9920806944 -0.4234298230 -0.3480826634
-1.9831343212 -0.4215282126 -0.2610619975
-1.9741879479 -0.4196266023 -0.1740413317
-1.9652415747 -0.4177249920 -0.0870206658
-1.9562952015 -0.4158233816 0.0000000000
-1.9473488282 -0.4139217713 0.0870206658
-1.9384024550 -0.4120201610 0.1740413317
-1.9294560818 -0.4101185506 0.2610619975
-1.9205097085 -0.4082169403 0.3480826634
-1.9541853387 -0.6349533066 -0.3456909192
-1.9411672621 -0.6307234772 -0.2592681894
-1.9281491856 -0.6264936477 -0.1728454596
-1.9151311091 -0.6222638182 -0.0864227298
-1.9021130326 -0.6180339887 0.0000000000
-1.8890949561 -0.6138041593 0.0864227298
-1.8760768796 -0.6095743298 0.1728454596
-1.8630588030 -0.6053445003 0.2592681894
-1.8500407265 -0.6011146709 0.3456909192
-1.8935687885 -0.8430711423 -0.3423516603
-1.8769493202 -0.8356716782 -0.2567637452
-1.8603298519 -0.8282722142 -0.1711758301
-1.8437103836 -0.8208727502 -0.0855879151
-1.8270909153 -0.8134732862 0.0000000000
-1.8104714470 -0.8060738221 0.0855879151
-1.7938519787 -0.7986743581 0.1711758301
-1.7772325103 -0.7912748941 0.2567637452
-1.7606130420 -0.7838754300 0.3423516603
-1.8105011614 -1.0452933329 -0.3380740392
-1.7908885729 -1.0339699997 -0.2535555294
-1.7712759845 -1.0226466664 -0.1690370196
-1.7516633960 -1.0113233332 -0.0845185098
-1.7320508076 -1.0000000000 0.0000000000
-1.7124382191 -0.9886766668 0.0845185098
-1.6928256307 -0.9773533336 0.1690370196
-1.6732130422 -0.9660300003 0.2535555294
-1.6536004538 -0.9547066671 0.3380740392
-1.7055339887 -1.2391429758 -0.3328697807
-1.6836589887 -1.2232498580 -0.2496523355
-1.6617839887 -1.2073567402 -0.1664348904
-1.6399089887 -1.1914636224 -0.0832174452
-1.6180339887 -1.1755705046 0.0000000000
-1.5961589887 -1.1596773868 0.0832174452
-1.5742839887 -1.1437842690 0.1664348904
-1.5524089887 -1.1278911512 0.2496523355
-1.5305339887 -1.1119980334 0.3328697807
-1.5795014015 -1.4221894499 -0.3267531493
-1.5561984639 -1.4012073906 -0.2450648620
-1.5328955262 -1.3802253313 -0.1633765746
-1.5095925886 -1.3592432720 -0.0816882873
-1.4862896510 -1.3382612127 0.0000000000
-1.4629867133 -1.3172791534 0.0816882873
-1.4396837757 -1.2962970941 0.1633765746
-1.4163808380 -1.2753150348 0.2450648620
-1.3930779004 -1.2543329755 0.3267531493
-1.4335171905 -1.5920821320 -0.3197409102
-1.4097031961 -1.5656340118 -0.2398056826
-1.3858892016 -1.5391858915 -0.1598704551
-1.3620752072 -1.5127377712 -0.0799352275
-1.3382612127 -1.4862896510 0.0000000000
-1.3144472183 -1.4598415307 0.0799352275
-1.2906332238 -1.4333934104 0.1598704551
-1.2668192294 -1.4069452902 0.2398056826
-1.2430052349 -1.3804971699 0.3197409102
-1.2689676267 -1.7465840991 -0.3118522835
-1.2456183462 -1.7144465715 -0.2338892126
-1.2222690657 -1.6823090439 -0.1559261417
-1.1989197851 -1.6501715163 -0.0779630709
-1.1755705046 -1.6180339887 0.0000000000
-1.1522212240 -1.5858964612 0.0779630709
-1.1288719435 -1.5537589336 0.1559261417
-1.1055226630 -1.5216214060 0.2338892126
-1.0821733824 -1.4894838784 0.3118522835
-1.0875000000 -1.8836052532 -0.3031088913
-1.0656250000 -1.8457166418 -0.2273316685
-1.0437500000 -1.8078280304 -0.1515544457
-1.0218750000 -1.7699394190 -0.0757772228
-1.0000000000 -1.7320508076 0.0000000000
-0.9781250000 -1.6941621962 0.0757772228
-0.9562500000 -1.6562735847 0.1515544457
-0.9343750000 -1.6183849733 0.2273316685
-0.9125000000 -1.5804963619 0.3031088913
-0.8910069146 -2.0012342961 -0.2935346988
-0.8716235075 -1.9576984509 -0.2201510241
-0.8522401004 -1.9141626057 -0.1467673494
-0.8328566933 -1.8706267605 -0.0733836747
-0.8134732862 -1.8270909153 0.0000000000
-0.7940898790 -1.7835550701 0.0733836747
-0.7747064719 -1.7400192249 0.1467673494
-0.7553230648 -1.6964833797 0.2201510241
-0.7359396577 -1.6529475345 0.2935346988
-0.6816064600 -2.0977689806 -0.2831559480
-0.6657133422 -2.0488549936 -0.2123669610
-0.6498202244 -1.9999410066 -0.1415779740
-0.6339271066 -1.9510270196 -0.0707889870
-0.6180339887 -1.9021130326 0.0000000000
-0.6021408709 -1.8531990456 0.0707889870
-0.5862477531 -1.8042850586 0.1415779740
-0.5703546353 -1.7553710716 0.2123669610
-0.5544615175 -1.7064570846 0.2831559480
-0.4616184549 -2.1717440822 -0.2720010865
-0.4501696866 -2.1178818620 -0.2040008149
-0.4387209183 -2.0640196418 -0.1360005433
-0.4272721500 -2.0101574216 -0.0680002716
-0.4158233816 -1.9562952015 0.0000000000
-0.4043746133 -1.9024329813 0.0680002716
-0.3929258450 -1.8485707611 0.1360005433
-0.3814770767 -1.7947085409 0.2040008149
-0.3700283083 -1.7408463208 0.2720010865
-0.2335370444 -2.2219565543 -0.2601006889
-0.2274170150 -2.1637283634 -0.1950755167
-0.2212969855 -2.1055001725 -0.1300503445
-0.2151769560 -2.0472719816 -0.0650251722
-0.2090569265 -1.9890437907 0.0000000000
-0.2029368971 -1.9308155998 0.0650251722
-0.1968168676 -1.8725874089 0.1300503445
-0.1906968381 -1.8143592180 0.1950755167
-0.1845768086 -1.7561310271 0.2601006889
-0.0000000000 -2.2474873734 -0.2474873734
-0.0000000000 -2.1856155301 -0.1856155301
-0.0000000000 -2.1237436867 -0.1237436867
-0.0000000000 -2.0618718434 -0.0618718434
-0.0000000000 -2.0000000000 0.0000000000
-0.0000000000 -1.9381281566 0.0618718434
-0.0000000000 -1.8762563133 0.1237436867
-0.0000000000 -1.8143844699 0.1856155301
-0.0000000000 -1.7525126266 0.2474873734
0.2362448518 -2.2477196209 -0.2341957122
0.2294478705 -2.1830506633 -0.1756467842
0.2226508892 -2.1183817058 -0.1170978561
0.2158539079 -2.0537127483 -0.0585489281
0.2090569265 -1.9890437907 0.0000000000
0.2022599452 -1.9243748332 0.0585489281
0.1954629639 -1.8597058757 0.1170978561
0.1886659826 -1.7950369181 0.1756467842
0.1818690012 -1.7303679606 0.2341957122
0.4723755874 -2.2223524116 -0.2202621369
0.4582375360 -2.1558381091 -0.1651966027
0.4440994845 -2.0893238066 -0.1101310684
0.4299614331 -2.0228095040 -0.0550655342
0.4158233816 -1.9562952015 0.0000000000
0.4016853302 -1.8897808989 0.0550655342
0.3875472787 -1.8232665964 0.1101310684
0.3734092273 -1.7567522938 0.1651966027
0.3592711758 -1.6902379913 0.2202621369
0.7055339887 -2.1714103421 -0.2057248383
0.6836589887 -2.1040860147 -0.1542936287
0.6617839887 -2.0367616873 -0.1028624192
0.6399089887 -1.9694373600 -0.0514312096
0.6180339887 -1.9021130326 0.0000000000
0.5961589887 -1.8347887052 0.0514312096
0.5742839887 -1.7674643778 0.1028624192
0.5524089887 -1.7001400505 0.1542936287
0.5305339887 -1.6328157231 0.2057248383
0.9328646042 -2.0952482060 -0.1906236623
0.9030167747 -2.0282088833 -0.1429677467
0.8731689452 -1.9611695607 -0.0953118311
0.8433211157 -1.8941302380 -0.0476559156
0.8134732862 -1.8270909153 0.0000000000
0.7836254566 -1.7600515926 0.0476559156
0.7537776271 -1.6930122699 0.0953118311
0.7239297976 -1.6259729472 0.1429677467
0.6940819681 -1.5589336246 0.1906236623
1.1515544457 -1.9945508076 -0.1750000000
1.1136658342 -1.9289258076 -0.1312500000
1.0757772228 -1.8633008076 -0.0875000000
1.0378886114 -1.7976758076 -0.0437500000
1.0000000000 -1.7320508076 0.0000000000
0.9621113886 -1.6664258076 0.0437500000
0.9242227772 -1.6008008076 0.0875000000
0.8863341658 -1.5351758076 0.1312500000
0.8484455543 -1.4695508076 0.1750000000
1.3588726777 -1.8703277858 -0.1588966749
1.3130471344 -1.8072543365 -0.1191725062
1.2672215911 -1.7441808873 -0.0794483375
1.2213960479 -1.6811074380 -0.0397241687
1.1755705046 -1.6180339887 0.0000000000
1.1297449613 -1.5549605395 0.0397241687
1.0839194180 -1.4918870902 0.0794483375
1.0380938747 -1.4288136410 0.1191725062
0.9922683315 -1.3657401917 0.1588966749
1.5522096418 -1.7239034538 -0.1423578251
1.4987225345 -1.6645000031 -0.1067683688
1.4452354273 -1.6050965524 -0.0711789125
1.3917483200 -1.5456931017 -0.0355894563
1.3382612127 -1.4862896510 0.0000000000
1.2847741054 -1.4268862002 0.0355894563
1.2312869982 -1.3674827495 0.0711789125
1.1777998909 -1.3080792988 0.1067683688
1.1243127836 -1.2486758481 0.1423578251
1.7291145630 -1.5569017456 -0.1254287823
1.6684083350 -1.5022416124 -0.0940715868
1.6077021070 -1.4475814792 -0.0627143912
1.5469958790 -1.3929213459 -0.0313571956
1.4862896510 -1.3382612127 0.0000000000
1.4255834229 -1.2836010795 0.0313571956
1.3648771949 -1.2289409463 0.0627143912
1.3041709669 -1.1742808130 0.0940715868
1.2434647389 -1.1196206798 0.1254287823
1.8873312983 -1.3712264526 -0.1081559480
1.8200069709 -1.3223124656 -0.0811169610
1.7526826435 -1.2733984786 -0.0540779740
1.6853583161 -1.2244844916 -0.0270389870
1.6180339887 -1.1755705046 0.0000000000
1.5507096614 -1.1266565176 0.0270389870
1.4833853340 -1.0777425306 0.0540779740
1.4160610066 -1.0288285436 0.0811169610
1.3487366792 -0.9799145566 0.1081559480
2.0248315139 -1.1690370196 -0.0905866658
1.9516363373 -1.1267777647 -0.0679399993
1.8784411607 -1.0845185098 -0.0452933329
1.8052459841 -1.0422592549 -0.0226466664
1.7320508076 -1.0000000000 0.0000000000
1.6588556310 -0.9577407451 0.0226466664
1.5856604544 -0.9154814902 0.0452933329
1.5124652778 -0.8732222353 0.0679399993
1.4392701013 -0.8309629804 0.0905866658
2.1398447194 -0.9527202512 -0.0727690918
2.0616562684 -0.9179085099 -0.0545768188
1.9834678174 -0.8830967687 -0.0363845459
1.9052793663 -0.8482850274 -0.0181922729
1.8270909153 -0.8134732862 0.0000000000
1.7489024642 -0.7786615449 0.0181922729
1.6707140132 -0.7438498036 0.0363845459
1.5925255622 -0.7090380624 0.0545768188
1.5143371111 -0.6742263211 0.0727690918
2.2308846339 -0.7248583576 -0.0547520628
2.1486917336 -0.6981522654 -0.0410640471
2.0664988333 -0.6714461732 -0.0273760314
1.9843059329 -0.6447400810 -0.0136880157
1.9021130326 -0.6180339887 0.0000000000
1.8199201323 -0.5913278965 0.0136880157
1.7377272319 -0.5646218043 0.0273760314
1.6555343316 -0.5379157121 0.0410640471
1.5733414313 -0.5112096199 0.0547520628
2.2967714235 -0.4881938367 -0.0365849621
2.2116523680 -0.4701012230 -0.0274387216
2.1265333125 -0.4520086092 -0.0182924811
2.0414142570 -0.4339159954 -0.0091462405
1.9562952015 -0.4158233816 0.0000000000
1.8711761460 -0.3977307679 0.0091462405
1.7860570904 -0.3796381541 0.0182924811
1.7009380349 -0.3615455403 0.0274387216
1.6158189794 -0.3434529265 0.0365849621
2.3366494189 -0.2455917503 -0.0183175847
2.2497480119 -0.2364580443 -0.0137381885
2.1628466048 -0.2273243384 -0.0091587923
2.0759451978 -0.2181906325 -0.0045793962
1.9890437907 -0.2090569265 0.0000000000
1.9021423837 -0.1999232206 0.0045793962
1.8152409766 -0.1907895147 0.0091587923
1.7283395696 -0.1816558087 0.0137381885
1.6414381626 -0.1725221028 0.0183175847
2.3500000000 -0.0000000000 -0.0000000000
2.2625000000 -0.0000000000 -0.0000000000
2.1750000000 -0.0000000000 -0.0000000000
2.0875000000 -0.0000000000 -0.0000000000
2.0000000000 -0.0000000000 0.0000000000
1.9125000000 -0.0000000000 0.0000000000
1.8250000000 -0.0000000000 0.0000000000
1.7375000000 -0.0000000000 0.0000000000
1.6500000000 -0.0000000000 0.0000000000
2.3366494189 0.2455917503 0.0183175847
2.2497480119 0.2364580443 0.0137381885
2.1628466048 0.2273243384 0.0091587923
2.0759451978 0.2181906325 0.0045793962
1.9890437907 0.2090569265 -0.0000000000
1.9021423837 0.1999232206 -0.0045793962
1.8152409766 0.1907895147 -0.0091587923
1.7283395696 0.1816558087 -0.0137381885
1.6414381626 0.1725221028 -0.0183175847
2.2967714235 0.4881938367 0.0365849621
2.2116523680 0.4701012230 0.0274387216
2.1265333125 0.4520086092 0.0182924811
2.0414142570 0.4339159954 0.0091462405
1.9562952015 0.4158233816 -0.0000000000
1.8711761460 0.3977307679 -0.0091462405
1.7860570904 0.3796381541 -0.0182924811
1.7009380349 0.3615455403 -0.0274387216
1.6158189794 0.3434529265 -0.0365849621
2.2308846339 0.7248583576 0.0547520628
2.1486917336 0.6981522654 0.0410640471
2.0664988333 0.6714461732 0.0273760314
1.9843059329 0.6447400810 0.0136880157
1.9021130326 0.6180339887 -0.0000000000
1.8199201323 0.5913278965 -0.0136880157
1.7377272319 0.5646218043 -0.0273760314
1.6555343316 0.5379157121 -0.0410640471
1.5733414313 0.5112096199 -0.0547520628
2.1398447194 0.9527202512 0.0727690918
2.0616562684 0.9179085099 0.0545768188
1.9834678174 0.8830967687 0.0363845459
1.9052793663 0.8482850274 0.0181922729
1.8270909153 0.8134732862 -0.0000000000
1.7489024642 0.7786615449 -0.0181922729
1.6707140132 0.7438498036 -0.0363845459
1.5925255622 0.7090380624 -0.0545768188
1.5143371111 0.6742263211 -0.0727690918
2.0248315139 1.1690370196 0.0905866658
1.9516363373 1.1267777647 0.0679399993
1.8784411607 1.0845185098 0.0452933329
1.8052459841 1.0422592549 0.0226466664
1.7320508076 1.0000000000 -0.0000000000
1.6588556310 0.9577407451 -0.0226466664
1.5856604544 0.9154814902 -0.0452933329
1.5124652778 0.8732222353 -0.0679399993
1.4392701013 0.8309629804 -0.0905866658
1.8873312983 1.3712264526 0.1081559480
1.8200069709 1.3223124656 0.0811169610
1.7526826435 1.2733984786 0.0540779740
1.6853583161 1.2244844916 0.0270389870
1.6180339887 1.1755705046 -0.0000000000
1.5507096614 1.1266565176 -0.0270389870
1.4833853340 1.0777425306 -0.0540779740
1.4160610066 1.0288285436 -0.0811169610
1.3487366792 0.9799145566 -0.1081559480
1.7291145630 1.5569017456 0.1254287823
1.6684083350 1.5022416124 0.0940715868
1.6077021070 1.4475814792 0.0627143912
1.5469958790 1.3929213459 0.0313571956
1.4862896510 1.3382612127 -0.0000000000
1.4255834229 1.2836010795 -0.0313571956
1.3648771949 1.2289409463 -0.0627143912
1.3041709669 1.1742808130 -0.0940715868
1.2434647389 1.1196206798 -0.1254287823
1.5522096418 1.7239034538 0.1423578251
1.4987225345 1.6645000031 0.1067683688
1.4452354273 1.6050965524 0.0711789125
1.3917483200 1.5456931017 0.0355894563
1.3382612127 1.4862896510 -0.0000000000
1.2847741054 1.4268862002 -0.0355894563
1.2312869982 1.3674827495 -0.0711789125
1.1777998909 1.3080792988 -0.1067683688
1.1243127836 1.2486758481 -0.1423578251
1.3588726777 1.8703277858 0.1588966749
1.3130471344 1.8072543365 0.1191725062
1.2672215911 1.7441808873 0.0794483375
1.2213960479 1.6811074380 0.0397241687
1.1755705046 1.6180339887 -0.0000000000
1.1297449613 1.5549605395 -0.0397241687
1.0839194180 1.4918870902 -0.0794483375
1.0380938747 1.4288136410 -0.1191725062
0.9922683315 1.3657401917 -0.1588966749
1.1515544457 1.9945508076 0.1750000000
1.1136658342 1.9289258076 0.1312500000
1.0757772228 1.8633008076 0.0875000000
1.0378886114 1.7976758076 0.0437500000
1.0000000000 1.7320508076 -0.0000000000
0.9621113886 1.6664258076 -0.0437500000
0.9242227772 1.6008008076 -0.0875000000
0.8863341658 1.5351758076 -0.1312500000
0.8484455543 1.4695508076 -0.1750000000
0.9328646042 2.0952482060 0.1906236623
0.9030167747 2.0282088833 0.1429677467
0.8731689452 1.9611695607 0.0953118311
0.8433211157 1.8941302380 0.0476559156
0.8134732862 1.8270909153 -0.0000000000
0.7836254566 1.7600515926 -0.0476559156
0.7537776271 1.6930122699 -0.0953118311
0.7239297976 1.6259729472 -0.1429677467
0.6940819681 1.5589336246 -0.1906236623
0.7055339887 2.1714103421 0.2057248383
0.6836589887 2.1040860147 0.1542936287
0.6617839887 2.0367616873 0.1028624192
0.6399089887 1.9694373600 0.0514312096
0.6180339887 1.9021130326 -0.0000000000
0.5961589887 1.8347887052 -0.0514312096
0.5742839887 1.7674643778 -0.1028624192
0.5524089887 1.7001400505 -0.1542936287
0.5305339887 1.6328157231 -0.2057248383
0.4723755874 2.2223524116 0.2202621369
0.4582375360 2.1558381091 0.1651966027
0.4440994845 2.0893238066 0.1101310684
0.4299614331 2.0228095040 0.0550655342
0.4158233816 1.9562952015 -0.0000000000
0.4016853302 1.8897808989 -0.0550655342
0.3875472787 1.8232665964 -0.1101310684
0.3734092273 1.7567522938 -0.1651966027
0.3592711758 1.6902379913 -0.2202621369
0.2362448518 2.2477196209 0.2341957122
0.2294478705 2.1830506633 0.1756467842
0.2226508892 2.1183817058 0.1170978561
0.2158539079 2.0537127483 0.0585489281
0.2090569265 1.9890437907 -0.0000000000
0.2022599452 1.9243748332 -0.0585489281
0.1954629639 1.8597058757 -0.1170978561
0.1886659826 1.7950369181 -0.1756467842
0.1818690012 1.7303679606 -0.2341957122
3 0 9 10
3 0 10 1
3 1 10 11
3 1 11 2
3 2 11 12
3 2 12 3
3 3 12 13
3 3 13 4
3 4 13 14
3 4 14 5
3 5 14 15
3 5 15 6
3 6 15 16
3 6 16 7
3 7 16 17
3 7 17 8
3 9 18 19
3 9 19 10
3 10 19 20
3 10 20 11
3 11 20 21
3 11 21 12
3 12 21 22
3 12 22 13
3 13 22 23
3 13 23 14
3 14 23 24
3 14 24 15
3 15 24 25
3 15 25 16
3 16 25 26
3 16 26 17
3 18 27 28
3 18 28 19
3 19 28 29
3 19 29 20
3 20 29 30
3 20 30 21
3 21 30 31
3 21 31 22
3 22 31 32
3 22 32 23
3 23 32 33
3 23 33 24
3 24 33 34
3 24 34 25
3 25 34 35
3 25 35 26
3 27 36 37
3 27 37 28
3 28 37 38
3 28 38 29
3 29 38 39
3 29 39 30
3 30 39 40
3 30 40 31
3 31 40 41
3 31 41 32
3 32 41 42
3 32 42 33
3 33 42 43
3 33 43 34
3 34 43 44
3 34 44 35
3 36 45 46
3 36 46 37
3 37 46 47
3 37 47 38
3 38 47 48
3 38 48 39
3 39 48 49
3 39 49 40
3 40 49 50
3 40 50 41
3 41 50 51
3 41 51 42
3 42 51 52
3 42 52 43
3 43 52 53
3 43 53 44
3 45 54 55
3 45 55 46
3 46 55 56
3 46 56 47
3 47 56 57
3 47 57 48
3 48 57 58
3 48 58 49
3 49 58 59
3 49 59 50
3 50 59 60
3 50 60 51
3 51 60 61
3 51 61 52
3 52 61 62
3 52 62 53
3 54 63 64
3 54 64 55
3 55 64 65
3 55 65 56
3 56 65 66
3 56 66 57
3 57 66 67
3 57 67 58
3 58 67 68
3 58 68 59
3 59 68 69
3 59 69 60
3 60 69 70
3 60 70 61
3 61 70 71
3 61 71 62
3 63 72 73
3 63 73 64
3 64 73 74
3 64 74 65
3 65 74 75
3 65 75 66
3 66 75 76
3 66 76 67
3 67 76 77
3 67 77 68
3 68 77 78
3 68 78 69
3 69 78 79
3 69 79 70
3 70 79 80
3 70 80 71
3 72 81 82
3 72 82 73
3 73 82 83
3 73 83 74
3 74 83 84
3 74 84 75
3 75 84 85
3 75 85 76
3 76 85 86
3 76 86 77
3 77 86 87
3 77 87 78
3 78 87 88
3 78 88 79
3 79 88 89
3 79 89 80
3 81 90 91
3 81 91 82
3 82 91 92
3 82 92 83
3 83 92 93
3 83 93 84
3 84 93 94
3 84 94 85
3 85 94 95
3 85 95 86
3 86 95 96
3 86 96 87
3 87 96 97
3 87 97 88
3 88 97 98
3 88 98 89
3 90 99 100
3 90 100 91
3 91 100 101
3 91 101 92
3 92 101 102
3 92 102 93
3 93 102 103
3 93 103 94
3 94 103 104
3 94 104 95
3 95 104 105
3 95 105 96
3 96 105 106
3 96 106 97
3 97 106 107
3 97 107 98
3 99 108 109
3 99 109 100
3 100 109 110
3 100 110 101
3 101 110 111
3 101 111 102
3 102 111 112
3 102 112 103
3 103 112 113
3 103 113 104
3 104 113 114
3 104 114 105
3 105 114 115
3 105 115 106
3 106 115 116
3 106 116 107
3 108 117 118
3 108 118 109
3 109 118 119
3 109 119 110
3 110 119 120
3 110 120 111
3 111 120 121
3 111 121 112
3 112 121 122
3 112 122 113
3 113 122 123
3 113 123 114
3 114 123 124
3 114 124 115
3 115 124 125
3 115 125 116
3 117 126 127
3 117 127 118
3 118 127 128
3 118 128 119
3 119 128 129
3 119 129 120
3 120 129 130
3 120 130 121
3 121 130 131
3 121 131 122
3 122 131 132
3 122 132 123
3 123 132 133
3 123 133 124
3 124 133 134
3 124 134 125
3 126 135 136
3 126 136 127
3 127 136 137
3 127 137 128
3 128 137 138
3 128 138 129
3 129 138 139
3 129 139 130
3 130 139 140
3 130 140 131
3 131 140 141
3 131 141 132
3 132 141 142
3 132 142 133
3 133 142 143
3 133 143 134
3 135 144 145
3 135 145 136
3 136 145 146
3 136 146 137
3 137 146 147
3 137 147 138
3 138 147 148
3 138 148 139
3 139 148 149
3 139 149 140
3 140 149 150
3 140 150 141
3 141 150 151
3 141 151 142
3 142 151 152
3 142 152 143
3 144 153 154
3 144 154 145
3 145 154 155
3 145 155 146
3 146 155 156
3 146 156 147
3 147 156 157
3 147 157 148
3 148 157 158
3 148 158 149
3 149 158 159
3 149 159 150
3 150 159 160
3 150 160 151
3 151 160 161
3 151 161 152
3 153 162 163
3 153 163 154
3 154 163 164
3 154 164 155
3 155 164 165
3 155 165 156
3 156 165 166
3 156 166 157
3 157 166 167
3 157 167 158
3 158 167 168
3 158 168 159
3 159 168 169
3 159 169 160
3 160 169 170
3 160 170 161
3 162 171 172
3 162 172 163
3 163 172 173
3 163 173 164
3 164 173 174
3 164 174 165
3 165 174 175
3 165 175 166
3 166 175 176
3 166 176 167
3 167 176 177
3 167 177 168
3 168 177 178
3 168 178 169
3 169 178 179
3 169 179 170
3 171 180 181
3 171 181 172
3 172 181 182
3 172 182 173
3 173 182 183
3 173 183 174
3 174 183 184
3 174 184 175
3 175 184 185
3 175 185 176
3 176 185 186
3 176 186 177
3 177 186 187
3 177 187 178
3 178 187 188
3 178 188 179
3 180 189 190
3 180 190 181
3 181 190 191
3 181 191 182
3 182 191 192
3 182 192 183
3 183 192 193
3 183 193 184
3 184 193 194
3 184 194 185
3 185 194 195
3 185 195 186
3 186 195 196
3 186 196 187
3 187 196 197
3 187 197 188
3 189 198 199
3 189 199 190
3 190 199 200
3 190 200 191
3 191 200 201
3 191 201 192
3 192 201 202
3 192 202 193
3 193 202 203
3 193 203 194
3 194 203 204
3 194 204 195
3 195 204 205
3 195 205 196
3 196 205 206
3 196 206 197
3 198 207 208
3 198 208 199
3 199 208 209
3 199 209 200
3 200 209 210
3 200 210 201
3 201 210 211
3 201 211 202
3 202 211 212
3 202 212 203
3 203 212 213
3 203 213 204
3 204 213 214
3 204 214 205
3 205 214 215
3 205 215 206
3 207 216 217
3 207 217 208
3 208 217 218
3 208 218 209
3 209 218 219
3 209 219 210
3 210 219 220
3 210 220 211
3 211 220 221
3 211 221 212
3 212 221 222
3 212 222 213
3 213 222 223
3 213 223 214
3 214 223 224
3 214 224 215
3 216 225 226
3 216 226 217
3 217 226 227
3 217 227 218
3 218 227 228
3 218 228 219
3 219 228 229
3 219 229 220
3 220 229 230
3 220 230 221
3 221 230 231
3 221 231 222
3 222 231 232
3 222 232 223
3 223 232 233
3 223 233 224
3 225 234 235
3 225 235 226
3 226 235 236
3 226 236 227
3 227 236 237
3 227 237 228
3 228 237 238
3 228 238 229
3 229 238 239
3 229 239 230
3 230 239 240
3 230 240 231
3 231 240 241
3 231 241 232
3 232 241 242
3 232 242 233
3 234 243 244
3 234 244 235
3 235 244 245
3 235 245 236
3 236 245 246
3 236 246 237
3 237 246 247
3 237 247 238
3 238 247 248
3 238 248 239
3 239 248 249
3 239 249 240
3 240 249 250
3 240 250 241
3 241 250 251
3 241 251 242
3 243 252 253
3 243 253 244
3 244 253 254
3 244 254 245
3 245 254 255
3 245 255 246
3 246 255 256
3 246 256 247
3 247 256 257
3 247 257 248
3 248 257 258
3 248 258 249
3 249 258 259
3 249 259 250
3 250 259 260
3 250 260 251
3 252 261 262
3 252 262 253
3 253 262 263
3 253 263 254
3 254 263 264
3 254 264 255
3 255 264 265
3 255 265 256
3 256 265 266
3 256 266 257
3 257 266 267
3 257 267 258
3 258 267 268
3 258 268 259
3 259 268 269
3 259 269 260
3 261 270 271
3 261 271 262
3 262 271 272
3 262 272 263
3 263 272 273
3 263 273 264
3 264 273 274
3 264 274 265
3 265 274 275
3 265 275 266
3 266 275 276
3 266 276 267
3 267 276 277
3 267 277 268
3 268 277 278
3 268 278 269
3 270 279 280
3 270 280 271
3 271 280 281
3 271 281 272
3 272 281 282
3 272 282 273
3 273 282 283
3 273 283 274
3 274 283 284
3 274 284 275
3 275 284 285
3 275 285 276
3 276 285 286
3 276 286 277
3 277 286 287
3 277 287 278
3 279 288 289
3 279 289 280
3 280 289 290
3 280 290 281
3 281 290 291
3 281 291 282
3 282 291 292
3 282 292 283
3 283 292 293
3 283 293 284
3 284 293 294
3 284 294 285
3 285 294 295
3 285 295 286
3 286 295 296
3 286 296 287
3 288 297 298
3 288 298 289
3 289 298 299
3 289 299 290
3 290 299 300
3 290 300 291
3 291 300 301
3 291 301 292
3 292 301 302
3 292 302 293
3 293 302 303
3 293 303 294
3 294 303 304
3 294 304 295
3 295 304 305
3 295 305 296
3 297 306 307
3 297 307 298
3 298 307 308
3 298 308 299
3 299 308 309
3 299 309 300
3 300 309 310
3 300 310 301
3 301 310 311
3 301 311 302
3 302 311 312
3 302 312 303
3 303 312 313
3 303 313 304
3 304 313 314
3 304 314 305
3 306 315 316
3 306 316 307
3 307 316 317
3 307 317 308
3 308 317 318
3 308 318 309
3 309 318 319
3 309 319 310
3 310 319 320
3 310 320 311
3 311 320 321
3 311 321 312
3 312 321 322
3 312 322 313
3 313 322 323
3 313 323 314
3 315 324 325
3 315 325 316
3 316 325 326
3 316 326 317
3 317 326 327
3 317 327 318
3 318 327 328
3 318 328 319
3 319 328 329
3 319 329 320
3 320 329 330
3 320 330 321
3 321 330 331
3 321 331 322
3 322 331 332
3 322 332 323
3 324 333 334
3 324 334 325
3 325 334 335
3 325 335 326
3 326 335 336
3 326 336 327
3 327 336 337
3 327 337 328
3 328 337 338
3 328 338 329
3 329 338 339
3 329 339 330
3 330 339 340
3 330 340 331
3 331 340 341
3 331 341 332
3 333 342 343
3 333 343 334
3 334 343 344
3 334 344 335
3 335 344 345
3 335 345 336
3 336 345 346
3 336 346 337
3 337 346 347
3 337 347 338
3 338 347 348
3 338 348 339
3 339 348 349
3 339 349 340
3 340 349 350
3 340 350 341
3 342 351 352
3 342 352 343
3 343 352 353
3 343 353 344
3 344 353 354
3 344 354 345
3 345 354 355
3 345 355 346
3 346 355 356
3 346 356 347
3 347 356 357
3 347 357 348
3 348 357 358
3 348 358 349
3 349 358 359
3 349 359 350
3 351 360 361
3 351 361 352
3 352 361 362
3 352 362 353
3 353 362 363
3 353 363 354
3 354 363 364
3 354 364 355
3 355 364 365
3 355 365 356
3 356 365 366
3 356 366 357
3 357 366 367
3 357 367 358
3 358 367 368
3 358 368 359
3 360 369 370
3 360 370 361
3 361 370 371
3 361 371 362
3 362 371 372
3 362 372 363
3 363 372 373
3 363 373 364
3 364 373 374
3 364 374 365
3 365 374 375
3 365 375 366
3 366 375 376
3 366 376 367
3 367 376 377
3 367 377 368
3 369 378 379
3 369 379 370
3 370 379 380
3 370 380 371
3 371 380 381
3 371 381 372
3 372 381 382
3 372 382 373
3 373 382 383
3 373 383 374
3 374 383 384
3 374 384 375
3 375 384 385
3 375 385 376
3 376 385 386
3 376 386 377
3 378 387 388
3 378 388 379
3 379 388 389
3 379 389 380
3 380 389 390
3 380 390 381
3 381 390 391
3 381 391 382
3 382 391 392
3 382 392 383
3 383 392 393
3 383 393 384
3 384 393 394
3 384 394 385
3 385 394 395
3 385 395 386
3 387 396 397
3 387 397 388
3 388 397 398
3 388 398 389
3 389 398 399
3 389 399 390
3 390 399 400
3 390 400 391
3 391 400 401
3 391 401 392
3 392 401 402
3 392 402 393
3 393 402 403
3 393 403 394
3 394 403 404
3 394 404 395
3 396 405 406
3 396 406 397
3 397 406 407
3 397 407 398
3 398 407 408
3 398 408 399
3 399 408 409
3 399 409 400
3 400 409 410
3 400 410 401
3 401 410 411
3 401 411 402
3 402 411 412
3 402 412 403
3 403 412 413
3 403 413 404
3 405 414 415
3 405 415 406
3 406 415 416
3 406 416 407
3 407 416 417
3 407 417 408
3 408 417 418
3 408 418 409
3 409 418 419
3 409 419 410
3 410 419 420
3 410 420 411
3 411 420 421
3 411 421 412
3 412 421 422
3 412 422 413
3 414 423 424
3 414 424 415
3 415 424 425
3 415 425 416
3 416 425 426
3 416 426 417
3 417 426 427
3 417 427 418
3 418 427 428
3 418 428 419
3 419 428 429
3 419 429 420
3 420 429 430
3 420 430 421
3 421 430 431
3 421 431 422
3 423 432 433
3 423 433 424
3 424 433 434
3 424 434 425
3 425 434 435
3 425 435 426
3 426 435 436
3 426 436 427
3 427 436 437
3 427 437 428
3 428 437 438
3 428 438 429
3 429 438 439
3 429 439 430
3 430 439 440
3 430 440 431
3 432 441 442
3 432 442 433
3 433 442 443
3 433 443 434
3 434 443 444
3 434 444 435
3 435 444 445
3 435 445 436
3 436 445 446
3 436 446 437
3 437 446 447
3 437 447 438
3 438 447 448
3 438 448 439
3 439 448 449
3 439 449 440
3 441 450 451
3 441 451 442
3 442 451 452
3 442 452 443
3 443 452 453
3 443 453 444
3 444 453 454
3 444 454 445
3 445 454 455
3 445 455 446
3 446 455 456
3 446 456 447
3 447 456 457
3 447 457 448
3 448 457 458
3 448 458 449
3 450 459 460
3 450 460 451
3 451 460 461
3 451 461 452
3 452 461 462
3 452 462 453
3 453 462 463
3 453 463 454
3 454 463 464
3 454 464 455
3 455 464 465
3 455 465 456
3 456 465 466
3 456 466 457
3 457 466 467
3 457 467 458
3 459 468 469
3 459 469 460
3 460 469 470
3 460 470 461
3 461 470 471
3 461 471 462
3 462 471 472
3 462 472 463
3 463 472 473
3 463 473 464
3 464 473 474
3 464 474 465
3 465 474 475
3 465 475 466
3 466 475 476
3 466 476 467
3 468 477 478
3 468 478 469
3 469 478 479
3 469 479 470
3 470 479 480
3 470 480 471
3 471 480 481
3 471 481 472
3 472 481 482
3 472 482 473
3 473 482 483
3 473 483 474
3 474 483 484
3 474 484 475
3 475 484 485
3 475 485 476
3 477 486 487
3 477 487 478
3 478 487 488
3 478 488 479
3 479 488 489
3 479 489 480
3 480 489 490
3 480 490 481
3 481 490 491
3 481 491 482
3 482 491 492
3 482 492 483
3 483 492 493
3 483 493 484
3 484 493 494
3 484 494 485
3 486 495 496
3 486 496 487
3 487 496 497
3 487 497 488
3 488 497 498
3 488 498 489
3 489 498 499
3 489 499 490
3 490 499 500
3 490 500 491
3 491 500 501
3 491 501 492
3 492 501 502
3 492 502 493
3 493 502 503
3 493 503 494
3 495 504 505
3 495 505 496
3 496 505 506
3 496 506 497
3 497 506 507
3 497 507 498
3 498 507 508
3 498 508 499
3 499 508 509
3 499 509 500
3 500 509 510
3 500 510 501
3 501 510 511
3 501 511 502
3 502 511 512
3 502 512 503
3 504 513 514
3 504 514 505
3 505 514 515
3 505 515 506
3 506 515 516
3 506 516 507
3 507 516 517
3 507 517 508
3 508 517 518
3 508 518 509
3 509 518 519
3 509 519 510
3 510 519 520
3 510 520 511
3 511 520 521
3 511 521 512
3 513 522 523
3 513 523 514
3 514 523 524
3 514 524 515
3 515 524 525
3 515 525 516
3 516 525 526
3 516 526 517
3 517 526 527
3 517 527 518
3 518 527 528
3 518 528 519
3 519 528 529
3 519 529 520
3 520 529 530
3 520 530 521
3 522 531 532
3 522 532 523
3 523 532 533
3 523 533 524
3 524 533 534
3 524 534 525
3 525 534 535
3 525 535 526
3 526 535 536
3 526 536 527
3 527 536 537
3 527 537 528
3 528 537 538
3 528 538 529
3 529 538 539
3 529 539 530
3 531 8 7
3 531 7 532
3 532 7 6
3 532 6 533
3 533 6 5
3 533 5 534
3 534 5 4
3 534 4 535
3 535 4 3
3 535 3 536
3 536 3 2
3 536 2 537
3 537 2 1
3 537 1 538
3 538 1 0
3 538 0 539
