ply
format ascii 1.0
element vertex 1025
property float x
property float y
property float z
element face 1984
property list uchar int vertex_indices
end_header
0 0 0
0.0625 0 0
0.062199044972658157349 0.0061260713264346122742 0
0.061299078166484832764 0.012193145230412483215 0
0.059808772057294845581 0.018142791464924812317 0
0.05774246901273727417 0.023917714133858680725 0
0.055120080709457397461 0.029462296515703201294 0
0.051966849714517593384 0.034723140299320220947 0
0.048313152045011520386 0.039649579674005508423 0
0.044194173067808151245 0.044194173067808151245 0
0.039649579674005508423 0.048313152045011520386 0
0.034723140299320220947 0.051966849714517593384 0
0.029462296515703201294 0.055120080709457397461 0
0.023917714133858680725 0.05774246901273727417 0
0.018142791464924812317 0.059808772057294845581 0
0.012193145230412483215 0.061299078166484832764 0
0.0061260713264346122742 0.062199044972658157349 0
3.8270214143286495451e-18 0.0625 0
-0.0061260713264346122742 0.062199044972658157349 0
-0.012193145230412483215 0.061299078166484832764 0
-0.018142791464924812317 0.059808772057294845581 0
-0.023917714133858680725 0.05774246901273727417 0
-0.029462296515703201294 0.055120080709457397461 0
-0.034723140299320220947 0.051966849714517593384 0
-0.039649579674005508423 0.048313152045011520386 0
-0.044194173067808151245 0.044194173067808151245 0
-0.048313152045011520386 0.039649579674005508423 0
-0.051966849714517593384 0.034723140299320220947 0
-0.055120080709457397461 0.029462296515703201294 0
-0.05774246901273727417 0.023917714133858680725 0
-0.059808772057294845581 0.018142791464924812317 0
-0.061299078166484832764 0.012193145230412483215 0
-0.062199044972658157349 0.0061260713264346122742 0
-0.0625 7.6540428286572990903e-18 0
-0.062199044972658157349 -0.0061260713264346122742 0
-0.061299078166484832764 -0.012193145230412483215 0
-0.059808772057294845581 -0.018142791464924812317 0
-0.05774246901273727417 -0.023917714133858680725 0
-0.055120080709457397461 -0.029462296515703201294 0
-0.051966849714517593384 -0.034723140299320220947 0
-0.048313152045011520386 -0.039649579674005508423 0
-0.044194173067808151245 -0.044194173067808151245 0
-0.039649579674005508423 -0.048313152045011520386 0
-0.034723140299320220947 -0.051966849714517593384 0
-0.029462296515703201294 -0.055120080709457397461 0
-0.023917714133858680725 -0.05774246901273727417 0
-0.018142791464924812317 -0.059808772057294845581 0
-0.012193145230412483215 -0.061299078166484832764 0
-0.0061260713264346122742 -0.062199044972658157349 0
-1.1481063415805336082e-17 -0.0625 0
0.0061260713264346122742 -0.062199044972658157349 0
0.012193145230412483215 -0.061299078166484832764 0
0.018142791464924812317 -0.059808772057294845581 0
0.023917714133858680725 -0.05774246901273727417 0
0.029462296515703201294 -0.055120080709457397461 0
0.034723140299320220947 -0.051966849714517593384 0
0.039649579674005508423 -0.048313152045011520386 0
0.044194173067808151245 -0.044194173067808151245 0
0.048313152045011520386 -0.039649579674005508423 0
0.051966849714517593384 -0.034723140299320220947 0
0.055120080709457397461 -0.029462296515703201294 0
0.05774246901273727417 -0.023917714133858680725 0
0.059808772057294845581 -0.018142791464924812317 0
0.061299078166484832764 -0.012193145230412483215 0
0.062199044972658157349 -0.0061260713264346122742 0
0.125 0 0
0.1243980899453163147 0.012252142652869224548 0
0.12259815633296966553 0.024386290460824966431 0
0.11961754411458969116 0.036285582929849624634 0
0.11548493802547454834 0.04783542826771736145 0
0.11024016141891479492 0.058924593031406402588 0
0.10393369942903518677 0.069446280598640441895 0
0.096626304090023040771 0.079299159348011016846 0
0.08838834613561630249 0.08838834613561630249 0
0.079299159348011016846 0.096626304090023040771 0
0.069446280598640441895 0.10393369942903518677 0
0.058924593031406402588 0.11024016141891479492 0
0.04783542826771736145 0.11548493802547454834 0
0.036285582929849624634 0.11961754411458969116 0
0.024386290460824966431 0.12259815633296966553 0
0.012252142652869224548 0.1243980899453163147 0
7.6540428286572990903e-18 0.125 0
-0.012252142652869224548 0.1243980899453163147 0
-0.024386290460824966431 0.12259815633296966553 0
-0.036285582929849624634 0.11961754411458969116 0
-0.04783542826771736145 0.11548493802547454834 0
-0.058924593031406402588 0.11024016141891479492 0
-0.069446280598640441895 0.10393369942903518677 0
-0.079299159348011016846 0.096626304090023040771 0
-0.08838834613561630249 0.08838834613561630249 0
-0.096626304090023040771 0.079299159348011016846 0
-0.10393369942903518677 0.069446280598640441895 0
-0.11024016141891479492 0.058924593031406402588 0
-0.11548493802547454834 0.04783542826771736145 0
-0.11961754411458969116 0.036285582929849624634 0
-0.12259815633296966553 0.024386290460824966431 0
-0.1243980899453163147 0.012252142652869224548 0
-0.125 1.5308085657314598181e-17 0
-0.1243980899453163147 -0.012252142652869224548 0
-0.12259815633296966553 -0.024386290460824966431 0
-0.11961754411458969116 -0.036285582929849624634 0
-0.11548493802547454834 -0.04783542826771736145 0
-0.11024016141891479492 -0.058924593031406402588 0
-0.10393369942903518677 -0.069446280598640441895 0
-0.096626304090023040771 -0.079299159348011016846 0
-0.08838834613561630249 -0.08838834613561630249 0
-0.079299159348011016846 -0.096626304090023040771 0
-0.069446280598640441895 -0.10393369942903518677 0
-0.058924593031406402588 -0.11024016141891479492 0
-0.04783542826771736145 -0.11548493802547454834 0
-0.036285582929849624634 -0.11961754411458969116 0
-0.024386290460824966431 -0.12259815633296966553 0
-0.012252142652869224548 -0.1243980899453163147 0
-2.2962126831610672165e-17 -0.125 0
0.012252142652869224548 -0.1243980899453163147 0
0.024386290460824966431 -0.12259815633296966553 0
0.036285582929849624634 -0.11961754411458969116 0
0.04783542826771736145 -0.11548493802547454834 0
0.058924593031406402588 -0.11024016141891479492 0
0.069446280598640441895 -0.10393369942903518677 0
0.079299159348011016846 -0.096626304090023040771 0
0.08838834613561630249 -0.08838834613561630249 0
0.096626304090023040771 -0.079299159348011016846 0
0.10393369942903518677 -0.069446280598640441895 0
0.11024016141891479492 -0.058924593031406402588 0
0.11548493802547454834 -0.04783542826771736145 0
0.11961754411458969116 -0.036285582929849624634 0
0.12259815633296966553 -0.024386290460824966431 0
0.1243980899453163147 -0.012252142652869224548 0
0.1875 0 0
0.18659713864326477051 0.018378213047981262207 0
0.18389724195003509521 0.036579433828592300415 0
0.17942631244659423828 0.054428376257419586182 0
0.17322741448879241943 0.071753144264221191406 0
0.16536024212837219238 0.08838688582181930542 0
0.15590055286884307861 0.10416942089796066284 0
0.14493946731090545654 0.11894874274730682373 0
0.13258251547813415527 0.13258251547813415527 0
0.11894874274730682373 0.14493946731090545654 0
0.10416942089796066284 0.15590055286884307861 0
0.08838688582181930542 0.16536024212837219238 0
0.071753144264221191406 0.17322741448879241943 0
0.054428376257419586182 0.17942631244659423828 0
0.036579433828592300415 0.18389724195003509521 0
0.018378213047981262207 0.18659713864326477051 0
1.1481063415805336082e-17 0.1875 0
-0.018378213047981262207 0.18659713864326477051 0
-0.036579433828592300415 0.18389724195003509521 0
-0.054428376257419586182 0.17942631244659423828 0
-0.071753144264221191406 0.17322741448879241943 0
-0.08838688582181930542 0.16536024212837219238 0
-0.10416942089796066284 0.15590055286884307861 0
-0.11894874274730682373 0.14493946731090545654 0
-0.13258251547813415527 0.13258251547813415527 0
-0.14493946731090545654 0.11894874274730682373 0
-0.15590055286884307861 0.10416942089796066284 0
-0.16536024212837219238 0.08838688582181930542 0
-0.17322741448879241943 0.071753144264221191406 0
-0.17942631244659423828 0.054428376257419586182 0
-0.18389724195003509521 0.036579433828592300415 0
-0.18659713864326477051 0.018378213047981262207 0
-0.1875 2.2962126831610672165e-17 0
-0.18659713864326477051 -0.018378213047981262207 0
-0.18389724195003509521 -0.036579433828592300415 0
-0.17942631244659423828 -0.054428376257419586182 0
-0.17322741448879241943 -0.071753144264221191406 0
-0.16536024212837219238 -0.08838688582181930542 0
-0.15590055286884307861 -0.10416942089796066284 0
-0.14493946731090545654 -0.11894874274730682373 0
-0.13258251547813415527 -0.13258251547813415527 0
-0.11894874274730682373 -0.14493946731090545654 0
-0.10416942089796066284 -0.15590055286884307861 0
-0.08838688582181930542 -0.16536024212837219238 0
-0.071753144264221191406 -0.17322741448879241943 0
-0.054428376257419586182 -0.17942631244659423828 0
-0.036579433828592300415 -0.18389724195003509521 0
-0.018378213047981262207 -0.18659713864326477051 0
-3.4443191901777233353e-17 -0.1875 0
0.018378213047981262207 -0.18659713864326477051 0
0.036579433828592300415 -0.18389724195003509521 0
0.054428376257419586182 -0.17942631244659423828 0
0.071753144264221191406 -0.17322741448879241943 0
0.08838688582181930542 -0.16536024212837219238 0
0.10416942089796066284 -0.15590055286884307861 0
0.11894874274730682373 -0.14493946731090545654 0
0.13258251547813415527 -0.13258251547813415527 0
0.14493946731090545654 -0.11894874274730682373 0
0.15590055286884307861 -0.10416942089796066284 0
0.16536024212837219238 -0.08838688582181930542 0
0.17322741448879241943 -0.071753144264221191406 0
0.17942631244659423828 -0.054428376257419586182 0
0.18389724195003509521 -0.036579433828592300415 0
0.18659713864326477051 -0.018378213047981262207 0
0.25 0 0
0.24879617989063262939 0.024504285305738449097 0
0.24519631266593933105 0.048772580921649932861 0
0.23923508822917938232 0.072571165859699249268 0
0.23096987605094909668 0.0956708565354347229 0
0.22048032283782958984 0.11784918606281280518 0
0.20786739885807037354 0.13889256119728088379 0
0.19325260818004608154 0.15859831869602203369 0
0.17677669227123260498 0.17677669227123260498 0
0.15859831869602203369 0.19325260818004608154 0
0.13889256119728088379 0.20786739885807037354 0
0.11784918606281280518 0.22048032283782958984 0
0.0956708565354347229 0.23096987605094909668 0
0.072571165859699249268 0.23923508822917938232 0
0.048772580921649932861 0.24519631266593933105 0
0.024504285305738449097 0.24879617989063262939 0
1.5308085657314598181e-17 0.25 0
-0.024504285305738449097 0.24879617989063262939 0
-0.048772580921649932861 0.24519631266593933105 0
-0.072571165859699249268 0.23923508822917938232 0
-0.0956708565354347229 0.23096987605094909668 0
-0.11784918606281280518 0.22048032283782958984 0
-0.13889256119728088379 0.20786739885807037354 0
-0.15859831869602203369 0.19325260818004608154 0
-0.17677669227123260498 0.17677669227123260498 0
-0.19325260818004608154 0.15859831869602203369 0
-0.20786739885807037354 0.13889256119728088379 0
-0.22048032283782958984 0.11784918606281280518 0
-0.23096987605094909668 0.0956708565354347229 0
-0.23923508822917938232 0.072571165859699249268 0
-0.24519631266593933105 0.048772580921649932861 0
-0.24879617989063262939 0.024504285305738449097 0
-0.25 3.0616171314629196361e-17 0
-0.24879617989063262939 -0.024504285305738449097 0
-0.24519631266593933105 -0.048772580921649932861 0
-0.23923508822917938232 -0.072571165859699249268 0
-0.23096987605094909668 -0.0956708565354347229 0
-0.22048032283782958984 -0.11784918606281280518 0
-0.20786739885807037354 -0.13889256119728088379 0
-0.19325260818004608154 -0.15859831869602203369 0
-0.17677669227123260498 -0.17677669227123260498 0
-0.15859831869602203369 -0.19325260818004608154 0
-0.13889256119728088379 -0.20786739885807037354 0
-0.11784918606281280518 -0.22048032283782958984 0
-0.0956708565354347229 -0.23096987605094909668 0
-0.072571165859699249268 -0.23923508822917938232 0
-0.048772580921649932861 -0.24519631266593933105 0
-0.024504285305738449097 -0.24879617989063262939 0
-4.592425366322134433e-17 -0.25 0
0.024504285305738449097 -0.24879617989063262939 0
0.048772580921649932861 -0.24519631266593933105 0
0.072571165859699249268 -0.23923508822917938232 0
0.0956708565354347229 -0.23096987605094909668 0
0.11784918606281280518 -0.22048032283782958984 0
0.13889256119728088379 -0.20786739885807037354 0
0.15859831869602203369 -0.19325260818004608154 0
0.17677669227123260498 -0.17677669227123260498 0
0.19325260818004608154 -0.15859831869602203369 0
0.20786739885807037354 -0.13889256119728088379 0
0.22048032283782958984 -0.11784918606281280518 0
0.23096987605094909668 -0.0956708565354347229 0
0.23923508822917938232 -0.072571165859699249268 0
0.24519631266593933105 -0.048772580921649932861 0
0.24879617989063262939 -0.024504285305738449097 0
0.3125 0 0
0.31099522113800048828 0.030630355700850486755 0
0.30649539828300476074 0.060965724289417266846 0
0.29904386401176452637 0.090713962912559509277 0
0.28871235251426696777 0.11958857625722885132 0
0.2756004035472869873 0.14731147885322570801 0
0.2598342597484588623 0.17361569404602050781 0
0.24156576395034790039 0.19824789464473724365 0
0.22097086906433105469 0.22097086906433105469 0
0.19824789464473724365 0.24156576395034790039 0
0.17361569404602050781 0.2598342597484588623 0
0.14731147885322570801 0.2756004035472869873 0
0.11958857625722885132 0.28871235251426696777 0
0.090713962912559509277 0.29904386401176452637 0
0.060965724289417266846 0.30649539828300476074 0
0.030630355700850486755 0.31099522113800048828 0
1.9135106244462635173e-17 0.3125 0
-0.030630355700850486755 0.31099522113800048828 0
-0.060965724289417266846 0.30649539828300476074 0
-0.090713962912559509277 0.29904386401176452637 0
-0.11958857625722885132 0.28871235251426696777 0
-0.14731147885322570801 0.2756004035472869873 0
-0.17361569404602050781 0.2598342597484588623 0
-0.19824789464473724365 0.24156576395034790039 0
-0.22097086906433105469 0.22097086906433105469 0
-0.24156576395034790039 0.19824789464473724365 0
-0.2598342597484588623 0.17361569404602050781 0
-0.2756004035472869873 0.14731147885322570801 0
-0.28871235251426696777 0.11958857625722885132 0
-0.29904386401176452637 0.090713962912559509277 0
-0.30649539828300476074 0.060965724289417266846 0
-0.31099522113800048828 0.030630355700850486755 0
-0.3125 3.8270212488925270345e-17 0
-0.31099522113800048828 -0.030630355700850486755 0
-0.30649539828300476074 -0.060965724289417266846 0
-0.29904386401176452637 -0.090713962912559509277 0
-0.28871235251426696777 -0.11958857625722885132 0
-0.2756004035472869873 -0.14731147885322570801 0
-0.2598342597484588623 -0.17361569404602050781 0
-0.24156576395034790039 -0.19824789464473724365 0
-0.22097086906433105469 -0.22097086906433105469 0
-0.19824789464473724365 -0.24156576395034790039 0
-0.17361569404602050781 -0.2598342597484588623 0
-0.14731147885322570801 -0.2756004035472869873 0
-0.11958857625722885132 -0.28871235251426696777 0
-0.090713962912559509277 -0.29904386401176452637 0
-0.060965724289417266846 -0.30649539828300476074 0
-0.030630355700850486755 -0.31099522113800048828 0
-5.7405315424665455306e-17 -0.3125 0
0.030630355700850486755 -0.31099522113800048828 0
0.060965724289417266846 -0.30649539828300476074 0
0.090713962912559509277 -0.29904386401176452637 0
0.11958857625722885132 -0.28871235251426696777 0
0.14731147885322570801 -0.2756004035472869873 0
0.17361569404602050781 -0.2598342597484588623 0
0.19824789464473724365 -0.24156576395034790039 0
0.22097086906433105469 -0.22097086906433105469 0
0.24156576395034790039 -0.19824789464473724365 0
0.2598342597484588623 -0.17361569404602050781 0
0.2756004035472869873 -0.14731147885322570801 0
0.28871235251426696777 -0.11958857625722885132 0
0.29904386401176452637 -0.090713962912559509277 0
0.30649539828300476074 -0.060965724289417266846 0
0.31099522113800048828 -0.030630355700850486755 0
0.375 0 0
0.37319427728652954102 0.036756426095962524414 0
0.36779448390007019043 0.07315886765718460083 0
0.35885262489318847656 0.10885675251483917236 0
0.34645482897758483887 0.14350628852844238281 0
0.33072048425674438477 0.17677377164363861084 0
0.31180110573768615723 0.20833884179592132568 0
0.28987893462181091309 0.23789748549461364746 0
0.26516503095626831055 0.26516503095626831055 0
0.23789748549461364746 0.28987893462181091309 0
0.20833884179592132568 0.31180110573768615723 0
0.17677377164363861084 0.33072048425674438477 0
0.14350628852844238281 0.34645482897758483887 0
0.10885675251483917236 0.35885262489318847656 0
0.07315886765718460083 0.36779448390007019043 0
0.036756426095962524414 0.37319427728652954102 0
2.2962126831610672165e-17 0.375 0
-0.036756426095962524414 0.37319427728652954102 0
-0.07315886765718460083 0.36779448390007019043 0
-0.10885675251483917236 0.35885262489318847656 0
-0.14350628852844238281 0.34645482897758483887 0
-0.17677377164363861084 0.33072048425674438477 0
-0.20833884179592132568 0.31180110573768615723 0
-0.23789748549461364746 0.28987893462181091309 0
-0.26516503095626831055 0.26516503095626831055 0
-0.28987893462181091309 0.23789748549461364746 0
-0.31180110573768615723 0.20833884179592132568 0
-0.33072048425674438477 0.17677377164363861084 0
-0.34645482897758483887 0.14350628852844238281 0
-0.35885262489318847656 0.10885675251483917236 0
-0.36779448390007019043 0.07315886765718460083 0
-0.37319427728652954102 0.036756426095962524414 0
-0.375 4.592425366322134433e-17 0
-0.37319427728652954102 -0.036756426095962524414 0
-0.36779448390007019043 -0.07315886765718460083 0
-0.35885262489318847656 -0.10885675251483917236 0
-0.34645482897758483887 -0.14350628852844238281 0
-0.33072048425674438477 -0.17677377164363861084 0
-0.31180110573768615723 -0.20833884179592132568 0
-0.28987893462181091309 -0.23789748549461364746 0
-0.26516503095626831055 -0.26516503095626831055 0
-0.23789748549461364746 -0.28987893462181091309 0
-0.20833884179592132568 -0.31180110573768615723 0
-0.17677377164363861084 -0.33072048425674438477 0
-0.14350628852844238281 -0.34645482897758483887 0
-0.10885675251483917236 -0.35885262489318847656 0
-0.07315886765718460083 -0.36779448390007019043 0
-0.036756426095962524414 -0.37319427728652954102 0
-6.8886383803554466707e-17 -0.375 0
0.036756426095962524414 -0.37319427728652954102 0
0.07315886765718460083 -0.36779448390007019043 0
0.10885675251483917236 -0.35885262489318847656 0
0.14350628852844238281 -0.34645482897758483887 0
0.17677377164363861084 -0.33072048425674438477 0
0.20833884179592132568 -0.31180110573768615723 0
0.23789748549461364746 -0.28987893462181091309 0
0.26516503095626831055 -0.26516503095626831055 0
0.28987893462181091309 -0.23789748549461364746 0
0.31180110573768615723 -0.20833884179592132568 0
0.33072048425674438477 -0.17677377164363861084 0
0.34645482897758483887 -0.14350628852844238281 0
0.35885262489318847656 -0.10885675251483917236 0
0.36779448390007019043 -0.07315886765718460083 0
0.37319427728652954102 -0.036756426095962524414 0
0.4375 0 0
0.43539330363273620605 0.042882498353719711304 0
0.42909356951713562012 0.085352018475532531738 0
0.41866138577461242676 0.12699954211711883545 0
0.40419730544090270996 0.16742400825023651123 0
0.38584056496620178223 0.20623607933521270752 0
0.36376795172691345215 0.24306197464466094971 0
0.33819207549095153809 0.27754706144332885742 0
0.3093592226505279541 0.3093592226505279541 0
0.27754706144332885742 0.33819207549095153809 0
0.24306197464466094971 0.36376795172691345215 0
0.20623607933521270752 0.38584056496620178223 0
0.16742400825023651123 0.40419730544090270996 0
0.12699954211711883545 0.41866138577461242676 0
0.085352018475532531738 0.42909356951713562012 0
0.042882498353719711304 0.43539330363273620605 0
2.6789149073119934263e-17 0.4375 0
-0.042882498353719711304 0.43539330363273620605 0
-0.085352018475532531738 0.42909356951713562012 0
-0.12699954211711883545 0.41866138577461242676 0
-0.16742400825023651123 0.40419730544090270996 0
-0.20623607933521270752 0.38584056496620178223 0
-0.24306197464466094971 0.36376795172691345215 0
-0.27754706144332885742 0.33819207549095153809 0
-0.3093592226505279541 0.3093592226505279541 0
-0.33819207549095153809 0.27754706144332885742 0
-0.36376795172691345215 0.24306197464466094971 0
-0.38584056496620178223 0.20623607933521270752 0
-0.40419730544090270996 0.16742400825023651123 0
-0.41866138577461242676 0.12699954211711883545 0
-0.42909356951713562012 0.085352018475532531738 0
-0.43539330363273620605 0.042882498353719711304 0
-0.4375 5.3578298146239868526e-17 0
-0.43539330363273620605 -0.042882498353719711304 0
-0.42909356951713562012 -0.085352018475532531738 0
-0.41866138577461242676 -0.12699954211711883545 0
-0.40419730544090270996 -0.16742400825023651123 0
-0.38584056496620178223 -0.20623607933521270752 0
-0.36376795172691345215 -0.24306197464466094971 0
-0.33819207549095153809 -0.27754706144332885742 0
-0.3093592226505279541 -0.3093592226505279541 0
-0.27754706144332885742 -0.33819207549095153809 0
-0.24306197464466094971 -0.36376795172691345215 0
-0.20623607933521270752 -0.38584056496620178223 0
-0.16742400825023651123 -0.40419730544090270996 0
-0.12699954211711883545 -0.41866138577461242676 0
-0.085352018475532531738 -0.42909356951713562012 0
-0.042882498353719711304 -0.43539330363273620605 0
-8.0367445564998577683e-17 -0.4375 0
0.042882498353719711304 -0.43539330363273620605 0
0.085352018475532531738 -0.42909356951713562012 0
0.12699954211711883545 -0.41866138577461242676 0
0.16742400825023651123 -0.40419730544090270996 0
0.20623607933521270752 -0.38584056496620178223 0
0.24306197464466094971 -0.36376795172691345215 0
0.27754706144332885742 -0.33819207549095153809 0
0.3093592226505279541 -0.3093592226505279541 0
0.33819207549095153809 -0.27754706144332885742 0
0.36376795172691345215 -0.24306197464466094971 0
0.38584056496620178223 -0.20623607933521270752 0
0.40419730544090270996 -0.16742400825023651123 0
0.41866138577461242676 -0.12699954211711883545 0
0.42909356951713562012 -0.085352018475532531738 0
0.43539330363273620605 -0.042882498353719711304 0
0.5 0 0
0.49759235978126525879 0.049008570611476898193 0
0.49039262533187866211 0.097545161843299865723 0
0.47847017645835876465 0.14514233171939849854 0
0.46193975210189819336 0.1913417130708694458 0
0.44096064567565917969 0.23569837212562561035 0
0.41573479771614074707 0.27778512239456176758 0
0.38650521636009216309 0.31719663739204406738 0
0.35355338454246520996 0.35355338454246520996 0
0.31719663739204406738 0.38650521636009216309 0
0.27778512239456176758 0.41573479771614074707 0
0.23569837212562561035 0.44096064567565917969 0
0.1913417130708694458 0.46193975210189819336 0
0.14514233171939849854 0.47847017645835876465 0
0.097545161843299865723 0.49039262533187866211 0
0.049008570611476898193 0.49759235978126525879 0
3.0616171314629196361e-17 0.5 0
-0.049008570611476898193 0.49759235978126525879 0
-0.097545161843299865723 0.49039262533187866211 0
-0.14514233171939849854 0.47847017645835876465 0
-0.1913417130708694458 0.46193975210189819336 0
-0.23569837212562561035 0.44096064567565917969 0
-0.27778512239456176758 0.41573479771614074707 0
-0.31719663739204406738 0.38650521636009216309 0
-0.35355338454246520996 0.35355338454246520996 0
-0.38650521636009216309 0.31719663739204406738 0
-0.41573479771614074707 0.27778512239456176758 0
-0.44096064567565917969 0.23569837212562561035 0
-0.46193975210189819336 0.1913417130708694458 0
-0.47847017645835876465 0.14514233171939849854 0
-0.49039262533187866211 0.097545161843299865723 0
-0.49759235978126525879 0.049008570611476898193 0
-0.5 6.1232342629258392722e-17 0
-0.49759235978126525879 -0.049008570611476898193 0
-0.49039262533187866211 -0.097545161843299865723 0
-0.47847017645835876465 -0.14514233171939849854 0
-0.46193975210189819336 -0.1913417130708694458 0
-0.44096064567565917969 -0.23569837212562561035 0
-0.41573479771614074707 -0.27778512239456176758 0
-0.38650521636009216309 -0.31719663739204406738 0
-0.35355338454246520996 -0.35355338454246520996 0
-0.31719663739204406738 -0.38650521636009216309 0
-0.27778512239456176758 -0.41573479771614074707 0
-0.23569837212562561035 -0.44096064567565917969 0
-0.1913417130708694458 -0.46193975210189819336 0
-0.14514233171939849854 -0.47847017645835876465 0
-0.097545161843299865723 -0.49039262533187866211 0
-0.049008570611476898193 -0.49759235978126525879 0
-9.1848507326442688659e-17 -0.5 0
0.049008570611476898193 -0.49759235978126525879 0
0.097545161843299865723 -0.49039262533187866211 0
0.14514233171939849854 -0.47847017645835876465 0
0.1913417130708694458 -0.46193975210189819336 0
0.23569837212562561035 -0.44096064567565917969 0
0.27778512239456176758 -0.41573479771614074707 0
0.31719663739204406738 -0.38650521636009216309 0
0.35355338454246520996 -0.35355338454246520996 0
0.38650521636009216309 -0.31719663739204406738 0
0.41573479771614074707 -0.27778512239456176758 0
0.44096064567565917969 -0.23569837212562561035 0
0.46193975210189819336 -0.1913417130708694458 0
0.47847017645835876465 -0.14514233171939849854 0
0.49039262533187866211 -0.097545161843299865723 0
0.49759235978126525879 -0.049008570611476898193 0
0.5625 0 0
0.55979138612747192383 0.055134642869234085083 0
0.5516917109489440918 0.10973830521106719971 0
0.53827893733978271484 0.16328513622283935547 0
0.51968222856521606445 0.21525943279266357422 0
0.49608069658279418945 0.26516065001487731934 0
0.46770164370536804199 0.3125082552433013916 0
0.43481838703155517578 0.35684621334075927734 0
0.39774757623672485352 0.39774757623672485352 0
0.35684621334075927734 0.43481838703155517578 0
0.3125082552433013916 0.46770164370536804199 0
0.26516065001487731934 0.49608069658279418945 0
0.21525943279266357422 0.51968222856521606445 0
0.16328513622283935547 0.53827893733978271484 0
0.10973830521106719971 0.5516917109489440918 0
0.055134642869234085083 0.55979138612747192383 0
3.4443191901777233353e-17 0.5625 0
-0.055134642869234085083 0.55979138612747192383 0
-0.10973830521106719971 0.5516917109489440918 0
-0.16328513622283935547 0.53827893733978271484 0
-0.21525943279266357422 0.51968222856521606445 0
-0.26516065001487731934 0.49608069658279418945 0
-0.3125082552433013916 0.46770164370536804199 0
-0.35684621334075927734 0.43481838703155517578 0
-0.39774757623672485352 0.39774757623672485352 0
-0.43481838703155517578 0.35684621334075927734 0
-0.46770164370536804199 0.3125082552433013916 0
-0.49608069658279418945 0.26516065001487731934 0
-0.51968222856521606445 0.21525943279266357422 0
-0.53827893733978271484 0.16328513622283935547 0
-0.5516917109489440918 0.10973830521106719971 0
-0.55979138612747192383 0.055134642869234085083 0
-0.5625 6.8886383803554466707e-17 0
-0.55979138612747192383 -0.055134642869234085083 0
-0.5516917109489440918 -0.10973830521106719971 0
-0.53827893733978271484 -0.16328513622283935547 0
-0.51968222856521606445 -0.21525943279266357422 0
-0.49608069658279418945 -0.26516065001487731934 0
-0.46770164370536804199 -0.3125082552433013916 0
-0.43481838703155517578 -0.35684621334075927734 0
-0.39774757623672485352 -0.39774757623672485352 0
-0.35684621334075927734 -0.43481838703155517578 0
-0.3125082552433013916 -0.46770164370536804199 0
-0.26516065001487731934 -0.49608069658279418945 0
-0.21525943279266357422 -0.51968222856521606445 0
-0.16328513622283935547 -0.53827893733978271484 0
-0.10973830521106719971 -0.5516917109489440918 0
-0.055134642869234085083 -0.55979138612747192383 0
-1.0332957570533170006e-16 -0.5625 0
0.055134642869234085083 -0.55979138612747192383 0
0.10973830521106719971 -0.5516917109489440918 0
0.16328513622283935547 -0.53827893733978271484 0
0.21525943279266357422 -0.51968222856521606445 0
0.26516065001487731934 -0.49608069658279418945 0
0.3125082552433013916 -0.46770164370536804199 0
0.35684621334075927734 -0.43481838703155517578 0
0.39774757623672485352 -0.39774757623672485352 0
0.43481838703155517578 -0.35684621334075927734 0
0.46770164370536804199 -0.3125082552433013916 0
0.49608069658279418945 -0.26516065001487731934 0
0.51968222856521606445 -0.21525943279266357422 0
0.53827893733978271484 -0.16328513622283935547 0
0.5516917109489440918 -0.10973830521106719971 0
0.55979138612747192383 -0.055134642869234085083 0
0.625 0 0
0.62199044227600097656 0.061260711401700973511 0
0.61299079656600952148 0.12193144857883453369 0
0.59808772802352905273 0.18142792582511901855 0
0.57742470502853393555 0.23917715251445770264 0
0.55120080709457397461 0.29462295770645141602 0
0.51966851949691772461 0.34723138809204101562 0
0.48313152790069580078 0.3964957892894744873 0
0.44194173812866210938 0.44194173812866210938 0
0.3964957892894744873 0.48313152790069580078 0
0.34723138809204101562 0.51966851949691772461 0
0.29462295770645141602 0.55120080709457397461 0
0.23917715251445770264 0.57742470502853393555 0
0.18142792582511901855 0.59808772802352905273 0
0.12193144857883453369 0.61299079656600952148 0
0.061260711401700973511 0.62199044227600097656 0
3.8270212488925270345e-17 0.625 0
-0.061260711401700973511 0.62199044227600097656 0
-0.12193144857883453369 0.61299079656600952148 0
-0.18142792582511901855 0.59808772802352905273 0
-0.23917715251445770264 0.57742470502853393555 0
-0.29462295770645141602 0.55120080709457397461 0
-0.34723138809204101562 0.51966851949691772461 0
-0.3964957892894744873 0.48313152790069580078 0
-0.44194173812866210938 0.44194173812866210938 0
-0.48313152790069580078 0.3964957892894744873 0
-0.51966851949691772461 0.34723138809204101562 0
-0.55120080709457397461 0.29462295770645141602 0
-0.57742470502853393555 0.23917715251445770264 0
-0.59808772802352905273 0.18142792582511901855 0
-0.61299079656600952148 0.12193144857883453369 0
-0.62199044227600097656 0.061260711401700973511 0
-0.625 7.6540424977850540691e-17 0
-0.62199044227600097656 -0.061260711401700973511 0
-0.61299079656600952148 -0.12193144857883453369 0
-0.59808772802352905273 -0.18142792582511901855 0
-0.57742470502853393555 -0.23917715251445770264 0
-0.55120080709457397461 -0.29462295770645141602 0
-0.51966851949691772461 -0.34723138809204101562 0
-0.48313152790069580078 -0.3964957892894744873 0
-0.44194173812866210938 -0.44194173812866210938 0
-0.3964957892894744873 -0.48313152790069580078 0
-0.34723138809204101562 -0.51966851949691772461 0
-0.29462295770645141602 -0.55120080709457397461 0
-0.23917715251445770264 -0.57742470502853393555 0
-0.18142792582511901855 -0.59808772802352905273 0
-0.12193144857883453369 -0.61299079656600952148 0
-0.061260711401700973511 -0.62199044227600097656 0
-1.1481063084933091061e-16 -0.625 0
0.061260711401700973511 -0.62199044227600097656 0
0.12193144857883453369 -0.61299079656600952148 0
0.18142792582511901855 -0.59808772802352905273 0
0.23917715251445770264 -0.57742470502853393555 0
0.29462295770645141602 -0.55120080709457397461 0
0.34723138809204101562 -0.51966851949691772461 0
0.3964957892894744873 -0.48313152790069580078 0
0.44194173812866210938 -0.44194173812866210938 0
0.48313152790069580078 -0.3964957892894744873 0
0.51966851949691772461 -0.34723138809204101562 0
0.55120080709457397461 -0.29462295770645141602 0
0.57742470502853393555 -0.23917715251445770264 0
0.59808772802352905273 -0.18142792582511901855 0
0.61299079656600952148 -0.12193144857883453369 0
0.62199044227600097656 -0.061260711401700973511 0
0.6875 0 0
0.6841894984245300293 0.0673867836594581604 0
0.67428988218307495117 0.13412459194660186768 0
0.65789645910263061523 0.19957071542739868164 0
0.63516718149185180664 0.26309487223625183105 0
0.60632085800170898438 0.3240852653980255127 0
0.57163536548614501953 0.38195452094078063965 0
0.53144466876983642578 0.43614539504051208496 0
0.48613590002059936523 0.48613590002059936523 0
0.43614539504051208496 0.53144466876983642578 0
0.38195452094078063965 0.57163536548614501953 0
0.3240852653980255127 0.60632085800170898438 0
0.26309487223625183105 0.63516718149185180664 0
0.19957071542739868164 0.65789645910263061523 0
0.13412459194660186768 0.67428988218307495117 0
0.0673867836594581604 0.6841894984245300293 0
4.2097233076073307338e-17 0.6875 0
-0.0673867836594581604 0.6841894984245300293 0
-0.13412459194660186768 0.67428988218307495117 0
-0.19957071542739868164 0.65789645910263061523 0
-0.26309487223625183105 0.63516718149185180664 0
-0.3240852653980255127 0.60632085800170898438 0
-0.38195452094078063965 0.57163536548614501953 0
-0.43614539504051208496 0.53144466876983642578 0
-0.48613590002059936523 0.48613590002059936523 0
-0.53144466876983642578 0.43614539504051208496 0
-0.57163536548614501953 0.38195452094078063965 0
-0.60632085800170898438 0.3240852653980255127 0
-0.63516718149185180664 0.26309487223625183105 0
-0.65789645910263061523 0.19957071542739868164 0
-0.67428988218307495117 0.13412459194660186768 0
-0.6841894984245300293 0.0673867836594581604 0
-0.6875 8.4194466152146614675e-17 0
-0.6841894984245300293 -0.0673867836594581604 0
-0.67428988218307495117 -0.13412459194660186768 0
-0.65789645910263061523 -0.19957071542739868164 0
-0.63516718149185180664 -0.26309487223625183105 0
-0.60632085800170898438 -0.3240852653980255127 0
-0.57163536548614501953 -0.38195452094078063965 0
-0.53144466876983642578 -0.43614539504051208496 0
-0.48613590002059936523 -0.48613590002059936523 0
-0.43614539504051208496 -0.53144466876983642578 0
-0.38195452094078063965 -0.57163536548614501953 0
-0.3240852653980255127 -0.60632085800170898438 0
-0.26309487223625183105 -0.63516718149185180664 0
-0.19957071542739868164 -0.65789645910263061523 0
-0.13412459194660186768 -0.67428988218307495117 0
-0.0673867836594581604 -0.6841894984245300293 0
-1.2629169922821992201e-16 -0.6875 0
0.0673867836594581604 -0.6841894984245300293 0
0.13412459194660186768 -0.67428988218307495117 0
0.19957071542739868164 -0.65789645910263061523 0
0.26309487223625183105 -0.63516718149185180664 0
0.3240852653980255127 -0.60632085800170898438 0
0.38195452094078063965 -0.57163536548614501953 0
0.43614539504051208496 -0.53144466876983642578 0
0.48613590002059936523 -0.48613590002059936523 0
0.53144466876983642578 -0.43614539504051208496 0
0.57163536548614501953 -0.38195452094078063965 0
0.60632085800170898438 -0.3240852653980255127 0
0.63516718149185180664 -0.26309487223625183105 0
0.65789645910263061523 -0.19957071542739868164 0
0.67428988218307495117 -0.13412459194660186768 0
0.6841894984245300293 -0.0673867836594581604 0
0.75 0 0
0.74638855457305908203 0.073512852191925048828 0
0.73558896780014038086 0.14631773531436920166 0
0.71770524978637695312 0.21771350502967834473 0
0.69290965795516967773 0.28701257705688476562 0
0.66144096851348876953 0.35354754328727722168 0
0.62360221147537231445 0.41667768359184265137 0
0.57975786924362182617 0.47579497098922729492 0
0.53033006191253662109 0.53033006191253662109 0
0.47579497098922729492 0.57975786924362182617 0
0.41667768359184265137 0.62360221147537231445 0
0.35354754328727722168 0.66144096851348876953 0
0.28701257705688476562 0.69290965795516967773 0
0.21771350502967834473 0.71770524978637695312 0
0.14631773531436920166 0.73558896780014038086 0
0.073512852191925048828 0.74638855457305908203 0
4.592425366322134433e-17 0.75 0
-0.073512852191925048828 0.74638855457305908203 0
-0.14631773531436920166 0.73558896780014038086 0
-0.21771350502967834473 0.71770524978637695312 0
-0.28701257705688476562 0.69290965795516967773 0
-0.35354754328727722168 0.66144096851348876953 0
-0.41667768359184265137 0.62360221147537231445 0
-0.47579497098922729492 0.57975786924362182617 0
-0.53033006191253662109 0.53033006191253662109 0
-0.57975786924362182617 0.47579497098922729492 0
-0.62360221147537231445 0.41667768359184265137 0
-0.66144096851348876953 0.35354754328727722168 0
-0.69290965795516967773 0.28701257705688476562 0
-0.71770524978637695312 0.21771350502967834473 0
-0.73558896780014038086 0.14631773531436920166 0
-0.74638855457305908203 0.073512852191925048828 0
-0.75 9.1848507326442688659e-17 0
-0.74638855457305908203 -0.073512852191925048828 0
-0.73558896780014038086 -0.14631773531436920166 0
-0.71770524978637695312 -0.21771350502967834473 0
-0.69290965795516967773 -0.28701257705688476562 0
-0.66144096851348876953 -0.35354754328727722168 0
-0.62360221147537231445 -0.41667768359184265137 0
-0.57975786924362182617 -0.47579497098922729492 0
-0.53033006191253662109 -0.53033006191253662109 0
-0.47579497098922729492 -0.57975786924362182617 0
-0.41667768359184265137 -0.62360221147537231445 0
-0.35354754328727722168 -0.66144096851348876953 0
-0.28701257705688476562 -0.69290965795516967773 0
-0.21771350502967834473 -0.71770524978637695312 0
-0.14631773531436920166 -0.73558896780014038086 0
-0.073512852191925048828 -0.74638855457305908203 0
-1.3777276760710893341e-16 -0.75 0
0.073512852191925048828 -0.74638855457305908203 0
0.14631773531436920166 -0.73558896780014038086 0
0.21771350502967834473 -0.71770524978637695312 0
0.28701257705688476562 -0.69290965795516967773 0
0.35354754328727722168 -0.66144096851348876953 0
0.41667768359184265137 -0.62360221147537231445 0
0.47579497098922729492 -0.57975786924362182617 0
0.53033006191253662109 -0.53033006191253662109 0
0.57975786924362182617 -0.47579497098922729492 0
0.62360221147537231445 -0.41667768359184265137 0
0.66144096851348876953 -0.35354754328727722168 0
0.69290965795516967773 -0.28701257705688476562 0
0.71770524978637695312 -0.21771350502967834473 0
0.73558896780014038086 -0.14631773531436920166 0
0.74638855457305908203 -0.073512852191925048828 0
0.8125 0 0
0.80858761072158813477 0.07963892817497253418 0
0.79688805341720581055 0.15851089358329772949 0
0.77751404047012329102 0.23585629463195800781 0
0.75065213441848754883 0.3109302818775177002 0
0.7165610194206237793 0.38300985097885131836 0
0.67556905746459960938 0.45140081644058227539 0
0.62807101011276245117 0.51544451713562011719 0
0.57452428340911865234 0.57452428340911865234 0
0.51544451713562011719 0.62807101011276245117 0
0.45140081644058227539 0.67556905746459960938 0
0.38300985097885131836 0.7165610194206237793 0
0.3109302818775177002 0.75065213441848754883 0
0.23585629463195800781 0.77751404047012329102 0
0.15851089358329772949 0.79688805341720581055 0
0.07963892817497253418 0.80858761072158813477 0
4.9751277559091831534e-17 0.8125 0
-0.07963892817497253418 0.80858761072158813477 0
-0.15851089358329772949 0.79688805341720581055 0
-0.23585629463195800781 0.77751404047012329102 0
-0.3109302818775177002 0.75065213441848754883 0
-0.38300985097885131836 0.7165610194206237793 0
-0.45140081644058227539 0.67556905746459960938 0
-0.51544451713562011719 0.62807101011276245117 0
-0.57452428340911865234 0.57452428340911865234 0
-0.62807101011276245117 0.51544451713562011719 0
-0.67556905746459960938 0.45140081644058227539 0
-0.7165610194206237793 0.38300985097885131836 0
-0.75065213441848754883 0.3109302818775177002 0
-0.77751404047012329102 0.23585629463195800781 0
-0.79688805341720581055 0.15851089358329772949 0
-0.80858761072158813477 0.07963892817497253418 0
-0.8125 9.9502555118183663068e-17 0
-0.80858761072158813477 -0.07963892817497253418 0
-0.79688805341720581055 -0.15851089358329772949 0
-0.77751404047012329102 -0.23585629463195800781 0
-0.75065213441848754883 -0.3109302818775177002 0
-0.7165610194206237793 -0.38300985097885131836 0
-0.67556905746459960938 -0.45140081644058227539 0
-0.62807101011276245117 -0.51544451713562011719 0
-0.57452428340911865234 -0.57452428340911865234 0
-0.51544451713562011719 -0.62807101011276245117 0
-0.45140081644058227539 -0.67556905746459960938 0
-0.38300985097885131836 -0.7165610194206237793 0
-0.3109302818775177002 -0.75065213441848754883 0
-0.23585629463195800781 -0.77751404047012329102 0
-0.15851089358329772949 -0.79688805341720581055 0
-0.07963892817497253418 -0.80858761072158813477 0
-1.4925382275110814397e-16 -0.8125 0
0.07963892817497253418 -0.80858761072158813477 0
0.15851089358329772949 -0.79688805341720581055 0
0.23585629463195800781 -0.77751404047012329102 0
0.3109302818775177002 -0.75065213441848754883 0
0.38300985097885131836 -0.7165610194206237793 0
0.45140081644058227539 -0.67556905746459960938 0
0.51544451713562011719 -0.62807101011276245117 0
0.57452428340911865234 -0.57452428340911865234 0
0.62807101011276245117 -0.51544451713562011719 0
0.67556905746459960938 -0.45140081644058227539 0
0.7165610194206237793 -0.38300985097885131836 0
0.75065213441848754883 -0.3109302818775177002 0
0.77751404047012329102 -0.23585629463195800781 0
0.79688805341720581055 -0.15851089358329772949 0
0.80858761072158813477 -0.07963892817497253418 0
0.875 0 0
0.87078660726547241211 0.085764996707439422607 0
0.85818713903427124023 0.17070403695106506348 0
0.83732277154922485352 0.2539990842342376709 0
0.80839461088180541992 0.33484801650047302246 0
0.77168112993240356445 0.41247215867042541504 0
0.7275359034538269043 0.48612394928932189941 0
0.67638415098190307617 0.55509412288665771484 0
0.6187184453010559082 0.6187184453010559082 0
0.55509412288665771484 0.67638415098190307617 0
0.48612394928932189941 0.7275359034538269043 0
0.41247215867042541504 0.77168112993240356445 0
0.33484801650047302246 0.80839461088180541992 0
0.2539990842342376709 0.83732277154922485352 0
0.17070403695106506348 0.85818713903427124023 0
0.085764996707439422607 0.87078660726547241211 0
5.3578298146239868526e-17 0.875 0
-0.085764996707439422607 0.87078660726547241211 0
-0.17070403695106506348 0.85818713903427124023 0
-0.2539990842342376709 0.83732277154922485352 0
-0.33484801650047302246 0.80839461088180541992 0
-0.41247215867042541504 0.77168112993240356445 0
-0.48612394928932189941 0.7275359034538269043 0
-0.55509412288665771484 0.67638415098190307617 0
-0.6187184453010559082 0.6187184453010559082 0
-0.67638415098190307617 0.55509412288665771484 0
-0.7275359034538269043 0.48612394928932189941 0
-0.77168112993240356445 0.41247215867042541504 0
-0.80839461088180541992 0.33484801650047302246 0
-0.83732277154922485352 0.2539990842342376709 0
-0.85818713903427124023 0.17070403695106506348 0
-0.87078660726547241211 0.085764996707439422607 0
-0.875 1.0715659629247973705e-16 0
-0.87078660726547241211 -0.085764996707439422607 0
-0.85818713903427124023 -0.17070403695106506348 0
-0.83732277154922485352 -0.2539990842342376709 0
-0.80839461088180541992 -0.33484801650047302246 0
-0.77168112993240356445 -0.41247215867042541504 0
-0.7275359034538269043 -0.48612394928932189941 0
-0.67638415098190307617 -0.55509412288665771484 0
-0.6187184453010559082 -0.6187184453010559082 0
-0.55509412288665771484 -0.67638415098190307617 0
-0.48612394928932189941 -0.7275359034538269043 0
-0.41247215867042541504 -0.77168112993240356445 0
-0.33484801650047302246 -0.80839461088180541992 0
-0.2539990842342376709 -0.83732277154922485352 0
-0.17070403695106506348 -0.85818713903427124023 0
-0.085764996707439422607 -0.87078660726547241211 0
-1.6073489112999715537e-16 -0.875 0
0.085764996707439422607 -0.87078660726547241211 0
0.17070403695106506348 -0.85818713903427124023 0
0.2539990842342376709 -0.83732277154922485352 0
0.33484801650047302246 -0.80839461088180541992 0
0.41247215867042541504 -0.77168112993240356445 0
0.48612394928932189941 -0.7275359034538269043 0
0.55509412288665771484 -0.67638415098190307617 0
0.6187184453010559082 -0.6187184453010559082 0
0.67638415098190307617 -0.55509412288665771484 0
0.7275359034538269043 -0.48612394928932189941 0
0.77168112993240356445 -0.41247215867042541504 0
0.80839461088180541992 -0.33484801650047302246 0
0.83732277154922485352 -0.2539990842342376709 0
0.85818713903427124023 -0.17070403695106506348 0
0.87078660726547241211 -0.085764996707439422607 0
0.9375 0 0
0.93298566341400146484 0.091891072690486907959 0
0.91948622465133666992 0.18289718031883239746 0
0.89713156223297119141 0.27214187383651733398 0
0.86613708734512329102 0.35876572132110595703 0
0.82680118083953857422 0.44193443655967712402 0
0.77950274944305419922 0.52084708213806152344 0
0.72469729185104370117 0.5947437286376953125 0
0.66291260719299316406 0.66291260719299316406 0
0.5947437286376953125 0.72469729185104370117 0
0.52084708213806152344 0.77950274944305419922 0
0.44193443655967712402 0.82680118083953857422 0
0.35876572132110595703 0.86613708734512329102 0
0.27214187383651733398 0.89713156223297119141 0
0.18289718031883239746 0.91948622465133666992 0
0.091891072690486907959 0.93298566341400146484 0
5.7405315424665455306e-17 0.9375 0
-0.091891072690486907959 0.93298566341400146484 0
-0.18289718031883239746 0.91948622465133666992 0
-0.27214187383651733398 0.89713156223297119141 0
-0.35876572132110595703 0.86613708734512329102 0
-0.44193443655967712402 0.82680118083953857422 0
-0.52084708213806152344 0.77950274944305419922 0
-0.5947437286376953125 0.72469729185104370117 0
-0.66291260719299316406 0.66291260719299316406 0
-0.72469729185104370117 0.5947437286376953125 0
-0.77950274944305419922 0.52084708213806152344 0
-0.82680118083953857422 0.44193443655967712402 0
-0.86613708734512329102 0.35876572132110595703 0
-0.89713156223297119141 0.27214187383651733398 0
-0.91948622465133666992 0.18289718031883239746 0
-0.93298566341400146484 0.091891072690486907959 0
-0.9375 1.1481063084933091061e-16 0
-0.93298566341400146484 -0.091891072690486907959 0
-0.91948622465133666992 -0.18289718031883239746 0
-0.89713156223297119141 -0.27214187383651733398 0
-0.86613708734512329102 -0.35876572132110595703 0
-0.82680118083953857422 -0.44193443655967712402 0
-0.77950274944305419922 -0.52084708213806152344 0
-0.72469729185104370117 -0.5947437286376953125 0
-0.66291260719299316406 -0.66291260719299316406 0
-0.5947437286376953125 -0.72469729185104370117 0
-0.52084708213806152344 -0.77950274944305419922 0
-0.44193443655967712402 -0.82680118083953857422 0
-0.35876572132110595703 -0.86613708734512329102 0
-0.27214187383651733398 -0.89713156223297119141 0
-0.18289718031883239746 -0.91948622465133666992 0
-0.091891072690486907959 -0.93298566341400146484 0
-1.7221595950888616677e-16 -0.9375 0
0.091891072690486907959 -0.93298566341400146484 0
0.18289718031883239746 -0.91948622465133666992 0
0.27214187383651733398 -0.89713156223297119141 0
0.35876572132110595703 -0.86613708734512329102 0
0.44193443655967712402 -0.82680118083953857422 0
0.52084708213806152344 -0.77950274944305419922 0
0.5947437286376953125 -0.72469729185104370117 0
0.66291260719299316406 -0.66291260719299316406 0
0.72469729185104370117 -0.5947437286376953125 0
0.77950274944305419922 -0.52084708213806152344 0
0.82680118083953857422 -0.44193443655967712402 0
0.86613708734512329102 -0.35876572132110595703 0
0.89713156223297119141 -0.27214187383651733398 0
0.91948622465133666992 -0.18289718031883239746 0
0.93298566341400146484 -0.091891072690486907959 0
1 0 0
0.99518471956253051758 0.098017141222953796387 0
0.98078525066375732422 0.19509032368659973145 0
0.9569403529167175293 0.29028466343879699707 0
0.92387950420379638672 0.3826834261417388916 0
0.88192129135131835938 0.4713967442512512207 0
0.83146959543228149414 0.55557024478912353516 0
0.77301043272018432617 0.63439327478408813477 0
0.70710676908493041992 0.70710676908493041992 0
0.63439327478408813477 0.77301043272018432617 0
0.55557024478912353516 0.83146959543228149414 0
0.4713967442512512207 0.88192129135131835938 0
0.3826834261417388916 0.92387950420379638672 0
0.29028466343879699707 0.9569403529167175293 0
0.19509032368659973145 0.98078525066375732422 0
0.098017141222953796387 0.99518471956253051758 0
6.1232342629258392722e-17 1 0
-0.098017141222953796387 0.99518471956253051758 0
-0.19509032368659973145 0.98078525066375732422 0
-0.29028466343879699707 0.9569403529167175293 0
-0.3826834261417388916 0.92387950420379638672 0
-0.4713967442512512207 0.88192129135131835938 0
-0.55557024478912353516 0.83146959543228149414 0
-0.63439327478408813477 0.77301043272018432617 0
-0.70710676908493041992 0.70710676908493041992 0
-0.77301043272018432617 0.63439327478408813477 0
-0.83146959543228149414 0.55557024478912353516 0
-0.88192129135131835938 0.4713967442512512207 0
-0.92387950420379638672 0.3826834261417388916 0
-0.9569403529167175293 0.29028466343879699707 0
-0.98078525066375732422 0.19509032368659973145 0
-0.99518471956253051758 0.098017141222953796387 0
-1 1.2246468525851678544e-16 0
-0.99518471956253051758 -0.098017141222953796387 0
-0.98078525066375732422 -0.19509032368659973145 0
-0.9569403529167175293 -0.29028466343879699707 0
-0.92387950420379638672 -0.3826834261417388916 0
-0.88192129135131835938 -0.4713967442512512207 0
-0.83146959543228149414 -0.55557024478912353516 0
-0.77301043272018432617 -0.63439327478408813477 0
-0.70710676908493041992 -0.70710676908493041992 0
-0.63439327478408813477 -0.77301043272018432617 0
-0.55557024478912353516 -0.83146959543228149414 0
-0.4713967442512512207 -0.88192129135131835938 0
-0.3826834261417388916 -0.92387950420379638672 0
-0.29028466343879699707 -0.9569403529167175293 0
-0.19509032368659973145 -0.98078525066375732422 0
-0.098017141222953796387 -0.99518471956253051758 0
-1.8369701465288537732e-16 -1 0
0.098017141222953796387 -0.99518471956253051758 0
0.19509032368659973145 -0.98078525066375732422 0
0.29028466343879699707 -0.9569403529167175293 0
0.3826834261417388916 -0.92387950420379638672 0
0.4713967442512512207 -0.88192129135131835938 0
0.55557024478912353516 -0.83146959543228149414 0
0.63439327478408813477 -0.77301043272018432617 0
0.70710676908493041992 -0.70710676908493041992 0
0.77301043272018432617 -0.63439327478408813477 0
0.83146959543228149414 -0.55557024478912353516 0
0.88192129135131835938 -0.4713967442512512207 0
0.92387950420379638672 -0.3826834261417388916 0
0.9569403529167175293 -0.29028466343879699707 0
0.98078525066375732422 -0.19509032368659973145 0
0.99518471956253051758 -0.098017141222953796387 0
3 0 1 2
3 0 2 3
3 0 3 4
3 0 4 5
3 0 5 6
3 0 6 7
3 0 7 8
3 0 8 9
3 0 9 10
3 0 10 11
3 0 11 12
3 0 12 13
3 0 13 14
3 0 14 15
3 0 15 16
3 0 16 17
3 0 17 18
3 0 18 19
3 0 19 20
3 0 20 21
3 0 21 22
3 0 22 23
3 0 23 24
3 0 24 25
3 0 25 26
3 0 26 27
3 0 27 28
3 0 28 29
3 0 29 30
3 0 30 31
3 0 31 32
3 0 32 33
3 0 33 34
3 0 34 35
3 0 35 36
3 0 36 37
3 0 37 38
3 0 38 39
3 0 39 40
3 0 40 41
3 0 41 42
3 0 42 43
3 0 43 44
3 0 44 45
3 0 45 46
3 0 46 47
3 0 47 48
3 0 48 49
3 0 49 50
3 0 50 51
3 0 51 52
3 0 52 53
3 0 53 54
3 0 54 55
3 0 55 56
3 0 56 57
3 0 57 58
3 0 58 59
3 0 59 60
3 0 60 61
3 0 61 62
3 0 62 63
3 0 63 64
3 0 64 1
3 1 65 66
3 1 66 2
3 2 66 67
3 2 67 3
3 3 67 68
3 3 68 4
3 4 68 69
3 4 69 5
3 5 69 70
3 5 70 6
3 6 70 71
3 6 71 7
3 7 71 72
3 7 72 8
3 8 72 73
3 8 73 9
3 9 73 74
3 9 74 10
3 10 74 75
3 10 75 11
3 11 75 76
3 11 76 12
3 12 76 77
3 12 77 13
3 13 77 78
3 13 78 14
3 14 78 79
3 14 79 15
3 15 79 80
3 15 80 16
3 16 80 81
3 16 81 17
3 17 81 82
3 17 82 18
3 18 82 83
3 18 83 19
3 19 83 84
3 19 84 20
3 20 84 85
3 20 85 21
3 21 85 86
3 21 86 22
3 22 86 87
3 22 87 23
3 23 87 88
3 23 88 24
3 24 88 89
3 24 89 25
3 25 89 90
3 25 90 26
3 26 90 91
3 26 91 27
3 27 91 92
3 27 92 28
3 28 92 93
3 28 93 29
3 29 93 94
3 29 94 30
3 30 94 95
3 30 95 31
3 31 95 96
3 31 96 32
3 32 96 97
3 32 97 33
3 33 97 98
3 33 98 34
3 34 98 99
3 34 99 35
3 35 99 100
3 35 100 36
3 36 100 101
3 36 101 37
3 37 101 102
3 37 102 38
3 38 102 103
3 38 103 39
3 39 103 104
3 39 104 40
3 40 104 105
3 40 105 41
3 41 105 106
3 41 106 42
3 42 106 107
3 42 107 43
3 43 107 108
3 43 108 44
3 44 108 109
3 44 109 45
3 45 109 110
3 45 110 46
3 46 110 111
3 46 111 47
3 47 111 112
3 47 112 48
3 48 112 113
3 48 113 49
3 49 113 114
3 49 114 50
3 50 114 115
3 50 115 51
3 51 115 116
3 51 116 52
3 52 116 117
3 52 117 53
3 53 117 118
3 53 118 54
3 54 118 119
3 54 119 55
3 55 119 120
3 55 120 56
3 56 120 121
3 56 121 57
3 57 121 122
3 57 122 58
3 58 122 123
3 58 123 59
3 59 123 124
3 59 124 60
3 60 124 125
3 60 125 61
3 61 125 126
3 61 126 62
3 62 126 127
3 62 127 63
3 63 127 128
3 63 128 64
3 64 128 65
3 64 65 1
3 65 129 130
3 65 130 66
3 66 130 131
3 66 131 67
3 67 131 132
3 67 132 68
3 68 132 133
3 68 133 69
3 69 133 134
3 69 134 70
3 70 134 135
3 70 135 71
3 71 135 136
3 71 136 72
3 72 136 137
3 72 137 73
3 73 137 138
3 73 138 74
3 74 138 139
3 74 139 75
3 75 139 140
3 75 140 76
3 76 140 141
3 76 141 77
3 77 141 142
3 77 142 78
3 78 142 143
3 78 143 79
3 79 143 144
3 79 144 80
3 80 144 145
3 80 145 81
3 81 145 146
3 81 146 82
3 82 146 147
3 82 147 83
3 83 147 148
3 83 148 84
3 84 148 149
3 84 149 85
3 85 149 150
3 85 150 86
3 86 150 151
3 86 151 87
3 87 151 152
3 87 152 88
3 88 152 153
3 88 153 89
3 89 153 154
3 89 154 90
3 90 154 155
3 90 155 91
3 91 155 156
3 91 156 92
3 92 156 157
3 92 157 93
3 93 157 158
3 93 158 94
3 94 158 159
3 94 159 95
3 95 159 160
3 95 160 96
3 96 160 161
3 96 161 97
3 97 161 162
3 97 162 98
3 98 162 163
3 98 163 99
3 99 163 164
3 99 164 100
3 100 164 165
3 100 165 101
3 101 165 166
3 101 166 102
3 102 166 167
3 102 167 103
3 103 167 168
3 103 168 104
3 104 168 169
3 104 169 105
3 105 169 170
3 105 170 106
3 106 170 171
3 106 171 107
3 107 171 172
3 107 172 108
3 108 172 173
3 108 173 109
3 109 173 174
3 109 174 110
3 110 174 175
3 110 175 111
3 111 175 176
3 111 176 112
3 112 176 177
3 112 177 113
3 113 177 178
3 113 178 114
3 114 178 179
3 114 179 115
3 115 179 180
3 115 180 116
3 116 180 181
3 116 181 117
3 117 181 182
3 117 182 118
3 118 182 183
3 118 183 119
3 119 183 184
3 119 184 120
3 120 184 185
3 120 185 121
3 121 185 186
3 121 186 122
3 122 186 187
3 122 187 123
3 123 187 188
3 123 188 124
3 124 188 189
3 124 189 125
3 125 189 190
3 125 190 126
3 126 190 191
3 126 191 127
3 127 191 192
3 127 192 128
3 128 192 129
3 128 129 65
3 129 193 194
3 129 194 130
3 130 194 195
3 130 195 131
3 131 195 196
3 131 196 132
3 132 196 197
3 132 197 133
3 133 197 198
3 133 198 134
3 134 198 199
3 134 199 135
3 135 199 200
3 135 200 136
3 136 200 201
3 136 201 137
3 137 201 202
3 137 202 138
3 138 202 203
3 138 203 139
3 139 203 204
3 139 204 140
3 140 204 205
3 140 205 141
3 141 205 206
3 141 206 142
3 142 206 207
3 142 207 143
3 143 207 208
3 143 208 144
3 144 208 209
3 144 209 145
3 145 209 210
3 145 210 146
3 146 210 211
3 146 211 147
3 147 211 212
3 147 212 148
3 148 212 213
3 148 213 149
3 149 213 214
3 149 214 150
3 150 214 215
3 150 215 151
3 151 215 216
3 151 216 152
3 152 216 217
3 152 217 153
3 153 217 218
3 153 218 154
3 154 218 219
3 154 219 155
3 155 219 220
3 155 220 156
3 156 220 221
3 156 221 157
3 157 221 222
3 157 222 158
3 158 222 223
3 158 223 159
3 159 223 224
3 159 224 160
3 160 224 225
3 160 225 161
3 161 225 226
3 161 226 162
3 162 226 227
3 162 227 163
3 163 227 228
3 163 228 164
3 164 228 229
3 164 229 165
3 165 229 230
3 165 230 166
3 166 230 231
3 166 231 167
3 167 231 232
3 167 232 168
3 168 232 233
3 168 233 169
3 169 233 234
3 169 234 170
3 170 234 235
3 170 235 171
3 171 235 236
3 171 236 172
3 172 236 237
3 172 237 173
3 173 237 238
3 173 238 174
3 174 238 239
3 174 239 175
3 175 239 240
3 175 240 176
3 176 240 241
3 176 241 177
3 177 241 242
3 177 242 178
3 178 242 243
3 178 243 179
3 179 243 244
3 179 244 180
3 180 244 245
3 180 245 181
3 181 245 246
3 181 246 182
3 182 246 247
3 182 247 183
3 183 247 248
3 183 248 184
3 184 248 249
3 184 249 185
3 185 249 250
3 185 250 186
3 186 250 251
3 186 251 187
3 187 251 252
3 187 252 188
3 188 252 253
3 188 253 189
3 189 253 254
3 189 254 190
3 190 254 255
3 190 255 191
3 191 255 256
3 191 256 192
3 192 256 193
3 192 193 129
3 193 257 258
3 193 258 194
3 194 258 259
3 194 259 195
3 195 259 260
3 195 260 196
3 196 260 261
3 196 261 197
3 197 261 262
3 197 262 198
3 198 262 263
3 198 263 199
3 199 263 264
3 199 264 200
3 200 264 265
3 200 265 201
3 201 265 266
3 201 266 202
3 202 266 267
3 202 267 203
3 203 267 268
3 203 268 204
3 204 268 269
3 204 269 205
3 205 269 270
3 205 270 206
3 206 270 271
3 206 271 207
3 207 271 272
3 207 272 208
3 208 272 273
3 208 273 209
3 209 273 274
3 209 274 210
3 210 274 275
3 210 275 211
3 211 275 276
3 211 276 212
3 212 276 277
3 212 277 213
3 213 277 278
3 213 278 214
3 214 278 279
3 214 279 215
3 215 279 280
3 215 280 216
3 216 280 281
3 216 281 217
3 217 281 282
3 217 282 218
3 218 282 283
3 218 283 219
3 219 283 284
3 219 284 220
3 220 284 285
3 220 285 221
3 221 285 286
3 221 286 222
3 222 286 287
3 222 287 223
3 223 287 288
3 223 288 224
3 224 288 289
3 224 289 225
3 225 289 290
3 225 290 226
3 226 290 291
3 226 291 227
3 227 291 292
3 227 292 228
3 228 292 293
3 228 293 229
3 229 293 294
3 229 294 230
3 230 294 295
3 230 295 231
3 231 295 296
3 231 296 232
3 232 296 297
3 232 297 233
3 233 297 298
3 233 298 234
3 234 298 299
3 234 299 235
3 235 299 300
3 235 300 236
3 236 300 301
3 236 301 237
3 237 301 302
3 237 302 238
3 238 302 303
3 238 303 239
3 239 303 304
3 239 304 240
3 240 304 305
3 240 305 241
3 241 305 306
3 241 306 242
3 242 306 307
3 242 307 243
3 243 307 308
3 243 308 244
3 244 308 309
3 244 309 245
3 245 309 310
3 245 310 246
3 246 310 311
3 246 311 247
3 247 311 312
3 247 312 248
3 248 312 313
3 248 313 249
3 249 313 314
3 249 314 250
3 250 314 315
3 250 315 251
3 251 315 316
3 251 316 252
3 252 316 317
3 252 317 253
3 253 317 318
3 253 318 254
3 254 318 319
3 254 319 255
3 255 319 320
3 255 320 256
3 256 320 257
3 256 257 193
3 257 321 322
3 257 322 258
3 258 322 323
3 258 323 259
3 259 323 324
3 259 324 260
3 260 324 325
3 260 325 261
3 261 325 326
3 261 326 262
3 262 326 327
3 262 327 263
3 263 327 328
3 263 328 264
3 264 328 329
3 264 329 265
3 265 329 330
3 265 330 266
3 266 330 331
3 266 331 267
3 267 331 332
3 267 332 268
3 268 332 333
3 268 333 269
3 269 333 334
3 269 334 270
3 270 334 335
3 270 335 271
3 271 335 336
3 271 336 272
3 272 336 337
3 272 337 273
3 273 337 338
3 273 338 274
3 274 338 339
3 274 339 275
3 275 339 340
3 275 340 276
3 276 340 341
3 276 341 277
3 277 341 342
3 277 342 278
3 278 342 343
3 278 343 279
3 279 343 344
3 279 344 280
3 280 344 345
3 280 345 281
3 281 345 346
3 281 346 282
3 282 346 347
3 282 347 283
3 283 347 348
3 283 348 284
3 284 348 349
3 284 349 285
3 285 349 350
3 285 350 286
3 286 350 351
3 286 351 287
3 287 351 352
3 287 352 288
3 288 352 353
3 288 353 289
3 289 353 354
3 289 354 290
3 290 354 355
3 290 355 291
3 291 355 356
3 291 356 292
3 292 356 357
3 292 357 293
3 293 357 358
3 293 358 294
3 294 358 359
3 294 359 295
3 295 359 360
3 295 360 296
3 296 360 361
3 296 361 297
3 297 361 362
3 297 362 298
3 298 362 363
3 298 363 299
3 299 363 364
3 299 364 300
3 300 364 365
3 300 365 301
3 301 365 366
3 301 366 302
3 302 366 367
3 302 367 303
3 303 367 368
3 303 368 304
3 304 368 369
3 304 369 305
3 305 369 370
3 305 370 306
3 306 370 371
3 306 371 307
3 307 371 372
3 307 372 308
3 308 372 373
3 308 373 309
3 309 373 374
3 309 374 310
3 310 374 375
3 310 375 311
3 311 375 376
3 311 376 312
3 312 376 377
3 312 377 313
3 313 377 378
3 313 378 314
3 314 378 379
3 314 379 315
3 315 379 380
3 315 380 316
3 316 380 381
3 316 381 317
3 317 381 382
3 317 382 318
3 318 382 383
3 318 383 319
3 319 383 384
3 319 384 320
3 320 384 321
3 320 321 257
3 321 385 386
3 321 386 322
3 322 386 387
3 322 387 323
3 323 387 388
3 323 388 324
3 324 388 389
3 324 389 325
3 325 389 390
3 325 390 326
3 326 390 391
3 326 391 327
3 327 391 392
3 327 392 328
3 328 392 393
3 328 393 329
3 329 393 394
3 329 394 330
3 330 394 395
3 330 395 331
3 331 395 396
3 331 396 332
3 332 396 397
3 332 397 333
3 333 397 398
3 333 398 334
3 334 398 399
3 334 399 335
3 335 399 400
3 335 400 336
3 336 400 401
3 336 401 337
3 337 401 402
3 337 402 338
3 338 402 403
3 338 403 339
3 339 403 404
3 339 404 340
3 340 404 405
3 340 405 341
3 341 405 406
3 341 406 342
3 342 406 407
3 342 407 343
3 343 407 408
3 343 408 344
3 344 408 409
3 344 409 345
3 345 409 410
3 345 410 346
3 346 410 411
3 346 411 347
3 347 411 412
3 347 412 348
3 348 412 413
3 348 413 349
3 349 413 414
3 349 414 350
3 350 414 415
3 350 415 351
3 351 415 416
3 351 416 352
3 352 416 417
3 352 417 353
3 353 417 418
3 353 418 354
3 354 418 419
3 354 419 355
3 355 419 420
3 355 420 356
3 356 420 421
3 356 421 357
3 357 421 422
3 357 422 358
3 358 422 423
3 358 423 359
3 359 423 424
3 359 424 360
3 360 424 425
3 360 425 361
3 361 425 426
3 361 426 362
3 362 426 427
3 362 427 363
3 363 427 428
3 363 428 364
3 364 428 429
3 364 429 365
3 365 429 430
3 365 430 366
3 366 430 431
3 366 431 367
3 367 431 432
3 367 432 368
3 368 432 433
3 368 433 369
3 369 433 434
3 369 434 370
3 370 434 435
3 370 435 371
3 371 435 436
3 371 436 372
3 372 436 437
3 372 437 373
3 373 437 438
3 373 438 374
3 374 438 439
3 374 439 375
3 375 439 440
3 375 440 376
3 376 440 441
3 376 441 377
3 377 441 442
3 377 442 378
3 378 442 443
3 378 443 379
3 379 443 444
3 379 444 380
3 380 444 445
3 380 445 381
3 381 445 446
3 381 446 382
3 382 446 447
3 382 447 383
3 383 447 448
3 383 448 384
3 384 448 385
3 384 385 321
3 385 449 450
3 385 450 386
3 386 450 451
3 386 451 387
3 387 451 452
3 387 452 388
3 388 452 453
3 388 453 389
3 389 453 454
3 389 454 390
3 390 454 455
3 390 455 391
3 391 455 456
3 391 456 392
3 392 456 457
3 392 457 393
3 393 457 458
3 393 458 394
3 394 458 459
3 394 459 395
3 395 459 460
3 395 460 396
3 396 460 461
3 396 461 397
3 397 461 462
3 397 462 398
3 398 462 463
3 398 463 399
3 399 463 464
3 399 464 400
3 400 464 465
3 400 465 401
3 401 465 466
3 401 466 402
3 402 466 467
3 402 467 403
3 403 467 468
3 403 468 404
3 404 468 469
3 404 469 405
3 405 469 470
3 405 470 406
3 406 470 471
3 406 471 407
3 407 471 472
3 407 472 408
3 408 472 473
3 408 473 409
3 409 473 474
3 409 474 410
3 410 474 475
3 410 475 411
3 411 475 476
3 411 476 412
3 412 476 477
3 412 477 413
3 413 477 478
3 413 478 414
3 414 478 479
3 414 479 415
3 415 479 480
3 415 480 416
3 416 480 481
3 416 481 417
3 417 481 482
3 417 482 418
3 418 482 483
3 418 483 419
3 419 483 484
3 419 484 420
3 420 484 485
3 420 485 421
3 421 485 486
3 421 486 422
3 422 486 487
3 422 487 423
3 423 487 488
3 423 488 424
3 424 488 489
3 424 489 425
3 425 489 490
3 425 490 426
3 426 490 491
3 426 491 427
3 427 491 492
3 427 492 428
3 428 492 493
3 428 493 429
3 429 493 494
3 429 494 430
3 430 494 495
3 430 495 431
3 431 495 496
3 431 496 432
3 432 496 497
3 432 497 433
3 433 497 498
3 433 498 434
3 434 498 499
3 434 499 435
3 435 499 500
3 435 500 436
3 436 500 501
3 436 501 437
3 437 501 502
3 437 502 438
3 438 502 503
3 438 503 439
3 439 503 504
3 439 504 440
3 440 504 505
3 440 505 441
3 441 505 506
3 441 506 442
3 442 506 507
3 442 507 443
3 443 507 508
3 443 508 444
3 444 508 509
3 444 509 445
3 445 509 510
3 445 510 446
3 446 510 511
3 446 511 447
3 447 511 512
3 447 512 448
3 448 512 449
3 448 449 385
3 449 513 514
3 449 514 450
3 450 514 515
3 450 515 451
3 451 515 516
3 451 516 452
3 452 516 517
3 452 517 453
3 453 517 518
3 453 518 454
3 454 518 519
3 454 519 455
3 455 519 520
3 455 520 456
3 456 520 521
3 456 521 457
3 457 521 522
3 457 522 458
3 458 522 523
3 458 523 459
3 459 523 524
3 459 524 460
3 460 524 525
3 460 525 461
3 461 525 526
3 461 526 462
3 462 526 527
3 462 527 463
3 463 527 528
3 463 528 464
3 464 528 529
3 464 529 465
3 465 529 530
3 465 530 466
3 466 530 531
3 466 531 467
3 467 531 532
3 467 532 468
3 468 532 533
3 468 533 469
3 469 533 534
3 469 534 470
3 470 534 535
3 470 535 471
3 471 535 536
3 471 536 472
3 472 536 537
3 472 537 473
3 473 537 538
3 473 538 474
3 474 538 539
3 474 539 475
3 475 539 540
3 475 540 476
3 476 540 541
3 476 541 477
3 477 541 542
3 477 542 478
3 478 542 543
3 478 543 479
3 479 543 544
3 479 544 480
3 480 544 545
3 480 545 481
3 481 545 546
3 481 546 482
3 482 546 547
3 482 547 483
3 483 547 548
3 483 548 484
3 484 548 549
3 484 549 485
3 485 549 550
3 485 550 486
3 486 550 551
3 486 551 487
3 487 551 552
3 487 552 488
3 488 552 553
3 488 553 489
3 489 553 554
3 489 554 490
3 490 554 555
3 490 555 491
3 491 555 556
3 491 556 492
3 492 556 557
3 492 557 493
3 493 557 558
3 493 558 494
3 494 558 559
3 494 559 495
3 495 559 560
3 495 560 496
3 496 560 561
3 496 561 497
3 497 561 562
3 497 562 498
3 498 562 563
3 498 563 499
3 499 563 564
3 499 564 500
3 500 564 565
3 500 565 501
3 501 565 566
3 501 566 502
3 502 566 567
3 502 567 503
3 503 567 568
3 503 568 504
3 504 568 569
3 504 569 505
3 505 569 570
3 505 570 506
3 506 570 571
3 506 571 507
3 507 571 572
3 507 572 508
3 508 572 573
3 508 573 509
3 509 573 574
3 509 574 510
3 510 574 575
3 510 575 511
3 511 575 576
3 511 576 512
3 512 576 513
3 512 513 449
3 513 577 578
3 513 578 514
3 514 578 579
3 514 579 515
3 515 579 580
3 515 580 516
3 516 580 581
3 516 581 517
3 517 581 582
3 517 582 518
3 518 582 583
3 518 583 519
3 519 583 584
3 519 584 520
3 520 584 585
3 520 585 521
3 521 585 586
3 521 586 522
3 522 586 587
3 522 587 523
3 523 587 588
3 523 588 524
3 524 588 589
3 524 589 525
3 525 589 590
3 525 590 526
3 526 590 591
3 526 591 527
3 527 591 592
3 527 592 528
3 528 592 593
3 528 593 529
3 529 593 594
3 529 594 530
3 530 594 595
3 530 595 531
3 531 595 596
3 531 596 532
3 532 596 597
3 532 597 533
3 533 597 598
3 533 598 534
3 534 598 599
3 534 599 535
3 535 599 600
3 535 600 536
3 536 600 601
3 536 601 537
3 537 601 602
3 537 602 538
3 538 602 603
3 538 603 539
3 539 603 604
3 539 604 540
3 540 604 605
3 540 605 541
3 541 605 606
3 541 606 542
3 542 606 607
3 542 607 543
3 543 607 608
3 543 608 544
3 544 608 609
3 544 609 545
3 545 609 610
3 545 610 546
3 546 610 611
3 546 611 547
3 547 611 612
3 547 612 548
3 548 612 613
3 548 613 549
3 549 613 614
3 549 614 550
3 550 614 615
3 550 615 551
3 551 615 616
3 551 616 552
3 552 616 617
3 552 617 553
3 553 617 618
3 553 618 554
3 554 618 619
3 554 619 555
3 555 619 620
3 555 620 556
3 556 620 621
3 556 621 557
3 557 621 622
3 557 622 558
3 558 622 623
3 558 623 559
3 559 623 624
3 559 624 560
3 560 624 625
3 560 625 561
3 561 625 626
3 561 626 562
3 562 626 627
3 562 627 563
3 563 627 628
3 563 628 564
3 564 628 629
3 564 629 565
3 565 629 630
3 565 630 566
3 566 630 631
3 566 631 567
3 567 631 632
3 567 632 568
3 568 632 633
3 568 633 569
3 569 633 634
3 569 634 570
3 570 634 635
3 570 635 571
3 571 635 636
3 571 636 572
3 572 636 637
3 572 637 573
3 573 637 638
3 573 638 574
3 574 638 639
3 574 639 575
3 575 639 640
3 575 640 576
3 576 640 577
3 576 577 513
3 577 641 642
3 577 642 578
3 578 642 643
3 578 643 579
3 579 643 644
3 579 644 580
3 580 644 645
3 580 645 581
3 581 645 646
3 581 646 582
3 582 646 647
3 582 647 583
3 583 647 648
3 583 648 584
3 584 648 649
3 584 649 585
3 585 649 650
3 585 650 586
3 586 650 651
3 586 651 587
3 587 651 652
3 587 652 588
3 588 652 653
3 588 653 589
3 589 653 654
3 589 654 590
3 590 654 655
3 590 655 591
3 591 655 656
3 591 656 592
3 592 656 657
3 592 657 593
3 593 657 658
3 593 658 594
3 594 658 659
3 594 659 595
3 595 659 660
3 595 660 596
3 596 660 661
3 596 661 597
3 597 661 662
3 597 662 598
3 598 662 663
3 598 663 599
3 599 663 664
3 599 664 600
3 600 664 665
3 600 665 601
3 601 665 666
3 601 666 602
3 602 666 667
3 602 667 603
3 603 667 668
3 603 668 604
3 604 668 669
3 604 669 605
3 605 669 670
3 605 670 606
3 606 670 671
3 606 671 607
3 607 671 672
3 607 672 608
3 608 672 673
3 608 673 609
3 609 673 674
3 609 674 610
3 610 674 675
3 610 675 611
3 611 675 676
3 611 676 612
3 612 676 677
3 612 677 613
3 613 677 678
3 613 678 614
3 614 678 679
3 614 679 615
3 615 679 680
3 615 680 616
3 616 680 681
3 616 681 617
3 617 681 682
3 617 682 618
3 618 682 683
3 618 683 619
3 619 683 684
3 619 684 620
3 620 684 685
3 620 685 621
3 621 685 686
3 621 686 622
3 622 686 687
3 622 687 623
3 623 687 688
3 623 688 624
3 624 688 689
3 624 689 625
3 625 689 690
3 625 690 626
3 626 690 691
3 626 691 627
3 627 691 692
3 627 692 628
3 628 692 693
3 628 693 629
3 629 693 694
3 629 694 630
3 630 694 695
3 630 695 631
3 631 695 696
3 631 696 632
3 632 696 697
3 632 697 633
3 633 697 698
3 633 698 634
3 634 698 699
3 634 699 635
3 635 699 700
3 635 700 636
3 636 700 701
3 636 701 637
3 637 701 702
3 637 702 638
3 638 702 703
3 638 703 639
3 639 703 704
3 639 704 640
3 640 704 641
3 640 641 577
3 641 705 706
3 641 706 642
3 642 706 707
3 642 707 643
3 643 707 708
3 643 708 644
3 644 708 709
3 644 709 645
3 645 709 710
3 645 710 646
3 646 710 711
3 646 711 647
3 647 711 712
3 647 712 648
3 648 712 713
3 648 713 649
3 649 713 714
3 649 714 650
3 650 714 715
3 650 715 651
3 651 715 716
3 651 716 652
3 652 716 717
3 652 717 653
3 653 717 718
3 653 718 654
3 654 718 719
3 654 719 655
3 655 719 720
3 655 720 656
3 656 720 721
3 656 721 657
3 657 721 722
3 657 722 658
3 658 722 723
3 658 723 659
3 659 723 724
3 659 724 660
3 660 724 725
3 660 725 661
3 661 725 726
3 661 726 662
3 662 726 727
3 662 727 663
3 663 727 728
3 663 728 664
3 664 728 729
3 664 729 665
3 665 729 730
3 665 730 666
3 666 730 731
3 666 731 667
3 667 731 732
3 667 732 668
3 668 732 733
3 668 733 669
3 669 733 734
3 669 734 670
3 670 734 735
3 670 735 671
3 671 735 736
3 671 736 672
3 672 736 737
3 672 737 673
3 673 737 738
3 673 738 674
3 674 738 739
3 674 739 675
3 675 739 740
3 675 740 676
3 676 740 741
3 676 741 677
3 677 741 742
3 677 742 678
3 678 742 743
3 678 743 679
3 679 743 744
3 679 744 680
3 680 744 745
3 680 745 681
3 681 745 746
3 681 746 682
3 682 746 747
3 682 747 683
3 683 747 748
3 683 748 684
3 684 748 749
3 684 749 685
3 685 749 750
3 685 750 686
3 686 750 751
3 686 751 687
3 687 751 752
3 687 752 688
3 688 752 753
3 688 753 689
3 689 753 754
3 689 754 690
3 690 754 755
3 690 755 691
3 691 755 756
3 691 756 692
3 692 756 757
3 692 757 693
3 693 757 758
3 693 758 694
3 694 758 759
3 694 759 695
3 695 759 760
3 695 760 696
3 696 760 761
3 696 761 697
3 697 761 762
3 697 762 698
3 698 762 763
3 698 763 699
3 699 763 764
3 699 764 700
3 700 764 765
3 700 765 701
3 701 765 766
3 701 766 702
3 702 766 767
3 702 767 703
3 703 767 768
3 703 768 704
3 704 768 705
3 704 705 641
3 705 769 770
3 705 770 706
3 706 770 771
3 706 771 707
3 707 771 772
3 707 772 708
3 708 772 773
3 708 773 709
3 709 773 774
3 709 774 710
3 710 774 775
3 710 775 711
3 711 775 776
3 711 776 712
3 712 776 777
3 712 777 713
3 713 777 778
3 713 778 714
3 714 778 779
3 714 779 715
3 715 779 780
3 715 780 716
3 716 780 781
3 716 781 717
3 717 781 782
3 717 782 718
3 718 782 783
3 718 783 719
3 719 783 784
3 719 784 720
3 720 784 785
3 720 785 721
3 721 785 786
3 721 786 722
3 722 786 787
3 722 787 723
3 723 787 788
3 723 788 724
3 724 788 789
3 724 789 725
3 725 789 790
3 725 790 726
3 726 790 791
3 726 791 727
3 727 791 792
3 727 792 728
3 728 792 793
3 728 793 729
3 729 793 794
3 729 794 730
3 730 794 795
3 730 795 731
3 731 795 796
3 731 796 732
3 732 796 797
3 732 797 733
3 733 797 798
3 733 798 734
3 734 798 799
3 734 799 735
3 735 799 800
3 735 800 736
3 736 800 801
3 736 801 737
3 737 801 802
3 737 802 738
3 738 802 803
3 738 803 739
3 739 803 804
3 739 804 740
3 740 804 805
3 740 805 741
3 741 805 806
3 741 806 742
3 742 806 807
3 742 807 743
3 743 807 808
3 743 808 744
3 744 808 809
3 744 809 745
3 745 809 810
3 745 810 746
3 746 810 811
3 746 811 747
3 747 811 812
3 747 812 748
3 748 812 813
3 748 813 749
3 749 813 814
3 749 814 750
3 750 814 815
3 750 815 751
3 751 815 816
3 751 816 752
3 752 816 817
3 752 817 753
3 753 817 818
3 753 818 754
3 754 818 819
3 754 819 755
3 755 819 820
3 755 820 756
3 756 820 821
3 756 821 757
3 757 821 822
3 757 822 758
3 758 822 823
3 758 823 759
3 759 823 824
3 759 824 760
3 760 824 825
3 760 825 761
3 761 825 826
3 761 826 762
3 762 826 827
3 762 827 763
3 763 827 828
3 763 828 764
3 764 828 829
3 764 829 765
3 765 829 830
3 765 830 766
3 766 830 831
3 766 831 767
3 767 831 832
3 767 832 768
3 768 832 769
3 768 769 705
3 769 833 834
3 769 834 770
3 770 834 835
3 770 835 771
3 771 835 836
3 771 836 772
3 772 836 837
3 772 837 773
3 773 837 838
3 773 838 774
3 774 838 839
3 774 839 775
3 775 839 840
3 775 840 776
3 776 840 841
3 776 841 777
3 777 841 842
3 777 842 778
3 778 842 843
3 778 843 779
3 779 843 844
3 779 844 780
3 780 844 845
3 780 845 781
3 781 845 846
3 781 846 782
3 782 846 847
3 782 847 783
3 783 847 848
3 783 848 784
3 784 848 849
3 784 849 785
3 785 849 850
3 785 850 786
3 786 850 851
3 786 851 787
3 787 851 852
3 787 852 788
3 788 852 853
3 788 853 789
3 789 853 854
3 789 854 790
3 790 854 855
3 790 855 791
3 791 855 856
3 791 856 792
3 792 856 857
3 792 857 793
3 793 857 858
3 793 858 794
3 794 858 859
3 794 859 795
3 795 859 860
3 795 860 796
3 796 860 861
3 796 861 797
3 797 861 862
3 797 862 798
3 798 862 863
3 798 863 799
3 799 863 864
3 799 864 800
3 800 864 865
3 800 865 801
3 801 865 866
3 801 866 802
3 802 866 867
3 802 867 803
3 803 867 868
3 803 868 804
3 804 868 869
3 804 869 805
3 805 869 870
3 805 870 806
3 806 870 871
3 806 871 807
3 807 871 872
3 807 872 808
3 808 872 873
3 808 873 809
3 809 873 874
3 809 874 810
3 810 874 875
3 810 875 811
3 811 875 876
3 811 876 812
3 812 876 877
3 812 877 813
3 813 877 878
3 813 878 814
3 814 878 879
3 814 879 815
3 815 879 880
3 815 880 816
3 816 880 881
3 816 881 817
3 817 881 882
3 817 882 818
3 818 882 883
3 818 883 819
3 819 883 884
3 819 884 820
3 820 884 885
3 820 885 821
3 821 885 886
3 821 886 822
3 822 886 887
3 822 887 823
3 823 887 888
3 823 888 824
3 824 888 889
3 824 889 825
3 825 889 890
3 825 890 826
3 826 890 891
3 826 891 827
3 827 891 892
3 827 892 828
3 828 892 893
3 828 893 829
3 829 893 894
3 829 894 830
3 830 894 895
3 830 895 831
3 831 895 896
3 831 896 832
3 832 896 833
3 832 833 769
3 833 897 898
3 833 898 834
3 834 898 899
3 834 899 835
3 835 899 900
3 835 900 836
3 836 900 901
3 836 901 837
3 837 901 902
3 837 902 838
3 838 902 903
3 838 903 839
3 839 903 904
3 839 904 840
3 840 904 905
3 840 905 841
3 841 905 906
3 841 906 842
3 842 906 907
3 842 907 843
3 843 907 908
3 843 908 844
3 844 908 909
3 844 909 845
3 845 909 910
3 845 910 846
3 846 910 911
3 846 911 847
3 847 911 912
3 847 912 848
3 848 912 913
3 848 913 849
3 849 913 914
3 849 914 850
3 850 914 915
3 850 915 851
3 851 915 916
3 851 916 852
3 852 916 917
3 852 917 853
3 853 917 918
3 853 918 854
3 854 918 919
3 854 919 855
3 855 919 920
3 855 920 856
3 856 920 921
3 856 921 857
3 857 921 922
3 857 922 858
3 858 922 923
3 858 923 859
3 859 923 924
3 859 924 860
3 860 924 925
3 860 925 861
3 861 925 926
3 861 926 862
3 862 926 927
3 862 927 863
3 863 927 928
3 863 928 864
3 864 928 929
3 864 929 865
3 865 929 930
3 865 930 866
3 866 930 931
3 866 931 867
3 867 931 932
3 867 932 868
3 868 932 933
3 868 933 869
3 869 933 934
3 869 934 870
3 870 934 935
3 870 935 871
3 871 935 936
3 871 936 872
3 872 936 937
3 872 937 873
3 873 937 938
3 873 938 874
3 874 938 939
3 874 939 875
3 875 939 940
3 875 940 876
3 876 940 941
3 876 941 877
3 877 941 942
3 877 942 878
3 878 942 943
3 878 943 879
3 879 943 944
3 879 944 880
3 880 944 945
3 880 945 881
3 881 945 946
3 881 946 882
3 882 946 947
3 882 947 883
3 883 947 948
3 883 948 884
3 884 948 949
3 884 949 885
3 885 949 950
3 885 950 886
3 886 950 951
3 886 951 887
3 887 951 952
3 887 952 888
3 888 952 953
3 888 953 889
3 889 953 954
3 889 954 890
3 890 954 955
3 890 955 891
3 891 955 956
3 891 956 892
3 892 956 957
3 892 957 893
3 893 957 958
3 893 958 894
3 894 958 959
3 894 959 895
3 895 959 960
3 895 960 896
3 896 960 897
3 896 897 833
3 897 961 962
3 897 962 898
3 898 962 963
3 898 963 899
3 899 963 964
3 899 964 900
3 900 964 965
3 900 965 901
3 901 965 966
3 901 966 902
3 902 966 967
3 902 967 903
3 903 967 968
3 903 968 904
3 904 968 969
3 904 969 905
3 905 969 970
3 905 970 906
3 906 970 971
3 906 971 907
3 907 971 972
3 907 972 908
3 908 972 973
3 908 973 909
3 909 973 974
3 909 974 910
3 910 974 975
3 910 975 911
3 911 975 976
3 911 976 912
3 912 976 977
3 912 977 913
3 913 977 978
3 913 978 914
3 914 978 979
3 914 979 915
3 915 979 980
3 915 980 916
3 916 980 981
3 916 981 917
3 917 981 982
3 917 982 918
3 918 982 983
3 918 983 919
3 919 983 984
3 919 984 920
3 920 984 985
3 920 985 921
3 921 985 986
3 921 986 922
3 922 986 987
3 922 987 923
3 923 987 988
3 923 988 924
3 924 988 989
3 924 989 925
3 925 989 990
3 925 990 926
3 926 990 991
3 926 991 927
3 927 991 992
3 927 992 928
3 928 992 993
3 928 993 929
3 929 993 994
3 929 994 930
3 930 994 995
3 930 995 931
3 931 995 996
3 931 996 932
3 932 996 997
3 932 997 933
3 933 997 998
3 933 998 934
3 934 998 999
3 934 999 935
3 935 999 1000
3 935 1000 936
3 936 1000 1001
3 936 1001 937
3 937 1001 1002
3 937 1002 938
3 938 1002 1003
3 938 1003 939
3 939 1003 1004
3 939 1004 940
3 940 1004 1005
3 940 1005 941
3 941 1005 1006
3 941 1006 942
3 942 1006 1007
3 942 1007 943
3 943 1007 1008
3 943 1008 944
3 944 1008 1009
3 944 1009 945
3 945 1009 1010
3 945 1010 946
3 946 1010 1011
3 946 1011 947
3 947 1011 1012
3 947 1012 948
3 948 1012 1013
3 948 1013 949
3 949 1013 1014
3 949 1014 950
3 950 1014 1015
3 950 1015 951
3 951 1015 1016
3 951 1016 952
3 952 1016 1017
3 952 1017 953
3 953 1017 1018
3 953 1018 954
3 954 1018 1019
3 954 1019 955
3 955 1019 1020
3 955 1020 956
3 956 1020 1021
3 956 1021 957
3 957 1021 1022
3 957 1022 958
3 958 1022 1023
3 958 1023 959
3 959 1023 1024
3 959 1024 960
3 960 1024 961
3 960 961 897
