ply
format ascii 1.0
element vertex 50
property float x
property float y
property float z
element face 64
property list uchar int vertex_indices
end_header
0.27083417773246765137 1.0407874584197998047 0
0.45860642194747924805 0.87237787246704101562 0
0.64637809991836547852 0.70396816730499267578 0
0.83414870500564575195 0.53555768728256225586 0
1.0219198465347290039 0.3671474754810333252 0
0.43924343585968017578 1.2285585403442382812 0
0.62701529264450073242 1.0601488351821899414 0
0.81478708982467651367 0.89173895120620727539 0
1.0025584697723388672 0.72332864999771118164 0
1.1903299093246459961 0.55491858720779418945 0
0.6076526641845703125 1.416329503059387207 0
0.79542452096939086914 1.2479197978973388672 0
0.983196258544921875 1.0795099735260009766 0
1.1709678173065185547 0.91109985113143920898 0
1.3587392568588256836 0.74268984794616699219 0
0.77606195211410522461 1.6041004657745361328 0
0.96383392810821533203 1.4356909990310668945 0
1.1516056060791015625 1.2672811746597290039 0
1.3393771648406982422 1.0988712310791015625 0
1.5271486043930053711 0.93046116828918457031 0
0.94447153806686401367 1.7918717861175537109 0
1.1322436332702636719 1.6234623193740844727 0
1.3200151920318603516 1.4550527334213256836 0
1.5077866315841674805 1.2866427898406982422 0
1.6955579519271850586 1.11823272705078125 0
-0.50016760826110839844 -0.50037586688995361328 0
-0.25016793608665466309 -0.5003865361213684082 0
-0.00016731028154026716948 -0.50039505958557128906 0
0.24983401596546173096 -0.50040185451507568359 0
0.49983668327331542969 -0.50040423870086669922 0
-0.50016081333160400391 -0.25037741661071777344 0
-0.25016033649444580078 -0.25038641691207885742 0
-0.00016025590593926608562 -0.25039502978324890137 0
0.24984000623226165771 -0.25040215253829956055 0
0.49984055757522583008 -0.25040724873542785645 0
-0.50015360116958618164 -0.0003777149540837854147 0
-0.25015333294868469238 -0.00038654272793792188168 0
-0.00015322318358812481165 -0.00039510420174337923527 0
0.24984684586524963379 -0.00040259340312331914902 0
0.49984711408615112305 -0.00040895520942285656929 0
-0.50014549493789672852 0.24962325394153594971 0
-0.2501456141471862793 0.24961352348327636719 0
-0.0001458387268939986825 0.24960462749004364014 0
0.2498540729284286499 0.24959690868854522705 0
0.49985393881797790527 0.24959002435207366943 0
-0.50013411045074462891 0.4996261894702911377 0
-0.25013613700866699219 0.49961400032043457031 0
-0.00013774771650787442923 0.49960473179817199707 0
0.24986059963703155518 0.4995962679386138916 0
0.49986055493354797363 0.49959045648574829102 0
3 0 1 6
3 0 6 5
3 1 2 7
3 1 7 6
3 2 3 8
3 2 8 7
3 3 4 9
3 3 9 8
3 5 6 11
3 5 11 10
3 6 7 12
3 6 12 11
3 7 8 13
3 7 13 12
3 8 9 14
3 8 14 13
3 10 11 16
3 10 16 15
3 11 12 17
3 11 17 16
3 12 13 18
3 12 18 17
3 13 14 19
3 13 19 18
3 15 16 21
3 15 21 20
3 16 17 22
3 16 22 21
3 17 18 23
3 17 23 22
3 18 19 24
3 18 24 23
3 25 26 31
3 25 31 30
3 26 27 32
3 26 32 31
3 27 28 33
3 27 33 32
3 28 29 34
3 28 34 33
3 30 31 36
3 30 36 35
3 31 32 37
3 31 37 36
3 32 33 38
3 32 38 37
3 33 34 39
3 33 39 38
3 35 36 41
3 35 41 40
3 36 37 42
3 36 42 41
3 37 38 43
3 37 43 42
3 38 39 44
3 38 44 43
3 40 41 46
3 40 46 45
3 41 42 47
3 41 47 46
3 42 43 48
3 42 48 47
3 43 44 49
3 43 49 48
