ply
format ascii 1.0
element vertex 50
property float x
property float y
property float z
element face 64
property list uchar int vertex_indices
end_header
-1.0188710689544677734 0.36644127964973449707 0
-0.83122193813323974609 0.53498625755310058594 0
-0.64357328414916992188 0.70353162288665771484 0
-0.45592388510704040527 0.87207609415054321289 0
-0.26827403903007507324 1.0406202077865600586 0
-1.1874155998229980469 0.55409032106399536133 0
-0.99976629018783569336 0.72263503074645996094 0
-0.81211715936660766602 0.8911800384521484375 0
-0.62446761131286621094 1.0597248077392578125 0
-0.43681791424751281738 1.2282693386077880859 0
-1.3559596538543701172 0.74173939228057861328 0
-1.1683104038238525391 0.91028410196304321289 0
-0.98066109418869018555 1.0788288116455078125 0
-0.79301160573959350586 1.2473734617233276367 0
-0.60536187887191772461 1.4159179925918579102 0
-1.5245037078857421875 0.92938852310180664062 0
-1.3368544578552246094 1.0979332923889160156 0
-1.1492052078247070312 1.2664779424667358398 0
-0.96155571937561035156 1.4350224733352661133 0
-0.77390593290328979492 1.6035666465759277344 0
-1.6930478811264038086 1.1170378923416137695 0
-1.5053986310958862305 1.2855826616287231445 0
-1.3177495002746582031 1.454127192497253418 0
-1.1301000118255615234 1.6226716041564941406 0
-0.94245028495788574219 1.7912157773971557617 0
-0.4998372495174407959 -0.50040447711944580078 0
-0.24983598291873931885 -0.50040084123611450195 0
0.00016517531184945255518 -0.50039392709732055664 0
0.25016579031944274902 -0.50038534402847290039 0
0.50016629695892333984 -0.50037455558776855469 0
-0.49984270334243774414 -0.25040650367736816406 0
-0.24984201788902282715 -0.25040113925933837891 0
0.00015821158012840896845 -0.25039398670196533203 0
0.2501583397388458252 -0.25038546323776245117 0
0.50015848875045776367 -0.25037613511085510254 0
-0.49984946846961975098 -0.00040816757245920598507 0
-0.24984894692897796631 -0.00040164927486330270767 0
0.00015117628208827227354 -0.00039407701115123927593 0
0.25015118718147277832 -0.00038544795825146138668 0
0.50015109777450561523 -0.00037654570769518613815 0
-0.49985644221305847168 0.24959090352058410645 0
-0.24985623359680175781 0.24959774315357208252 0
0.000143617275170981884 0.24960571527481079102 0
0.25014343857765197754 0.249614715576171875 0
0.50014311075210571289 0.2496242523193359375 0
-0.49986249208450317383 0.49959167838096618652 0
-0.24986317753791809082 0.49959740042686462402 0
0.00013543087698053568602 0.49960577487945556641 0
0.25013396143913269043 0.49961504340171813965 0
0.50013321638107299805 0.49962627887725830078 0
3 0 1 6
3 0 6 5
3 1 2 7
3 1 7 6
3 2 3 8
3 2 8 7
3 3 4 9
3 3 9 8
3 5 6 11
3 5 11 10
3 6 7 12
3 6 12 11
3 7 8 13
3 7 13 12
3 8 9 14
3 8 14 13
3 10 11 16
3 10 16 15
3 11 12 17
3 11 17 16
3 12 13 18
3 12 18 17
3 13 14 19
3 13 19 18
3 15 16 21
3 15 21 20
3 16 17 22
3 16 22 21
3 17 18 23
3 17 23 22
3 18 19 24
3 18 24 23
3 25 26 31
3 25 31 30
3 26 27 32
3 26 32 31
3 27 28 33
3 27 33 32
3 28 29 34
3 28 34 33
3 30 31 36
3 30 36 35
3 31 32 37
3 31 37 36
3 32 33 38
3 32 38 37
3 33 34 39
3 33 39 38
3 35 36 41
3 35 41 40
3 36 37 42
3 36 42 41
3 37 38 43
3 37 43 42
3 38 39 44
3 38 44 43
3 40 41 46
3 40 46 45
3 41 42 47
3 41 47 46
3 42 43 48
3 42 48 47
3 43 44 49
3 43 49 48
