ply
format ascii 1.0
element vertex 50
property float x
property float y
property float z
element face 64
property list uchar int vertex_indices
end_header
0.58280855417251586914 0.71869778633117675781 0
0.74028515815734863281 0.5207735896110534668 0
0.89775961637496948242 0.3228486180305480957 0
1.0552347898483276367 0.12492470443248748779 0
1.2127114534378051758 -0.072997905313968658447 0
0.78072768449783325195 0.87617141008377075195 0
0.9382050633430480957 0.67824804782867431641 0
1.0956810712814331055 0.48032417893409729004 0
1.2531571388244628906 0.28240099549293518066 0
1.4106340408325195312 0.084478765726089477539 0
0.97864711284637451172 1.0336462259292602539 0
1.1361250877380371094 0.83572375774383544922 0
1.29360198974609375 0.63780081272125244141 0
1.4510786533355712891 0.43987813591957092285 0
1.608555912971496582 0.24195609986782073975 0
1.1765669584274291992 1.1911222934722900391 0
1.33404541015625 0.99320060014724731445 0
1.4915227890014648438 0.79527813196182250977 0
1.6489998102188110352 0.59735578298568725586 0
1.8064773082733154297 0.39943385124206542969 0
1.3744874000549316406 1.3485996723175048828 0
1.5319663286209106445 1.1506781578063964844 0
1.6894438266754150391 0.95275592803955078125 0
1.8469208478927612305 0.75483381748199462891 0
2.004398345947265625 0.55691188573837280273 0
-0.50059425830841064453 -0.5008589625358581543 0
-0.25059631466865539551 -0.50088930130004882812 0
-0.000595108838751912117 -0.50091528892517089844 0
0.24940842390060424805 -0.5009371638298034668 0
0.4994156956672668457 -0.50094813108444213867 0
-0.50057375431060791016 -0.25086253881454467773 0
-0.25057300925254821777 -0.25088888406753540039 0
-0.00057314510922878980637 -0.25091525912284851074 0
0.24942725896835327148 -0.25093823671340942383 0
0.4994284510612487793 -0.25095614790916442871 0
-0.50055116415023803711 -0.00086247711442410945892 0
-0.25055089592933654785 -0.00088916247477754950523 0
-0.00055097392760217189789 -0.00091538752894848585129 0
0.24944867193698883057 -0.00093940453371033072472 0
0.49944907426834106445 -0.00096084579126909375191 0
-0.50052559375762939453 0.24914054572582244873 0
-0.25052633881568908691 0.24911111593246459961 0
-0.00052721978863701224327 0.24908417463302612305 0
0.24947194755077362061 0.24905961751937866211 0
0.49947080016136169434 0.24903555214405059814 0
-0.50049132108688354492 0.49914783239364624023 0
-0.25049740076065063477 0.49911215901374816895 0
-0.00050131889292970299721 0.49908441305160522461 0
0.24949516355991363525 0.49905866384506225586 0
0.49949473142623901367 0.49903658032417297363 0
3 0 1 6
3 0 6 5
3 1 2 7
3 1 7 6
3 2 3 8
3 2 8 7
3 3 4 9
3 3 9 8
3 5 6 11
3 5 11 10
3 6 7 12
3 6 12 11
3 7 8 13
3 7 13 12
3 8 9 14
3 8 14 13
3 10 11 16
3 10 16 15
3 11 12 17
3 11 17 16
3 12 13 18
3 12 18 17
3 13 14 19
3 13 19 18
3 15 16 21
3 15 21 20
3 16 17 22
3 16 22 21
3 17 18 23
3 17 23 22
3 18 19 24
3 18 24 23
3 25 26 31
3 25 31 30
3 26 27 32
3 26 32 31
3 27 28 33
3 27 33 32
3 28 29 34
3 28 34 33
3 30 31 36
3 30 36 35
3 31 32 37
3 31 37 36
3 32 33 38
3 32 38 37
3 33 34 39
3 33 39 38
3 35 36 41
3 35 41 40
3 36 37 42
3 36 42 41
3 37 38 43
3 37 43 42
3 38 39 44
3 38 44 43
3 40 41 46
3 40 46 45
3 41 42 47
3 41 47 46
3 42 43 48
3 42 48 47
3 43 44 49
3 43 49 48
