ply
format ascii 1.0
element vertex 50
property float x
property float y
property float z
element face 64
property list uchar int vertex_indices
end_header
-0.89965742826461791992 0.73951250314712524414 0
-0.65504634380340576172 0.79287314414978027344 0
-0.41043528914451599121 0.84623396396636962891 0
-0.16582413017749786377 0.89959424734115600586 0
0.078787140548229217529 0.95295470952987670898 0
-0.95301783084869384766 0.98412334918975830078 0
-0.70840668678283691406 1.0374836921691894531 0
-0.46379551291465759277 1.0908443927764892578 0
-0.21918426454067230225 1.1442047357559204102 0
0.025427045300602912903 1.1975653171539306641 0
-1.0063780546188354492 1.2287340164184570312 0
-0.76176685094833374023 1.2820944786071777344 0
-0.51715570688247680664 1.3354550600051879883 0
-0.27254453301429748535 1.3888154029846191406 0
-0.027933243662118911743 1.442175745964050293 0
-1.0597381591796875 1.4733446836471557617 0
-0.81512701511383056641 1.5267053842544555664 0
-0.5705159306526184082 1.5800658464431762695 0
-0.32590478658676147461 1.6334261894226074219 0
-0.08129355311393737793 1.6867861747741699219 0
-1.1130982637405395508 1.7179557085037231445 0
-0.86848717927932739258 1.7713164091110229492 0
-0.62387621402740478516 1.8246767520904541016 0
-0.37926524877548217773 1.8780370950698852539 0
-0.13465400040149688721 1.9313970804214477539 0
-0.49994897842407226562 -0.50030404329299926758 0
-0.24994832277297973633 -0.50029957294464111328 0
5.2416249673115089536e-05 -0.50029283761978149414 0
0.25005298852920532227 -0.5002848505973815918 0
0.50005382299423217773 -0.50027483701705932617 0
-0.49995535612106323242 -0.25030547380447387695 0
-0.24995481967926025391 -0.25029969215393066406 0
4.5375945774139836431e-05 -0.25029283761978149414 0
0.25004553794860839844 -0.25028491020202636719 0
0.5000457763671875 -0.25027617812156677246 0
-0.49996238946914672852 -0.00030652593704871833324 0
-0.24996191263198852539 -0.00030004963628016412258 0
3.8305894122458994389e-05 -0.00029290767270140349865 0
0.25003841519355773926 -0.00028494710568338632584 0
0.50003844499588012695 -0.00027673738077282905579 0
-0.499969482421875 0.24969306588172912598 0
-0.24996912479400634766 0.24969950318336486816 0
3.1020907044876366854e-05 0.24970683455467224121 0
0.25003111362457275391 0.24971508979797363281 0
0.50003099441528320312 0.24972355365753173828 0
-0.49997526407241821289 0.49969401955604553223 0
-0.24997581541538238525 0.49969914555549621582 0
2.3486170903197489679e-05 0.49970662593841552734 0
0.25002273917198181152 0.4997151494026184082 0
0.50002264976501464844 0.49972492456436157227 0
3 0 1 6
3 0 6 5
3 1 2 7
3 1 7 6
3 2 3 8
3 2 8 7
3 3 4 9
3 3 9 8
3 5 6 11
3 5 11 10
3 6 7 12
3 6 12 11
3 7 8 13
3 7 13 12
3 8 9 14
3 8 14 13
3 10 11 16
3 10 16 15
3 11 12 17
3 11 17 16
3 12 13 18
3 12 18 17
3 13 14 19
3 13 19 18
3 15 16 21
3 15 21 20
3 16 17 22
3 16 22 21
3 17 18 23
3 17 23 22
3 18 19 24
3 18 24 23
3 25 26 31
3 25 31 30
3 26 27 32
3 26 32 31
3 27 28 33
3 27 33 32
3 28 29 34
3 28 34 33
3 30 31 36
3 30 36 35
3 31 32 37
3 31 37 36
3 32 33 38
3 32 38 37
3 33 34 39
3 33 39 38
3 35 36 41
3 35 41 40
3 36 37 42
3 36 42 41
3 37 38 43
3 37 43 42
3 38 39 44
3 38 44 43
3 40 41 46
3 40 46 45
3 41 42 47
3 41 47 46
3 42 43 48
3 42 48 47
3 43 44 49
3 43 49 48
