ply
format ascii 1.0
element vertex 50
property float x
property float y
property float z
element face 64
property list uchar int vertex_indices
end_header
-0.50007539987564086914 0.91969543695449829102 0
-0.25006690621376037598 0.91911399364471435547 0
-5.8661160437623038888e-05 0.9185326695442199707 0
0.24994958937168121338 0.91795134544372558594 0
0.49995809793472290039 0.91737020015716552734 0
-0.49949419498443603516 1.1697032451629638672 0
-0.24948574602603912354 1.169121861457824707 0
0.0005226524663157761097 1.1685404777526855469 0
0.25053104758262634277 1.1679592132568359375 0
0.50053954124450683594 1.1673780679702758789 0
-0.498912811279296875 1.419710993766784668 0
-0.24890437722206115723 1.4191297292709350586 0
0.0011039790697395801544 1.4185484647750854492 0
0.25111234188079833984 1.4179670810699462891 0
0.50112080574035644531 1.4173856973648071289 0
-0.49833142757415771484 1.6697188615798950195 0
-0.24832300841808319092 1.6691378355026245117 0
0.0016853123670443892479 1.6685564517974853516 0
0.25169363617897033691 1.6679751873016357422 0
0.5017020106315612793 1.6673935651779174805 0
-0.49774992465972900391 1.9197269678115844727 0
-0.24774152040481567383 1.9191460609436035156 0
0.0022666428703814744949 1.9185646772384643555 0
0.2522748112678527832 1.9179832935333251953 0
0.50228321552276611328 1.9174016714096069336 0
-0.50000154972076416016 -0.50026661157608032227 0
-0.25000116229057312012 -0.50026911497116088867 0
-5.6738679177215090021e-07 -0.50026977062225341797 0
0.25000005960464477539 -0.50026923418045043945 0
0.50000119209289550781 -0.50026643276214599609 0
-0.50000107288360595703 -0.25026783347129821777 0
-0.2500006258487701416 -0.25026914477348327637 0
-4.5358541456153034233e-07 -0.25026974081993103027 0
0.24999973177909851074 -0.25026932358741760254 0
0.50000005960464477539 -0.25026795268058776855 0
-0.50000101327896118164 -0.00026856578188017010689 0
-0.25000059604644775391 -0.00026938877999782562256 0
-3.7088983617650228553e-07 -0.00026980444090440869331 0
0.24999977648258209229 -0.00026946721482090651989 0
0.49999994039535522461 -0.00026872463058680295944 0
-0.50000083446502685547 0.24973139166831970215 0
-0.25000053644180297852 0.24973034858703613281 0
-3.6510573409032076597e-07 0.24972991645336151123 0
0.24999983608722686768 0.24973039329051971436 0
0.49999988079071044922 0.24973119795322418213 0
-0.49999928474426269531 0.49973264336585998535 0
-0.24999983608722686768 0.49973025918006896973 0
-4.0466818518325453624e-07 0.49972966313362121582 0
0.2499990612268447876 0.49973013997077941895 0
0.49999922513961791992 0.49973213672637939453 0
3 0 1 6
3 0 6 5
3 1 2 7
3 1 7 6
3 2 3 8
3 2 8 7
3 3 4 9
3 3 9 8
3 5 6 11
3 5 11 10
3 6 7 12
3 6 12 11
3 7 8 13
3 7 13 12
3 8 9 14
3 8 14 13
3 10 11 16
3 10 16 15
3 11 12 17
3 11 17 16
3 12 13 18
3 12 18 17
3 13 14 19
3 13 19 18
3 15 16 21
3 15 21 20
3 16 17 22
3 16 22 21
3 17 18 23
3 17 23 22
3 18 19 24
3 18 24 23
3 25 26 31
3 25 31 30
3 26 27 32
3 26 32 31
3 27 28 33
3 27 33 32
3 28 29 34
3 28 34 33
3 30 31 36
3 30 36 35
3 31 32 37
3 31 37 36
3 32 33 38
3 32 38 37
3 33 34 39
3 33 39 38
3 35 36 41
3 35 41 40
3 36 37 42
3 36 42 41
3 37 38 43
3 37 43 42
3 38 39 44
3 38 44 43
3 40 41 46
3 40 46 45
3 41 42 47
3 41 47 46
3 42 43 48
3 42 48 47
3 43 44 49
3 43 49 48
