ply
format ascii 1.0
element vertex 50
property float x
property float y
property float z
element face 64
property list uchar int vertex_indices
end_header
-0.078065477311611175537 0.9536647796630859375 0
0.16641023755073547363 0.89967501163482666016 0
0.41088587045669555664 0.84568536281585693359 0
0.655361175537109375 0.79169523715972900391 0
0.89983654022216796875 0.73770511150360107422 0
-0.024075964465737342834 1.1981397867202758789 0
0.22039966285228729248 1.1441498994827270508 0
0.46487531065940856934 1.0901602506637573242 0
0.70935094356536865234 1.0361702442169189453 0
0.95382654666900634766 0.98218041658401489258 0
0.029913622885942459106 1.4426145553588867188 0
0.2743892967700958252 1.3886249065399169922 0
0.51886487007141113281 1.3346352577209472656 0
0.76334041357040405273 1.2806453704833984375 0
1.0078160762786865234 1.2266554832458496094 0
0.083903245627880096436 1.6870895624160766602 0
0.32837894558906555176 1.6331001520156860352 0
0.57285445928573608398 1.5791103839874267578 0
0.81733000278472900391 1.5251206159591674805 0
1.0618054866790771484 1.4711306095123291016 0
0.1378930509090423584 1.9315648078918457031 0
0.38236877322196960449 1.8775755167007446289 0
0.62684416770935058594 1.8235858678817749023 0
0.8713194727897644043 1.7695959806442260742 0
1.1157950162887573242 1.7156059741973876953 0
-0.50005400180816650391 -0.50027537345886230469 0
-0.25005385279655456543 -0.50028520822525024414 0
-5.3291772928787395358e-05 -0.50029325485229492188 0
0.2499475330114364624 -0.50029999017715454102 0
0.4999491274356842041 -0.50030386447906494141 0
-0.50004667043685913086 -0.2502765357494354248 0
-0.25004622340202331543 -0.25028511881828308105 0
-4.6077191655058413744e-05 -0.25029319524765014648 0
0.24995414912700653076 -0.25030016899108886719 0
0.49995455145835876465 -0.2503058016300201416 0
-0.5000393986701965332 -0.00027703269734047353268 0
-0.25003910064697265625 -0.00028528791153803467751 0
-3.890202788170427084e-05 -0.00029327740776352584362 0
0.24996127188205718994 -0.00030042504658922553062 0
0.49996149539947509766 -0.00030689028790220618248 0
-0.50003182888031005859 0.24972334504127502441 0
-0.25003173947334289551 0.24971462786197662354 0
-3.1672545446781441569e-05 0.24970643222332000732 0
0.24996849894523620605 0.24969923496246337891 0
0.49996858835220336914 0.24969269335269927979 0
-0.50002241134643554688 0.49972519278526306152 0
-0.25002336502075195312 0.49971485137939453125 0
-2.4247960027423687279e-05 0.499706268310546875 0
0.24997493624687194824 0.49969872832298278809 0
0.49997511506080627441 0.49969330430030822754 0
3 0 1 6
3 0 6 5
3 1 2 7
3 1 7 6
3 2 3 8
3 2 8 7
3 3 4 9
3 3 9 8
3 5 6 11
3 5 11 10
3 6 7 12
3 6 12 11
3 7 8 13
3 7 13 12
3 8 9 14
3 8 14 13
3 10 11 16
3 10 16 15
3 11 12 17
3 11 17 16
3 12 13 18
3 12 18 17
3 13 14 19
3 13 19 18
3 15 16 21
3 15 21 20
3 16 17 22
3 16 22 21
3 17 18 23
3 17 23 22
3 18 19 24
3 18 24 23
3 25 26 31
3 25 31 30
3 26 27 32
3 26 32 31
3 27 28 33
3 27 33 32
3 28 29 34
3 28 34 33
3 30 31 36
3 30 36 35
3 31 32 37
3 31 37 36
3 32 33 38
3 32 38 37
3 33 34 39
3 33 39 38
3 35 36 41
3 35 41 40
3 36 37 42
3 36 42 41
3 37 38 43
3 37 43 42
3 38 39 44
3 38 44 43
3 40 41 46
3 40 46 45
3 41 42 47
3 41 47 46
3 42 43 48
3 42 48 47
3 43 44 49
3 43 49 48
