ply
format ascii 1.0
element vertex 1053
property float x
property float y
property float z
element face 1920
property list uchar int vertex_indices
end_header
0.0 0.5 0.0
0.0 0.4166666666666667 0.0
0.0 0.33333333333333337 0.0
0.0 0.25 0.0
0.0 0.16666666666666669 0.0
0.0 0.08333333333333331 0.0
0.0 0.0 0.0
0.0 -0.08333333333333337 -0.0
0.0 -0.16666666666666663 -0.0
0.0 -0.25 -0.0
0.0 -0.33333333333333337 -0.0
0.0 -0.41666666666666663 -0.0
0.0 -0.5 -0.0
0.05 0.4999036202410324 0.00981684623031415
0.05 0.4165863502008604 0.00818070519192846
0.05 0.3332690801606883 0.006544564153542768
0.05 0.2499518101205162 0.004908423115157075
0.05 0.16663454008034415 0.003272282076771384
0.05 0.08331727004017205 0.0016361410383856914
0.05 0.0 0.0
0.05 -0.0833172700401721 -0.0016361410383856924
0.05 -0.1666345400803441 -0.0032722820767713827
0.05 -0.2499518101205162 -0.004908423115157075
0.05 -0.3332690801606883 -0.006544564153542768
0.05 -0.4165863502008603 -0.008180705191928457
0.05 -0.4999036202410324 -0.00981684623031415
0.1 0.49961451812036145 0.019629907879534305
0.1 0.41634543176696787 0.016358256566278588
0.1 0.33307634541357434 0.013086605253022871
0.1 0.24980725906018073 0.009814953939767153
0.1 0.16653817270678717 0.006543302626511436
0.1 0.08326908635339356 0.003271651313255717
0.1 0.0 0.0
0.1 -0.08326908635339361 -0.003271651313255719
0.1 -0.1665381727067871 -0.006543302626511434
0.1 -0.24980725906018073 -0.009814953939767153
0.1 -0.33307634541357434 -0.013086605253022871
0.1 -0.41634543176696787 -0.016358256566278585
0.1 -0.49961451812036145 -0.019629907879534305
0.15 0.49913280509235797 0.029435401825594516
0.15 0.41594400424363165 0.024529501521328764
0.15 0.33275520339490533 0.019623601217063014
0.15 0.24956640254617898 0.014717700912797258
0.15 0.16637760169745267 0.009811800608531507
0.15 0.0831888008487263 0.004905900304265752
0.15 0.0 0.0
0.15 -0.08318880084872636 -0.004905900304265755
0.15 -0.1663776016974526 -0.009811800608531504
0.15 -0.24956640254617898 -0.014717700912797258
0.15 -0.33275520339490533 -0.019623601217063014
0.15 -0.4159440042436316 -0.02452950152132876
0.15 -0.49913280509235797 -0.029435401825594516
0.2 0.498458666866564 0.03922954786392247
0.2 0.41538222238880335 0.03269128988660206
0.2 0.3323057779110427 0.02615303190928165
0.2 0.249229333433282 0.019614773931961236
0.2 0.16615288895552136 0.013076515954640825
0.2 0.08307644447776065 0.006538257977320411
0.2 0.0 0.0
0.2 -0.0830764444777607 -0.006538257977320415
0.2 -0.1661528889555213 -0.013076515954640822
0.2 -0.249229333433282 -0.019614773931961236
0.2 -0.3323057779110427 -0.02615303190928165
0.2 -0.4153822223888033 -0.032691289886602054
0.2 -0.498458666866564 -0.03922954786392247
0.25 0.49759236333609846 0.0490085701647803
0.25 0.4146603027800821 0.04084047513731692
0.25 0.33172824222406566 0.03267238010985354
0.25 0.24879618166804923 0.02450428508239015
0.25 0.16586412111203283 0.01633619005492677
0.25 0.08293206055601639 0.008168095027463382
0.25 0.0 0.0
0.25 -0.08293206055601644 -0.008168095027463388
0.25 -0.16586412111203278 -0.016336190054926765
0.25 -0.24879618166804923 -0.02450428508239015
0.25 -0.33172824222406566 -0.03267238010985354
0.25 -0.41466030278008204 -0.040840475137316916
0.25 -0.49759236333609846 -0.0490085701647803
0.3 0.49653422847746315 0.05876869872891882
0.3 0.4137785237312193 0.048973915607432354
0.3 0.3310228189849755 0.039179132485945886
0.3 0.24826711423873157 0.02938434936445941
0.3 0.16551140949248774 0.019589566242972943
0.3 0.08275570474624384 0.009794783121486468
0.3 0.0 0.0
0.3 -0.0827557047462439 -0.009794783121486475
0.3 -0.1655114094924877 -0.019589566242972936
0.3 -0.24826711423873157 -0.02938434936445941
0.3 -0.3310228189849755 -0.039179132485945886
0.3 -0.41377852373121926 -0.04897391560743235
0.3 -0.49653422847746315 -0.05876869872891882
0.35 0.4952846702217886 0.06850617084098401
0.35 0.41273722518482386 0.05708847570082001
0.35 0.3301897801478591 0.04567078056065601
0.35 0.2476423351108943 0.034253085420492005
0.35 0.16509489007392955 0.022835390280328004
0.35 0.08254744503696475 0.011417695140163999
0.35 0.0 0.0
0.35 -0.0825474450369648 -0.011417695140164007
0.35 -0.1650948900739295 -0.022835390280327997
0.35 -0.2476423351108943 -0.034253085420492005
0.35 -0.3301897801478591 -0.04567078056065601
0.35 -0.4127372251848238 -0.057088475700820006
0.35 -0.4952846702217886 -0.06850617084098401
0.4 0.4938441702975689 0.07821723252011543
0.4 0.4115368085813074 0.0651810271000962
0.4 0.32922944686504596 0.05214482168007696
0.4 0.24692208514878444 0.03910861626005772
0.4 0.16461472343252298 0.02607241084003848
0.4 0.08230736171626146 0.013036205420019237
0.4 0.0 0.0
0.4 -0.08230736171626152 -0.013036205420019245
0.4 -0.16461472343252292 -0.026072410840038474
0.4 -0.24692208514878444 -0.03910861626005772
0.4 -0.32922944686504596 -0.05214482168007696
0.4 -0.41153680858130737 -0.06518102710009618
0.4 -0.4938441702975689 -0.07821723252011543
0.45 0.4922132840449458 0.08789813996717726
0.45 0.4101777367041215 0.07324844997264772
0.45 0.32814218936329725 0.05859875997811818
0.45 0.2461066420224729 0.04394906998358863
0.45 0.16407109468164863 0.02929937998905909
0.45 0.08203554734082429 0.014649689994529539
0.45 0.0 0.0
0.45 -0.08203554734082434 -0.01464968999452955
0.45 -0.16407109468164857 -0.029299379989059078
0.45 -0.2461066420224729 -0.04394906998358863
0.45 -0.32814218936329725 -0.05859875997811818
0.45 -0.41017773670412144 -0.0732484499726477
0.45 -0.4922132840449458 -0.08789813996717726
0.5 0.4903926402016152 0.09754516100806412
0.5 0.408660533501346 0.08128763417338677
0.5 0.32692842680107687 0.06503010733870943
0.5 0.2451963201008076 0.04877258050403206
0.5 0.16346421340053843 0.03251505366935471
0.5 0.08173210670026919 0.01625752683467735
0.5 0.0 0.0
0.5 -0.08173210670026924 -0.01625752683467736
0.5 -0.16346421340053838 -0.0325150536693547
0.5 -0.2451963201008076 -0.04877258050403206
0.5 -0.32692842680107687 -0.06503010733870943
0.5 -0.40866053350134596 -0.08128763417338676
0.5 -0.4903926402016152 -0.09754516100806412
0.55 0.4883829406604362 0.10715457653252539
0.55 0.40698578388369683 0.08929548044377116
0.55 0.3255886271069575 0.07143638435501694
0.55 0.2441914703302181 0.05357728826626269
0.55 0.16279431355347876 0.03571819217750847
0.55 0.08139715677673935 0.017859096088754228
0.55 0.0 0.0
0.55 -0.08139715677673941 -0.017859096088754238
0.55 -0.1627943135534787 -0.035718192177508455
0.55 -0.2441914703302181 -0.05357728826626269
0.55 -0.3255886271069575 -0.07143638435501694
0.55 -0.4069857838836968 -0.08929548044377114
0.55 -0.4883829406604362 -0.10715457653252539
0.6 0.4861849601988383 0.1167226819279527
0.6 0.4051541334990319 0.09726890160662725
0.6 0.3241233067992256 0.07781512128530181
0.6 0.24309248009941914 0.05836134096397635
0.6 0.1620616533996128 0.038907560642650905
0.6 0.08103082669980637 0.019453780321325446
0.6 0.0 0.0
0.6 -0.08103082669980642 -0.019453780321325456
0.6 -0.16206165339961273 -0.03890756064265089
0.6 -0.24309248009941914 -0.05836134096397635
0.6 -0.3241233067992256 -0.07781512128530181
0.6 -0.40515413349903184 -0.09726890160662724
0.6 -0.4861849601988383 -0.1167226819279527
0.65 0.4837995461801299 0.12624578850757898
0.65 0.4031662884834416 0.10520482375631582
0.65 0.32253303078675327 0.08416385900505266
0.65 0.24189977309006494 0.06312289425378949
0.65 0.16126651539337664 0.04208192950252633
0.65 0.08063325769668829 0.021040964751263158
0.65 0.0 0.0
0.65 -0.08063325769668835 -0.021040964751263172
0.65 -0.16126651539337658 -0.042081929502526316
0.65 -0.24189977309006494 -0.06312289425378949
0.65 -0.32253303078675327 -0.08416385900505266
0.65 -0.40316628848344155 -0.1052048237563158
0.65 -0.4837995461801299 -0.12624578850757898
0.7 0.48122761822682364 0.13572022493253713
0.7 0.4010230151890197 0.11310018744378095
0.7 0.3208184121512158 0.09048014995502476
0.7 0.24061380911341182 0.06786011246626857
0.7 0.1604092060756079 0.04524007497751238
0.7 0.08020460303780393 0.022620037488756184
0.7 0.0 0.0
0.7 -0.08020460303780398 -0.022620037488756198
0.7 -0.16040920607560785 -0.04524007497751237
0.7 -0.24061380911341182 -0.06786011246626857
0.7 -0.3208184121512158 -0.09048014995502476
0.7 -0.40102301518901967 -0.11310018744378093
0.7 -0.48122761822682364 -0.13572022493253713
0.75 0.4784701678661044 0.14514233862723117
0.75 0.39872513988842034 0.12095194885602598
0.75 0.31898011191073633 0.09676155908482079
0.75 0.2392350839330522 0.07257116931361558
0.75 0.15949005595536817 0.04838077954241039
0.75 0.07974502797768405 0.02419038977120519
0.75 0.0 0.0
0.75 -0.07974502797768411 -0.024190389771205204
0.75 -0.1594900559553681 -0.04838077954241038
0.75 -0.2392350839330522 -0.07257116931361558
0.75 -0.31898011191073633 -0.09676155908482079
0.75 -0.3987251398884203 -0.12095194885602596
0.75 -0.4784701678661044 -0.14514233862723117
0.8 0.47552825814757677 0.1545084971874737
0.8 0.39627354845631396 0.12875708098956143
0.8 0.3170188387650512 0.10300566479164915
0.8 0.23776412907378838 0.07725424859373685
0.8 0.1585094193825256 0.05150283239582457
0.8 0.07925470969126278 0.025751416197912276
0.8 0.0 0.0
0.8 -0.07925470969126283 -0.025751416197912293
0.8 -0.15850941938252555 -0.05150283239582455
0.8 -0.23776412907378838 -0.07725424859373685
0.8 -0.3170188387650512 -0.10300566479164915
0.8 -0.39627354845631396 -0.1287570809895614
0.8 -0.47552825814757677 -0.1545084971874737
0.85 0.472403023233439 0.16381508978084675
0.85 0.3936691860278659 0.1365125748173723
0.85 0.31493534882229274 0.10921005985389784
0.85 0.2362015116167195 0.08190754489042337
0.85 0.15746767441114637 0.05460502992694892
0.85 0.07873383720557316 0.027302514963474453
0.85 0.0 0.0
0.85 -0.07873383720557321 -0.02730251496347447
0.85 -0.1574676744111463 -0.054605029926948906
0.85 -0.2362015116167195 -0.08190754489042337
0.85 -0.31493534882229274 -0.10921005985389784
0.85 -0.3936691860278658 -0.13651257481737228
0.85 -0.472403023233439 -0.16381508978084675
0.9 0.4690956679612421 0.17305852853874648
0.9 0.3909130566343684 0.1442154404489554
0.9 0.3127304453074948 0.11537235235916433
0.9 0.23454783398062104 0.08652926426937324
0.9 0.1563652226537474 0.05768617617958217
0.9 0.07818261132687367 0.028843088089791073
0.9 0.0 0.0
0.9 -0.07818261132687372 -0.028843088089791094
0.9 -0.15636522265374733 -0.057686176179582146
0.9 -0.23454783398062104 -0.08652926426937324
0.9 -0.3127304453074948 -0.11537235235916433
0.9 -0.39091305663436837 -0.1442154404489554
0.9 -0.4690956679612421 -0.17305852853874648
0.95 0.4656074673794018 0.18223524993957482
0.95 0.38800622281616814 0.15186270828297901
0.95 0.31040497825293456 0.12149016662638323
0.95 0.2328037336897009 0.09111762496978741
0.95 0.15520248912646728 0.06074508331319162
0.95 0.07760124456323361 0.030372541656595798
0.95 0.0 0.0
0.95 -0.07760124456323367 -0.03037254165659582
0.95 -0.15520248912646722 -0.060745083313191596
0.95 -0.2328037336897009 -0.09111762496978741
0.95 -0.31040497825293456 -0.12149016662638323
0.95 -0.38800622281616814 -0.15186270828297901
0.95 -0.4656074673794018 -0.18223524993957482
1.0 0.46193976625564337 0.1913417161825449
1.0 0.3849498052130362 0.15945143015212074
1.0 0.30795984417042893 0.1275611441216966
1.0 0.23096988312782168 0.09567085809127245
1.0 0.15397992208521447 0.0637805720608483
1.0 0.0769899610426072 0.03189028603042414
1.0 0.0 0.0
1.0 -0.07698996104260726 -0.03189028603042416
1.0 -0.1539799220852144 -0.06378057206084828
1.0 -0.23096988312782168 -0.09567085809127245
1.0 -0.30795984417042893 -0.1275611441216966
1.0 -0.3849498052130361 -0.15945143015212074
1.0 -0.46193976625564337 -0.1913417161825449
1.05 0.458093978558568 0.20037441655157048
1.05 0.38174498213214 0.16697868045964206
1.05 0.305395985705712 0.13358294436771367
1.05 0.229046989279284 0.10018720827578524
1.05 0.152697992852856 0.06679147218385684
1.05 0.07634899642642798 0.033395736091928405
1.05 0.0 0.0
1.05 -0.07634899642642803 -0.033395736091928425
1.05 -0.15269799285285596 -0.06679147218385681
1.05 -0.229046989279284 -0.10018720827578524
1.05 -0.305395985705712 -0.13358294436771367
1.05 -0.38174498213214 -0.16697868045964206
1.05 -0.458093978558568 -0.20037441655157048
1.1 0.4540715869125406 0.20932986876871407
1.1 0.3783929890937839 0.17444155730726174
1.1 0.30271439127502714 0.1395532458458094
1.1 0.2270357934562703 0.10466493438435703
1.1 0.15135719563751357 0.0697766229229047
1.1 0.07567859781875676 0.03488831146145234
1.1 0.0 0.0
1.1 -0.0756785978187568 -0.03488831146145236
1.1 -0.15135719563751351 -0.06977662292290468
1.1 -0.2270357934562703 -0.10466493438435703
1.1 -0.30271439127502714 -0.1395532458458094
1.1 -0.3783929890937838 -0.1744415573072617
1.1 -0.4540715869125406 -0.20932986876871407
1.15 0.44987414202611076 0.218204620336671
1.15 0.3748951183550923 0.1818371836138925
1.15 0.2999160946840739 0.14546974689111403
1.15 0.22493707101305538 0.1091023101683355
1.15 0.14995804734203694 0.07273487344555701
1.15 0.07497902367101844 0.03636743672277849
1.15 0.0 0.0
1.15 -0.0749790236710185 -0.03636743672277852
1.15 -0.14995804734203688 -0.07273487344555699
1.15 -0.22493707101305538 -0.1091023101683355
1.15 -0.2999160946840739 -0.14546974689111403
1.15 -0.37489511835509226 -0.1818371836138925
1.15 -0.44987414202611076 -0.218204620336671
1.2 0.44550326209418395 0.22699524986977337
1.2 0.37125271841181995 0.18916270822481115
1.2 0.297002174729456 0.15133016657984893
1.2 0.22275163104709197 0.11349762493488669
1.2 0.148501087364728 0.07566508328992447
1.2 0.07425054368236397 0.03783254164496222
1.2 0.0 0.0
1.2 -0.07425054368236403 -0.03783254164496225
1.2 -0.14850108736472795 -0.07566508328992444
1.2 -0.22275163104709197 -0.11349762493488669
1.2 -0.297002174729456 -0.15133016657984893
1.2 -0.37125271841181995 -0.18916270822481113
1.2 -0.44550326209418395 -0.22699524986977337
1.25 0.4409606321741775 0.23569836841299882
1.25 0.3674671934784813 0.19641530701083235
1.25 0.29397375478278504 0.1571322456086659
1.25 0.22048031608708876 0.11784918420649941
1.25 0.14698687739139252 0.07856612280433295
1.25 0.07349343869569623 0.03928306140216646
1.25 0.0 0.0
1.25 -0.07349343869569629 -0.03928306140216649
1.25 -0.14698687739139246 -0.07856612280433292
1.25 -0.22048031608708876 -0.11784918420649941
1.25 -0.29397375478278504 -0.1571322456086659
1.25 -0.3674671934784812 -0.19641530701083235
1.25 -0.4409606321741775 -0.23569836841299882
1.3 0.4362480035363986 0.24431062074847745
1.3 0.36354000294699884 0.20359218395706455
1.3 0.2908320023575991 0.16287374716565164
1.3 0.2181240017681993 0.12215531037423873
1.3 0.14541600117879955 0.08143687358282582
1.3 0.07270800058939975 0.0407184367914129
1.3 0.0 0.0
1.3 -0.0727080005893998 -0.040718436791412925
1.3 -0.1454160011787995 -0.0814368735828258
1.3 -0.2181240017681993 -0.12215531037423873
1.3 -0.2908320023575991 -0.16287374716565164
1.3 -0.3635400029469988 -0.20359218395706452
1.3 -0.4362480035363986 -0.24431062074847745
1.35 0.4313671929888959 0.2528286866889923
1.35 0.35947266082407997 0.2106905722408269
1.35 0.28757812865926397 0.16855245779266154
1.35 0.21568359649444796 0.12641434334449614
1.35 0.14378906432963198 0.08427622889633077
1.35 0.07189453216481598 0.04213811444816537
1.35 0.0 0.0
1.35 -0.07189453216481602 -0.0421381144481654
1.35 -0.14378906432963195 -0.08427622889633074
1.35 -0.21568359649444796 -0.12641434334449614
1.35 -0.28757812865926397 -0.16855245779266154
1.35 -0.3594726608240799 -0.21069057224082688
1.35 -0.4313671929888959 -0.2528286866889923
1.4 0.42632008217704614 0.2612492823579744
1.4 0.3552667351475385 0.217707735298312
1.4 0.2842133881180308 0.17416618823864963
1.4 0.21316004108852307 0.1306246411789872
1.4 0.1421066940590154 0.08708309411932481
1.4 0.07105334702950768 0.04354154705966239
1.4 0.0 0.0
1.4 -0.07105334702950772 -0.04354154705966242
1.4 -0.14210669405901535 -0.08708309411932479
1.4 -0.21316004108852307 -0.1306246411789872
1.4 -0.2842133881180308 -0.17416618823864963
1.4 -0.3552667351475384 -0.21770773529831197
1.4 -0.42632008217704614 -0.2612492823579744
1.45 0.42110861685814327 0.2695691614555001
1.45 0.35092384738178606 0.2246409678795834
1.45 0.2807390779054289 0.17971277430366675
1.45 0.21055430842907163 0.13478458072775004
1.45 0.14036953895271445 0.08985638715183338
1.45 0.0701847694763572 0.044928193575916674
1.45 0.0 0.0
1.45 -0.07018476947635724 -0.0449281935759167
1.45 -0.1403695389527144 -0.08985638715183335
1.45 -0.21055430842907163 -0.13478458072775004
1.45 -0.2807390779054289 -0.17971277430366675
1.45 -0.350923847381786 -0.22464096787958338
1.45 -0.42110861685814327 -0.2695691614555001
1.5 0.4157348061512726 0.2777851165098011
1.5 0.3464456717927272 0.2314875970915009
1.5 0.2771565374341818 0.18519007767320075
1.5 0.2078674030756363 0.13889255825490054
1.5 0.1385782687170909 0.09259503883660038
1.5 0.06928913435854542 0.046297519418300175
1.5 0.0 0.0
1.5 -0.06928913435854547 -0.0462975194183002
1.5 -0.13857826871709084 -0.09259503883660035
1.5 -0.2078674030756363 -0.13889255825490054
1.5 -0.2771565374341818 -0.18519007767320075
1.5 -0.3464456717927272 -0.23148759709150088
1.5 -0.4157348061512726 -0.2777851165098011
1.55 0.4102007217627568 0.2858939801138061
1.55 0.34183393480229735 0.23824498342817177
1.55 0.2734671478418379 0.19059598674253744
1.55 0.2051003608813784 0.14294699005690306
1.55 0.13673357392091895 0.09529799337126872
1.55 0.06836678696045945 0.04764899668563434
1.55 0.0 0.0
1.55 -0.0683667869604595 -0.047648996685634375
1.55 -0.1367335739209189 -0.09529799337126868
1.55 -0.2051003608813784 -0.14294699005690306
1.55 -0.2734671478418379 -0.19059598674253744
1.55 -0.3418339348022973 -0.23824498342817174
1.55 -0.4102007217627568 -0.2858939801138061
1.6 0.4045084971874737 0.29389262614623657
1.6 0.33709041432289477 0.24491052178853048
1.6 0.2696723314583159 0.1959284174308244
1.6 0.20225424859373686 0.14694631307311828
1.6 0.13483616572915794 0.0979642087154122
1.6 0.06741808286457894 0.048982104357706086
1.6 0.0 0.0
1.6 -0.06741808286457898 -0.04898210435770611
1.6 -0.13483616572915788 -0.09796420871541217
1.6 -0.20225424859373686 -0.14694631307311828
1.6 -0.2696723314583159 -0.1959284174308244
1.6 -0.3370904143228947 -0.24491052178853046
1.6 -0.4045084971874737 -0.29389262614623657
1.65 0.39866032688635356 0.3017779709767857
1.65 0.3322169390719613 0.2514816424806548
1.65 0.2657735512575691 0.20118531398452383
1.65 0.19933016344317678 0.15088898548839286
1.65 0.13288677562878454 0.10059265699226191
1.65 0.06644338781439224 0.05029632849613094
1.65 0.0 0.0
1.65 -0.06644338781439228 -0.05029632849613098
1.65 -0.13288677562878448 -0.10059265699226189
1.65 -0.19933016344317678 -0.15088898548839286
1.65 -0.2657735512575691 -0.20118531398452383
1.65 -0.33221693907196126 -0.25148164248065474
1.65 -0.39866032688635356 -0.3017779709767857
1.7 0.3926584654403725 0.309546974654917
1.7 0.32721538786697707 0.25795581221243086
1.7 0.26177231029358167 0.20636464976994467
1.7 0.19632923272018624 0.1547734873274585
1.7 0.13088615514679083 0.10318232488497234
1.7 0.0654430775733954 0.051591162442486155
1.7 0.0 0.0
1.7 -0.06544307757339544 -0.05159116244248619
1.7 -0.1308861551467908 -0.10318232488497231
1.7 -0.19632923272018624 -0.1547734873274585
1.7 -0.26177231029358167 -0.20636464976994467
1.7 -0.327215387866977 -0.2579558122124308
1.7 -0.3926584654403725 -0.309546974654917
1.75 0.3865052266813685 0.31719664208182274
1.75 0.3220876889011404 0.26433053506818566
1.75 0.25767015112091235 0.21146442805454851
1.75 0.19325261334068425 0.15859832104091137
1.75 0.12883507556045617 0.10573221402727426
1.75 0.06441753778022807 0.052866107013637115
1.75 0.0 0.0
1.75 -0.06441753778022812 -0.05286610701363715
1.75 -0.12883507556045615 -0.10573221402727423
1.75 -0.19325261334068425 -0.15859832104091137
1.75 -0.25767015112091235 -0.21146442805454851
1.75 -0.32208768890114037 -0.2643305350681856
1.75 -0.3865052266813685 -0.31719664208182274
1.8 0.38020298280001547 0.32472402416509183
1.8 0.3168358190000129 0.27060335347090986
1.8 0.25346865520001033 0.2164826827767279
1.8 0.19010149140000773 0.16236201208254591
1.8 0.12673432760000516 0.10824134138836396
1.8 0.06336716380000257 0.05412067069418196
1.8 0.0 0.0
1.8 -0.06336716380000261 -0.05412067069418199
1.8 -0.12673432760000514 -0.10824134138836392
1.8 -0.19010149140000773 -0.16236201208254591
1.8 -0.25346865520001033 -0.2164826827767279
1.8 -0.31683581900001284 -0.27060335347090986
1.8 -0.38020298280001547 -0.32472402416509183
1.85 0.3737541634312984 0.3321262189556408
1.85 0.3114618028594154 0.2767718491297007
1.85 0.2491694422875323 0.22141747930376057
1.85 0.1868770817156492 0.1660631094778204
1.85 0.12458472114376615 0.11070873965188029
1.85 0.06229236057188305 0.05535436982594012
1.85 0.0 0.0
1.85 -0.062292360571883094 -0.055354369825940164
1.85 -0.1245847211437661 -0.11070873965188024
1.85 -0.1868770817156492 -0.1660631094778204
1.85 -0.2491694422875323 -0.22141747930376057
1.85 -0.3114618028594153 -0.27677184912970065
1.85 -0.3737541634312984 -0.3321262189556408
1.9 0.3671612547178428 0.33940037276647084
1.9 0.305967712264869 0.28283364397205907
1.9 0.2447741698118952 0.22626691517764724
1.9 0.1835806273589214 0.16970018638323542
1.9 0.1223870849059476 0.11313345758882362
1.9 0.06119354245297378 0.0565667287944118
1.9 0.0 0.0
1.9 -0.06119354245297382 -0.05656672879441183
1.9 -0.12238708490594756 -0.1131334575888236
1.9 -0.1835806273589214 -0.16970018638323542
1.9 -0.2447741698118952 -0.22626691517764724
1.9 -0.30596771226486896 -0.282833643972059
1.9 -0.3671612547178428 -0.33940037276647084
1.95 0.3604267983514594 0.3465436812728179
1.95 0.3003556652928829 0.2887864010606816
1.95 0.2402845322343063 0.23102912084854532
1.95 0.1802133991757297 0.17327184063640896
1.95 0.12014226611715315 0.11551456042427266
1.95 0.06007113305857655 0.05775728021213631
1.95 0.0 0.0
1.95 -0.060071133058576594 -0.057757280212136344
1.95 -0.1201422661171531 -0.11551456042427262
1.95 -0.1802133991757297 -0.17327184063640896
1.95 -0.2402845322343063 -0.23102912084854532
1.95 -0.3003556652928828 -0.2887864010606816
1.95 -0.3604267983514594 -0.3465436812728179
2.0 0.3535533905932738 0.3535533905932738
2.0 0.2946278254943948 0.2946278254943948
2.0 0.2357022603955159 0.2357022603955159
2.0 0.1767766952966369 0.1767766952966369
2.0 0.11785113019775795 0.11785113019775795
2.0 0.05892556509887895 0.05892556509887895
2.0 0.0 0.0
2.0 -0.05892556509887899 -0.05892556509887899
2.0 -0.1178511301977579 -0.1178511301977579
2.0 -0.1767766952966369 -0.1767766952966369
2.0 -0.2357022603955159 -0.2357022603955159
2.0 -0.2946278254943948 -0.2946278254943948
2.0 -0.3535533905932738 -0.3535533905932738
2.05 0.346543681272818 0.36042679835145935
2.05 0.28878640106068165 0.3003556652928828
2.05 0.23102912084854535 0.24028453223430626
2.05 0.173271840636409 0.18021339917572968
2.05 0.11551456042427267 0.12014226611715313
2.05 0.05775728021213632 0.060071133058576545
2.05 0.0 0.0
2.05 -0.05775728021213636 -0.06007113305857659
2.05 -0.11551456042427263 -0.12014226611715309
2.05 -0.173271840636409 -0.18021339917572968
2.05 -0.23102912084854535 -0.24028453223430626
2.05 -0.28878640106068165 -0.30035566529288277
2.05 -0.346543681272818 -0.36042679835145935
2.1 0.3394003727664709 0.3671612547178428
2.1 0.28283364397205907 0.305967712264869
2.1 0.2262669151776473 0.2447741698118952
2.1 0.16970018638323545 0.1835806273589214
2.1 0.11313345758882365 0.1223870849059476
2.1 0.056566728794411804 0.06119354245297378
2.1 0.0 0.0
2.1 -0.05656672879441184 -0.06119354245297382
2.1 -0.11313345758882361 -0.12238708490594756
2.1 -0.16970018638323545 -0.1835806273589214
2.1 -0.2262669151776473 -0.2447741698118952
2.1 -0.28283364397205907 -0.30596771226486896
2.1 -0.3394003727664709 -0.3671612547178428
2.15 0.3321262189556409 0.37375416343129836
2.15 0.27677184912970076 0.3114618028594153
2.15 0.2214174793037606 0.24916944228753227
2.15 0.16606310947782044 0.18687708171564918
2.15 0.1107087396518803 0.12458472114376613
2.15 0.055354369825940136 0.062292360571883046
2.15 0.0 0.0
2.15 -0.05535436982594017 -0.06229236057188309
2.15 -0.11070873965188027 -0.12458472114376609
2.15 -0.16606310947782044 -0.18687708171564918
2.15 -0.2214174793037606 -0.24916944228753227
2.15 -0.2767718491297007 -0.31146180285941527
2.15 -0.3321262189556409 -0.37375416343129836
2.2 0.3247240241650918 0.3802029828000155
2.2 0.2706033534709098 0.31683581900001295
2.2 0.21648268277672789 0.2534686552000104
2.2 0.1623620120825459 0.19010149140000776
2.2 0.10824134138836394 0.1267343276000052
2.2 0.05412067069418195 0.06336716380000257
2.2 0.0 0.0
2.2 -0.054120670694181985 -0.06336716380000261
2.2 -0.1082413413883639 -0.12673432760000514
2.2 -0.1623620120825459 -0.19010149140000776
2.2 -0.21648268277672789 -0.2534686552000104
2.2 -0.2706033534709098 -0.3168358190000129
2.2 -0.3247240241650918 -0.3802029828000155
2.25 0.31719664208182274 0.38650522668136844
2.25 0.26433053506818566 0.32208768890114037
2.25 0.21146442805454851 0.25767015112091235
2.25 0.15859832104091137 0.19325261334068422
2.25 0.10573221402727426 0.12883507556045617
2.25 0.052866107013637115 0.06441753778022806
2.25 0.0 0.0
2.25 -0.05286610701363715 -0.0644175377802281
2.25 -0.10573221402727423 -0.12883507556045612
2.25 -0.15859832104091137 -0.19325261334068422
2.25 -0.21146442805454851 -0.25767015112091235
2.25 -0.2643305350681856 -0.3220876889011403
2.25 -0.31719664208182274 -0.38650522668136844
2.3 0.30954697465491704 0.3926584654403724
2.3 0.25795581221243086 0.327215387866977
2.3 0.2063646497699447 0.26177231029358167
2.3 0.15477348732745852 0.1963292327201862
2.3 0.10318232488497235 0.13088615514679083
2.3 0.05159116244248616 0.06544307757339539
2.3 0.0 0.0
2.3 -0.051591162442486196 -0.06544307757339543
2.3 -0.10318232488497232 -0.13088615514679078
2.3 -0.15477348732745852 -0.1963292327201862
2.3 -0.2063646497699447 -0.26177231029358167
2.3 -0.25795581221243086 -0.32721538786697696
2.3 -0.30954697465491704 -0.3926584654403724
2.35 0.3017779709767857 0.39866032688635356
2.35 0.2514816424806548 0.3322169390719613
2.35 0.20118531398452383 0.2657735512575691
2.35 0.15088898548839286 0.19933016344317678
2.35 0.10059265699226191 0.13288677562878454
2.35 0.05029632849613094 0.06644338781439224
2.35 0.0 0.0
2.35 -0.05029632849613098 -0.06644338781439228
2.35 -0.10059265699226189 -0.13288677562878448
2.35 -0.15088898548839286 -0.19933016344317678
2.35 -0.20118531398452383 -0.2657735512575691
2.35 -0.25148164248065474 -0.33221693907196126
2.35 -0.3017779709767857 -0.39866032688635356
2.4 0.29389262614623657 0.4045084971874737
2.4 0.24491052178853048 0.33709041432289477
2.4 0.1959284174308244 0.2696723314583159
2.4 0.14694631307311828 0.20225424859373686
2.4 0.0979642087154122 0.13483616572915794
2.4 0.048982104357706086 0.06741808286457894
2.4 0.0 0.0
2.4 -0.04898210435770611 -0.06741808286457898
2.4 -0.09796420871541217 -0.13483616572915788
2.4 -0.14694631307311828 -0.20225424859373686
2.4 -0.1959284174308244 -0.2696723314583159
2.4 -0.24491052178853046 -0.3370904143228947
2.4 -0.29389262614623657 -0.4045084971874737
2.45 0.2858939801138061 0.41020072176275685
2.45 0.23824498342817177 0.3418339348022974
2.45 0.19059598674253744 0.27346714784183795
2.45 0.14294699005690306 0.20510036088137842
2.45 0.09529799337126872 0.13673357392091898
2.45 0.04764899668563434 0.06836678696045946
2.45 0.0 0.0
2.45 -0.047648996685634375 -0.0683667869604595
2.45 -0.09529799337126868 -0.13673357392091892
2.45 -0.14294699005690306 -0.20510036088137842
2.45 -0.19059598674253744 -0.27346714784183795
2.45 -0.23824498342817174 -0.34183393480229735
2.45 -0.2858939801138061 -0.41020072176275685
2.5 0.27778511650980114 0.4157348061512726
2.5 0.23148759709150096 0.3464456717927272
2.5 0.18519007767320078 0.2771565374341818
2.5 0.13889255825490057 0.2078674030756363
2.5 0.09259503883660039 0.1385782687170909
2.5 0.04629751941830018 0.06928913435854542
2.5 0.0 0.0
2.5 -0.04629751941830021 -0.06928913435854547
2.5 -0.09259503883660036 -0.13857826871709084
2.5 -0.13889255825490057 -0.2078674030756363
2.5 -0.18519007767320078 -0.2771565374341818
2.5 -0.23148759709150094 -0.3464456717927272
2.5 -0.27778511650980114 -0.4157348061512726
2.55 0.2695691614555002 0.4211086168581432
2.55 0.22464096787958351 0.350923847381786
2.55 0.1797127743036668 0.28073907790542885
2.55 0.1347845807277501 0.2105543084290716
2.55 0.0898563871518334 0.14036953895271442
2.55 0.04492819357591669 0.07018476947635718
2.55 0.0 0.0
2.55 -0.04492819357591672 -0.07018476947635724
2.55 -0.08985638715183338 -0.14036953895271437
2.55 -0.1347845807277501 -0.2105543084290716
2.55 -0.1797127743036668 -0.28073907790542885
2.55 -0.2246409678795835 -0.350923847381786
2.55 -0.2695691614555002 -0.4211086168581432
2.6 0.26124928235797445 0.4263200821770461
2.6 0.21770773529831206 0.3552667351475384
2.6 0.17416618823864966 0.28421338811803076
2.6 0.13062464117898723 0.21316004108852304
2.6 0.08708309411932483 0.14210669405901538
2.6 0.0435415470596624 0.07105334702950766
2.6 0.0 0.0
2.6 -0.04354154705966243 -0.07105334702950772
2.6 -0.0870830941193248 -0.14210669405901533
2.6 -0.13062464117898723 -0.21316004108852304
2.6 -0.17416618823864966 -0.28421338811803076
2.6 -0.21770773529831203 -0.35526673514753837
2.6 -0.26124928235797445 -0.4263200821770461
2.65 0.2528286866889924 0.43136719298889586
2.65 0.210690572240827 0.3594726608240799
2.65 0.16855245779266162 0.28757812865926397
2.65 0.1264143433444962 0.21568359649444793
2.65 0.08427622889633081 0.14378906432963198
2.65 0.04213811444816539 0.07189453216481596
2.65 0.0 0.0
2.65 -0.04213811444816542 -0.071894532164816
2.65 -0.08427622889633078 -0.14378906432963193
2.65 -0.1264143433444962 -0.21568359649444793
2.65 -0.16855245779266162 -0.28757812865926397
2.65 -0.21069057224082696 -0.35947266082407986
2.65 -0.2528286866889924 -0.43136719298889586
2.7 0.24431062074847748 0.43624800353639853
2.7 0.20359218395706458 0.3635400029469988
2.7 0.16287374716565167 0.29083200235759904
2.7 0.12215531037423874 0.21812400176819927
2.7 0.08143687358282584 0.14541600117879952
2.7 0.040718436791412904 0.07270800058939975
2.7 0.0 0.0
2.7 -0.04071843679141293 -0.07270800058939979
2.7 -0.08143687358282581 -0.1454160011787995
2.7 -0.12215531037423874 -0.21812400176819927
2.7 -0.16287374716565167 -0.29083200235759904
2.7 -0.20359218395706455 -0.36354000294699873
2.7 -0.24431062074847748 -0.43624800353639853
2.75 0.2356983684129989 0.44096063217417747
2.75 0.19641530701083243 0.3674671934784812
2.75 0.15713224560866595 0.29397375478278504
2.75 0.11784918420649945 0.22048031608708873
2.75 0.07856612280433298 0.14698687739139252
2.75 0.039283061402166475 0.07349343869569623
2.75 0.0 0.0
2.75 -0.0392830614021665 -0.07349343869569627
2.75 -0.07856612280433295 -0.14698687739139246
2.75 -0.11784918420649945 -0.22048031608708873
2.75 -0.15713224560866595 -0.29397375478278504
2.75 -0.1964153070108324 -0.36746719347848117
2.75 -0.2356983684129989 -0.44096063217417747
2.8 0.2269952498697734 0.4455032620941839
2.8 0.18916270822481118 0.37125271841181995
2.8 0.15133016657984896 0.29700217472945595
2.8 0.1134976249348867 0.22275163104709195
2.8 0.07566508328992448 0.14850108736472797
2.8 0.03783254164496223 0.07425054368236396
2.8 0.0 0.0
2.8 -0.03783254164496225 -0.07425054368236401
2.8 -0.07566508328992445 -0.14850108736472792
2.8 -0.1134976249348867 -0.22275163104709195
2.8 -0.15133016657984896 -0.29700217472945595
2.8 -0.18916270822481115 -0.3712527184118199
2.8 -0.2269952498697734 -0.4455032620941839
2.85 0.218204620336671 0.44987414202611076
2.85 0.1818371836138925 0.3748951183550923
2.85 0.14546974689111403 0.2999160946840739
2.85 0.1091023101683355 0.22493707101305538
2.85 0.07273487344555701 0.14995804734203694
2.85 0.03636743672277849 0.07497902367101844
2.85 0.0 0.0
2.85 -0.03636743672277852 -0.0749790236710185
2.85 -0.07273487344555699 -0.14995804734203688
2.85 -0.1091023101683355 -0.22493707101305538
2.85 -0.14546974689111403 -0.2999160946840739
2.85 -0.1818371836138925 -0.37489511835509226
2.85 -0.218204620336671 -0.44987414202611076
2.9 0.20932986876871407 0.4540715869125406
2.9 0.17444155730726174 0.3783929890937839
2.9 0.1395532458458094 0.30271439127502714
2.9 0.10466493438435703 0.2270357934562703
2.9 0.0697766229229047 0.15135719563751357
2.9 0.03488831146145234 0.07567859781875676
2.9 0.0 0.0
2.9 -0.03488831146145236 -0.0756785978187568
2.9 -0.06977662292290468 -0.15135719563751351
2.9 -0.10466493438435703 -0.2270357934562703
2.9 -0.1395532458458094 -0.30271439127502714
2.9 -0.1744415573072617 -0.3783929890937838
2.9 -0.20932986876871407 -0.4540715869125406
2.95 0.20037441655157046 0.458093978558568
2.95 0.16697868045964206 0.38174498213214
2.95 0.13358294436771365 0.305395985705712
2.95 0.10018720827578523 0.229046989279284
2.95 0.06679147218385682 0.152697992852856
2.95 0.033395736091928405 0.07634899642642798
2.95 0.0 0.0
2.95 -0.033395736091928425 -0.07634899642642803
2.95 -0.06679147218385681 -0.15269799285285596
2.95 -0.10018720827578523 -0.229046989279284
2.95 -0.13358294436771365 -0.305395985705712
2.95 -0.16697868045964204 -0.38174498213214
2.95 -0.20037441655157046 -0.458093978558568
3.0 0.19134171618254492 0.46193976625564337
3.0 0.15945143015212077 0.3849498052130362
3.0 0.12756114412169664 0.30795984417042893
3.0 0.09567085809127246 0.23096988312782168
3.0 0.06378057206084832 0.15397992208521447
3.0 0.031890286030424146 0.0769899610426072
3.0 0.0 0.0
3.0 -0.03189028603042417 -0.07698996104260726
3.0 -0.06378057206084829 -0.1539799220852144
3.0 -0.09567085809127246 -0.23096988312782168
3.0 -0.12756114412169664 -0.30795984417042893
3.0 -0.15945143015212074 -0.3849498052130361
3.0 -0.19134171618254492 -0.46193976625564337
3.05 0.1822352499395749 0.46560746737940173
3.05 0.1518627082829791 0.38800622281616814
3.05 0.12149016662638329 0.3104049782529345
3.05 0.09111762496978745 0.23280373368970086
3.05 0.060745083313191645 0.15520248912646725
3.05 0.030372541656595812 0.0776012445632336
3.05 0.0 0.0
3.05 -0.030372541656595833 -0.07760124456323365
3.05 -0.060745083313191624 -0.1552024891264672
3.05 -0.09111762496978745 -0.23280373368970086
3.05 -0.12149016662638329 -0.3104049782529345
3.05 -0.15186270828297907 -0.3880062228161681
3.05 -0.1822352499395749 -0.46560746737940173
3.1 0.1730585285387465 0.4690956679612421
3.1 0.14421544044895543 0.3909130566343684
3.1 0.11537235235916435 0.3127304453074948
3.1 0.08652926426937325 0.23454783398062104
3.1 0.057686176179582174 0.1563652226537474
3.1 0.028843088089791077 0.07818261132687367
3.1 0.0 0.0
3.1 -0.028843088089791098 -0.07818261132687372
3.1 -0.05768617617958215 -0.15636522265374733
3.1 -0.08652926426937325 -0.23454783398062104
3.1 -0.11537235235916435 -0.3127304453074948
3.1 -0.1442154404489554 -0.39091305663436837
3.1 -0.1730585285387465 -0.4690956679612421
3.15 0.16381508978084683 0.47240302323343897
3.15 0.13651257481737236 0.3936691860278658
3.15 0.1092100598538979 0.3149353488222927
3.15 0.08190754489042341 0.23620151161671948
3.15 0.05460502992694895 0.15746767441114634
3.15 0.027302514963474467 0.07873383720557314
3.15 0.0 0.0
3.15 -0.027302514963474484 -0.0787338372055732
3.15 -0.054605029926948934 -0.15746767441114629
3.15 -0.08190754489042341 -0.23620151161671948
3.15 -0.1092100598538979 -0.3149353488222927
3.15 -0.13651257481737233 -0.39366918602786577
3.15 -0.16381508978084683 -0.47240302323343897
3.2 0.15450849718747373 0.47552825814757677
3.2 0.12875708098956146 0.39627354845631396
3.2 0.10300566479164916 0.3170188387650512
3.2 0.07725424859373686 0.23776412907378838
3.2 0.05150283239582458 0.1585094193825256
3.2 0.025751416197912283 0.07925470969126278
3.2 0.0 0.0
3.2 -0.0257514161979123 -0.07925470969126283
3.2 -0.051502832395824566 -0.15850941938252555
3.2 -0.07725424859373686 -0.23776412907378838
3.2 -0.10300566479164916 -0.3170188387650512
3.2 -0.12875708098956143 -0.39627354845631396
3.2 -0.15450849718747373 -0.47552825814757677
3.25 0.14514233862723117 0.47847016786610447
3.25 0.12095194885602598 0.3987251398884204
3.25 0.09676155908482079 0.31898011191073633
3.25 0.07257116931361558 0.23923508393305223
3.25 0.04838077954241039 0.15949005595536817
3.25 0.02419038977120519 0.07974502797768405
3.25 0.0 0.0
3.25 -0.024190389771205204 -0.07974502797768411
3.25 -0.04838077954241038 -0.1594900559553681
3.25 -0.07257116931361558 -0.23923508393305223
3.25 -0.09676155908482079 -0.31898011191073633
3.25 -0.12095194885602596 -0.39872513988842034
3.25 -0.14514233862723117 -0.47847016786610447
3.3 0.13572022493253716 0.48122761822682364
3.3 0.11310018744378098 0.4010230151890197
3.3 0.09048014995502478 0.3208184121512158
3.3 0.06786011246626858 0.24061380911341182
3.3 0.04524007497751239 0.1604092060756079
3.3 0.022620037488756187 0.08020460303780393
3.3 0.0 0.0
3.3 -0.022620037488756205 -0.08020460303780398
3.3 -0.045240074977512375 -0.16040920607560785
3.3 -0.06786011246626858 -0.24061380911341182
3.3 -0.09048014995502478 -0.3208184121512158
3.3 -0.11310018744378096 -0.40102301518901967
3.3 -0.13572022493253716 -0.48122761822682364
3.35 0.12624578850757895 0.4837995461801299
3.35 0.10520482375631579 0.4031662884834416
3.35 0.08416385900505265 0.32253303078675327
3.35 0.06312289425378947 0.24189977309006494
3.35 0.04208192950252632 0.16126651539337664
3.35 0.021040964751263155 0.08063325769668829
3.35 0.0 0.0
3.35 -0.02104096475126317 -0.08063325769668835
3.35 -0.04208192950252631 -0.16126651539337658
3.35 -0.06312289425378947 -0.24189977309006494
3.35 -0.08416385900505265 -0.32253303078675327
3.35 -0.10520482375631578 -0.40316628848344155
3.35 -0.12624578850757895 -0.4837995461801299
3.4 0.11672268192795274 0.4861849601988383
3.4 0.09726890160662728 0.4051541334990319
3.4 0.07781512128530184 0.3241233067992256
3.4 0.05836134096397637 0.24309248009941914
3.4 0.03890756064265092 0.1620616533996128
3.4 0.019453780321325453 0.08103082669980637
3.4 0.0 0.0
3.4 -0.019453780321325463 -0.08103082669980642
3.4 -0.038907560642650905 -0.16206165339961273
3.4 -0.05836134096397637 -0.24309248009941914
3.4 -0.07781512128530184 -0.3241233067992256
3.4 -0.09726890160662727 -0.40515413349903184
3.4 -0.11672268192795274 -0.4861849601988383
3.45 0.10715457653252534 0.48838294066043625
3.45 0.08929548044377113 0.4069857838836969
3.45 0.07143638435501691 0.3255886271069575
3.45 0.05357728826626267 0.24419147033021812
3.45 0.035718192177508455 0.16279431355347876
3.45 0.01785909608875422 0.08139715677673935
3.45 0.0 0.0
3.45 -0.01785909608875423 -0.08139715677673941
3.45 -0.03571819217750844 -0.1627943135534787
3.45 -0.05357728826626267 -0.24419147033021812
3.45 -0.07143638435501691 -0.3255886271069575
3.45 -0.08929548044377111 -0.40698578388369683
3.45 -0.10715457653252534 -0.48838294066043625
3.5 0.09754516100806417 0.4903926402016152
3.5 0.0812876341733868 0.408660533501346
3.5 0.06503010733870945 0.32692842680107687
3.5 0.04877258050403208 0.2451963201008076
3.5 0.032515053669354727 0.16346421340053843
3.5 0.016257526834677356 0.08173210670026919
3.5 0.0 0.0
3.5 -0.016257526834677367 -0.08173210670026924
3.5 -0.03251505366935471 -0.16346421340053838
3.5 -0.04877258050403208 -0.2451963201008076
3.5 -0.06503010733870945 -0.32692842680107687
3.5 -0.0812876341733868 -0.40866053350134596
3.5 -0.09754516100806417 -0.4903926402016152
3.55 0.08789813996717734 0.4922132840449458
3.55 0.07324844997264779 0.4101777367041215
3.55 0.05859875997811823 0.32814218936329725
3.55 0.04394906998358867 0.2461066420224729
3.55 0.029299379989059116 0.16407109468164863
3.55 0.014649689994529553 0.08203554734082429
3.55 0.0 0.0
3.55 -0.014649689994529563 -0.08203554734082434
3.55 -0.029299379989059106 -0.16407109468164857
3.55 -0.04394906998358867 -0.2461066420224729
3.55 -0.05859875997811823 -0.32814218936329725
3.55 -0.07324844997264778 -0.41017773670412144
3.55 -0.08789813996717734 -0.4922132840449458
3.6 0.07821723252011546 0.4938441702975689
3.6 0.06518102710009623 0.4115368085813074
3.6 0.05214482168007698 0.32922944686504596
3.6 0.03910861626005773 0.24692208514878444
3.6 0.02607241084003849 0.16461472343252298
3.6 0.01303620542001924 0.08230736171626146
3.6 0.0 0.0
3.6 -0.013036205420019249 -0.08230736171626152
3.6 -0.02607241084003848 -0.16461472343252292
3.6 -0.03910861626005773 -0.24692208514878444
3.6 -0.05214482168007698 -0.32922944686504596
3.6 -0.06518102710009621 -0.41153680858130737
3.6 -0.07821723252011546 -0.4938441702975689
3.65 0.0685061708409841 0.4952846702217886
3.65 0.05708847570082009 0.41273722518482386
3.65 0.04567078056065608 0.3301897801478591
3.65 0.03425308542049205 0.2476423351108943
3.65 0.02283539028032804 0.16509489007392955
3.65 0.011417695140164016 0.08254744503696475
3.65 0.0 0.0
3.65 -0.011417695140164023 -0.0825474450369648
3.65 -0.022835390280328032 -0.1650948900739295
3.65 -0.03425308542049205 -0.2476423351108943
3.65 -0.04567078056065608 -0.3301897801478591
3.65 -0.05708847570082008 -0.4127372251848238
3.65 -0.0685061708409841 -0.4952846702217886
3.7 0.05876869872891885 0.49653422847746315
3.7 0.048973915607432375 0.4137785237312193
3.7 0.03917913248594591 0.3310228189849755
3.7 0.029384349364459425 0.24826711423873157
3.7 0.019589566242972953 0.16551140949248774
3.7 0.009794783121486473 0.08275570474624384
3.7 0.0 0.0
3.7 -0.00979478312148648 -0.0827557047462439
3.7 -0.019589566242972947 -0.1655114094924877
3.7 -0.029384349364459425 -0.24826711423873157
3.7 -0.03917913248594591 -0.3310228189849755
3.7 -0.04897391560743237 -0.41377852373121926
3.7 -0.05876869872891885 -0.49653422847746315
3.75 0.049008570164780385 0.4975923633360984
3.75 0.04084047513731699 0.41466030278008204
3.75 0.03267238010985359 0.33172824222406566
3.75 0.024504285082390193 0.2487961816680492
3.75 0.016336190054926796 0.16586412111203283
3.75 0.008168095027463396 0.08293206055601639
3.75 0.0 0.0
3.75 -0.008168095027463402 -0.08293206055601644
3.75 -0.016336190054926793 -0.16586412111203278
3.75 -0.024504285082390193 -0.2487961816680492
3.75 -0.03267238010985359 -0.33172824222406566
3.75 -0.040840475137316985 -0.414660302780082
3.75 -0.049008570164780385 -0.4975923633360984
3.8 0.0392295478639225 0.498458666866564
3.8 0.03269128988660208 0.41538222238880335
3.8 0.02615303190928167 0.3323057779110427
3.8 0.01961477393196125 0.249229333433282
3.8 0.013076515954640835 0.16615288895552136
3.8 0.006538257977320415 0.08307644447776065
3.8 0.0 0.0
3.8 -0.0065382579773204195 -0.0830764444777607
3.8 -0.01307651595464083 -0.1661528889555213
3.8 -0.01961477393196125 -0.249229333433282
3.8 -0.02615303190928167 -0.3323057779110427
3.8 -0.03269128988660208 -0.4153822223888033
3.8 -0.0392295478639225 -0.498458666866564
3.85 0.029435401825594492 0.49913280509235797
3.85 0.024529501521328743 0.41594400424363165
3.85 0.019623601217062997 0.33275520339490533
3.85 0.014717700912797246 0.24956640254617898
3.85 0.009811800608531498 0.16637760169745267
3.85 0.0049059003042657475 0.0831888008487263
3.85 0.0 0.0
3.85 -0.004905900304265751 -0.08318880084872636
3.85 -0.009811800608531495 -0.1663776016974526
3.85 -0.014717700912797246 -0.24956640254617898
3.85 -0.019623601217062997 -0.33275520339490533
3.85 -0.024529501521328743 -0.4159440042436316
3.85 -0.029435401825594492 -0.49913280509235797
3.9 0.019629907879534333 0.49961451812036145
3.9 0.016358256566278612 0.41634543176696787
3.9 0.01308660525302289 0.33307634541357434
3.9 0.009814953939767166 0.24980725906018073
3.9 0.006543302626511445 0.16653817270678717
3.9 0.0032716513132557213 0.08326908635339356
3.9 0.0 0.0
3.9 -0.0032716513132557234 -0.08326908635339361
3.9 -0.0065433026265114425 -0.1665381727067871
3.9 -0.009814953939767166 -0.24980725906018073
3.9 -0.01308660525302289 -0.33307634541357434
3.9 -0.01635825656627861 -0.41634543176696787
3.9 -0.019629907879534333 -0.49961451812036145
3.95 0.009816846230314126 0.4999036202410324
3.95 0.008180705191928438 0.4165863502008604
3.95 0.0065445641535427515 0.3332690801606883
3.95 0.004908423115157063 0.2499518101205162
3.95 0.0032722820767713758 0.16663454008034415
3.95 0.0016361410383856872 0.08331727004017205
3.95 0.0 0.0
3.95 -0.0016361410383856883 -0.0833172700401721
3.95 -0.0032722820767713745 -0.1666345400803441
3.95 -0.004908423115157063 -0.2499518101205162
3.95 -0.0065445641535427515 -0.3332690801606883
3.95 -0.008180705191928438 -0.4165863502008603
3.95 -0.009816846230314126 -0.4999036202410324
4.0 3.061616997868383e-17 0.5
4.0 2.5513474982236526e-17 0.4166666666666667
4.0 2.0410779985789222e-17 0.33333333333333337
4.0 1.5308084989341915e-17 0.25
4.0 1.0205389992894611e-17 0.16666666666666669
4.0 5.102694996447304e-18 0.08333333333333331
4.0 0.0 0.0
4.0 -5.102694996447307e-18 -0.08333333333333337
4.0 -1.0205389992894608e-17 -0.16666666666666663
4.0 -1.5308084989341915e-17 -0.25
4.0 -2.0410779985789222e-17 -0.33333333333333337
4.0 -2.5513474982236523e-17 -0.41666666666666663
4.0 -3.061616997868383e-17 -0.5
3 0 13 14
3 0 14 1
3 1 14 15
3 1 15 2
3 2 15 16
3 2 16 3
3 3 16 17
3 3 17 4
3 4 17 18
3 4 18 5
3 5 18 19
3 5 19 6
3 6 19 20
3 6 20 7
3 7 20 21
3 7 21 8
3 8 21 22
3 8 22 9
3 9 22 23
3 9 23 10
3 10 23 24
3 10 24 11
3 11 24 25
3 11 25 12
3 13 26 27
3 13 27 14
3 14 27 28
3 14 28 15
3 15 28 29
3 15 29 16
3 16 29 30
3 16 30 17
3 17 30 31
3 17 31 18
3 18 31 32
3 18 32 19
3 19 32 33
3 19 33 20
3 20 33 34
3 20 34 21
3 21 34 35
3 21 35 22
3 22 35 36
3 22 36 23
3 23 36 37
3 23 37 24
3 24 37 38
3 24 38 25
3 26 39 40
3 26 40 27
3 27 40 41
3 27 41 28
3 28 41 42
3 28 42 29
3 29 42 43
3 29 43 30
3 30 43 44
3 30 44 31
3 31 44 45
3 31 45 32
3 32 45 46
3 32 46 33
3 33 46 47
3 33 47 34
3 34 47 48
3 34 48 35
3 35 48 49
3 35 49 36
3 36 49 50
3 36 50 37
3 37 50 51
3 37 51 38
3 39 52 53
3 39 53 40
3 40 53 54
3 40 54 41
3 41 54 55
3 41 55 42
3 42 55 56
3 42 56 43
3 43 56 57
3 43 57 44
3 44 57 58
3 44 58 45
3 45 58 59
3 45 59 46
3 46 59 60
3 46 60 47
3 47 60 61
3 47 61 48
3 48 61 62
3 48 62 49
3 49 62 63
3 49 63 50
3 50 63 64
3 50 64 51
3 52 65 66
3 52 66 53
3 53 66 67
3 53 67 54
3 54 67 68
3 54 68 55
3 55 68 69
3 55 69 56
3 56 69 70
3 56 70 57
3 57 70 71
3 57 71 58
3 58 71 72
3 58 72 59
3 59 72 73
3 59 73 60
3 60 73 74
3 60 74 61
3 61 74 75
3 61 75 62
3 62 75 76
3 62 76 63
3 63 76 77
3 63 77 64
3 65 78 79
3 65 79 66
3 66 79 80
3 66 80 67
3 67 80 81
3 67 81 68
3 68 81 82
3 68 82 69
3 69 82 83
3 69 83 70
3 70 83 84
3 70 84 71
3 71 84 85
3 71 85 72
3 72 85 86
3 72 86 73
3 73 86 87
3 73 87 74
3 74 87 88
3 74 88 75
3 75 88 89
3 75 89 76
3 76 89 90
3 76 90 77
3 78 91 92
3 78 92 79
3 79 92 93
3 79 93 80
3 80 93 94
3 80 94 81
3 81 94 95
3 81 95 82
3 82 95 96
3 82 96 83
3 83 96 97
3 83 97 84
3 84 97 98
3 84 98 85
3 85 98 99
3 85 99 86
3 86 99 100
3 86 100 87
3 87 100 101
3 87 101 88
3 88 101 102
3 88 102 89
3 89 102 103
3 89 103 90
3 91 104 105
3 91 105 92
3 92 105 106
3 92 106 93
3 93 106 107
3 93 107 94
3 94 107 108
3 94 108 95
3 95 108 109
3 95 109 96
3 96 109 110
3 96 110 97
3 97 110 111
3 97 111 98
3 98 111 112
3 98 112 99
3 99 112 113
3 99 113 100
3 100 113 114
3 100 114 101
3 101 114 115
3 101 115 102
3 102 115 116
3 102 116 103
3 104 117 118
3 104 118 105
3 105 118 119
3 105 119 106
3 106 119 120
3 106 120 107
3 107 120 121
3 107 121 108
3 108 121 122
3 108 122 109
3 109 122 123
3 109 123 110
3 110 123 124
3 110 124 111
3 111 124 125
3 111 125 112
3 112 125 126
3 112 126 113
3 113 126 127
3 113 127 114
3 114 127 128
3 114 128 115
3 115 128 129
3 115 129 116
3 117 130 131
3 117 131 118
3 118 131 132
3 118 132 119
3 119 132 133
3 119 133 120
3 120 133 134
3 120 134 121
3 121 134 135
3 121 135 122
3 122 135 136
3 122 136 123
3 123 136 137
3 123 137 124
3 124 137 138
3 124 138 125
3 125 138 139
3 125 139 126
3 126 139 140
3 126 140 127
3 127 140 141
3 127 141 128
3 128 141 142
3 128 142 129
3 130 143 144
3 130 144 131
3 131 144 145
3 131 145 132
3 132 145 146
3 132 146 133
3 133 146 147
3 133 147 134
3 134 147 148
3 134 148 135
3 135 148 149
3 135 149 136
3 136 149 150
3 136 150 137
3 137 150 151
3 137 151 138
3 138 151 152
3 138 152 139
3 139 152 153
3 139 153 140
3 140 153 154
3 140 154 141
3 141 154 155
3 141 155 142
3 143 156 157
3 143 157 144
3 144 157 158
3 144 158 145
3 145 158 159
3 145 159 146
3 146 159 160
3 146 160 147
3 147 160 161
3 147 161 148
3 148 161 162
3 148 162 149
3 149 162 163
3 149 163 150
3 150 163 164
3 150 164 151
3 151 164 165
3 151 165 152
3 152 165 166
3 152 166 153
3 153 166 167
3 153 167 154
3 154 167 168
3 154 168 155
3 156 169 170
3 156 170 157
3 157 170 171
3 157 171 158
3 158 171 172
3 158 172 159
3 159 172 173
3 159 173 160
3 160 173 174
3 160 174 161
3 161 174 175
3 161 175 162
3 162 175 176
3 162 176 163
3 163 176 177
3 163 177 164
3 164 177 178
3 164 178 165
3 165 178 179
3 165 179 166
3 166 179 180
3 166 180 167
3 167 180 181
3 167 181 168
3 169 182 183
3 169 183 170
3 170 183 184
3 170 184 171
3 171 184 185
3 171 185 172
3 172 185 186
3 172 186 173
3 173 186 187
3 173 187 174
3 174 187 188
3 174 188 175
3 175 188 189
3 175 189 176
3 176 189 190
3 176 190 177
3 177 190 191
3 177 191 178
3 178 191 192
3 178 192 179
3 179 192 193
3 179 193 180
3 180 193 194
3 180 194 181
3 182 195 196
3 182 196 183
3 183 196 197
3 183 197 184
3 184 197 198
3 184 198 185
3 185 198 199
3 185 199 186
3 186 199 200
3 186 200 187
3 187 200 201
3 187 201 188
3 188 201 202
3 188 202 189
3 189 202 203
3 189 203 190
3 190 203 204
3 190 204 191
3 191 204 205
3 191 205 192
3 192 205 206
3 192 206 193
3 193 206 207
3 193 207 194
3 195 208 209
3 195 209 196
3 196 209 210
3 196 210 197
3 197 210 211
3 197 211 198
3 198 211 212
3 198 212 199
3 199 212 213
3 199 213 200
3 200 213 214
3 200 214 201
3 201 214 215
3 201 215 202
3 202 215 216
3 202 216 203
3 203 216 217
3 203 217 204
3 204 217 218
3 204 218 205
3 205 218 219
3 205 219 206
3 206 219 220
3 206 220 207
3 208 221 222
3 208 222 209
3 209 222 223
3 209 223 210
3 210 223 224
3 210 224 211
3 211 224 225
3 211 225 212
3 212 225 226
3 212 226 213
3 213 226 227
3 213 227 214
3 214 227 228
3 214 228 215
3 215 228 229
3 215 229 216
3 216 229 230
3 216 230 217
3 217 230 231
3 217 231 218
3 218 231 232
3 218 232 219
3 219 232 233
3 219 233 220
3 221 234 235
3 221 235 222
3 222 235 236
3 222 236 223
3 223 236 237
3 223 237 224
3 224 237 238
3 224 238 225
3 225 238 239
3 225 239 226
3 226 239 240
3 226 240 227
3 227 240 241
3 227 241 228
3 228 241 242
3 228 242 229
3 229 242 243
3 229 243 230
3 230 243 244
3 230 244 231
3 231 244 245
3 231 245 232
3 232 245 246
3 232 246 233
3 234 247 248
3 234 248 235
3 235 248 249
3 235 249 236
3 236 249 250
3 236 250 237
3 237 250 251
3 237 251 238
3 238 251 252
3 238 252 239
3 239 252 253
3 239 253 240
3 240 253 254
3 240 254 241
3 241 254 255
3 241 255 242
3 242 255 256
3 242 256 243
3 243 256 257
3 243 257 244
3 244 257 258
3 244 258 245
3 245 258 259
3 245 259 246
3 247 260 261
3 247 261 248
3 248 261 262
3 248 262 249
3 249 262 263
3 249 263 250
3 250 263 264
3 250 264 251
3 251 264 265
3 251 265 252
3 252 265 266
3 252 266 253
3 253 266 267
3 253 267 254
3 254 267 268
3 254 268 255
3 255 268 269
3 255 269 256
3 256 269 270
3 256 270 257
3 257 270 271
3 257 271 258
3 258 271 272
3 258 272 259
3 260 273 274
3 260 274 261
3 261 274 275
3 261 275 262
3 262 275 276
3 262 276 263
3 263 276 277
3 263 277 264
3 264 277 278
3 264 278 265
3 265 278 279
3 265 279 266
3 266 279 280
3 266 280 267
3 267 280 281
3 267 281 268
3 268 281 282
3 268 282 269
3 269 282 283
3 269 283 270
3 270 283 284
3 270 284 271
3 271 284 285
3 271 285 272
3 273 286 287
3 273 287 274
3 274 287 288
3 274 288 275
3 275 288 289
3 275 289 276
3 276 289 290
3 276 290 277
3 277 290 291
3 277 291 278
3 278 291 292
3 278 292 279
3 279 292 293
3 279 293 280
3 280 293 294
3 280 294 281
3 281 294 295
3 281 295 282
3 282 295 296
3 282 296 283
3 283 296 297
3 283 297 284
3 284 297 298
3 284 298 285
3 286 299 300
3 286 300 287
3 287 300 301
3 287 301 288
3 288 301 302
3 288 302 289
3 289 302 303
3 289 303 290
3 290 303 304
3 290 304 291
3 291 304 305
3 291 305 292
3 292 305 306
3 292 306 293
3 293 306 307
3 293 307 294
3 294 307 308
3 294 308 295
3 295 308 309
3 295 309 296
3 296 309 310
3 296 310 297
3 297 310 311
3 297 311 298
3 299 312 313
3 299 313 300
3 300 313 314
3 300 314 301
3 301 314 315
3 301 315 302
3 302 315 316
3 302 316 303
3 303 316 317
3 303 317 304
3 304 317 318
3 304 318 305
3 305 318 319
3 305 319 306
3 306 319 320
3 306 320 307
3 307 320 321
3 307 321 308
3 308 321 322
3 308 322 309
3 309 322 323
3 309 323 310
3 310 323 324
3 310 324 311
3 312 325 326
3 312 326 313
3 313 326 327
3 313 327 314
3 314 327 328
3 314 328 315
3 315 328 329
3 315 329 316
3 316 329 330
3 316 330 317
3 317 330 331
3 317 331 318
3 318 331 332
3 318 332 319
3 319 332 333
3 319 333 320
3 320 333 334
3 320 334 321
3 321 334 335
3 321 335 322
3 322 335 336
3 322 336 323
3 323 336 337
3 323 337 324
3 325 338 339
3 325 339 326
3 326 339 340
3 326 340 327
3 327 340 341
3 327 341 328
3 328 341 342
3 328 342 329
3 329 342 343
3 329 343 330
3 330 343 344
3 330 344 331
3 331 344 345
3 331 345 332
3 332 345 346
3 332 346 333
3 333 346 347
3 333 347 334
3 334 347 348
3 334 348 335
3 335 348 349
3 335 349 336
3 336 349 350
3 336 350 337
3 338 351 352
3 338 352 339
3 339 352 353
3 339 353 340
3 340 353 354
3 340 354 341
3 341 354 355
3 341 355 342
3 342 355 356
3 342 356 343
3 343 356 357
3 343 357 344
3 344 357 358
3 344 358 345
3 345 358 359
3 345 359 346
3 346 359 360
3 346 360 347
3 347 360 361
3 347 361 348
3 348 361 362
3 348 362 349
3 349 362 363
3 349 363 350
3 351 364 365
3 351 365 352
3 352 365 366
3 352 366 353
3 353 366 367
3 353 367 354
3 354 367 368
3 354 368 355
3 355 368 369
3 355 369 356
3 356 369 370
3 356 370 357
3 357 370 371
3 357 371 358
3 358 371 372
3 358 372 359
3 359 372 373
3 359 373 360
3 360 373 374
3 360 374 361
3 361 374 375
3 361 375 362
3 362 375 376
3 362 376 363
3 364 377 378
3 364 378 365
3 365 378 379
3 365 379 366
3 366 379 380
3 366 380 367
3 367 380 381
3 367 381 368
3 368 381 382
3 368 382 369
3 369 382 383
3 369 383 370
3 370 383 384
3 370 384 371
3 371 384 385
3 371 385 372
3 372 385 386
3 372 386 373
3 373 386 387
3 373 387 374
3 374 387 388
3 374 388 375
3 375 388 389
3 375 389 376
3 377 390 391
3 377 391 378
3 378 391 392
3 378 392 379
3 379 392 393
3 379 393 380
3 380 393 394
3 380 394 381
3 381 394 395
3 381 395 382
3 382 395 396
3 382 396 383
3 383 396 397
3 383 397 384
3 384 397 398
3 384 398 385
3 385 398 399
3 385 399 386
3 386 399 400
3 386 400 387
3 387 400 401
3 387 401 388
3 388 401 402
3 388 402 389
3 390 403 404
3 390 404 391
3 391 404 405
3 391 405 392
3 392 405 406
3 392 406 393
3 393 406 407
3 393 407 394
3 394 407 408
3 394 408 395
3 395 408 409
3 395 409 396
3 396 409 410
3 396 410 397
3 397 410 411
3 397 411 398
3 398 411 412
3 398 412 399
3 399 412 413
3 399 413 400
3 400 413 414
3 400 414 401
3 401 414 415
3 401 415 402
3 403 416 417
3 403 417 404
3 404 417 418
3 404 418 405
3 405 418 419
3 405 419 406
3 406 419 420
3 406 420 407
3 407 420 421
3 407 421 408
3 408 421 422
3 408 422 409
3 409 422 423
3 409 423 410
3 410 423 424
3 410 424 411
3 411 424 425
3 411 425 412
3 412 425 426
3 412 426 413
3 413 426 427
3 413 427 414
3 414 427 428
3 414 428 415
3 416 429 430
3 416 430 417
3 417 430 431
3 417 431 418
3 418 431 432
3 418 432 419
3 419 432 433
3 419 433 420
3 420 433 434
3 420 434 421
3 421 434 435
3 421 435 422
3 422 435 436
3 422 436 423
3 423 436 437
3 423 437 424
3 424 437 438
3 424 438 425
3 425 438 439
3 425 439 426
3 426 439 440
3 426 440 427
3 427 440 441
3 427 441 428
3 429 442 443
3 429 443 430
3 430 443 444
3 430 444 431
3 431 444 445
3 431 445 432
3 432 445 446
3 432 446 433
3 433 446 447
3 433 447 434
3 434 447 448
3 434 448 435
3 435 448 449
3 435 449 436
3 436 449 450
3 436 450 437
3 437 450 451
3 437 451 438
3 438 451 452
3 438 452 439
3 439 452 453
3 439 453 440
3 440 453 454
3 440 454 441
3 442 455 456
3 442 456 443
3 443 456 457
3 443 457 444
3 444 457 458
3 444 458 445
3 445 458 459
3 445 459 446
3 446 459 460
3 446 460 447
3 447 460 461
3 447 461 448
3 448 461 462
3 448 462 449
3 449 462 463
3 449 463 450
3 450 463 464
3 450 464 451
3 451 464 465
3 451 465 452
3 452 465 466
3 452 466 453
3 453 466 467
3 453 467 454
3 455 468 469
3 455 469 456
3 456 469 470
3 456 470 457
3 457 470 471
3 457 471 458
3 458 471 472
3 458 472 459
3 459 472 473
3 459 473 460
3 460 473 474
3 460 474 461
3 461 474 475
3 461 475 462
3 462 475 476
3 462 476 463
3 463 476 477
3 463 477 464
3 464 477 478
3 464 478 465
3 465 478 479
3 465 479 466
3 466 479 480
3 466 480 467
3 468 481 482
3 468 482 469
3 469 482 483
3 469 483 470
3 470 483 484
3 470 484 471
3 471 484 485
3 471 485 472
3 472 485 486
3 472 486 473
3 473 486 487
3 473 487 474
3 474 487 488
3 474 488 475
3 475 488 489
3 475 489 476
3 476 489 490
3 476 490 477
3 477 490 491
3 477 491 478
3 478 491 492
3 478 492 479
3 479 492 493
3 479 493 480
3 481 494 495
3 481 495 482
3 482 495 496
3 482 496 483
3 483 496 497
3 483 497 484
3 484 497 498
3 484 498 485
3 485 498 499
3 485 499 486
3 486 499 500
3 486 500 487
3 487 500 501
3 487 501 488
3 488 501 502
3 488 502 489
3 489 502 503
3 489 503 490
3 490 503 504
3 490 504 491
3 491 504 505
3 491 505 492
3 492 505 506
3 492 506 493
3 494 507 508
3 494 508 495
3 495 508 509
3 495 509 496
3 496 509 510
3 496 510 497
3 497 510 511
3 497 511 498
3 498 511 512
3 498 512 499
3 499 512 513
3 499 513 500
3 500 513 514
3 500 514 501
3 501 514 515
3 501 515 502
3 502 515 516
3 502 516 503
3 503 516 517
3 503 517 504
3 504 517 518
3 504 518 505
3 505 518 519
3 505 519 506
3 507 520 521
3 507 521 508
3 508 521 522
3 508 522 509
3 509 522 523
3 509 523 510
3 510 523 524
3 510 524 511
3 511 524 525
3 511 525 512
3 512 525 526
3 512 526 513
3 513 526 527
3 513 527 514
3 514 527 528
3 514 528 515
3 515 528 529
3 515 529 516
3 516 529 530
3 516 530 517
3 517 530 531
3 517 531 518
3 518 531 532
3 518 532 519
3 520 533 534
3 520 534 521
3 521 534 535
3 521 535 522
3 522 535 536
3 522 536 523
3 523 536 537
3 523 537 524
3 524 537 538
3 524 538 525
3 525 538 539
3 525 539 526
3 526 539 540
3 526 540 527
3 527 540 541
3 527 541 528
3 528 541 542
3 528 542 529
3 529 542 543
3 529 543 530
3 530 543 544
3 530 544 531
3 531 544 545
3 531 545 532
3 533 546 547
3 533 547 534
3 534 547 548
3 534 548 535
3 535 548 549
3 535 549 536
3 536 549 550
3 536 550 537
3 537 550 551
3 537 551 538
3 538 551 552
3 538 552 539
3 539 552 553
3 539 553 540
3 540 553 554
3 540 554 541
3 541 554 555
3 541 555 542
3 542 555 556
3 542 556 543
3 543 556 557
3 543 557 544
3 544 557 558
3 544 558 545
3 546 559 560
3 546 560 547
3 547 560 561
3 547 561 548
3 548 561 562
3 548 562 549
3 549 562 563
3 549 563 550
3 550 563 564
3 550 564 551
3 551 564 565
3 551 565 552
3 552 565 566
3 552 566 553
3 553 566 567
3 553 567 554
3 554 567 568
3 554 568 555
3 555 568 569
3 555 569 556
3 556 569 570
3 556 570 557
3 557 570 571
3 557 571 558
3 559 572 573
3 559 573 560
3 560 573 574
3 560 574 561
3 561 574 575
3 561 575 562
3 562 575 576
3 562 576 563
3 563 576 577
3 563 577 564
3 564 577 578
3 564 578 565
3 565 578 579
3 565 579 566
3 566 579 580
3 566 580 567
3 567 580 581
3 567 581 568
3 568 581 582
3 568 582 569
3 569 582 583
3 569 583 570
3 570 583 584
3 570 584 571
3 572 585 586
3 572 586 573
3 573 586 587
3 573 587 574
3 574 587 588
3 574 588 575
3 575 588 589
3 575 589 576
3 576 589 590
3 576 590 577
3 577 590 591
3 577 591 578
3 578 591 592
3 578 592 579
3 579 592 593
3 579 593 580
3 580 593 594
3 580 594 581
3 581 594 595
3 581 595 582
3 582 595 596
3 582 596 583
3 583 596 597
3 583 597 584
3 585 598 599
3 585 599 586
3 586 599 600
3 586 600 587
3 587 600 601
3 587 601 588
3 588 601 602
3 588 602 589
3 589 602 603
3 589 603 590
3 590 603 604
3 590 604 591
3 591 604 605
3 591 605 592
3 592 605 606
3 592 606 593
3 593 606 607
3 593 607 594
3 594 607 608
3 594 608 595
3 595 608 609
3 595 609 596
3 596 609 610
3 596 610 597
3 598 611 612
3 598 612 599
3 599 612 613
3 599 613 600
3 600 613 614
3 600 614 601
3 601 614 615
3 601 615 602
3 602 615 616
3 602 616 603
3 603 616 617
3 603 617 604
3 604 617 618
3 604 618 605
3 605 618 619
3 605 619 606
3 606 619 620
3 606 620 607
3 607 620 621
3 607 621 608
3 608 621 622
3 608 622 609
3 609 622 623
3 609 623 610
3 611 624 625
3 611 625 612
3 612 625 626
3 612 626 613
3 613 626 627
3 613 627 614
3 614 627 628
3 614 628 615
3 615 628 629
3 615 629 616
3 616 629 630
3 616 630 617
3 617 630 631
3 617 631 618
3 618 631 632
3 618 632 619
3 619 632 633
3 619 633 620
3 620 633 634
3 620 634 621
3 621 634 635
3 621 635 622
3 622 635 636
3 622 636 623
3 624 637 638
3 624 638 625
3 625 638 639
3 625 639 626
3 626 639 640
3 626 640 627
3 627 640 641
3 627 641 628
3 628 641 642
3 628 642 629
3 629 642 643
3 629 643 630
3 630 643 644
3 630 644 631
3 631 644 645
3 631 645 632
3 632 645 646
3 632 646 633
3 633 646 647
3 633 647 634
3 634 647 648
3 634 648 635
3 635 648 649
3 635 649 636
3 637 650 651
3 637 651 638
3 638 651 652
3 638 652 639
3 639 652 653
3 639 653 640
3 640 653 654
3 640 654 641
3 641 654 655
3 641 655 642
3 642 655 656
3 642 656 643
3 643 656 657
3 643 657 644
3 644 657 658
3 644 658 645
3 645 658 659
3 645 659 646
3 646 659 660
3 646 660 647
3 647 660 661
3 647 661 648
3 648 661 662
3 648 662 649
3 650 663 664
3 650 664 651
3 651 664 665
3 651 665 652
3 652 665 666
3 652 666 653
3 653 666 667
3 653 667 654
3 654 667 668
3 654 668 655
3 655 668 669
3 655 669 656
3 656 669 670
3 656 670 657
3 657 670 671
3 657 671 658
3 658 671 672
3 658 672 659
3 659 672 673
3 659 673 660
3 660 673 674
3 660 674 661
3 661 674 675
3 661 675 662
3 663 676 677
3 663 677 664
3 664 677 678
3 664 678 665
3 665 678 679
3 665 679 666
3 666 679 680
3 666 680 667
3 667 680 681
3 667 681 668
3 668 681 682
3 668 682 669
3 669 682 683
3 669 683 670
3 670 683 684
3 670 684 671
3 671 684 685
3 671 685 672
3 672 685 686
3 672 686 673
3 673 686 687
3 673 687 674
3 674 687 688
3 674 688 675
3 676 689 690
3 676 690 677
3 677 690 691
3 677 691 678
3 678 691 692
3 678 692 679
3 679 692 693
3 679 693 680
3 680 693 694
3 680 694 681
3 681 694 695
3 681 695 682
3 682 695 696
3 682 696 683
3 683 696 697
3 683 697 684
3 684 697 698
3 684 698 685
3 685 698 699
3 685 699 686
3 686 699 700
3 686 700 687
3 687 700 701
3 687 701 688
3 689 702 703
3 689 703 690
3 690 703 704
3 690 704 691
3 691 704 705
3 691 705 692
3 692 705 706
3 692 706 693
3 693 706 707
3 693 707 694
3 694 707 708
3 694 708 695
3 695 708 709
3 695 709 696
3 696 709 710
3 696 710 697
3 697 710 711
3 697 711 698
3 698 711 712
3 698 712 699
3 699 712 713
3 699 713 700
3 700 713 714
3 700 714 701
3 702 715 716
3 702 716 703
3 703 716 717
3 703 717 704
3 704 717 718
3 704 718 705
3 705 718 719
3 705 719 706
3 706 719 720
3 706 720 707
3 707 720 721
3 707 721 708
3 708 721 722
3 708 722 709
3 709 722 723
3 709 723 710
3 710 723 724
3 710 724 711
3 711 724 725
3 711 725 712
3 712 725 726
3 712 726 713
3 713 726 727
3 713 727 714
3 715 728 729
3 715 729 716
3 716 729 730
3 716 730 717
3 717 730 731
3 717 731 718
3 718 731 732
3 718 732 719
3 719 732 733
3 719 733 720
3 720 733 734
3 720 734 721
3 721 734 735
3 721 735 722
3 722 735 736
3 722 736 723
3 723 736 737
3 723 737 724
3 724 737 738
3 724 738 725
3 725 738 739
3 725 739 726
3 726 739 740
3 726 740 727
3 728 741 742
3 728 742 729
3 729 742 743
3 729 743 730
3 730 743 744
3 730 744 731
3 731 744 745
3 731 745 732
3 732 745 746
3 732 746 733
3 733 746 747
3 733 747 734
3 734 747 748
3 734 748 735
3 735 748 749
3 735 749 736
3 736 749 750
3 736 750 737
3 737 750 751
3 737 751 738
3 738 751 752
3 738 752 739
3 739 752 753
3 739 753 740
3 741 754 755
3 741 755 742
3 742 755 756
3 742 756 743
3 743 756 757
3 743 757 744
3 744 757 758
3 744 758 745
3 745 758 759
3 745 759 746
3 746 759 760
3 746 760 747
3 747 760 761
3 747 761 748
3 748 761 762
3 748 762 749
3 749 762 763
3 749 763 750
3 750 763 764
3 750 764 751
3 751 764 765
3 751 765 752
3 752 765 766
3 752 766 753
3 754 767 768
3 754 768 755
3 755 768 769
3 755 769 756
3 756 769 770
3 756 770 757
3 757 770 771
3 757 771 758
3 758 771 772
3 758 772 759
3 759 772 773
3 759 773 760
3 760 773 774
3 760 774 761
3 761 774 775
3 761 775 762
3 762 775 776
3 762 776 763
3 763 776 777
3 763 777 764
3 764 777 778
3 764 778 765
3 765 778 779
3 765 779 766
3 767 780 781
3 767 781 768
3 768 781 782
3 768 782 769
3 769 782 783
3 769 783 770
3 770 783 784
3 770 784 771
3 771 784 785
3 771 785 772
3 772 785 786
3 772 786 773
3 773 786 787
3 773 787 774
3 774 787 788
3 774 788 775
3 775 788 789
3 775 789 776
3 776 789 790
3 776 790 777
3 777 790 791
3 777 791 778
3 778 791 792
3 778 792 779
3 780 793 794
3 780 794 781
3 781 794 795
3 781 795 782
3 782 795 796
3 782 796 783
3 783 796 797
3 783 797 784
3 784 797 798
3 784 798 785
3 785 798 799
3 785 799 786
3 786 799 800
3 786 800 787
3 787 800 801
3 787 801 788
3 788 801 802
3 788 802 789
3 789 802 803
3 789 803 790
3 790 803 804
3 790 804 791
3 791 804 805
3 791 805 792
3 793 806 807
3 793 807 794
3 794 807 808
3 794 808 795
3 795 808 809
3 795 809 796
3 796 809 810
3 796 810 797
3 797 810 811
3 797 811 798
3 798 811 812
3 798 812 799
3 799 812 813
3 799 813 800
3 800 813 814
3 800 814 801
3 801 814 815
3 801 815 802
3 802 815 816
3 802 816 803
3 803 816 817
3 803 817 804
3 804 817 818
3 804 818 805
3 806 819 820
3 806 820 807
3 807 820 821
3 807 821 808
3 808 821 822
3 808 822 809
3 809 822 823
3 809 823 810
3 810 823 824
3 810 824 811
3 811 824 825
3 811 825 812
3 812 825 826
3 812 826 813
3 813 826 827
3 813 827 814
3 814 827 828
3 814 828 815
3 815 828 829
3 815 829 816
3 816 829 830
3 816 830 817
3 817 830 831
3 817 831 818
3 819 832 833
3 819 833 820
3 820 833 834
3 820 834 821
3 821 834 835
3 821 835 822
3 822 835 836
3 822 836 823
3 823 836 837
3 823 837 824
3 824 837 838
3 824 838 825
3 825 838 839
3 825 839 826
3 826 839 840
3 826 840 827
3 827 840 841
3 827 841 828
3 828 841 842
3 828 842 829
3 829 842 843
3 829 843 830
3 830 843 844
3 830 844 831
3 832 845 846
3 832 846 833
3 833 846 847
3 833 847 834
3 834 847 848
3 834 848 835
3 835 848 849
3 835 849 836
3 836 849 850
3 836 850 837
3 837 850 851
3 837 851 838
3 838 851 852
3 838 852 839
3 839 852 853
3 839 853 840
3 840 853 854
3 840 854 841
3 841 854 855
3 841 855 842
3 842 855 856
3 842 856 843
3 843 856 857
3 843 857 844
3 845 858 859
3 845 859 846
3 846 859 860
3 846 860 847
3 847 860 861
3 847 861 848
3 848 861 862
3 848 862 849
3 849 862 863
3 849 863 850
3 850 863 864
3 850 864 851
3 851 864 865
3 851 865 852
3 852 865 866
3 852 866 853
3 853 866 867
3 853 867 854
3 854 867 868
3 854 868 855
3 855 868 869
3 855 869 856
3 856 869 870
3 856 870 857
3 858 871 872
3 858 872 859
3 859 872 873
3 859 873 860
3 860 873 874
3 860 874 861
3 861 874 875
3 861 875 862
3 862 875 876
3 862 876 863
3 863 876 877
3 863 877 864
3 864 877 878
3 864 878 865
3 865 878 879
3 865 879 866
3 866 879 880
3 866 880 867
3 867 880 881
3 867 881 868
3 868 881 882
3 868 882 869
3 869 882 883
3 869 883 870
3 871 884 885
3 871 885 872
3 872 885 886
3 872 886 873
3 873 886 887
3 873 887 874
3 874 887 888
3 874 888 875
3 875 888 889
3 875 889 876
3 876 889 890
3 876 890 877
3 877 890 891
3 877 891 878
3 878 891 892
3 878 892 879
3 879 892 893
3 879 893 880
3 880 893 894
3 880 894 881
3 881 894 895
3 881 895 882
3 882 895 896
3 882 896 883
3 884 897 898
3 884 898 885
3 885 898 899
3 885 899 886
3 886 899 900
3 886 900 887
3 887 900 901
3 887 901 888
3 888 901 902
3 888 902 889
3 889 902 903
3 889 903 890
3 890 903 904
3 890 904 891
3 891 904 905
3 891 905 892
3 892 905 906
3 892 906 893
3 893 906 907
3 893 907 894
3 894 907 908
3 894 908 895
3 895 908 909
3 895 909 896
3 897 910 911
3 897 911 898
3 898 911 912
3 898 912 899
3 899 912 913
3 899 913 900
3 900 913 914
3 900 914 901
3 901 914 915
3 901 915 902
3 902 915 916
3 902 916 903
3 903 916 917
3 903 917 904
3 904 917 918
3 904 918 905
3 905 918 919
3 905 919 906
3 906 919 920
3 906 920 907
3 907 920 921
3 907 921 908
3 908 921 922
3 908 922 909
3 910 923 924
3 910 924 911
3 911 924 925
3 911 925 912
3 912 925 926
3 912 926 913
3 913 926 927
3 913 927 914
3 914 927 928
3 914 928 915
3 915 928 929
3 915 929 916
3 916 929 930
3 916 930 917
3 917 930 931
3 917 931 918
3 918 931 932
3 918 932 919
3 919 932 933
3 919 933 920
3 920 933 934
3 920 934 921
3 921 934 935
3 921 935 922
3 923 936 937
3 923 937 924
3 924 937 938
3 924 938 925
3 925 938 939
3 925 939 926
3 926 939 940
3 926 940 927
3 927 940 941
3 927 941 928
3 928 941 942
3 928 942 929
3 929 942 943
3 929 943 930
3 930 943 944
3 930 944 931
3 931 944 945
3 931 945 932
3 932 945 946
3 932 946 933
3 933 946 947
3 933 947 934
3 934 947 948
3 934 948 935
3 936 949 950
3 936 950 937
3 937 950 951
3 937 951 938
3 938 951 952
3 938 952 939
3 939 952 953
3 939 953 940
3 940 953 954
3 940 954 941
3 941 954 955
3 941 955 942
3 942 955 956
3 942 956 943
3 943 956 957
3 943 957 944
3 944 957 958
3 944 958 945
3 945 958 959
3 945 959 946
3 946 959 960
3 946 960 947
3 947 960 961
3 947 961 948
3 949 962 963
3 949 963 950
3 950 963 964
3 950 964 951
3 951 964 965
3 951 965 952
3 952 965 966
3 952 966 953
3 953 966 967
3 953 967 954
3 954 967 968
3 954 968 955
3 955 968 969
3 955 969 956
3 956 969 970
3 956 970 957
3 957 970 971
3 957 971 958
3 958 971 972
3 958 972 959
3 959 972 973
3 959 973 960
3 960 973 974
3 960 974 961
3 962 975 976
3 962 976 963
3 963 976 977
3 963 977 964
3 964 977 978
3 964 978 965
3 965 978 979
3 965 979 966
3 966 979 980
3 966 980 967
3 967 980 981
3 967 981 968
3 968 981 982
3 968 982 969
3 969 982 983
3 969 983 970
3 970 983 984
3 970 984 971
3 971 984 985
3 971 985 972
3 972 985 986
3 972 986 973
3 973 986 987
3 973 987 974
3 975 988 989
3 975 989 976
3 976 989 990
3 976 990 977
3 977 990 991
3 977 991 978
3 978 991 992
3 978 992 979
3 979 992 993
3 979 993 980
3 980 993 994
3 980 994 981
3 981 994 995
3 981 995 982
3 982 995 996
3 982 996 983
3 983 996 997
3 983 997 984
3 984 997 998
3 984 998 985
3 985 998 999
3 985 999 986
3 986 999 1000
3 986 1000 987
3 988 1001 1002
3 988 1002 989
3 989 1002 1003
3 989 1003 990
3 990 1003 1004
3 990 1004 991
3 991 1004 1005
3 991 1005 992
3 992 1005 1006
3 992 1006 993
3 993 1006 1007
3 993 1007 994
3 994 1007 1008
3 994 1008 995
3 995 1008 1009
3 995 1009 996
3 996 1009 1010
3 996 1010 997
3 997 1010 1011
3 997 1011 998
3 998 1011 1012
3 998 1012 999
3 999 1012 1013
3 999 1013 1000
3 1001 1014 1015
3 1001 1015 1002
3 1002 1015 1016
3 1002 1016 1003
3 1003 1016 1017
3 1003 1017 1004
3 1004 1017 1018
3 1004 1018 1005
3 1005 1018 1019
3 1005 1019 1006
3 1006 1019 1020
3 1006 1020 1007
3 1007 1020 1021
3 1007 1021 1008
3 1008 1021 1022
3 1008 1022 1009
3 1009 1022 1023
3 1009 1023 1010
3 1010 1023 1024
3 1010 1024 1011
3 1011 1024 1025
3 1011 1025 1012
3 1012 1025 1026
3 1012 1026 1013
3 1014 1027 1028
3 1014 1028 1015
3 1015 1028 1029
3 1015 1029 1016
3 1016 1029 1030
3 1016 1030 1017
3 1017 1030 1031
3 1017 1031 1018
3 1018 1031 1032
3 1018 1032 1019
3 1019 1032 1033
3 1019 1033 1020
3 1020 1033 1034
3 1020 1034 1021
3 1021 1034 1035
3 1021 1035 1022
3 1022 1035 1036
3 1022 1036 1023
3 1023 1036 1037
3 1023 1037 1024
3 1024 1037 1038
3 1024 1038 1025
3 1025 1038 1039
3 1025 1039 1026
3 1027 1040 1041
3 1027 1041 1028
3 1028 1041 1042
3 1028 1042 1029
3 1029 1042 1043
3 1029 1043 1030
3 1030 1043 1044
3 1030 1044 1031
3 1031 1044 1045
3 1031 1045 1032
3 1032 1045 1046
3 1032 1046 1033
3 1033 1046 1047
3 1033 1047 1034
3 1034 1047 1048
3 1034 1048 1035
3 1035 1048 1049
3 1035 1049 1036
3 1036 1049 1050
3 1036 1050 1037
3 1037 1050 1051
3 1037 1051 1038
3 1038 1051 1052
3 1038 1052 1039
