ply
format ascii 1.0
element vertex 1025
property float x
property float y
property float z
element face 1984
property list uchar int vertex_indices
end_header
0.0001733797398628666997 0.00031544713419862091541 0.14272163808345794678
0.05328248441219329834 -7.7586868428625166416e-05 0.16539137065410614014
0.053678121417760848999 0.0054527102038264274597 0.16488826274871826172
0.053745310753583908081 0.010931031778454780579 0.16379295289516448975
0.053411550819873809814 0.016295904293656349182 0.16215337812900543213
0.052603136748075485229 0.021482948213815689087 0.16004773974418640137
0.051256176084280014038 0.026429405435919761658 0.15757872164249420166
0.049327727407217025757 0.031082000583410263062 0.15486247837543487549
0.046801403164863586426 0.03540161624550819397 0.15201675891876220703
0.043686047196388244629 0.039364937692880630493 0.14915065467357635498
0.040005426853895187378 0.042956598103046417236 0.14635875821113586426
0.035790428519248962402 0.046160992234945297241 0.14372076094150543213
0.031076395884156227112 0.048955701291561126709 0.14130538702011108398
0.025905234739184379578 0.051308855414390563965 0.13917593657970428467
0.020331116393208503723 0.053182356059551239014 0.13739448785781860352
0.014426286332309246063 0.054538905620574951172 0.13602304458618164062
0.0082846730947494506836 0.055349171161651611328 0.13512191176414489746
0.0020216689445078372955 0.055598042905330657959 0.13474473357200622559
-0.0042317686602473258972 0.055287528783082962036 0.13493169844150543213
-0.010340075008571147919 0.054435022175312042236 0.13570208847522735596
-0.016182662919163703918 0.053069312125444412231 0.13704983890056610107
-0.021665545180439949036 0.051226194947957992554 0.1389411240816116333
-0.026725441217422485352 0.04894194379448890686 0.14131605625152587891
-0.031323719769716262817 0.04624590650200843811 0.14409036934375762939
-0.035436563193798065186 0.043154574930667877197 0.14715629816055297852
-0.039049159735441207886 0.039673224091529846191 0.15038377046585083008
-0.042155813425779342651 0.035803232342004776001 0.15362469851970672607
-0.044766306877136230469 0.031555466353893280029 0.1567217707633972168
-0.046911444514989852905 0.026958672329783439636 0.15952278673648834229
-0.04864482581615447998 0.022059381008148193359 0.16189929842948913574
-0.050036571919918060303 0.016914227977395057678 0.16376060247421264648
-0.051155701279640197754 0.011582903563976287842 0.1650530397891998291
-0.052046541124582290649 0.0061258068308234214783 0.16574744880199432373
-0.052713833749294281006 0.00060428370488807559013 0.16582883894443511963
-0.053123496472835540771 -0.0049207494594156742096 0.16529613733291625977
-0.053214561194181442261 -0.010390798561275005341 0.16416880488395690918
-0.052912060171365737915 -0.015745013952255249023 0.16249428689479827881
-0.052139025181531906128 -0.020919501781463623047 0.16035035252571105957
-0.050828143954277038574 -0.025851741433143615723 0.15783940255641937256
-0.048933736979961395264 -0.030488524585962295532 0.15507782995700836182
-0.046437941491603851318 -0.034790948033332824707 0.15218406915664672852
-0.043349426239728927612 -0.038736298680305480957 0.14926807582378387451
-0.039692569524049758911 -0.042310263961553573608 0.14642511308193206787
-0.035499021410942077637 -0.045498490333557128906 0.14373527467250823975
-0.030804511159658432007 -0.048279702663421630859 0.14126737415790557861
-0.025650793686509132385 -0.050622779875993728638 0.13908478617668151855
-0.020091412588953971863 -0.052489914000034332275 0.13724987208843231201
-0.014197781682014465332 -0.05384365469217300415 0.13582521677017211914
-0.0080630490556359291077 -0.054654292762279510498 0.13487203419208526611
-0.0018020652933046221733 -0.054906267672777175903 0.13444507122039794922
0.0044544506818056106567 -0.054601177573204040527 0.13458564877510070801
0.010570890270173549652 -0.053756050765514373779 0.13531391322612762451
0.016426427289843559265 -0.052399389445781707764 0.13662433624267578125
0.021926758810877799988 -0.050566803663969039917 0.13848327100276947021
0.027008326724171638489 -0.04829449579119682312 0.1408306807279586792
0.031632304191589355469 -0.045611780136823654175 0.14358216524124145508
0.035774670541286468506 -0.042535029351711273193 0.14663000404834747314
0.039420265704393386841 -0.039069317281246185303 0.1498444974422454834
0.042562723159790039062 -0.035215608775615692139 0.15307819843292236328
0.045210603624582290649 -0.03098408132791519165 0.15617445111274719238
0.047392740845680236816 -0.026402482762932777405 0.1589813530445098877
0.049160093069076538086 -0.021516205742955207825 0.16137011349201202393
0.050579853355884552002 -0.016380922868847846985 0.16324907541275024414
0.051718357950448989868 -0.011055734939873218536 0.16456332802772521973
0.052617959678173065186 -0.0056008184328675270081 0.16528263688087463379
0.09905071556568145752 -0.0019063864601776003838 0.20471987128257751465
0.099849916994571685791 0.0096079288050532341003 0.20399864017963409424
0.10030421614646911621 0.020963661372661590576 0.20190407335758209229
0.10025651007890701294 0.032016340643167495728 0.1985422968864440918
0.099519692361354827881 0.042649254202842712402 0.19406776130199432373
0.097896240651607513428 0.052770294249057769775 0.18867081403732299805
0.095202468335628509521 0.062303580343723297119 0.18256630003452301025
0.091298684477806091309 0.071185521781444549561 0.17598643898963928223
0.086101807653903961182 0.079357959330081939697 0.16916888952255249023
0.079587146639823913574 0.086765252053737640381 0.16234698891639709473
0.071780502796173095703 0.093350991606712341309 0.15574353933334350586
0.062748640775680541992 0.099054381251335144043 0.14956729114055633545
0.052595309913158416748 0.10381257534027099609 0.14401611685752868652
0.041459329426288604736 0.10756395012140274048 0.13927985727787017822
0.02951765991747379303 0.11025779694318771362 0.13554015755653381348
0.016986779868602752686 0.11186088621616363525 0.1329663693904876709
0.0041218074038624763489 0.11236293613910675049 0.13170638680458068848
-0.0087888650596141815186 0.11177735775709152222 0.13187068700790405273
-0.021434899419546127319 0.11013719439506530762 0.13351270556449890137
-0.033504918217658996582 0.10749008506536483765 0.13661161065101623535
-0.044716786593198776245 0.10389532148838043213 0.14105993509292602539
-0.05484909936785697937 0.099419265985488891602 0.14666764438152313232
-0.06376206129789352417 0.094124726951122283936 0.15318302810192108154
-0.071398213505744934082 0.088056921958923339844 0.16031727194786071777
-0.077769212424755096436 0.08123598247766494751 0.16776640713214874268
-0.08294095844030380249 0.073661021888256072998 0.17522387206554412842
-0.087025232613086700439 0.065326653420925140381 0.18238914012908935547
-0.090174525976181030273 0.056239355355501174927 0.18897467851638793945
-0.092571891844272613525 0.046435903757810592651 0.19471795856952667236
-0.094413235783576965332 0.035994019359350204468 0.19939364492893218994
-0.095877163112163543701 0.025034442543983459473 0.20282430946826934814
-0.097096018493175506592 0.013714850880205631256 0.20489040017127990723
-0.098129883408546447754 0.002214440610259771347 0.20553351938724517822
-0.098950557410717010498 -0.0092858448624610900879 0.20475150644779205322
-0.09945001453161239624 -0.020619366317987442017 0.20259496569633483887
-0.09946556389331817627 -0.031643226742744445801 0.1991685032844543457
-0.098803080618381500244 -0.042242310941219329834 0.19462455809116363525
-0.097257882356643676758 -0.052325770258903503418 0.18915182352066040039
-0.094640605151653289795 -0.061818718910217285156 0.1829646378755569458
-0.090808294713497161865 -0.070658706128597259521 0.17629602551460266113
-0.085677035152912139893 -0.078789211809635162354 0.16938515007495880127
-0.079222768545150756836 -0.086156703531742095947 0.1624666750431060791
-0.071472086012363433838 -0.092706911265850067139 0.15576407313346862793
-0.062491886317729949951 -0.098380796611309051514 0.1494861990213394165
-0.052385110408067703247 -0.10311662405729293823 0.14383098483085632324
-0.041289016604423522949 -0.10685328394174575806 0.13898864388465881348
-0.029378632083535194397 -0.10954008996486663818 0.13514190912246704102
-0.01686857268214225769 -0.11114364862442016602 0.13246200978755950928
-0.0040125232189893722534 -0.11165349185466766357 0.13109932839870452881
0.0089019089937210083008 -0.11108280718326568604 0.13116705417633056641
0.021564450114965438843 -0.10946424305438995361 0.13272108137607574463
0.033663142472505569458 -0.1068446040153503418 0.13574248552322387695
0.044914811849594116211 -0.1032819598913192749 0.14012487232685089111
0.055096816271543502808 -0.098841227591037750244 0.14567856490612030029
0.064068198204040527344 -0.093583814799785614014 0.1521517336368560791
0.071770459413528442383 -0.087553761899471282959 0.15925547480583190918
0.078214131295680999756 -0.080770157277584075928 0.16668601334095001221
0.083463653922080993652 -0.073231160640716552734 0.17413720488548278809
0.087628796696662902832 -0.064930424094200134277 0.1813090592622756958
0.090859189629554748535 -0.055873420089483261108 0.18791429698467254639
0.093333937227725982666 -0.04609575122594833374 0.19369003176689147949
0.095243781805038452148 -0.035673819482326507568 0.19840952754020690918
0.096761018037796020508 -0.024726992473006248474 0.20189276337623596191
0.098011486232280731201 -0.013411695137619972229 0.20401671528816223145
0.1299921870231628418 -0.0039947996847331523895 0.2558040618896484375
0.13101495802402496338 0.013602099381387233734 0.25510299205780029297
0.13208055496215820312 0.030989158898591995239 0.25208649039268493652
0.13291954994201660156 0.047937631607055664062 0.2468983083963394165
0.13318260014057159424 0.064262658357620239258 0.23976023495197296143
0.13246268033981323242 0.079818077385425567627 0.23094442486763000488
0.13033737242221832275 0.094477280974388122559 0.22076429426670074463
0.1264371722936630249 0.10812348127365112305 0.20958329737186431885
0.12050303071737289429 0.12064456939697265625 0.19780647754669189453
0.11240614205598831177 0.13193638622760772705 0.18586117029190063477
0.1021372675895690918 0.14190040528774261475 0.17416846752166748047
0.089786201715469360352 0.15044544637203216553 0.16312979161739349365
0.07552318274974822998 0.15748967230319976807 0.15312056243419647217
0.059585049748420715332 0.16296559572219848633 0.14449249207973480225
0.04226735234260559082 0.16682648658752441406 0.13757900893688201904
0.023926259949803352356 0.16905170679092407227 0.13268683850765228271
0.0049790167249739170074 0.16965171694755554199 0.13008908927440643311
-0.014097726903855800629 0.16866819560527801514 0.12999872863292694092
-0.032780442386865615845 0.16616703569889068604 0.13252720236778259277
-0.050529856234788894653 0.16222783923149108887 0.13764685392379760742
-0.066843137145042419434 0.15693253278732299805 0.14516647160053253174
-0.081315532326698303223 0.15035620331764221191 0.15473693609237670898
-0.093684412539005279541 0.14255982637405395508 0.16589429974555969238
-0.10384067893028259277 0.1335827261209487915 0.17811603844165802002
-0.11180984228849411011 0.12343896180391311646 0.19086660444736480713
-0.11773019284009933472 0.1121230199933052063 0.20362129807472229004
-0.12183165550231933594 0.09962704777717590332 0.21587972342967987061
-0.12443099915981292725 0.085961028933525085449 0.2271738201379776001
-0.12591861188411712646 0.071176998317241668701 0.23708520829677581787
-0.12672258913516998291 0.05538393557071685791 0.24525530636310577393
-0.1272494196891784668 0.038757957518100738525 0.25139647722244262695
-0.12782040238380432129 0.02153834514319896698 0.25530537962913513184
-0.12862321734428405762 0.0040029864758253097534 0.25687745213508605957
-0.12966933846473693848 -0.013569470494985580444 0.25608694553375244141
-0.1308002471923828125 -0.030916593968868255615 0.25298488140106201172
-0.13173699378967285156 -0.047812182456254959106 0.24770934879779815674
-0.13211956620216369629 -0.064074277877807617188 0.24047797918319702148
-0.13152939081192016602 -0.079559586942195892334 0.23155954480171203613
-0.12953402101993560791 -0.094144403934478759766 0.22126625478267669678
-0.12575763463973999023 -0.10771514475345611572 0.20996291935443878174
-0.11993871629238128662 -0.1201632767915725708 0.19805727899074554443
-0.11194876581430435181 -0.13138817250728607178 0.18597882986068725586
-0.10177940130233764648 -0.14129424095153808594 0.17414943873882293701
-0.089520543813705444336 -0.14979222416877746582 0.16297012567520141602
-0.07534122467041015625 -0.1568012237548828125 0.15281558036804199219
-0.05947589874267578125 -0.16225400567054748535 0.14403741061687469482
-0.042216915637254714966 -0.16610378026962280273 0.13697005808353424072
-0.023917064070701599121 -0.16832982003688812256 0.13192291557788848877
-0.0049906177446246147156 -0.1689427793025970459 0.12917321920394897461
0.014087710529565811157 -0.16798460483551025391 0.1289389878511428833
0.032794866710901260376 -0.16552114486694335938 0.13133674860000610352
0.050590563565492630005 -0.16163112223148345947 0.13634298741817474365
0.066969826817512512207 -0.15639439225196838379 0.14376904070377349854
0.081525251269340515137 -0.14988310635089874268 0.15326660871505737305
0.093991689383983612061 -0.14215502142906188965 0.16437141597270965576
0.10425788909196853638 -0.13324654102325439453 0.17656013369560241699
0.11234736442565917969 -0.12316932529211044312 0.18929673731327056885
0.11839602887630462646 -0.11191592365503311157 0.20205634832382202148
0.12263073772192001343 -0.099476821720600128174 0.21433866024017333984
0.12536419928073883057 -0.08586060255765914917 0.22567556798458099365
0.12698148190975189209 -0.071118049323558807373 0.2356481403112411499
0.12790371477603912354 -0.055356774479150772095 0.24389618635177612305
0.12852847576141357422 -0.038751177489757537842 0.25012877583503723145
0.12916575372219085693 -0.021538460627198219299 0.25413584709167480469
0.1424563676118850708 -0.0065599810332059860229 0.31249654293060302734
0.14351409673690795898 0.017650965601205825806 0.3118267357349395752
0.14554870128631591797 0.041605673730373382568 0.30775246024131774902
0.14814285933971405029 0.064937777817249298096 0.30052712559700012207
0.15072292089462280273 0.087355993688106536865 0.29050040245056152344
0.15257626771926879883 0.10863642394542694092 0.2780176997184753418
0.15290756523609161377 0.12859480082988739014 0.26343783736228942871
0.15096522867679595947 0.14706610143184661865 0.24720333516597747803
0.14617618918418884277 0.16390153765678405762 0.22987501323223114014
0.13820879161357879639 0.17896834015846252441 0.2120955735445022583
0.12696525454521179199 0.1921504288911819458 0.19452925026416778564
0.11253464221954345703 0.20334830880165100098 0.17781814932823181152
0.095154099166393280029 0.21247918903827667236 0.16255968809127807617
0.075179375708103179932 0.21948246657848358154 0.14929947257041931152
0.053055867552757263184 0.22432531416416168213 0.13854853808879852295
0.029315015301108360291 0.22700789570808410645 0.13078738749027252197
0.0045837447978556156158 0.22756877541542053223 0.12644645571708679199
-0.020412754267454147339 0.22608986496925354004 0.12588386237621307373
-0.044859569519758224487 0.22268697619438171387 0.12930722534656524658
-0.067899927496910095215 0.21749089658260345459 0.13669948279857635498
-0.0887239798903465271 0.2106205672025680542 0.14776812493801116943
-0.10668168962001800537 0.20215746760368347168 0.16195039451122283936
-0.12136384099721908569 0.19213658571243286133 0.178495749831199646
-0.13262704014778137207 0.18055190145969390869 0.19657573103904724121
-0.14055122435092926025 0.16736808419227600098 0.21537549793720245361
-0.14539486169815063477 0.15253272652626037598 0.23412871360778808594
-0.14755709469318389893 0.13600327074527740479 0.25213083624839782715
-0.14758102595806121826 0.11776948720216751099 0.26873677968978881836
-0.14614602923393249512 0.097883217036724090576 0.28337028622627258301
-0.1440331190824508667 0.076485484838485717773 0.29554319381713867188
-0.14202104508876800537 0.053828846663236618042 0.30485305190086364746
-0.14074102044105529785 0.030270930379629135132 0.31097275018692016602
-0.14058279991149902344 0.0062172655016183853149 0.31368887424468994141
-0.14165741205215454102 -0.017961120232939720154 0.31289964914321899414
-0.14377738535404205322 -0.041857279837131500244 0.30872207880020141602
-0.1465085446834564209 -0.065108016133308410645 0.30139014124870300293
-0.14926326274871826172 -0.087427072227001190186 0.29125234484672546387
-0.15131120383739471436 -0.10859575122594833374 0.27864944934844970703
-0.15184016525745391846 -0.12843574583530426025 0.26393720507621765137
-0.15008668601512908936 -0.14678867161273956299 0.24755899608135223389
-0.14547230303287506104 -0.16351237893104553223 0.23007920384407043457
-0.13766524195671081543 -0.17847971618175506592 0.21214371919631958008
-0.12656965851783752441 -0.19157831370830535889 0.19441747665405273438
-0.11227590590715408325 -0.20271050930023193359 0.17754104733467102051
-0.095020517706871032715 -0.21179376542568206787 0.16210944950580596924
-0.075156509876251220703 -0.2187668532133102417 0.14866662025451660156
-0.053124852478504180908 -0.22359620034694671631 0.13772368431091308594
-0.029451495036482810974 -0.22628158330917358398 0.12976405024528503418
-0.0047579766251146793365 -0.22686180472373962402 0.12522421777248382568
0.020234521478414535522 -0.22541958093643188477 0.12447085976600646973
0.044712461531162261963 -0.22207130491733551025 0.12772096693515777588
0.067817442119121551514 -0.21694733202457427979 0.13496565818786621094
0.08873567730188369751 -0.21016421914100646973 0.14591765403747558594
0.10681231319904327393 -0.20179910957813262939 0.16001600027084350586
0.12163385003805160522 -0.19188170135021209717 0.1765092015266418457
0.13305380940437316895 -0.18040080368518829346 0.19456666707992553711
0.14114978909492492676 -0.16731692850589752197 0.21337151527404785156
0.14617761969566345215 -0.15257452428340911865 0.23215585947036743164
0.14853264391422271729 -0.13612864911556243896 0.25021395087242126465
0.1487528383731842041 -0.11796738952398300171 0.26689925789833068848
0.14751067757606506348 -0.098141483962535858154 0.28163376450538635254
0.14557787775993347168 -0.076790988445281982422 0.29392695426940917969
0.14372131228446960449 -0.05416646227240562439 0.30337312817573547363
0.14255733788013458252 -0.030621849000453948975 0.30963903665542602539
0.13609221577644348145 -0.0095996744930744171143 0.36761379241943359375
0.13723462820053100586 0.021937886252999305725 0.36672535538673400879
0.14095349609851837158 0.053187109529972076416 0.36137700080871582031
0.14653360843658447266 0.0835626944899559021 0.3520832061767578125
0.15305562317371368408 0.11260765790939331055 0.33938843011856079102
0.15940181910991668701 0.13997443020343780518 0.32362037897109985352
0.16428542137145996094 0.16540081799030303955 0.30501794815063476562
0.16641734540462493896 0.1886834949254989624 0.28395727276802062988
0.16475881636142730713 0.20967122912406921387 0.26108703017234802246
0.15866340696811676025 0.22824946045875549316 0.23727887868881225586
0.14788474142551422119 0.24432936310768127441 0.21349282562732696533
0.13250368833541870117 0.25783878564834594727 0.19067014753818511963
0.11283554136753082275 0.26872551441192626953 0.16968928277492523193
0.089385680854320526123 0.27695691585540771484 0.15133681893348693848
0.062799237668514251709 0.28252518177032470703 0.13632027804851531982
0.033831045031547546387 0.28545814752578735352 0.12530849874019622803
0.0033663513604551553726 0.2858295738697052002 0.11891502887010574341
-0.027564706280827522278 0.28377255797386169434 0.11768344789743423462
-0.057778719812631607056 0.27947118878364562988 0.12195907533168792725
-0.085997045040130615234 0.27313452959060668945 0.1317755281925201416
-0.11098748445510864258 0.26493600010871887207 0.14673623442649841309
-0.13175779581069946289 0.25496041774749755859 0.16600708663463592529
-0.14770969748497009277 0.2431828230619430542 0.18845662474632263184
-0.15867972373962402344 0.2294896245002746582 0.21285232901573181152
-0.16485717892646789551 0.21372380852699279785 0.23803162574768066406
-0.16668711602687835693 0.19572265446186065674 0.26296153664588928223
-0.16480116546154022217 0.17535807192325592041 0.28674286603927612305
-0.16002997756004333496 0.15256237983703613281 0.30858525633811950684
-0.15342892706394195557 0.12736691534519195557 0.32781183719635009766
-0.14627429842948913574 0.099945791065692901611 0.34387657046318054199
-0.13992397487163543701 0.070671573281288146973 0.35635584592819213867
-0.13551566004753112793 0.040115725249052047729 0.36482736468315124512
-0.13372302055358886719 0.0088985972106456756592 0.36877486109733581543
-0.13486367464065551758 -0.0226060524582862854 0.36772704124450683594
-0.1386931687593460083 -0.053783707320690155029 0.36226755380630493164
-0.14446030557155609131 -0.084048613905906677246 0.35284671187400817871
-0.15122620761394500732 -0.11295516788959503174 0.34003081917762756348
-0.15784649550914764404 -0.14016273617744445801 0.32413908839225769043
-0.163008078932762146 -0.16541863977909088135 0.30540102720260620117
-0.16540233790874481201 -0.18853119015693664551 0.28419041633605957031
-0.16398108005523681641 -0.20936073362827301025 0.26116013526916503906
-0.15809796750545501709 -0.22780163586139678955 0.23718704283237457275
-0.14751136302947998047 -0.24377007782459259033 0.21323263645172119141
-0.132306709885597229 -0.25719529390335083008 0.19023546576499938965
-0.11280080676078796387 -0.26802399754524230957 0.16906900703907012939
-0.089496970176696777344 -0.27622139453887939453 0.15051524341106414795
-0.063034981489181518555 -0.28177732229232788086 0.13527950644493103027
-0.034161813557147979736 -0.28471809625625610352 0.12403266876935958862
-0.0037539938930422067642 -0.28511729836463928223 0.11739595979452133179
0.027165602892637252808 -0.28310918807983398438 0.11592597514390945435
0.057416502386331558228 -0.27887934446334838867 0.11998381465673446655
0.085717588663101196289 -0.27263736724853515625 0.12961757183074951172
0.11082981526851654053 -0.26455458998680114746 0.14444030821323394775
0.13175262510776519775 -0.2547104954719543457 0.16362130641937255859
0.14788109064102172852 -0.24307249486446380615 0.18602731823921203613
0.15904818475246429443 -0.22951896488666534424 0.21042163670063018799
0.16544197499752044678 -0.21388617157936096191 0.23563764989376068115
0.16750635206699371338 -0.19600658118724822998 0.26063945889472961426
0.16587008535861968994 -0.17574900388717651367 0.28452533483505249023
0.16135865449905395508 -0.15304443240165710449 0.30650162696838378906
0.15501990914344787598 -0.12792487442493438721 0.32588711380958557129
0.14811883866786956787 -0.10056642442941665649 0.34212991595268249512
0.14199668169021606445 -0.071341700851917266846 0.35479873418807983398
0.13777196407318115234 -0.04081490635871887207 0.36346620321273803711
0.11508697271347045898 -0.012894900515675544739 0.41542214155197143555
0.11670780926942825317 0.026732536032795906067 0.41383141279220581055
0.123038463294506073 0.066088899970054626465 0.40700709819793701172
0.13273455202579498291 0.10425729304552078247 0.39586612582206726074
0.14444251358509063721 0.14053887128829956055 0.38118499517440795898
0.15665601193904876709 0.17438609898090362549 0.36311280727386474609
0.16760633885860443115 0.20542183518409729004 0.34153780341148376465
0.17540782690048217773 0.23341704905033111572 0.3165467381477355957
0.17843070626258850098 0.2582683861255645752 0.28875389695167541504
0.17558960616588592529 0.27994796633720397949 0.25924894213676452637
0.16641454398632049561 0.29845833778381347656 0.22934739291667938232
0.15094485878944396973 0.31381085515022277832 0.20037312805652618408
0.12958957254886627197 0.32602334022521972656 0.17355038225650787354
0.10302767902612686157 0.33511856198310852051 0.14996547996997833252
0.072156451642513275146 0.34112283587455749512 0.13054281473159790039
0.038009408861398696899 0.34409049153327941895 0.11612728983163833618
0.0017689205706119537354 0.34412738680839538574 0.10750981420278549194
-0.035199038684368133545 0.34142512083053588867 0.10544071346521377563
-0.071295127272605895996 0.33625462651252746582 0.11044651269912719727
-0.10473925620317459106 0.32893285155296325684 0.12266199290752410889
-0.13376073539257049561 0.31971761584281921387 0.14160721004009246826
-0.15690416097640991211 0.30870163440704345703 0.16614010930061340332
-0.17332300543785095215 0.29576000571250915527 0.19464345276355743408
-0.18285092711448669434 0.28059315681457519531 0.22536903619766235352
-0.18586964905261993408 0.26282587647438049316 0.25672808289527893066
-0.18310172855854034424 0.24210146069526672363 0.28739649057388305664
-0.17549374699592590332 0.21814033389091491699 0.31629961729049682617
-0.16420957446098327637 0.1907749176025390625 0.34256502985954284668
-0.15072736144065856934 0.15998859703540802002 0.36552411317825317383
-0.13688895106315612793 0.12599064409732818604 0.38474047183990478516
-0.12477108091115951538 0.089328363537788391113 0.39998209476470947266
-0.11622399836778640747 0.050937972962856292725 0.41092473268508911133
-0.11230967193841934204 0.011866082437336444855 0.41644787788391113281
-0.11389054358005523682 -0.027736172080039978027 0.41463431715965270996
-0.1203797757625579834 -0.067019224166870117188 0.40770748257637023926
-0.13032923638820648193 -0.10505173355340957642 0.39640951156616210938
-0.14236056804656982422 -0.14116048812866210938 0.38160178065299987793
-0.15493306517601013184 -0.17480105161666870117 0.36341241002082824707
-0.16624277830123901367 -0.20560948550701141357 0.34170955419540405273
-0.17437718808650970459 -0.2333755195140838623 0.31657236814498901367
-0.17769262194633483887 -0.25801491737365722656 0.2886200249195098877
-0.17510427534580230713 -0.27951413393020629883 0.25895094871520996094
-0.166151389479637146 -0.29788300395011901855 0.22888448834419250488
-0.15088321268558502197 -0.31313380599021911621 0.19974082708358764648
-0.1297143101692199707 -0.32528129220008850098 0.17273578047752380371
-0.10332333296537399292 -0.33434349298477172852 0.148946419358253479
-0.072601906955242156982 -0.3403415679931640625 0.12929072976112365723
-0.038573402911424636841 -0.34332612156867980957 0.1146128922700881958
-0.0024074052926152944565 -0.34340143203735351562 0.10571198910474777222
0.034541998058557510376 -0.34076032042503356934 0.10335624963045120239
0.070681057870388031006 -0.33567652106285095215 0.1080964505672454834
0.1042262837290763855 -0.32846927642822265625 0.1200908273458480835
0.13339582085609436035 -0.31939548254013061523 0.13887560367584228516
0.15672042965888977051 -0.30854213237762451172 0.16331441700458526611
0.17334310710430145264 -0.29577437043190002441 0.19178687036037445068
0.18309350311756134033 -0.28078094124794006348 0.22253744304180145264
0.18635472655296325684 -0.26317632198333740234 0.25397053360939025879
0.18385216593742370605 -0.24259611964225769043 0.28475767374038696289
0.17653311789035797119 -0.21875631809234619141 0.31382173299789428711
0.16555830836296081543 -0.19148854911327362061 0.34028667211532592773
0.15239977836608886719 -0.16078068315982818604 0.36347764730453491211
0.1388893425464630127 -0.12685216963291168213 0.38294869661331176758
0.12708264589309692383 -0.090260706841945648193 0.39845010638236999512
0.11880200356245040894 -0.0519331321120262146 0.40963289141654968262
0.085679545998573303223 -0.016039513051509857178 0.45376494526863098145
0.088395886123180389404 0.032359443604946136475 0.4506365358829498291
0.098177567124366760254 0.080581896007061004639 0.44200420379638671875
0.11257428675889968872 0.12726019322872161865 0.42922210693359375
0.1298602670431137085 0.17135578393936157227 0.41330447793006896973
0.14831526577472686768 0.21204484999179840088 0.39407610893249511719
0.16586130857467651367 0.24880070984363555908 0.37086921930313110352
0.18008111417293548584 0.28136798739433288574 0.34323525428771972656
0.1886987537145614624 0.30973413586616516113 0.31156775355339050293
0.19006362557411193848 0.3340294957160949707 0.27710580825805664062
0.18333888053894042969 0.35442948341369628906 0.24155454337596893311
0.1684424281120300293 0.37109953165054321289 0.20670160651206970215
0.14585286378860473633 0.38417845964431762695 0.1742009967565536499
0.11644771695137023926 0.39377266168594360352 0.14549310505390167236
0.081412009894847869873 0.39995262026786804199 0.12175699323415756226
0.042115967720746994019 0.40278381109237670898 0.10399769246578216553
8.2261147326789796352e-05 0.4023838043212890625 0.093138329684734344482
-0.042973794043064117432 0.39899581670761108398 0.090123943984508514404
-0.085025757551193237305 0.39299958944320678711 0.095699734985828399658
-0.12374778836965560913 0.38485217094421386719 0.11014830321073532104
-0.15673531591892242432 0.37493175268173217773 0.13294428586959838867
-0.18195520341396331787 0.36335635185241699219 0.16261348128318786621
-0.19822545349597930908 0.34986847639083862305 0.19695720076560974121
-0.20541654527187347412 0.33389496803283691406 0.23358869552612304688
-0.20422670245170593262 0.31472727656364440918 0.27041777968406677246
-0.19582688808441162109 0.2917118370532989502 0.30584216117858886719
-0.18160952627658843994 0.26434844732284545898 0.33868822455406188965
-0.16312208771705627441 0.23233993351459503174 0.36811816692352294922
-0.14220900833606719971 0.19561313092708587646 0.39363697171211242676
-0.12115167081356048584 0.15441463887691497803 0.4151401221752166748
-0.10260740667581558228 0.10950400680303573608 0.43279123306274414062
-0.089217416942119598389 0.062332645058631896973 0.44659447669982910156
-0.082627408206462860107 0.014731375500559806824 0.45463743805885314941
-0.085230283439159393311 -0.033658079802989959717 0.45118877291679382324
-0.095273576676845550537 -0.081813819706439971924 0.44247958064079284668
-0.11000203341245651245 -0.12834289669990539551 0.42948698997497558594
-0.127691611647605896 -0.17224182188510894775 0.41343003511428833008
-0.14658524096012115479 -0.21267902851104736328 0.39408862590789794922
-0.16456332802772521973 -0.24914783239364624023 0.37076258659362792969
-0.17917612195014953613 -0.28142121434211730957 0.34298905730247497559
-0.18812894821166992188 -0.30951526761054992676 0.31116616725921630859
-0.18977147340774536133 -0.33358237147331237793 0.27654626965522766113
-0.18328109383583068848 -0.35380890965461730957 0.24084180593490600586
-0.16859267652034759521 -0.37036111950874328613 0.2058363109827041626
-0.14619609713554382324 -0.38337221741676330566 0.17317116260528564453
-0.11697171628475189209 -0.39294010400772094727 0.14427140355110168457
-0.082099519670009613037 -0.3991260528564453125 0.12030321359634399414
-0.042937744408845901489 -0.40198799967765808105 0.10226567834615707397
-0.00099194957874715328217 -0.40163919329643249512 0.091088369488716125488
0.042040411382913589478 -0.39832365512847900391 0.087738744914531707764
0.084142789244651794434 -0.39242580533027648926 0.092996723949909210205
0.1229854971170425415 -0.38440755009651184082 0.10718028247356414795
0.15614728629589080811 -0.37464848160743713379 0.12978911399841308594
0.18157334625720977783 -0.36326140165328979492 0.1593580394983291626
0.19806529581546783447 -0.3499768376350402832 0.19368337094783782959
0.20548830926418304443 -0.33420610427856445312 0.23036679625511169434
0.2045453190803527832 -0.31522578001022338867 0.2673073112964630127
0.19641624391078948975 -0.2923704683780670166 0.30289548635482788086
0.18250103294849395752 -0.26513254642486572266 0.33595496416091918945
0.16434930264949798584 -0.23321352899074554443 0.3656463921070098877
0.14380250871181488037 -0.19654892385005950928 0.39147046208381652832
0.12313675135374069214 -0.15540829300880432129 0.41331398487091064453
0.1049874722957611084 -0.11058624833822250366 0.43131712079048156738
0.091946579515933990479 -0.063535794615745544434 0.44539740681648254395
0.053054120391607284546 -0.018617125228047370911 0.48300856351852416992
0.057804863899946212769 0.039061173796653747559 0.47715207934379577637
0.071772754192352294922 0.096719875931739807129 0.4662354588508605957
0.090953513979911804199 0.15246282517910003662 0.45187968015670776367
0.11348646879196166992 0.20478658378124237061 0.43527081608772277832
0.1376918107271194458 0.25257512927055358887 0.41582694649696350098
0.16145646572113037109 0.29513871669769287109 0.39222878217697143555
0.1820351332426071167 0.33217072486877441406 0.36330837011337280273
0.19653713703155517578 0.36375623941421508789 0.3290252685546875
0.20263552665710449219 0.39023217558860778809 0.29062104225158691406
0.19897577166557312012 0.41201537847518920898 0.25014540553092956543
0.18520091474056243896 0.42950356006622314453 0.20989635586738586426
0.16177515685558319092 0.44302281737327575684 0.17204408347606658936
0.12976832687854766846 0.45279771089553833008 0.13845247030258178711
0.090671762824058532715 0.45895266532897949219 0.11061920970678329468
0.046259444206953048706 0.46153882145881652832 0.089694410562515258789
-0.001555648166686296463 0.46064659953117370605 0.076679632067680358887
-0.050698637962341308594 0.45654907822608947754 0.072674475610256195068
-0.098723106086254119873 0.4497591555118560791 0.078671015799045562744
-0.14274129271507263184 0.44091120362281799316 0.095137387514114379883
-0.17965561151504516602 0.43053865432739257812 0.12152728438377380371
-0.20673160254955291748 0.4188137352466583252 0.15603125095367431641
-0.22236666083335876465 0.40532541275024414062 0.1957696378231048584
-0.22649993002414703369 0.38913109898567199707 0.23757450282573699951
-0.22033505141735076904 0.36906513571739196777 0.2787933051586151123
-0.20572304725646972656 0.34406962990760803223 0.31759336590766906738
-0.1846974790096282959 0.31338772177696228027 0.35289460420608520508
-0.15928222239017486572 0.27659854292869567871 0.3841387331485748291
-0.13155162334442138672 0.23361158370971679688 0.41120740771293640137
-0.10385438799858093262 0.18472346663475036621 0.43447262048721313477
-0.078945852816104888916 0.13084670901298522949 0.45452934503555297852
-0.060090985149145126343 0.073940947651863098145 0.47180515527725219727
-0.049863539636135101318 0.017091151326894760132 0.48377570509910583496
-0.054380994290113449097 -0.040623560547828674316 0.4774754941463470459
-0.068785332143306732178 -0.098213016986846923828 0.4665056765079498291
-0.08838030695915222168 -0.15381339192390441895 0.45185860991477966309
-0.11139424890279769897 -0.20592255890369415283 0.43508505821228027344
-0.13611024618148803711 -0.25341245532035827637 0.41552245616912841797
-0.16036912798881530762 -0.29562720656394958496 0.39180776476860046387
-0.18138954043388366699 -0.33229845762252807617 0.36275213956832885742
-0.19625721871852874756 -0.36354908347129821777 0.32831785082817077637
-0.20264390110969543457 -0.38974645733833312988 0.28976345062255859375
-0.19921381771564483643 -0.41132339835166931152 0.24915064871311187744
-0.18563498556613922119 -0.42867928743362426758 0.20877368748188018799
-0.1623904109001159668 -0.44213208556175231934 0.17078605294227600098
-0.1305576711893081665 -0.45189321041107177734 0.13702915608882904053
-0.091624870896339416504 -0.45807272195816040039 0.10897926241159439087
-0.047353081405162811279 -0.46070846915245056152 0.087772421538829803467
0.00036600817111320793629 -0.45988243818283081055 0.074411697685718536377
0.049482610076665878296 -0.45586729049682617188 0.070022203028202056885
0.097566641867160797119 -0.44918304681777954102 0.075643233954906463623
0.14172714948654174805 -0.44047263264656066895 0.091793164610862731934
0.17884381115436553955 -0.43027412891387939453 0.11796214431524276733
0.20615072548389434814 -0.41875576972961425781 0.15235419571399688721
0.22202035784721374512 -0.40549299120903015137 0.19208250939846038818
0.22638405859470367432 -0.38952386379241943359 0.23396293818950653076
0.22045312821865081787 -0.36966341733932495117 0.27532762289047241211
0.20609426498413085938 -0.34483799338340759277 0.31433346867561340332
0.18535815179347991943 -0.31427884101867675781 0.34989279508590698242
0.16028155386447906494 -0.27756074070930480957 0.38144674897193908691
0.13294200599193572998 -0.23460304737091064453 0.40887928009033203125
0.1056865006685256958 -0.18573741614818572998 0.43256577849388122559
0.081247672438621520996 -0.13195057213306427002 0.45308473706245422363
0.062807008624076843262 -0.075242586433887481689 0.47067359089851379395
0.020625336095690727234 -0.020225610584020614624 0.50409936904907226562
0.028898945078253746033 0.046893112361431121826 0.49450919032096862793
0.047678843140602111816 0.11429939419031143188 0.48096174001693725586
0.071388602256774902344 0.17941819131374359131 0.46504724025726318359
0.098413519561290740967 0.24015112221240997314 0.44801881909370422363
0.12737630307674407959 0.29516023397445678711 0.4289073944091796875
0.15640217065811157227 0.34360322356224060059 0.40578892827033996582
0.18267145752906799316 0.38507783412933349609 0.37671607732772827148
0.20280826091766357422 0.4197241365909576416 0.3410415351390838623
0.21377703547477722168 0.44808465242385864258 0.29981750249862670898
0.2135546952486038208 0.47086435556411743164 0.25530722737312316895
0.20134539902210235596 0.48876294493675231934 0.21028546988964080811
0.17745579779148101807 0.50236719846725463867 0.16749243438243865967
0.1430746912956237793 0.51207387447357177734 0.12931247055530548096
0.10001698881387710571 0.51806777715682983398 0.0976238250732421875
0.050509691238403320312 0.52035665512084960938 0.073739513754844665527
-0.0030823689885437488556 0.51894766092300415039 0.058686602860689163208
-0.058308035135269165039 0.51409602165222167969 0.053657855838537216187
-0.11232099682092666626 0.50649040937423706055 0.05993747711181640625
-0.16167241334915161133 0.49698263406753540039 0.078207157552242279053
-0.2025464475154876709 0.48629134893417358398 0.10790283232927322388
-0.23141929507255554199 0.47467300295829772949 0.1468731313943862915
-0.24613112211227416992 0.46157190203666687012 0.19149011373519897461
-0.24670664966106414795 0.44558575749397277832 0.23765294253826141357
-0.23507341742515563965 0.42493936419486999512 0.28207167983055114746
-0.21402576565742492676 0.39808791875839233398 0.32280069589614868164
-0.18642264604568481445 0.36401343345642089844 0.35903406143188476562
-0.15484440326690673828 0.3222745060920715332 0.39082771539688110352
-0.12147711962461471558 0.27287647128105163574 0.41872286796569824219
-0.088319092988967895508 0.21619389951229095459 0.44357439875602722168
-0.057626515626907348633 0.15308977663516998291 0.46622586250305175781
-0.03277630731463432312 0.085647881031036376953 0.48753425478935241699
-0.017408441752195358276 0.018571918830275535583 0.50482535362243652344
-0.025290263816714286804 -0.048711463809013366699 0.4946651160717010498
-0.044742695987224578857 -0.11601436883211135864 0.48106211423873901367
-0.068946853280067443848 -0.18101707100868225098 0.46476379036903381348
-0.096527047455310821533 -0.24151024222373962402 0.44753667712211608887
-0.12606830894947052002 -0.29616749286651611328 0.4282900691032409668
-0.15564422309398651123 -0.34420052170753479004 0.40504863858222961426
-0.18239626288414001465 -0.38525128364562988281 0.37583968043327331543
-0.20292066037654876709 -0.41950327157974243164 0.34001570940017700195
-0.21417807042598724365 -0.44753664731979370117 0.29864835739135742188
-0.2141675800085067749 -0.47007849812507629395 0.25401735305786132812
-0.20212644338607788086 -0.4878323674201965332 0.20889568328857421875
-0.17838928103446960449 -0.50137531757354736328 0.16600361466407775879
-0.14415958523750305176 -0.51108634471893310547 0.12769575417041778564
-0.10125268250703811646 -0.51712948083877563477 0.095818914473056793213
-0.051882795989513397217 -0.51949191093444824219 0.071660771965980529785
0.0016102654626592993736 -0.5181662440299987793 0.056240785866975784302
0.0568086281418800354 -0.51340544223785400391 0.050777733325958251953
0.11089144647121429443 -0.50590872764587402344 0.056617870926856994629
0.16040892899036407471 -0.49654120206832885742 0.074511118233203887939
0.20151658356189727783 -0.48602980375289916992 0.10394350439310073853
0.23064821958541870117 -0.47462922334671020508 0.14278265833854675293
0.24560837447643280029 -0.46176868677139282227 0.18739081919193267822
0.24640907347202301025 -0.44602212309837341309 0.23364493250846862793
0.23498935997486114502 -0.42559164762496948242 0.27823796868324279785
0.21416419744491577148 -0.39891403913497924805 0.31921145319938659668
0.1868181079626083374 -0.36495664715766906738 0.35574755072593688965
0.15556062757968902588 -0.32326808571815490723 0.38788992166519165039
0.12259645760059356689 -0.27385896444320678711 0.41618829965591430664
0.089922919869422912598 -0.21714220941066741943 0.44152587652206420898
0.059757903218269348145 -0.15409836173057556152 0.46475180983543395996
0.035361275076866149902 -0.086934335529804229736 0.4864177405834197998
-0.0092909811064600944519 -0.020416636019945144653 0.51781541109085083008
0.0043051042594015598297 0.055608432739973068237 0.50430256128311157227
0.02827836945652961731 0.13292358815670013428 0.48811069130897521973
0.056047715246677398682 0.20749206840991973877 0.47068396210670471191
0.086679279804229736328 0.27659621834754943848 0.45328220725059509277
0.11928895115852355957 0.33882516622543334961 0.43464687466621398926
0.15241703391075134277 0.39319902658462524414 0.41240370273590087891
0.18339215219020843506 0.43917223811149597168 0.38390323519706726074
0.20853081345558166504 0.47686201333999633789 0.34781870245933532715
0.22414565086364746094 0.50697219371795654297 0.30482882261276245117
0.22747054696083068848 0.53051042556762695312 0.25722101330757141113
0.21711467206478118896 0.54853570461273193359 0.20813262462615966797
0.19306617975234985352 0.56196832656860351562 0.16086630523204803467
0.1565199047327041626 0.57143425941467285156 0.11839757859706878662
0.10958455502986907959 0.57719492912292480469 0.083068281412124633789
0.054969985038042068481 0.57918590307235717773 0.056408487260341644287
-0.0044313082471489906311 0.57725381851196289062 0.039409786462783813477
-0.065770618617534637451 0.57154947519302368164 0.033273011445999145508
-0.12583318352699279785 0.56301230192184448242 0.039669256657361984253
-0.1806246340274810791 0.55275475978851318359 0.059517197310924530029
-0.22562879323959350586 0.54170501232147216797 0.092232182621955871582
-0.25651568174362182617 0.53023159503936767578 0.13530628383159637451
-0.2704016268253326416 0.51768845319747924805 0.18435822427272796631
-0.26731103658676147461 0.50216257572174072266 0.23422124981880187988
-0.25005599856376647949 0.48111546039581298828 0.28089168667793273926
-0.22263860702514648438 0.45239144563674926758 0.32242107391357421875
-0.18889850378036499023 0.4147472083568572998 0.35852566361427307129
-0.15195383131504058838 0.36785715818405151367 0.38991624116897583008
-0.11402575671672821045 0.3120397031307220459 0.41798600554466247559
-0.076578401029109954834 0.24784892797470092773 0.44418433308601379395
-0.040937978774309158325 0.17585170269012451172 0.46943825483322143555
-0.0098889358341693878174 0.09748875349760055542 0.49501726031303405762
0.012467974796891212463 0.018742984160780906677 0.51854950189590454102
-0.00057296064915135502815 -0.057672131806612014771 0.50434476137161254883
-0.025493482127785682678 -0.13482753932476043701 0.48807555437088012695
-0.053821984678506851196 -0.20931228995323181152 0.47017723321914672852
-0.08508145064115524292 -0.27813225984573364258 0.45254012942314147949
-0.11833992600440979004 -0.33994978666305541992 0.43374502658843994141
-0.15207393467426300049 -0.39385774731636047363 0.4113635718822479248
-0.18356983363628387451 -0.43935367465019226074 0.38271996378898620605
-0.20911352336406707764 -0.47659832239151000977 0.34648457169532775879
-0.22501173615455627441 -0.50633853673934936523 0.30335599184036254883
-0.22852237522602081299 -0.52961045503616333008 0.25564172863960266113
-0.21829496324062347412 -0.54748106002807617188 0.20648051798343658447
-0.19435584545135498047 -0.56086099147796630859 0.15915414690971374512
-0.15792408585548400879 -0.57035458087921142578 0.11660203337669372559
-0.11111460626125335693 -0.57619506120681762695 0.081123672425746917725
-0.056625992059707641602 -0.57828879356384277344 0.054209671914577484131
0.0026773235294967889786 -0.57645946741104125977 0.036829911172389984131
0.063988603651523590088 -0.5708529353141784668 0.030207358300685882568
0.12413104623556137085 -0.56242465972900390625 0.036093622446060180664
0.17911344766616821289 -0.55230575799942016602 0.055496804416179656982
0.22438542544841766357 -0.54143673181533813477 0.087897755205631256104
0.25556334853172302246 -0.53018671274185180664 0.13081386685371398926
0.26971682906150817871 -0.51789438724517822266 0.1798511892557144165
0.26685005426406860352 -0.50261795520782470703 0.22981195151805877686
0.249787941575050354 -0.48179024457931518555 0.27667072415351867676
0.22256295382976531982 -0.45323812961578369141 0.31847652792930603027
0.18904085457324981689 -0.41570436954498291016 0.35492998361587524414
0.15238071978092193604 -0.36884891986846923828 0.38671904802322387695
0.11485312134027481079 -0.3129844963550567627 0.41522496938705444336
0.077933073043823242188 -0.2486924976110458374 0.44195729494094848633
0.042869515717029571533 -0.17668500542640686035 0.46788221597671508789
0.012286046519875526428 -0.098665073513984680176 0.49386921525001525879
-0.034767087548971176147 -0.018935792148113250732 0.52510201930999755859
-0.014492319896817207336 0.064715743064880371094 0.50839304924011230469
0.014724882319569587708 0.15213148295879364014 0.48977309465408325195
0.045962750911712646484 0.23602285981178283691 0.47090545296669006348
0.079405635595321655273 0.31331008672714233398 0.45303630828857421875
0.11471781879663467407 0.38268142938613891602 0.43473172187805175781
0.15090997517108917236 0.44301259517669677734 0.41335070133209228516
0.18558512628078460693 0.49356833100318908691 0.38570284843444824219
0.21491597592830657959 0.53436625003814697266 0.3498172461986541748
0.23468816280364990234 0.56620579957962036133 0.30588954687118530273
0.24140734970569610596 0.59038996696472167969 0.25603449344635009766
0.23298543691635131836 0.60838419198989868164 0.20358793437480926514
0.2089487612247467041 0.62150418758392333984 0.15234427154064178467
0.17037227749824523926 0.63065236806869506836 0.10589440912008285522
0.11958618462085723877 0.63618558645248413086 0.067127116024494171143
0.059794664382934570312 0.63794410228729248047 0.037862300872802734375
-0.0054992595687508583069 0.63552302122116088867 0.019000796601176261902
-0.073014639317989349365 0.62881237268447875977 0.01161259133368730545
-0.13921754062175750732 0.61913144588470458984 0.017890671268105506897
-0.19959588348865509033 0.60789328813552856445 0.039039913564920425415
-0.24903538823127746582 0.59622395038604736328 0.074420191347599029541
-0.28249603509902954102 0.58464092016220092773 0.12121558189392089844
-0.2962214052677154541 0.57253116369247436523 0.17437988519668579102
-0.28989511728286743164 0.55756002664566040039 0.22762690484523773193
-0.26724511384963989258 0.53626847267150878906 0.27609738707542419434
-0.23369432985782623291 0.50572550296783447266 0.31790781021118164062
-0.19419553875923156738 0.46441933512687683105 0.35341817140579223633
-0.15242184698581695557 0.41223245859146118164 0.3841553032398223877
-0.11060135811567306519 0.3499755561351776123 0.41195222735404968262
-0.069749273359775543213 0.27866840362548828125 0.43887495994567871094
-0.030072586610913276672 0.19851091504096984863 0.46631926298141479492
0.0069343140348792076111 0.10941763222217559814 0.49591770768165588379
0.037889145314693450928 0.017306702211499214172 0.52586859464645385742
0.018297404050827026367 -0.066996239125728607178 0.50835144519805908203
-0.012157910503447055817 -0.15418903529644012451 0.48963245749473571777
-0.043988488614559173584 -0.23802044987678527832 0.47021731734275817871
-0.078137308359146118164 -0.31495720148086547852 0.45207768678665161133
-0.11417821794748306274 -0.38385680317878723145 0.43358433246612548828
-0.15103654563426971436 -0.44367608428001403809 0.41204372048377990723
-0.18627037107944488525 -0.49371352791786193848 0.38424128293991088867
-0.21602229773998260498 -0.53402656316757202148 0.34820133447647094727
-0.23607107996940612793 -0.56546080112457275391 0.30413731932640075684
-0.24294655025005340576 -0.58935457468032836914 0.25418615341186523438
-0.23460596799850463867 -0.6071872711181640625 0.20168964564800262451
-0.21062451601028442383 -0.62026697397232055664 0.15042346715927124023
-0.17211337387561798096 -0.62947130203247070312 0.10393822193145751953
-0.12141776084899902344 -0.63512134552001953125 0.065069340169429779053
-0.061733637005090713501 -0.63701748847961425781 0.035580717027187347412
0.0034662545658648014069 -0.63472115993499755859 0.016331896185874938965
0.070951156318187713623 -0.62811398506164550781 0.0084041934460401535034
0.13724160194396972656 -0.61853963136672973633 0.014095376245677471161
0.19783516228199005127 -0.60743558406829833984 0.034724481403827667236
0.24757812917232513428 -0.59594440460205078125 0.069733254611492156982
0.28136545419692993164 -0.58458662033081054688 0.1163374483585357666
0.29538306593894958496 -0.57273411750793457031 0.16947594285011291504
0.28928926587104797363 -0.55802059173583984375 0.22282288968563079834
0.26682075858116149902 -0.53695219755172729492 0.27148556709289550781
0.23343674838542938232 -0.5065758824348449707 0.31357932090759277344
0.19412599503993988037 -0.46537330746650695801 0.34947961568832397461
0.15259271860122680664 -0.41321337223052978516 0.38067477941513061523
0.11114317178726196289 -0.35088741779327392578 0.40896457433700561523
0.070855781435966491699 -0.27941936254501342773 0.43646484613418579102
0.031821861863136291504 -0.19914531707763671875 0.46465969085693359375
-0.0047300378791987895966 -0.11042930930852890015 0.49471393227577209473
-0.054050877690315246582 -0.016226073727011680603 0.52741420269012451172
-0.026979831978678703308 0.073988333344459533691 0.50863397121429443359
0.0072425734251737594604 0.17151173949241638184 0.48790192604064941406
0.041330840438604354858 0.26442772150039672852 0.46764528751373291016
0.077024511992931365967 0.34964489936828613281 0.4491291344165802002
0.114411182701587677 0.42604136466979980469 0.43084695935249328613
0.15293896198272705078 0.49232214689254760742 0.41004800796508789062
0.19051504135131835938 0.54750925302505493164 0.38317438960075378418
0.22327116131782531738 0.59146887063980102539 0.34770503640174865723
0.24660412967205047607 0.62504583597183227539 0.30332928895950317383
0.25636190176010131836 0.64983528852462768555 0.25184750556945800781
0.24973289668560028076 0.66774612665176391602 0.19663478434085845947
0.22568790614604949951 0.6805317997932434082 0.14187817275524139404
0.18505717813968658447 0.68940645456314086914 0.091780163347721099854
0.13032709062099456787 0.69482856988906860352 0.049818955361843109131
0.065189294517040252686 0.69652718305587768555 0.018174540251493453979
-0.0061469245702028274536 0.69375467300415039062 -0.0023838940542191267014
-0.079902872443199157715 0.6858761906623840332 -0.011148940771818161011
-0.15227961540222167969 0.67483580112457275391 -0.0052203615196049213409
-0.21827140450477600098 0.66234391927719116211 0.016903840005397796631
-0.2723369598388671875 0.64964181184768676758 0.054469522088766098022
-0.30911657214164733887 0.63734853267669677734 0.10441439598798751831
-0.3240356147289276123 0.62507790327072143555 0.16135449707508087158
-0.31568434834480285645 0.61046385765075683594 0.21801465749740600586
-0.28829881548881530762 0.58910584449768066406 0.26839360594749450684
-0.24894838035106658936 0.55700743198394775391 0.31057479977607727051
-0.20383815467357635498 0.51226049661636352539 0.34560024738311767578
-0.15733373165130615234 0.45481032133102416992 0.37578916549682617188
-0.11182815581560134888 0.38614255189895629883 0.40352857112884521484
-0.068075314164161682129 0.30798682570457458496 0.43080574274063110352
-0.025265244767069816589 0.22043174505233764648 0.45959708094596862793
0.017044594511389732361 0.12132222205400466919 0.4925340116024017334
0.057133007794618606567 0.014641970396041870117 0.52821338176727294922
0.030819887295365333557 -0.076437085866928100586 0.50851982831954956055
-0.0049301078543066978455 -0.17369128763675689697 0.48767840862274169922
-0.039603717625141143799 -0.26654088497161865234 0.46681079268455505371
-0.076100401580333709717 -0.35132560133934020996 0.44799292087554931641
-0.11430826038122177124 -0.42719668149948120117 0.42949241399765014648
-0.15356561541557312012 -0.49293124675750732422 0.40851077437400817871
-0.19173772633075714111 -0.54757058620452880859 0.38147023320198059082
-0.22493124008178710938 -0.59101504087448120117 0.34584286808967590332
-0.24853603541851043701 -0.62415808439254760742 0.30133140087127685547
-0.25842162966728210449 -0.64863717555999755859 0.24975852668285369873
-0.25182375311851501465 -0.66638314723968505859 0.19451168179512023926
-0.22777204215526580811 -0.67914569377899169922 0.13976545631885528564
-0.18714752793312072754 -0.68811172246932983398 0.089680880308151245117
-0.1324634253978729248 -0.69369554519653320312 0.047672186046838760376
-0.067408293485641479492 -0.69557386636734008789 0.01584506593644618988
0.0038402455393224954605 -0.69295161962509155273 -0.0050976243801414966583
0.077559910714626312256 -0.68518114089965820312 -0.014458886347711086273
0.15002746880054473877 -0.67424339056015014648 -0.0091999182477593421936
0.21625590324401855469 -0.66187936067581176758 0.012323802337050437927
0.27066016197204589844 -0.64935052394866943359 0.049456559121608734131
0.30780357122421264648 -0.63728111982345581055 0.099172629415988922119
0.32304263114929199219 -0.62527102231979370117 0.15607061982154846191
0.31493911147117614746 -0.61092066764831542969 0.21282935142517089844
0.28774169087409973145 -0.58979004621505737305 0.26340752840042114258
0.24854670464992523193 -0.55785834789276123047 0.30587306618690490723
0.20360133051872253418 -0.51320886611938476562 0.34129124879837036133
0.15730611979961395264 -0.45578584074974060059 0.37199229001998901367
0.11211625486612319946 -0.38704329729080200195 0.40029674768447875977
0.068929336965084075928 -0.30868873000144958496 0.42821988463401794434
0.026865174993872642517 -0.22089637815952301025 0.45783820748329162598
-0.015012979507446289062 -0.12215483188629150391 0.49127686023712158203
-0.06670741736888885498 -0.013206870295107364655 0.52713358402252197266
-0.033331796526908874512 0.083079665899276733398 0.5069580078125
0.0053609120659530162811 0.19079120457172393799 0.48420941829681396484
0.041790984570980072021 0.29226189851760864258 0.46251574158668518066
0.07949066162109375 0.3851572871208190918 0.44310733675956726074
0.11869546025991439819 0.46843373775482177734 0.42446666955947875977
0.1592013239860534668 0.54057943820953369141 0.4038289487361907959
0.19920523464679718018 0.60033881664276123047 0.37740787863731384277
0.23483781516551971436 0.64740341901779174805 0.34222662448883056641
0.26119273900985717773 0.68266326189041137695 0.29749783873558044434
0.27355030179023742676 0.70802474021911621094 0.24466434121131896973
0.26839110255241394043 0.72587817907333374023 0.18704302608966827393
0.24409322440624237061 0.73843759298324584961 0.12913842499256134033
0.20118220150470733643 0.74722284078598022461 0.075730890035629272461
0.14222608506679534912 0.75279605388641357422 0.030909191817045211792
0.071401737630367279053 0.75477498769760131836 -0.0027356604114174842834
-0.0062424307689070701599 0.75199759006500244141 -0.024590626358985900879
-0.086300306022167205811 0.74285793304443359375 -0.034685943275690078735
-0.16473573446273803711 0.73040205240249633789 -0.029166774824261665344
-0.23601815104484558105 0.7165858149528503418 -0.0063043483532965183258
-0.29434525966644287109 0.70259612798690795898 0.032859772443771362305
-0.33461993932723999023 0.68887221813201904297 0.084945797920227050781
-0.35245826840400695801 0.6752408146858215332 0.14485275745391845703
-0.34456071257591247559 0.66001242399215698242 0.20506739616394042969
-0.31389817595481872559 0.63851732015609741211 0.25796133279800415039
-0.26931843161582946777 0.6052805781364440918 0.30109700560569763184
-0.21867948770523071289 0.55767905712127685547 0.33612754940986633301
-0.16717129945755004883 0.4952977299690246582 0.3662592470645904541
-0.11776544898748397827 0.42041483521461486816 0.39417156577110290527
-0.071063697338104248047 0.33547881245613098145 0.42224577069282531738
-0.02567156963050365448 0.24111664295196533203 0.45221278071403503418
0.020954240113496780396 0.13316284120082855225 0.48735979199409484863
0.069770261645317077637 0.011609413661062717438 0.52796536684036254883
0.037178199738264083862 -0.085640378296375274658 0.5067736506462097168
-0.0033204078208655118942 -0.19305421411991119385 0.48391714692115783691
-0.040282975882291793823 -0.29441878199577331543 0.46155706048011779785
-0.078917175531387329102 -0.38679429888725280762 0.44182235002517700195
-0.11904288828372955322 -0.46950209140777587891 0.42293623089790344238
-0.16033825278282165527 -0.54107677936553955078 0.40209475159645080566
-0.20097261667251586914 -0.60026603937149047852 0.37549698352813720703
-0.23706036806106567383 -0.64679062366485595703 0.34015521407127380371
-0.2636871337890625 -0.68159145116806030273 0.29528829455375671387
-0.27614855766296386719 -0.70662534236907958984 0.24236121773719787598
-0.27097108960151672363 -0.72431421279907226562 0.18471232056617736816
-0.24660059809684753418 -0.73687380552291870117 0.12684458494186401367
-0.2036295086145401001 -0.74579477310180664062 0.07349917292594909668
-0.1446673274040222168 -0.75158554315567016602 0.028690600767731666565
-0.073895208537578582764 -0.75379675626754760742 -0.0050840955227613449097
0.0036704295780509710312 -0.75120002031326293945 -0.027307484298944473267
0.08368186652660369873 -0.74217218160629272461 -0.03805898129940032959
0.16220553219318389893 -0.72981435060501098633 -0.033296376466751098633
0.23374105989933013916 -0.71611869335174560547 -0.011116659268736839294
0.29243889451026916504 -0.70229494571685791016 0.02755287662148475647
0.33311444520950317383 -0.68878972530364990234 0.079371914267539978027
0.35130256414413452148 -0.67541813850402832031 0.13921600580215454102
0.34367045760154724121 -0.66045802831649780273 0.19952070713043212891
0.31320941448211669922 -0.63919502496719360352 0.25261610746383666992
0.26880013942718505859 -0.60612660646438598633 0.29604983329772949219
0.2183182835578918457 -0.55862456560134887695 0.33147716522216796875
0.16699479520320892334 -0.49627354741096496582 0.36212876439094543457
0.11786386370658874512 -0.42133185267448425293 0.39066660404205322266
0.071657441556453704834 -0.33617722988128662109 0.41946649551391601562
0.02715686894953250885 -0.2414779365062713623 0.45035815238952636719
-0.019074017181992530823 -0.13383342325687408447 0.48605945706367492676
-0.073479562997817993164 -0.010788018815219402313 0.52620828151702880859
-0.034683648496866226196 0.091998249292373657227 0.50473511219024658203
0.0080801183357834815979 0.20972642302513122559 0.47995001077651977539
0.046595130115747451782 0.31932720541954040527 0.45668449997901916504
0.086426205933094024658 0.4196179509162902832 0.43612402677536010742
0.1275396496057510376 0.50954157114028930664 0.41674110293388366699
0.17002065479755401611 0.5873158574104309082 0.39579156041145324707
0.21232791244983673096 0.65139359235763549805 0.36932250857353210449
0.2505778968334197998 0.70131099224090576172 0.33398336172103881836
0.27957877516746520996 0.73807418346405029297 0.28858774900436401367
0.29412099719047546387 0.76393997669219970703 0.23428764939308166504
0.29004040360450744629 0.78180241584777832031 0.17432042956352233887
0.26510995626449584961 0.79434812068939208984 0.1134515032172203064
0.21949586272239685059 0.80338424444198608398 0.05703303217887878418
0.15580685436725616455 0.80954879522323608398 0.0098031722009181976318
0.078709915280342102051 0.812374114990234375 -0.025240905582904815674
-0.0057258200831711292267 0.81026571989059448242 -0.047639932483434677124
-0.092224411666393280029 0.79988378286361694336 -0.058681085705757141113
-0.17647229135036468506 0.78625261783599853516 -0.053251404315233230591
-0.25228223204612731934 0.77145940065383911133 -0.029535649344325065613
-0.31365436315536499023 0.75648009777069091797 0.01080206502228975296
-0.35614866018295288086 0.74122285842895507812 0.06369253993034362793
-0.37701767683029174805 0.7250118255615234375 0.12432429194450378418
-0.3731968998908996582 0.7070751190185546875 0.18734918534755706787
-0.34294578433036804199 0.68411767482757568359 0.24392439424991607666
-0.29457888007164001465 0.64982789754867553711 0.28922301530838012695
-0.23877339065074920654 0.60003328323364257812 0.32520565390586853027
-0.18200378119945526123 0.53365206718444824219 0.35602065920829772949
-0.12811577320098876953 0.45285344123840332031 0.38469222187995910645
-0.077933229506015777588 0.36092782020568847656 0.41396465897560119629
-0.029944377020001411438 0.2602596282958984375 0.44555231928825378418
0.019689116626977920532 0.14533391594886779785 0.48256203532218933105
0.076490513980388641357 0.0092004621401429176331 0.52705568075180053711
0.038548931479454040527 -0.094652995467185974121 0.50448751449584960938
-0.0063485787250101566315 -0.21201463043689727783 0.47959971427917480469
-0.045287176966667175293 -0.32146033644676208496 0.45560723543167114258
-0.086214393377304077148 -0.42114251852035522461 0.43470835685729980469
-0.12834052741527557373 -0.51046365499496459961 0.41505682468414306641
-0.17165917158126831055 -0.58764690160751342773 0.39388713240623474121
-0.21462661027908325195 -0.65113377571105957031 0.36723598837852478027
-0.25335204601287841797 -0.70048618316650390625 0.33173343539237976074
-0.28263077139854431152 -0.73676484823226928711 0.28619077801704406738
-0.29725891351699829102 -0.76228612661361694336 0.23178374767303466797
-0.29311448335647583008 -0.77998685836791992188 0.1717840731143951416
-0.2680460512638092041 -0.79256266355514526367 0.11097104847431182861
-0.22230312228202819824 -0.80178999900817871094 0.05466385185718536377
-0.15855135023593902588 -0.80824303627014160156 0.0075163054279983043671
-0.081470251083374023438 -0.81136906147003173828 -0.027590835466980934143
0.0029005722608417272568 -0.80948030948638916016 -0.050323877483606338501
0.089337237179279327393 -0.79921436309814453125 -0.062083411961793899536
0.17366421222686767578 -0.78567796945571899414 -0.057498332113027572632
0.24973756074905395508 -0.77099794149398803711 -0.034544907510280609131
0.31150573492050170898 -0.75617468357086181641 0.0052410918287932872772
0.35443270206451416016 -0.74112415313720703125 0.057829976081848144531
0.37568306922912597656 -0.72516220808029174805 0.11837947368621826172
0.37214970588684082031 -0.70749235153198242188 0.18147712945938110352
0.3421166539192199707 -0.68477594852447509766 0.23824310302734375
0.29393929243087768555 -0.65066111087799072266 0.28384563326835632324
0.23831637203693389893 -0.60097128152847290039 0.32024514675140380859
0.18172031641006469727 -0.53463357686996459961 0.35159507393836975098
0.12806673347949981689 -0.45379853248596191406 0.38090837001800537109
0.078349299728870391846 -0.36166608333587646484 0.41096672415733337402
0.031178139150142669678 -0.2605946660041809082 0.44355547428131103516
-0.017884813249111175537 -0.14592608809471130371 0.48121169209480285645
-0.074440754950046539307 -0.010693961754441261292 0.52596122026443481445
-0.031629137694835662842 0.10057877004146575928 0.50291830301284790039
0.01312358025461435318 0.22855141758918762207 0.4755370020866394043
0.054629378020763397217 0.34559273719787597656 0.45086920261383056641
0.097071975469589233398 0.45295408368110656738 0.42897695302963256836
0.14042468369007110596 0.54912579059600830078 0.40850844979286193848
0.18519683182239532471 0.63205987215042114258 0.38673311471939086914
0.23002606630325317383 0.69992393255233764648 0.35949414968490600586
0.27088856697082519531 0.75222086906433105469 0.32317763566970825195
0.30229529738426208496 0.79019427299499511719 0.27642256021499633789
0.31867799162864685059 0.81646072864532470703 0.22025755047798156738
0.3153508603572845459 0.83438879251480102539 0.1578136831521987915
0.2894573509693145752 0.84715288877487182617 0.093987554311752319336
0.24068984389305114746 0.85686713457107543945 0.034676931798458099365
0.17164506018161773682 0.86420339345932006836 -0.014544877223670482635
0.087439924478530883789 0.86869460344314575195 -0.050106044858694076538
-0.0046794805675745010376 0.86842876672744750977 -0.071888357400894165039
-0.097981020808219909668 0.85691440105438232422 -0.083019323647022247314
-0.18779243528842926025 0.84267008304595947266 -0.076809205114841461182
-0.26709893345832824707 0.82762044668197631836 -0.051528457552194595337
-0.3296814262866973877 0.81242084503173828125 -0.009868143126368522644
-0.37186932563781738281 0.79628425836563110352 0.042895488440990447998
-0.39307790994644165039 0.7774823307991027832 0.10142511129379272461
-0.39361420273780822754 0.75479286909103393555 0.16253635287284851074
-0.37050962448120117188 0.72736769914627075195 0.22282636165618896484
-0.32326194643974304199 0.690700531005859375 0.27319535613059997559
-0.26327013969421386719 0.63880532979965209961 0.3123887479305267334
-0.20113427937030792236 0.56939518451690673828 0.34512057900428771973
-0.14233130216598510742 0.48375222086906433105 0.37518709897994995117
-0.087793335318565368652 0.38509482145309448242 0.4062353968620300293
-0.03643140941858291626 0.27725613117218017578 0.43982803821563720703
0.013818644918501377106 0.15905357897281646729 0.47806394100189208984
0.077061377465724945068 0.009111233055591583252 0.52693438529968261719
0.034935828298330307007 -0.10312122851610183716 0.50280809402465820312
-0.011273148469626903534 -0.2309551537036895752 0.47497650980949401855
-0.05348699912428855896 -0.34765532612800598145 0.44965493679046630859
-0.097250960767269134521 -0.45430961251258850098 0.42744424939155578613
-0.14167305827140808105 -0.54985290765762329102 0.40668559074401855469
-0.187310829758644104 -0.63217538595199584961 0.38468077778816223145
-0.23282563686370849609 -0.69942289590835571289 0.35725790262222290039
-0.27418664097785949707 -0.75112450122833251953 0.32076945900917053223
-0.30588164925575256348 -0.78858423233032226562 0.27384555339813232422
-0.32233688235282897949 -0.81448692083358764648 0.21754534542560577393
-0.3189049065113067627 -0.83225542306900024414 0.15505078434944152832
-0.29281267523765563965 -0.84508317708969116211 0.091290593147277832031
-0.2438519895076751709 -0.85505437850952148438 0.032139230519533157349
-0.17469070851802825928 -0.86276602745056152344 -0.016921153292059898376
-0.090459100902080535889 -0.86765021085739135742 -0.052460707724094390869
0.0016212204936891794205 -0.86766093969345092773 -0.074517935514450073242
0.094834052026271820068 -0.85626941919326782227 -0.086427450180053710938
0.18470893800258636475 -0.84211993217468261719 -0.081145621836185455322
0.26428461074829101562 -0.82717776298522949219 -0.056698147207498550415
0.32728043198585510254 -0.81212317943572998047 -0.015636110678315162659
0.36992037296295166016 -0.79617446660995483398 0.036799468100070953369
0.39153289794921875 -0.77759480476379394531 0.095230385661125183105
0.39238506555557250977 -0.75514930486679077148 0.15640111267566680908
0.36952322721481323242 -0.72796952724456787109 0.21685169637203216553
0.32249021530151367188 -0.6915009617805480957 0.26750934123992919922
0.26270702481269836426 -0.63972461223602294922 0.30713349580764770508
0.20077916979789733887 -0.57037460803985595703 0.34042474627494812012
0.14216421544551849365 -0.48473373055458068848 0.37116259336471557617
0.088028803467750549316 -0.3859119117259979248 0.4030081331729888916
0.037535455077886581421 -0.27758738398551940918 0.43769547343254089355
-0.012066595256328582764 -0.15962335467338562012 0.47665160894393920898
-0.074441567063331604004 -0.010692073963582515717 0.52596032619476318359
-0.028220670297741889954 0.10950028896331787109 0.50103211402893066406
0.019510781392455101013 0.24658201634883880615 0.47167858481407165527
0.06369806826114654541 0.37098699808120727539 0.44545468688011169434
0.10921815782785415649 0.48510664701461791992 0.42221823334693908691
0.1556189805269241333 0.58703213930130004883 0.40040996670722961426
0.20361004769802093506 0.67439562082290649414 0.37709710001945495605
0.25154975056648254395 0.74525332450866699219 0.34792274236679077148
0.29510596394538879395 0.79935234785079956055 0.30938753485679626465
0.32866507768630981445 0.83826678991317749023 0.26039981842041015625
0.34661173820495605469 0.86487036943435668945 0.20203194022178649902
0.34393939375877380371 0.88286823034286499023 0.1371189802885055542
0.31706246733665466309 0.89593452215194702148 0.070334106683731079102
0.26492545008659362793 0.9066092371940612793 0.0079712131991982460022
0.18999294936656951904 0.91565710306167602539 -0.043322443962097167969
0.098133370280265808105 0.92239612340927124023 -0.078722305595874786377
-0.0034295790828764438629 0.92608129978179931641 -0.09818197786808013916
-0.10423505306243896484 0.91363149881362915039 -0.10791839659214019775
-0.19939970970153808594 0.89963239431381225586 -0.099419973790645599365
-0.28111022710800170898 0.88521784543991088867 -0.07112216949462890625
-0.34286913275718688965 0.87060630321502685547 -0.027195097878575325012
-0.3819567561149597168 0.85415875911712646484 0.025382034480571746826
-0.4001858830451965332 0.8330402374267578125 0.080249190330505371094
-0.40157881379127502441 0.80498254299163818359 0.1348409503698348999
-0.38721227645874023438 0.76996535062789916992 0.19084966182708740234
-0.35087439417839050293 0.72815418243408203125 0.2477436065673828125
-0.29105728864669799805 0.67404377460479736328 0.295757293701171875
-0.22365435957908630371 0.60266423225402832031 0.33304652571678161621
-0.15877011418342590332 0.51310741901397705078 0.36574846506118774414
-0.099446013569831848145 0.40844556689262390137 0.39886879920959472656
-0.043510627001523971558 0.29349547624588012695 0.43458834290504455566
0.0097139589488506317139 0.16878537833690643311 0.47489213943481445312
0.077061377465724945068 0.0091112358495593070984 0.52693438529968261719
0.031575992703437805176 -0.11210558563470840454 0.50085747241973876953
-0.017779907211661338806 -0.24893248081207275391 0.47105711698532104492
-0.06269499659538269043 -0.37294724583625793457 0.44410914182662963867
-0.10978773981332778931 -0.48626735806465148926 0.42058318853378295898
-0.15728026628494262695 -0.58754152059555053711 0.39846536517143249512
-0.20615817606449127197 -0.67426121234893798828 0.3749205470085144043
-0.25480866432189941406 -0.74446368217468261719 0.34555900096893310547
-0.29888767004013061523 -0.79792845249176025391 0.3068307042121887207
-0.33274605870246887207 -0.83629572391510009766 0.25763380527496337891
-0.35075232386589050293 -0.86251217126846313477 0.19908483326435089111
-0.34793668985366821289 -0.88034677505493164062 0.1340891420841217041
-0.32080623507499694824 -0.89350593090057373047 0.067369915544986724854
-0.268421173095703125 -0.90450537204742431641 0.0052077476866543292999
-0.19333100318908691406 -0.91402512788772583008 -0.045845501124858856201
-0.10141285508871078491 -0.92126029729843139648 -0.08112379908561706543
0.000191638755495660007 -0.92533433437347412109 -0.10077390819787979126
0.10083154588937759399 -0.9130198359489440918 -0.11133003979921340942
0.19604229927062988281 -0.89912027120590209961 -0.10383065789937973022
0.27803194522857666016 -0.88480931520462036133 -0.076420545578002929688
0.34021830558776855469 -0.87033128738403320312 -0.033119946718215942383
0.37976419925689697266 -0.85404860973358154297 0.019117407500743865967
0.39840072393417358398 -0.83311450481414794922 0.073874711990356445312
0.40012764930725097656 -0.80525469779968261719 0.12850980460643768311
0.38603669404983520508 -0.77045494318008422852 0.18466147780418395996
0.34994959831237792969 -0.7288678288459777832 0.24179655313491821289
0.29037913680076599121 -0.67491877079010009766 0.29022699594497680664
0.22321636974811553955 -0.60362869501113891602 0.32809141278266906738
0.15855738520622253418 -0.51409739255905151367 0.36149719357490539551
0.09938154369592666626 -0.40938818454742431641 0.39542162418365478516
0.044538974761962890625 -0.29380384087562561035 0.43234860897064208984
-0.0080068949609994888306 -0.16930815577507019043 0.47344371676445007324
3 0 1 2
3 0 2 3
3 0 3 4
3 0 4 5
3 0 5 6
3 0 6 7
3 0 7 8
3 0 8 9
3 0 9 10
3 0 10 11
3 0 11 12
3 0 12 13
3 0 13 14
3 0 14 15
3 0 15 16
3 0 16 17
3 0 17 18
3 0 18 19
3 0 19 20
3 0 20 21
3 0 21 22
3 0 22 23
3 0 23 24
3 0 24 25
3 0 25 26
3 0 26 27
3 0 27 28
3 0 28 29
3 0 29 30
3 0 30 31
3 0 31 32
3 0 32 33
3 0 33 34
3 0 34 35
3 0 35 36
3 0 36 37
3 0 37 38
3 0 38 39
3 0 39 40
3 0 40 41
3 0 41 42
3 0 42 43
3 0 43 44
3 0 44 45
3 0 45 46
3 0 46 47
3 0 47 48
3 0 48 49
3 0 49 50
3 0 50 51
3 0 51 52
3 0 52 53
3 0 53 54
3 0 54 55
3 0 55 56
3 0 56 57
3 0 57 58
3 0 58 59
3 0 59 60
3 0 60 61
3 0 61 62
3 0 62 63
3 0 63 64
3 0 64 1
3 1 65 66
3 1 66 2
3 2 66 67
3 2 67 3
3 3 67 68
3 3 68 4
3 4 68 69
3 4 69 5
3 5 69 70
3 5 70 6
3 6 70 71
3 6 71 7
3 7 71 72
3 7 72 8
3 8 72 73
3 8 73 9
3 9 73 74
3 9 74 10
3 10 74 75
3 10 75 11
3 11 75 76
3 11 76 12
3 12 76 77
3 12 77 13
3 13 77 78
3 13 78 14
3 14 78 79
3 14 79 15
3 15 79 80
3 15 80 16
3 16 80 81
3 16 81 17
3 17 81 82
3 17 82 18
3 18 82 83
3 18 83 19
3 19 83 84
3 19 84 20
3 20 84 85
3 20 85 21
3 21 85 86
3 21 86 22
3 22 86 87
3 22 87 23
3 23 87 88
3 23 88 24
3 24 88 89
3 24 89 25
3 25 89 90
3 25 90 26
3 26 90 91
3 26 91 27
3 27 91 92
3 27 92 28
3 28 92 93
3 28 93 29
3 29 93 94
3 29 94 30
3 30 94 95
3 30 95 31
3 31 95 96
3 31 96 32
3 32 96 97
3 32 97 33
3 33 97 98
3 33 98 34
3 34 98 99
3 34 99 35
3 35 99 100
3 35 100 36
3 36 100 101
3 36 101 37
3 37 101 102
3 37 102 38
3 38 102 103
3 38 103 39
3 39 103 104
3 39 104 40
3 40 104 105
3 40 105 41
3 41 105 106
3 41 106 42
3 42 106 107
3 42 107 43
3 43 107 108
3 43 108 44
3 44 108 109
3 44 109 45
3 45 109 110
3 45 110 46
3 46 110 111
3 46 111 47
3 47 111 112
3 47 112 48
3 48 112 113
3 48 113 49
3 49 113 114
3 49 114 50
3 50 114 115
3 50 115 51
3 51 115 116
3 51 116 52
3 52 116 117
3 52 117 53
3 53 117 118
3 53 118 54
3 54 118 119
3 54 119 55
3 55 119 120
3 55 120 56
3 56 120 121
3 56 121 57
3 57 121 122
3 57 122 58
3 58 122 123
3 58 123 59
3 59 123 124
3 59 124 60
3 60 124 125
3 60 125 61
3 61 125 126
3 61 126 62
3 62 126 127
3 62 127 63
3 63 127 128
3 63 128 64
3 64 128 65
3 64 65 1
3 65 129 130
3 65 130 66
3 66 130 131
3 66 131 67
3 67 131 132
3 67 132 68
3 68 132 133
3 68 133 69
3 69 133 134
3 69 134 70
3 70 134 135
3 70 135 71
3 71 135 136
3 71 136 72
3 72 136 137
3 72 137 73
3 73 137 138
3 73 138 74
3 74 138 139
3 74 139 75
3 75 139 140
3 75 140 76
3 76 140 141
3 76 141 77
3 77 141 142
3 77 142 78
3 78 142 143
3 78 143 79
3 79 143 144
3 79 144 80
3 80 144 145
3 80 145 81
3 81 145 146
3 81 146 82
3 82 146 147
3 82 147 83
3 83 147 148
3 83 148 84
3 84 148 149
3 84 149 85
3 85 149 150
3 85 150 86
3 86 150 151
3 86 151 87
3 87 151 152
3 87 152 88
3 88 152 153
3 88 153 89
3 89 153 154
3 89 154 90
3 90 154 155
3 90 155 91
3 91 155 156
3 91 156 92
3 92 156 157
3 92 157 93
3 93 157 158
3 93 158 94
3 94 158 159
3 94 159 95
3 95 159 160
3 95 160 96
3 96 160 161
3 96 161 97
3 97 161 162
3 97 162 98
3 98 162 163
3 98 163 99
3 99 163 164
3 99 164 100
3 100 164 165
3 100 165 101
3 101 165 166
3 101 166 102
3 102 166 167
3 102 167 103
3 103 167 168
3 103 168 104
3 104 168 169
3 104 169 105
3 105 169 170
3 105 170 106
3 106 170 171
3 106 171 107
3 107 171 172
3 107 172 108
3 108 172 173
3 108 173 109
3 109 173 174
3 109 174 110
3 110 174 175
3 110 175 111
3 111 175 176
3 111 176 112
3 112 176 177
3 112 177 113
3 113 177 178
3 113 178 114
3 114 178 179
3 114 179 115
3 115 179 180
3 115 180 116
3 116 180 181
3 116 181 117
3 117 181 182
3 117 182 118
3 118 182 183
3 118 183 119
3 119 183 184
3 119 184 120
3 120 184 185
3 120 185 121
3 121 185 186
3 121 186 122
3 122 186 187
3 122 187 123
3 123 187 188
3 123 188 124
3 124 188 189
3 124 189 125
3 125 189 190
3 125 190 126
3 126 190 191
3 126 191 127
3 127 191 192
3 127 192 128
3 128 192 129
3 128 129 65
3 129 193 194
3 129 194 130
3 130 194 195
3 130 195 131
3 131 195 196
3 131 196 132
3 132 196 197
3 132 197 133
3 133 197 198
3 133 198 134
3 134 198 199
3 134 199 135
3 135 199 200
3 135 200 136
3 136 200 201
3 136 201 137
3 137 201 202
3 137 202 138
3 138 202 203
3 138 203 139
3 139 203 204
3 139 204 140
3 140 204 205
3 140 205 141
3 141 205 206
3 141 206 142
3 142 206 207
3 142 207 143
3 143 207 208
3 143 208 144
3 144 208 209
3 144 209 145
3 145 209 210
3 145 210 146
3 146 210 211
3 146 211 147
3 147 211 212
3 147 212 148
3 148 212 213
3 148 213 149
3 149 213 214
3 149 214 150
3 150 214 215
3 150 215 151
3 151 215 216
3 151 216 152
3 152 216 217
3 152 217 153
3 153 217 218
3 153 218 154
3 154 218 219
3 154 219 155
3 155 219 220
3 155 220 156
3 156 220 221
3 156 221 157
3 157 221 222
3 157 222 158
3 158 222 223
3 158 223 159
3 159 223 224
3 159 224 160
3 160 224 225
3 160 225 161
3 161 225 226
3 161 226 162
3 162 226 227
3 162 227 163
3 163 227 228
3 163 228 164
3 164 228 229
3 164 229 165
3 165 229 230
3 165 230 166
3 166 230 231
3 166 231 167
3 167 231 232
3 167 232 168
3 168 232 233
3 168 233 169
3 169 233 234
3 169 234 170
3 170 234 235
3 170 235 171
3 171 235 236
3 171 236 172
3 172 236 237
3 172 237 173
3 173 237 238
3 173 238 174
3 174 238 239
3 174 239 175
3 175 239 240
3 175 240 176
3 176 240 241
3 176 241 177
3 177 241 242
3 177 242 178
3 178 242 243
3 178 243 179
3 179 243 244
3 179 244 180
3 180 244 245
3 180 245 181
3 181 245 246
3 181 246 182
3 182 246 247
3 182 247 183
3 183 247 248
3 183 248 184
3 184 248 249
3 184 249 185
3 185 249 250
3 185 250 186
3 186 250 251
3 186 251 187
3 187 251 252
3 187 252 188
3 188 252 253
3 188 253 189
3 189 253 254
3 189 254 190
3 190 254 255
3 190 255 191
3 191 255 256
3 191 256 192
3 192 256 193
3 192 193 129
3 193 257 258
3 193 258 194
3 194 258 259
3 194 259 195
3 195 259 260
3 195 260 196
3 196 260 261
3 196 261 197
3 197 261 262
3 197 262 198
3 198 262 263
3 198 263 199
3 199 263 264
3 199 264 200
3 200 264 265
3 200 265 201
3 201 265 266
3 201 266 202
3 202 266 267
3 202 267 203
3 203 267 268
3 203 268 204
3 204 268 269
3 204 269 205
3 205 269 270
3 205 270 206
3 206 270 271
3 206 271 207
3 207 271 272
3 207 272 208
3 208 272 273
3 208 273 209
3 209 273 274
3 209 274 210
3 210 274 275
3 210 275 211
3 211 275 276
3 211 276 212
3 212 276 277
3 212 277 213
3 213 277 278
3 213 278 214
3 214 278 279
3 214 279 215
3 215 279 280
3 215 280 216
3 216 280 281
3 216 281 217
3 217 281 282
3 217 282 218
3 218 282 283
3 218 283 219
3 219 283 284
3 219 284 220
3 220 284 285
3 220 285 221
3 221 285 286
3 221 286 222
3 222 286 287
3 222 287 223
3 223 287 288
3 223 288 224
3 224 288 289
3 224 289 225
3 225 289 290
3 225 290 226
3 226 290 291
3 226 291 227
3 227 291 292
3 227 292 228
3 228 292 293
3 228 293 229
3 229 293 294
3 229 294 230
3 230 294 295
3 230 295 231
3 231 295 296
3 231 296 232
3 232 296 297
3 232 297 233
3 233 297 298
3 233 298 234
3 234 298 299
3 234 299 235
3 235 299 300
3 235 300 236
3 236 300 301
3 236 301 237
3 237 301 302
3 237 302 238
3 238 302 303
3 238 303 239
3 239 303 304
3 239 304 240
3 240 304 305
3 240 305 241
3 241 305 306
3 241 306 242
3 242 306 307
3 242 307 243
3 243 307 308
3 243 308 244
3 244 308 309
3 244 309 245
3 245 309 310
3 245 310 246
3 246 310 311
3 246 311 247
3 247 311 312
3 247 312 248
3 248 312 313
3 248 313 249
3 249 313 314
3 249 314 250
3 250 314 315
3 250 315 251
3 251 315 316
3 251 316 252
3 252 316 317
3 252 317 253
3 253 317 318
3 253 318 254
3 254 318 319
3 254 319 255
3 255 319 320
3 255 320 256
3 256 320 257
3 256 257 193
3 257 321 322
3 257 322 258
3 258 322 323
3 258 323 259
3 259 323 324
3 259 324 260
3 260 324 325
3 260 325 261
3 261 325 326
3 261 326 262
3 262 326 327
3 262 327 263
3 263 327 328
3 263 328 264
3 264 328 329
3 264 329 265
3 265 329 330
3 265 330 266
3 266 330 331
3 266 331 267
3 267 331 332
3 267 332 268
3 268 332 333
3 268 333 269
3 269 333 334
3 269 334 270
3 270 334 335
3 270 335 271
3 271 335 336
3 271 336 272
3 272 336 337
3 272 337 273
3 273 337 338
3 273 338 274
3 274 338 339
3 274 339 275
3 275 339 340
3 275 340 276
3 276 340 341
3 276 341 277
3 277 341 342
3 277 342 278
3 278 342 343
3 278 343 279
3 279 343 344
3 279 344 280
3 280 344 345
3 280 345 281
3 281 345 346
3 281 346 282
3 282 346 347
3 282 347 283
3 283 347 348
3 283 348 284
3 284 348 349
3 284 349 285
3 285 349 350
3 285 350 286
3 286 350 351
3 286 351 287
3 287 351 352
3 287 352 288
3 288 352 353
3 288 353 289
3 289 353 354
3 289 354 290
3 290 354 355
3 290 355 291
3 291 355 356
3 291 356 292
3 292 356 357
3 292 357 293
3 293 357 358
3 293 358 294
3 294 358 359
3 294 359 295
3 295 359 360
3 295 360 296
3 296 360 361
3 296 361 297
3 297 361 362
3 297 362 298
3 298 362 363
3 298 363 299
3 299 363 364
3 299 364 300
3 300 364 365
3 300 365 301
3 301 365 366
3 301 366 302
3 302 366 367
3 302 367 303
3 303 367 368
3 303 368 304
3 304 368 369
3 304 369 305
3 305 369 370
3 305 370 306
3 306 370 371
3 306 371 307
3 307 371 372
3 307 372 308
3 308 372 373
3 308 373 309
3 309 373 374
3 309 374 310
3 310 374 375
3 310 375 311
3 311 375 376
3 311 376 312
3 312 376 377
3 312 377 313
3 313 377 378
3 313 378 314
3 314 378 379
3 314 379 315
3 315 379 380
3 315 380 316
3 316 380 381
3 316 381 317
3 317 381 382
3 317 382 318
3 318 382 383
3 318 383 319
3 319 383 384
3 319 384 320
3 320 384 321
3 320 321 257
3 321 385 386
3 321 386 322
3 322 386 387
3 322 387 323
3 323 387 388
3 323 388 324
3 324 388 389
3 324 389 325
3 325 389 390
3 325 390 326
3 326 390 391
3 326 391 327
3 327 391 392
3 327 392 328
3 328 392 393
3 328 393 329
3 329 393 394
3 329 394 330
3 330 394 395
3 330 395 331
3 331 395 396
3 331 396 332
3 332 396 397
3 332 397 333
3 333 397 398
3 333 398 334
3 334 398 399
3 334 399 335
3 335 399 400
3 335 400 336
3 336 400 401
3 336 401 337
3 337 401 402
3 337 402 338
3 338 402 403
3 338 403 339
3 339 403 404
3 339 404 340
3 340 404 405
3 340 405 341
3 341 405 406
3 341 406 342
3 342 406 407
3 342 407 343
3 343 407 408
3 343 408 344
3 344 408 409
3 344 409 345
3 345 409 410
3 345 410 346
3 346 410 411
3 346 411 347
3 347 411 412
3 347 412 348
3 348 412 413
3 348 413 349
3 349 413 414
3 349 414 350
3 350 414 415
3 350 415 351
3 351 415 416
3 351 416 352
3 352 416 417
3 352 417 353
3 353 417 418
3 353 418 354
3 354 418 419
3 354 419 355
3 355 419 420
3 355 420 356
3 356 420 421
3 356 421 357
3 357 421 422
3 357 422 358
3 358 422 423
3 358 423 359
3 359 423 424
3 359 424 360
3 360 424 425
3 360 425 361
3 361 425 426
3 361 426 362
3 362 426 427
3 362 427 363
3 363 427 428
3 363 428 364
3 364 428 429
3 364 429 365
3 365 429 430
3 365 430 366
3 366 430 431
3 366 431 367
3 367 431 432
3 367 432 368
3 368 432 433
3 368 433 369
3 369 433 434
3 369 434 370
3 370 434 435
3 370 435 371
3 371 435 436
3 371 436 372
3 372 436 437
3 372 437 373
3 373 437 438
3 373 438 374
3 374 438 439
3 374 439 375
3 375 439 440
3 375 440 376
3 376 440 441
3 376 441 377
3 377 441 442
3 377 442 378
3 378 442 443
3 378 443 379
3 379 443 444
3 379 444 380
3 380 444 445
3 380 445 381
3 381 445 446
3 381 446 382
3 382 446 447
3 382 447 383
3 383 447 448
3 383 448 384
3 384 448 385
3 384 385 321
3 385 449 450
3 385 450 386
3 386 450 451
3 386 451 387
3 387 451 452
3 387 452 388
3 388 452 453
3 388 453 389
3 389 453 454
3 389 454 390
3 390 454 455
3 390 455 391
3 391 455 456
3 391 456 392
3 392 456 457
3 392 457 393
3 393 457 458
3 393 458 394
3 394 458 459
3 394 459 395
3 395 459 460
3 395 460 396
3 396 460 461
3 396 461 397
3 397 461 462
3 397 462 398
3 398 462 463
3 398 463 399
3 399 463 464
3 399 464 400
3 400 464 465
3 400 465 401
3 401 465 466
3 401 466 402
3 402 466 467
3 402 467 403
3 403 467 468
3 403 468 404
3 404 468 469
3 404 469 405
3 405 469 470
3 405 470 406
3 406 470 471
3 406 471 407
3 407 471 472
3 407 472 408
3 408 472 473
3 408 473 409
3 409 473 474
3 409 474 410
3 410 474 475
3 410 475 411
3 411 475 476
3 411 476 412
3 412 476 477
3 412 477 413
3 413 477 478
3 413 478 414
3 414 478 479
3 414 479 415
3 415 479 480
3 415 480 416
3 416 480 481
3 416 481 417
3 417 481 482
3 417 482 418
3 418 482 483
3 418 483 419
3 419 483 484
3 419 484 420
3 420 484 485
3 420 485 421
3 421 485 486
3 421 486 422
3 422 486 487
3 422 487 423
3 423 487 488
3 423 488 424
3 424 488 489
3 424 489 425
3 425 489 490
3 425 490 426
3 426 490 491
3 426 491 427
3 427 491 492
3 427 492 428
3 428 492 493
3 428 493 429
3 429 493 494
3 429 494 430
3 430 494 495
3 430 495 431
3 431 495 496
3 431 496 432
3 432 496 497
3 432 497 433
3 433 497 498
3 433 498 434
3 434 498 499
3 434 499 435
3 435 499 500
3 435 500 436
3 436 500 501
3 436 501 437
3 437 501 502
3 437 502 438
3 438 502 503
3 438 503 439
3 439 503 504
3 439 504 440
3 440 504 505
3 440 505 441
3 441 505 506
3 441 506 442
3 442 506 507
3 442 507 443
3 443 507 508
3 443 508 444
3 444 508 509
3 444 509 445
3 445 509 510
3 445 510 446
3 446 510 511
3 446 511 447
3 447 511 512
3 447 512 448
3 448 512 449
3 448 449 385
3 449 513 514
3 449 514 450
3 450 514 515
3 450 515 451
3 451 515 516
3 451 516 452
3 452 516 517
3 452 517 453
3 453 517 518
3 453 518 454
3 454 518 519
3 454 519 455
3 455 519 520
3 455 520 456
3 456 520 521
3 456 521 457
3 457 521 522
3 457 522 458
3 458 522 523
3 458 523 459
3 459 523 524
3 459 524 460
3 460 524 525
3 460 525 461
3 461 525 526
3 461 526 462
3 462 526 527
3 462 527 463
3 463 527 528
3 463 528 464
3 464 528 529
3 464 529 465
3 465 529 530
3 465 530 466
3 466 530 531
3 466 531 467
3 467 531 532
3 467 532 468
3 468 532 533
3 468 533 469
3 469 533 534
3 469 534 470
3 470 534 535
3 470 535 471
3 471 535 536
3 471 536 472
3 472 536 537
3 472 537 473
3 473 537 538
3 473 538 474
3 474 538 539
3 474 539 475
3 475 539 540
3 475 540 476
3 476 540 541
3 476 541 477
3 477 541 542
3 477 542 478
3 478 542 543
3 478 543 479
3 479 543 544
3 479 544 480
3 480 544 545
3 480 545 481
3 481 545 546
3 481 546 482
3 482 546 547
3 482 547 483
3 483 547 548
3 483 548 484
3 484 548 549
3 484 549 485
3 485 549 550
3 485 550 486
3 486 550 551
3 486 551 487
3 487 551 552
3 487 552 488
3 488 552 553
3 488 553 489
3 489 553 554
3 489 554 490
3 490 554 555
3 490 555 491
3 491 555 556
3 491 556 492
3 492 556 557
3 492 557 493
3 493 557 558
3 493 558 494
3 494 558 559
3 494 559 495
3 495 559 560
3 495 560 496
3 496 560 561
3 496 561 497
3 497 561 562
3 497 562 498
3 498 562 563
3 498 563 499
3 499 563 564
3 499 564 500
3 500 564 565
3 500 565 501
3 501 565 566
3 501 566 502
3 502 566 567
3 502 567 503
3 503 567 568
3 503 568 504
3 504 568 569
3 504 569 505
3 505 569 570
3 505 570 506
3 506 570 571
3 506 571 507
3 507 571 572
3 507 572 508
3 508 572 573
3 508 573 509
3 509 573 574
3 509 574 510
3 510 574 575
3 510 575 511
3 511 575 576
3 511 576 512
3 512 576 513
3 512 513 449
3 513 577 578
3 513 578 514
3 514 578 579
3 514 579 515
3 515 579 580
3 515 580 516
3 516 580 581
3 516 581 517
3 517 581 582
3 517 582 518
3 518 582 583
3 518 583 519
3 519 583 584
3 519 584 520
3 520 584 585
3 520 585 521
3 521 585 586
3 521 586 522
3 522 586 587
3 522 587 523
3 523 587 588
3 523 588 524
3 524 588 589
3 524 589 525
3 525 589 590
3 525 590 526
3 526 590 591
3 526 591 527
3 527 591 592
3 527 592 528
3 528 592 593
3 528 593 529
3 529 593 594
3 529 594 530
3 530 594 595
3 530 595 531
3 531 595 596
3 531 596 532
3 532 596 597
3 532 597 533
3 533 597 598
3 533 598 534
3 534 598 599
3 534 599 535
3 535 599 600
3 535 600 536
3 536 600 601
3 536 601 537
3 537 601 602
3 537 602 538
3 538 602 603
3 538 603 539
3 539 603 604
3 539 604 540
3 540 604 605
3 540 605 541
3 541 605 606
3 541 606 542
3 542 606 607
3 542 607 543
3 543 607 608
3 543 608 544
3 544 608 609
3 544 609 545
3 545 609 610
3 545 610 546
3 546 610 611
3 546 611 547
3 547 611 612
3 547 612 548
3 548 612 613
3 548 613 549
3 549 613 614
3 549 614 550
3 550 614 615
3 550 615 551
3 551 615 616
3 551 616 552
3 552 616 617
3 552 617 553
3 553 617 618
3 553 618 554
3 554 618 619
3 554 619 555
3 555 619 620
3 555 620 556
3 556 620 621
3 556 621 557
3 557 621 622
3 557 622 558
3 558 622 623
3 558 623 559
3 559 623 624
3 559 624 560
3 560 624 625
3 560 625 561
3 561 625 626
3 561 626 562
3 562 626 627
3 562 627 563
3 563 627 628
3 563 628 564
3 564 628 629
3 564 629 565
3 565 629 630
3 565 630 566
3 566 630 631
3 566 631 567
3 567 631 632
3 567 632 568
3 568 632 633
3 568 633 569
3 569 633 634
3 569 634 570
3 570 634 635
3 570 635 571
3 571 635 636
3 571 636 572
3 572 636 637
3 572 637 573
3 573 637 638
3 573 638 574
3 574 638 639
3 574 639 575
3 575 639 640
3 575 640 576
3 576 640 577
3 576 577 513
3 577 641 642
3 577 642 578
3 578 642 643
3 578 643 579
3 579 643 644
3 579 644 580
3 580 644 645
3 580 645 581
3 581 645 646
3 581 646 582
3 582 646 647
3 582 647 583
3 583 647 648
3 583 648 584
3 584 648 649
3 584 649 585
3 585 649 650
3 585 650 586
3 586 650 651
3 586 651 587
3 587 651 652
3 587 652 588
3 588 652 653
3 588 653 589
3 589 653 654
3 589 654 590
3 590 654 655
3 590 655 591
3 591 655 656
3 591 656 592
3 592 656 657
3 592 657 593
3 593 657 658
3 593 658 594
3 594 658 659
3 594 659 595
3 595 659 660
3 595 660 596
3 596 660 661
3 596 661 597
3 597 661 662
3 597 662 598
3 598 662 663
3 598 663 599
3 599 663 664
3 599 664 600
3 600 664 665
3 600 665 601
3 601 665 666
3 601 666 602
3 602 666 667
3 602 667 603
3 603 667 668
3 603 668 604
3 604 668 669
3 604 669 605
3 605 669 670
3 605 670 606
3 606 670 671
3 606 671 607
3 607 671 672
3 607 672 608
3 608 672 673
3 608 673 609
3 609 673 674
3 609 674 610
3 610 674 675
3 610 675 611
3 611 675 676
3 611 676 612
3 612 676 677
3 612 677 613
3 613 677 678
3 613 678 614
3 614 678 679
3 614 679 615
3 615 679 680
3 615 680 616
3 616 680 681
3 616 681 617
3 617 681 682
3 617 682 618
3 618 682 683
3 618 683 619
3 619 683 684
3 619 684 620
3 620 684 685
3 620 685 621
3 621 685 686
3 621 686 622
3 622 686 687
3 622 687 623
3 623 687 688
3 623 688 624
3 624 688 689
3 624 689 625
3 625 689 690
3 625 690 626
3 626 690 691
3 626 691 627
3 627 691 692
3 627 692 628
3 628 692 693
3 628 693 629
3 629 693 694
3 629 694 630
3 630 694 695
3 630 695 631
3 631 695 696
3 631 696 632
3 632 696 697
3 632 697 633
3 633 697 698
3 633 698 634
3 634 698 699
3 634 699 635
3 635 699 700
3 635 700 636
3 636 700 701
3 636 701 637
3 637 701 702
3 637 702 638
3 638 702 703
3 638 703 639
3 639 703 704
3 639 704 640
3 640 704 641
3 640 641 577
3 641 705 706
3 641 706 642
3 642 706 707
3 642 707 643
3 643 707 708
3 643 708 644
3 644 708 709
3 644 709 645
3 645 709 710
3 645 710 646
3 646 710 711
3 646 711 647
3 647 711 712
3 647 712 648
3 648 712 713
3 648 713 649
3 649 713 714
3 649 714 650
3 650 714 715
3 650 715 651
3 651 715 716
3 651 716 652
3 652 716 717
3 652 717 653
3 653 717 718
3 653 718 654
3 654 718 719
3 654 719 655
3 655 719 720
3 655 720 656
3 656 720 721
3 656 721 657
3 657 721 722
3 657 722 658
3 658 722 723
3 658 723 659
3 659 723 724
3 659 724 660
3 660 724 725
3 660 725 661
3 661 725 726
3 661 726 662
3 662 726 727
3 662 727 663
3 663 727 728
3 663 728 664
3 664 728 729
3 664 729 665
3 665 729 730
3 665 730 666
3 666 730 731
3 666 731 667
3 667 731 732
3 667 732 668
3 668 732 733
3 668 733 669
3 669 733 734
3 669 734 670
3 670 734 735
3 670 735 671
3 671 735 736
3 671 736 672
3 672 736 737
3 672 737 673
3 673 737 738
3 673 738 674
3 674 738 739
3 674 739 675
3 675 739 740
3 675 740 676
3 676 740 741
3 676 741 677
3 677 741 742
3 677 742 678
3 678 742 743
3 678 743 679
3 679 743 744
3 679 744 680
3 680 744 745
3 680 745 681
3 681 745 746
3 681 746 682
3 682 746 747
3 682 747 683
3 683 747 748
3 683 748 684
3 684 748 749
3 684 749 685
3 685 749 750
3 685 750 686
3 686 750 751
3 686 751 687
3 687 751 752
3 687 752 688
3 688 752 753
3 688 753 689
3 689 753 754
3 689 754 690
3 690 754 755
3 690 755 691
3 691 755 756
3 691 756 692
3 692 756 757
3 692 757 693
3 693 757 758
3 693 758 694
3 694 758 759
3 694 759 695
3 695 759 760
3 695 760 696
3 696 760 761
3 696 761 697
3 697 761 762
3 697 762 698
3 698 762 763
3 698 763 699
3 699 763 764
3 699 764 700
3 700 764 765
3 700 765 701
3 701 765 766
3 701 766 702
3 702 766 767
3 702 767 703
3 703 767 768
3 703 768 704
3 704 768 705
3 704 705 641
3 705 769 770
3 705 770 706
3 706 770 771
3 706 771 707
3 707 771 772
3 707 772 708
3 708 772 773
3 708 773 709
3 709 773 774
3 709 774 710
3 710 774 775
3 710 775 711
3 711 775 776
3 711 776 712
3 712 776 777
3 712 777 713
3 713 777 778
3 713 778 714
3 714 778 779
3 714 779 715
3 715 779 780
3 715 780 716
3 716 780 781
3 716 781 717
3 717 781 782
3 717 782 718
3 718 782 783
3 718 783 719
3 719 783 784
3 719 784 720
3 720 784 785
3 720 785 721
3 721 785 786
3 721 786 722
3 722 786 787
3 722 787 723
3 723 787 788
3 723 788 724
3 724 788 789
3 724 789 725
3 725 789 790
3 725 790 726
3 726 790 791
3 726 791 727
3 727 791 792
3 727 792 728
3 728 792 793
3 728 793 729
3 729 793 794
3 729 794 730
3 730 794 795
3 730 795 731
3 731 795 796
3 731 796 732
3 732 796 797
3 732 797 733
3 733 797 798
3 733 798 734
3 734 798 799
3 734 799 735
3 735 799 800
3 735 800 736
3 736 800 801
3 736 801 737
3 737 801 802
3 737 802 738
3 738 802 803
3 738 803 739
3 739 803 804
3 739 804 740
3 740 804 805
3 740 805 741
3 741 805 806
3 741 806 742
3 742 806 807
3 742 807 743
3 743 807 808
3 743 808 744
3 744 808 809
3 744 809 745
3 745 809 810
3 745 810 746
3 746 810 811
3 746 811 747
3 747 811 812
3 747 812 748
3 748 812 813
3 748 813 749
3 749 813 814
3 749 814 750
3 750 814 815
3 750 815 751
3 751 815 816
3 751 816 752
3 752 816 817
3 752 817 753
3 753 817 818
3 753 818 754
3 754 818 819
3 754 819 755
3 755 819 820
3 755 820 756
3 756 820 821
3 756 821 757
3 757 821 822
3 757 822 758
3 758 822 823
3 758 823 759
3 759 823 824
3 759 824 760
3 760 824 825
3 760 825 761
3 761 825 826
3 761 826 762
3 762 826 827
3 762 827 763
3 763 827 828
3 763 828 764
3 764 828 829
3 764 829 765
3 765 829 830
3 765 830 766
3 766 830 831
3 766 831 767
3 767 831 832
3 767 832 768
3 768 832 769
3 768 769 705
3 769 833 834
3 769 834 770
3 770 834 835
3 770 835 771
3 771 835 836
3 771 836 772
3 772 836 837
3 772 837 773
3 773 837 838
3 773 838 774
3 774 838 839
3 774 839 775
3 775 839 840
3 775 840 776
3 776 840 841
3 776 841 777
3 777 841 842
3 777 842 778
3 778 842 843
3 778 843 779
3 779 843 844
3 779 844 780
3 780 844 845
3 780 845 781
3 781 845 846
3 781 846 782
3 782 846 847
3 782 847 783
3 783 847 848
3 783 848 784
3 784 848 849
3 784 849 785
3 785 849 850
3 785 850 786
3 786 850 851
3 786 851 787
3 787 851 852
3 787 852 788
3 788 852 853
3 788 853 789
3 789 853 854
3 789 854 790
3 790 854 855
3 790 855 791
3 791 855 856
3 791 856 792
3 792 856 857
3 792 857 793
3 793 857 858
3 793 858 794
3 794 858 859
3 794 859 795
3 795 859 860
3 795 860 796
3 796 860 861
3 796 861 797
3 797 861 862
3 797 862 798
3 798 862 863
3 798 863 799
3 799 863 864
3 799 864 800
3 800 864 865
3 800 865 801
3 801 865 866
3 801 866 802
3 802 866 867
3 802 867 803
3 803 867 868
3 803 868 804
3 804 868 869
3 804 869 805
3 805 869 870
3 805 870 806
3 806 870 871
3 806 871 807
3 807 871 872
3 807 872 808
3 808 872 873
3 808 873 809
3 809 873 874
3 809 874 810
3 810 874 875
3 810 875 811
3 811 875 876
3 811 876 812
3 812 876 877
3 812 877 813
3 813 877 878
3 813 878 814
3 814 878 879
3 814 879 815
3 815 879 880
3 815 880 816
3 816 880 881
3 816 881 817
3 817 881 882
3 817 882 818
3 818 882 883
3 818 883 819
3 819 883 884
3 819 884 820
3 820 884 885
3 820 885 821
3 821 885 886
3 821 886 822
3 822 886 887
3 822 887 823
3 823 887 888
3 823 888 824
3 824 888 889
3 824 889 825
3 825 889 890
3 825 890 826
3 826 890 891
3 826 891 827
3 827 891 892
3 827 892 828
3 828 892 893
3 828 893 829
3 829 893 894
3 829 894 830
3 830 894 895
3 830 895 831
3 831 895 896
3 831 896 832
3 832 896 833
3 832 833 769
3 833 897 898
3 833 898 834
3 834 898 899
3 834 899 835
3 835 899 900
3 835 900 836
3 836 900 901
3 836 901 837
3 837 901 902
3 837 902 838
3 838 902 903
3 838 903 839
3 839 903 904
3 839 904 840
3 840 904 905
3 840 905 841
3 841 905 906
3 841 906 842
3 842 906 907
3 842 907 843
3 843 907 908
3 843 908 844
3 844 908 909
3 844 909 845
3 845 909 910
3 845 910 846
3 846 910 911
3 846 911 847
3 847 911 912
3 847 912 848
3 848 912 913
3 848 913 849
3 849 913 914
3 849 914 850
3 850 914 915
3 850 915 851
3 851 915 916
3 851 916 852
3 852 916 917
3 852 917 853
3 853 917 918
3 853 918 854
3 854 918 919
3 854 919 855
3 855 919 920
3 855 920 856
3 856 920 921
3 856 921 857
3 857 921 922
3 857 922 858
3 858 922 923
3 858 923 859
3 859 923 924
3 859 924 860
3 860 924 925
3 860 925 861
3 861 925 926
3 861 926 862
3 862 926 927
3 862 927 863
3 863 927 928
3 863 928 864
3 864 928 929
3 864 929 865
3 865 929 930
3 865 930 866
3 866 930 931
3 866 931 867
3 867 931 932
3 867 932 868
3 868 932 933
3 868 933 869
3 869 933 934
3 869 934 870
3 870 934 935
3 870 935 871
3 871 935 936
3 871 936 872
3 872 936 937
3 872 937 873
3 873 937 938
3 873 938 874
3 874 938 939
3 874 939 875
3 875 939 940
3 875 940 876
3 876 940 941
3 876 941 877
3 877 941 942
3 877 942 878
3 878 942 943
3 878 943 879
3 879 943 944
3 879 944 880
3 880 944 945
3 880 945 881
3 881 945 946
3 881 946 882
3 882 946 947
3 882 947 883
3 883 947 948
3 883 948 884
3 884 948 949
3 884 949 885
3 885 949 950
3 885 950 886
3 886 950 951
3 886 951 887
3 887 951 952
3 887 952 888
3 888 952 953
3 888 953 889
3 889 953 954
3 889 954 890
3 890 954 955
3 890 955 891
3 891 955 956
3 891 956 892
3 892 956 957
3 892 957 893
3 893 957 958
3 893 958 894
3 894 958 959
3 894 959 895
3 895 959 960
3 895 960 896
3 896 960 897
3 896 897 833
3 897 961 962
3 897 962 898
3 898 962 963
3 898 963 899
3 899 963 964
3 899 964 900
3 900 964 965
3 900 965 901
3 901 965 966
3 901 966 902
3 902 966 967
3 902 967 903
3 903 967 968
3 903 968 904
3 904 968 969
3 904 969 905
3 905 969 970
3 905 970 906
3 906 970 971
3 906 971 907
3 907 971 972
3 907 972 908
3 908 972 973
3 908 973 909
3 909 973 974
3 909 974 910
3 910 974 975
3 910 975 911
3 911 975 976
3 911 976 912
3 912 976 977
3 912 977 913
3 913 977 978
3 913 978 914
3 914 978 979
3 914 979 915
3 915 979 980
3 915 980 916
3 916 980 981
3 916 981 917
3 917 981 982
3 917 982 918
3 918 982 983
3 918 983 919
3 919 983 984
3 919 984 920
3 920 984 985
3 920 985 921
3 921 985 986
3 921 986 922
3 922 986 987
3 922 987 923
3 923 987 988
3 923 988 924
3 924 988 989
3 924 989 925
3 925 989 990
3 925 990 926
3 926 990 991
3 926 991 927
3 927 991 992
3 927 992 928
3 928 992 993
3 928 993 929
3 929 993 994
3 929 994 930
3 930 994 995
3 930 995 931
3 931 995 996
3 931 996 932
3 932 996 997
3 932 997 933
3 933 997 998
3 933 998 934
3 934 998 999
3 934 999 935
3 935 999 1000
3 935 1000 936
3 936 1000 1001
3 936 1001 937
3 937 1001 1002
3 937 1002 938
3 938 1002 1003
3 938 1003 939
3 939 1003 1004
3 939 1004 940
3 940 1004 1005
3 940 1005 941
3 941 1005 1006
3 941 1006 942
3 942 1006 1007
3 942 1007 943
3 943 1007 1008
3 943 1008 944
3 944 1008 1009
3 944 1009 945
3 945 1009 1010
3 945 1010 946
3 946 1010 1011
3 946 1011 947
3 947 1011 1012
3 947 1012 948
3 948 1012 1013
3 948 1013 949
3 949 1013 1014
3 949 1014 950
3 950 1014 1015
3 950 1015 951
3 951 1015 1016
3 951 1016 952
3 952 1016 1017
3 952 1017 953
3 953 1017 1018
3 953 1018 954
3 954 1018 1019
3 954 1019 955
3 955 1019 1020
3 955 1020 956
3 956 1020 1021
3 956 1021 957
3 957 1021 1022
3 957 1022 958
3 958 1022 1023
3 958 1023 959
3 959 1023 1024
3 959 1024 960
3 960 1024 961
3 960 961 897
