ply
format ascii 1.0
element vertex 1040
property float x
property float y
property float z
element face 1920
property list uchar int vertex_indices
end_header
0.377 0.0 0.002
0.3753713012076027 0.029542362098016296 0.001965335094495788
0.3705571606290922 0.05869048849448806 0.0018649038702206694
0.36276079068158296 0.08709116046975615 0.0017087932446625451
0.3522820321466053 0.11446337087338594 0.0015119443762997365
0.33946965080891667 0.14061293337911202 0.0012918001682632576
0.3246721274359806 0.16542871167013046 0.0010657812777753956
0.30819763633549296 0.1888637544492542 0.0008490906611287593
0.29029013820483185 0.2109081308663642 0.000653210668072667
0.27112341418847385 0.23156127143528715 0.0004852501752049474
0.2508102187784212 0.2508102187784212 0.00034808985023750366
0.22942083370032001 0.2686172835951966 0.00024111834089031748
0.20700461681538507 0.2849174120387591 0.00016128068542393904
0.18360929329256007 0.29962313503198884 0.00010417120828412899
0.15929487999544573 0.312633804952244 6.497200513827583e-05
0.1341413595895722 0.3238458895963114 3.913074042957021e-05
0.10825088584383827 0.33316196924621866 2.275742335039074e-05
0.08174615465058925 0.34049723917187497 1.278030854908885e-05
0.054766699324381954 0.3457833308130691 6.930631633231093e-06
0.027464527603961442 0.34896991071825556 3.6292553133561597e-06
2.143283600078766e-17 0.3500247747466459 1.8351664182168868e-06
-0.02746163263032899 0.34893312659057635 8.960796464693348e-07
-0.05475295503596699 0.34569655279127176 4.225041699228319e-07
-0.08170648359382104 0.3403319973282394 1.9236613248434328e-07
-0.1081563008531747 0.3328708665775897 8.457450310529252e-08
-0.133939386824808 0.3233582842083877 3.590571037815456e-08
-0.15889676512438128 0.31185246052389515 1.4719763059916284e-08
-0.18287453875326895 0.29842412459742124 5.8270848561703625e-09
-0.20572485597769616 0.28315597235923706 2.2274865632248258e-09
-0.22730682412448502 0.2661420964005726 8.222276376240923e-10
-0.247487376212991 0.24748737621299102 2.9307736329317074e-10
-0.26614208899554637 0.2273068177999952 1.0087550177744545e-10
-0.2831559483974108 0.20572483856841045 3.352759236465768e-11
-0.29842405764779245 0.18287449772648373 1.0760495110915963e-11
-0.3118522835060421 0.1588966749292802 3.3348428154394767e-12
-0.3233578363913978 0.13393920133293738 9.980026860448458e-13
-0.3328697807070066 0.10815594803243476 2.8840399960751613e-13
-0.3403294721402432 0.08170587734982056 8.047927863012242e-14
-0.34569091920858724 0.05475206276412663 2.1686032200510376e-14
-0.3489210668066707 0.027460683504751747 5.6427310237457994e-15
-0.35000000000001913 4.286263797015971e-17 1.4177897322788613e-15
-0.34892106680667073 -0.027460683504751438 5.6427310237456984e-15
-0.34569091920858736 -0.05475206276412648 2.168603220051022e-14
-0.3403294721402433 -0.0817058773498204 8.047927863012184e-14
-0.33286978070700673 -0.10815594803243447 2.8840399960751204e-13
-0.32335783639139787 -0.1339392013329372 9.980026860448386e-13
-0.3118522835060422 -0.15889667492928009 3.3348428154394533e-12
-0.2984240576477924 -0.1828744977264839 1.076049511091604e-11
-0.2831559483974108 -0.20572483856841042 3.352759236465768e-11
-0.26614208899554653 -0.22730681779999498 1.0087550177744437e-10
-0.2474873762129911 -0.2474873762129909 2.9307736329316924e-10
-0.22730682412448514 -0.2661420964005725 8.222276376240865e-10
-0.20572485597769619 -0.2831559723592371 2.2274865632248258e-09
-0.18287453875326895 -0.29842412459742124 5.8270848561703625e-09
-0.15889676512438142 -0.3118524605238951 1.4719763059916207e-08
-0.1339393868248079 -0.32335828420838775 3.590571037815463e-08
-0.10815630085317476 -0.33287086657758963 8.457450310529236e-08
-0.08170648359382128 -0.3403319973282393 1.923661324843419e-07
-0.054752955035967145 -0.3456965527912717 4.225041699228296e-07
-0.02746163263032923 -0.3489331265905764 8.960796464693289e-07
-5.628827682180441e-17 -0.3500247747466459 1.8351664182168853e-06
0.027464527603961526 -0.3489699107182556 3.629255313356162e-06
0.05476669932438188 -0.3457833308130691 6.93063163323108e-06
0.08174615465058932 -0.34049723917187497 1.2780308549088873e-05
0.10825088584383821 -0.3331619692462187 2.27574233503907e-05
0.134141359589572 -0.3238458895963115 3.913074042957004e-05
0.15929487999544573 -0.3126338049522442 6.497200513827567e-05
0.18360929329255987 -0.299623135031989 0.00010417120828412862
0.20700461681538504 -0.28491741203875914 0.00016128068542393883
0.22942083370032004 -0.2686172835951966 0.0002411183408903176
0.2508102187784211 -0.2508102187784212 0.0003480898502375034
0.27112341418847385 -0.23156127143528704 0.0004852501752049478
0.29029013820483185 -0.2109081308663642 0.000653210668072667
0.30819763633549285 -0.18886375444925446 0.000849090661128757
0.32467212743598056 -0.16542871167013054 0.001065781277775395
0.3394696508089165 -0.14061293337911218 0.0012918001682632558
0.3522820321466053 -0.11446337087338604 0.001511944376299736
0.362760790681583 -0.0870911604697561 0.0017087932446625455
0.3705571606290921 -0.05869048849448815 0.001864903870220669
0.3753713012076027 -0.029542362098016223 0.001965335094495788
0.4289166666666666 0.0 0.0018333333333333335
0.4271668039180631 0.03361875656716868 0.0018015571699544724
0.421984758959596 0.06683581987329996 0.001709495214368947
0.41356155149125734 0.09928734408526858 0.0015663938076073331
0.402179905825651 0.13067617283184937 0.0013859490116080921
0.38817047428411416 0.16078547496127682 0.0011841501542413195
0.3718666604986795 0.1894755273425818 0.0009769661712941127
0.3535678470037096 0.2166666553048121 0.0007783331060346961
0.33351737621900823 0.24231455765187326 0.0005987764457332785
0.31189696013943696 0.26638516950986185 0.00044481266060453515
0.2888349323124316 0.2888349323124316 0.00031908236271771176
0.26442310158614196 0.30959967376226605 0.00022102514581612447
0.23873633643847572 0.3285923772334415 0.0001478406283052774
0.2118500659111758 0.34570788747549747 9.549027426045158e-05
0.1838528483074542 0.3608315315552544 5.955767137675285e-05
0.154853198987532 0.3738486931725593 3.586984539377269e-05
0.12498139488809734 0.38465318150029654 2.0860971404524846e-05
0.09438775541769892 0.3931532959406917 1.171528283666478e-05
0.06323901313403604 0.39927541496157487 6.353078997128501e-06
0.0317140749476184 0.4029655293028282 3.32681737057648e-06
2.474946133050266e-17 0.4041893768510921 1.6822358833654797e-06
-0.031711421221788647 0.40293181051912225 8.214063425968903e-07
-0.06322641420298895 0.3991958684415939 3.8729548909592926e-07
-0.09435139028232806 0.3930018242506924 1.7633562144398135e-07
-0.12489469197998906 0.38438633738738665 7.752662784651815e-08
-0.15466805728649813 0.3734017215669626 3.291356784664168e-08
-0.18348790967564507 0.3601152991626012 1.3493116138256595e-08
-0.2111765409168256 0.34460879457714383 5.341494451489499e-09
-0.2375632223372609 0.32697772419387966 2.0418626829560906e-09
-0.2624852594749599 0.30733075216719413 7.537086678220847e-10
-0.28578899329412066 0.2857889932941207 2.686542496854065e-10
-0.30733074537925337 0.2624852536775109 9.246920996265834e-11
-0.3269777022288722 0.237563206378749 3.073362633426954e-11
-0.34460873320665075 0.21117650330893917 9.8637871850063e-12
-0.3601151368962359 0.1834878269968024 3.0569392474861873e-12
-0.37340131106805524 0.15466788725228342 9.148357955411087e-13
-0.3843853420060188 0.12489436856097748 2.6437033297355647e-13
-0.3929995094950293 0.09435083455866097 7.377267207761222e-14
-0.3991907043241331 0.06322559628713532 1.9878862850467846e-14
-0.4029207557172088 0.031710551190009525 5.17250343843365e-15
-0.40416666666668416 4.9496141465541e-17 1.2996405879222897e-15
-0.4029207557172088 -0.031710551190009165 5.172503438433557e-15
-0.3991907043241332 -0.06322559628713516 1.98788628504677e-14
-0.3929995094950294 -0.09435083455866079 7.377267207761169e-14
-0.38438534200601887 -0.12489436856097733 2.6437033297355455e-13
-0.3734013110680552 -0.1546678872522834 9.148357955411087e-13
-0.360115136896236 -0.18348782699680224 3.056939247486166e-12
-0.34460873320665075 -0.21117650330893917 9.8637871850063e-12
-0.3269777022288722 -0.237563206378749 3.073362633426954e-11
-0.3073307453792534 -0.26248525367751074 9.246920996265803e-11
-0.28578899329412083 -0.2857889932941206 2.686542496854052e-10
-0.26248525947496004 -0.307330752167194 7.537086678220794e-10
-0.23756322233726104 -0.32697772419387955 2.0418626829560724e-09
-0.21117654091682542 -0.3446087945771439 5.341494451489527e-09
-0.1834879096756452 -0.36011529916260115 1.3493116138256524e-08
-0.15466805728649805 -0.37340172156696266 3.291356784664175e-08
-0.12489469197998916 -0.3843863373873866 7.7526627846518e-08
-0.09435139028232832 -0.39300182425069236 1.763356214439801e-07
-0.06322641420298913 -0.3991958684415938 3.8729548909592714e-07
-0.03171142122178892 -0.4029318105191223 8.214063425968851e-07
-6.499860916729268e-17 -0.4041893768510921 1.6822358833654784e-06
0.03171407494761849 -0.40296552930282825 3.3268173705764828e-06
0.06323901313403595 -0.39927541496157487 6.35307899712849e-06
0.094387755417699 -0.39315329594069176 1.1715282836664802e-05
0.12498139488809727 -0.38465318150029654 2.086097140452481e-05
0.15485319898753172 -0.37384869317255937 3.586984539377254e-05
0.18385284830745408 -0.3608315315552544 5.9557671376752714e-05
0.21185006591117558 -0.3457078874754976 9.549027426045125e-05
0.23873633643847564 -0.3285923772334415 0.00014784062830527718
0.264423101586142 -0.30959967376226605 0.00022102514581612455
0.28883493231243157 -0.2888349323124317 0.0003190823627177115
0.311896960139437 -0.26638516950986174 0.0004448126606045355
0.3335173762190082 -0.24231455765187332 0.0005987764457332781
0.35356784700370936 -0.21666665530481233 0.000778333106034694
0.37186666049867945 -0.18947552734258188 0.0009769661712941123
0.388170474284114 -0.16078547496127704 0.0011841501542413178
0.402179905825651 -0.13067617283184949 0.0013859490116080917
0.41356155149125745 -0.09928734408526851 0.0015663938076073336
0.4219847589595959 -0.06683581987330005 0.0017094952143689468
0.4271668039180631 -0.033618756567168596 0.0018015571699544724
0.4808333333333334 0.0 0.0016666666666666666
0.4789623066285236 0.037695151036321074 0.0016377792454131566
0.47341235729009984 0.07498115125211187 0.0015540865585172243
0.4643623123009319 0.11148352770078103 0.001423994370552121
0.45207777950469674 0.14688897479031285 0.0012599536469164471
0.4368712977593117 0.18095801654344168 0.0010765001402193812
0.41906119356137855 0.21352234301503323 0.0008881510648128296
0.39893805767192625 0.24446955616037 0.0007075755509406327
0.37674461423318456 0.27372098443738235 0.0005443422233938894
0.3526705060904001 0.3012090675844366 0.0004043751460041228
0.3268596458464422 0.3268596458464422 0.00029007487519791975
0.29942536947196396 0.35058206392933566 0.00020093195074193123
0.2704680560615665 0.3722673424281239 0.00013440057118661581
0.24009083852979157 0.39179263991900615 8.680934023677415e-05
0.2084108166194626 0.4090292581582647 5.414333761522986e-05
0.1755650383854918 0.4238514967488073 3.2608950357975174e-05
0.14171190393235647 0.4361443937543745 1.896451945865895e-05
0.10702935618480863 0.44580935270950867 1.0650257124240707e-05
0.07171132694369012 0.4527674991100806 5.77552636102591e-06
0.035963622291275366 0.45696114788740094 3.0243794277968e-06
2.806608666021766e-17 0.4583539789555383 1.5293053485140722e-06
-0.0359612098132483 0.4569304944476683 7.467330387244457e-07
-0.07169987337001094 0.4526951840919161 3.5208680826902654e-07
-0.10699629697083511 0.44567165117314567 1.6030511040361939e-07
-0.14163308310680348 0.4359018081971837 7.047875258774377e-08
-0.17539672774818832 0.42344515892553763 2.99214253151288e-08
-0.20807905422690887 0.40837813780130733 1.2266469216596902e-08
-0.2394785430803823 0.3907934645568664 4.855904046808635e-09
-0.26940158869682573 0.37079947602852226 1.8562388026873547e-09
-0.2976636948254348 0.3485194079338157 6.851896980200769e-10
-0.32409061037525044 0.3240906103752505 2.4423113607764225e-10
-0.3485194017629605 0.29766368955502664 8.40629181478712e-11
-0.3707994560603336 0.2694015741890876 2.7939660303881397e-11
-0.3907934087655091 0.23947850889139463 8.967079259096636e-12
-0.4083779902864298 0.20807897906432465 2.7790356795328974e-12
-0.42344478574471267 0.17539657317162946 8.316689050373715e-13
-0.4359009033050312 0.14163278908952023 2.4033666633959676e-13
-0.4456695468498155 0.1069957917675014 6.706606552510201e-14
-0.4526904894396791 0.07169912981014404 1.807169350042531e-14
-0.45692044462774695 0.035960418875267304 4.7022758531215e-15
-0.4583333333333493 5.612964496092231e-17 1.1814914435657177e-15
-0.45692044462774706 -0.0359604188752669 4.702275853121415e-15
-0.45269048943967916 -0.07169912981014383 1.8071693500425184e-14
-0.4456695468498155 -0.1069957917675012 6.706606552510153e-14
-0.43590090330503134 -0.14163278908951987 2.4033666633959333e-13
-0.4234447857447128 -0.1753965731716293 8.316689050373651e-13
-0.40837799028642985 -0.2080789790643245 2.779035679532878e-12
-0.3907934087655091 -0.23947850889139463 8.967079259096636e-12
-0.3707994560603336 -0.2694015741890876 2.7939660303881397e-11
-0.3485194017629607 -0.2976636895550263 8.406291814787033e-11
-0.3240906103752506 -0.32409061037525033 2.44231136077641e-10
-0.29766369482543514 -0.3485194079338155 6.851896980200684e-10
-0.26940158869682573 -0.37079947602852226 1.8562388026873547e-09
-0.23947854308038208 -0.39079346455686653 4.85590404680866e-09
-0.20807905422690903 -0.40837813780130716 1.2266469216596839e-08
-0.1753967277481882 -0.4234451589255377 2.9921425315128854e-08
-0.1416330831068036 -0.43590180819718366 7.047875258774363e-08
-0.1069962969708354 -0.4456716511731455 1.6030511040361825e-07
-0.07169987337001113 -0.45269518409191606 3.5208680826902464e-07
-0.035961209813248615 -0.45693049444766837 7.467330387244409e-07
-7.370894151278096e-17 -0.4583539789555383 1.529305348514071e-06
0.03596362229127548 -0.456961147887401 3.024379427796802e-06
0.07171132694369002 -0.4527674991100806 5.775526361025899e-06
0.10702935618480873 -0.44580935270950867 1.0650257124240727e-05
0.1417119039323564 -0.4361443937543746 1.8964519458658915e-05
0.1755650383854915 -0.4238514967488074 3.260895035797503e-05
0.20841081661946254 -0.40902925815826474 5.414333761522973e-05
0.24009083852979132 -0.3917926399190063 8.680934023677384e-05
0.2704680560615664 -0.3722673424281239 0.00013440057118661568
0.299425369471964 -0.35058206392933566 0.0002009319507419313
0.3268596458464421 -0.3268596458464423 0.0002900748751979195
0.3526705060904001 -0.3012090675844365 0.00040437514600412313
0.3767446142331845 -0.2737209844373824 0.0005443422233938891
0.398938057671926 -0.24446955616037033 0.0007075755509406308
0.41906119356137844 -0.21352234301503328 0.000888151064812829
0.43687129775931155 -0.18095801654344196 0.0010765001402193795
0.4520777795046968 -0.14688897479031301 0.0012599536469164463
0.464362312300932 -0.11148352770078095 0.0014239943705521211
0.4734123572900998 -0.074981151252112 0.001554086558517224
0.4789623066285236 -0.037695151036320984 0.0016377792454131566
0.53275 0.0 0.0015
0.530757809338984 0.041771545505473455 0.0014740013208718408
0.5248399556206037 0.08312648263092377 0.0013986779026655019
0.5151630731106063 0.12367971131629346 0.0012815949334969087
0.5019756531837424 0.1631017767487763 0.0011339582822248026
0.48557212123450916 0.20113055812560643 0.0009688501261974432
0.4662557266240774 0.23756915868748452 0.0007993359583315467
0.4443082683401428 0.27227245701592784 0.0006368179958465695
0.4199718522473608 0.30512741122289144 0.0004899080010545006
0.3934440520413631 0.3360329656590113 0.0003639376314037104
0.3648843593804528 0.3648843593804528 0.00026106738767812775
0.3344276373577859 0.3915644540964051 0.0001808387556677381
0.30219977568465706 0.4159423076228062 0.00012096051406795424
0.2683316111484073 0.4378773923625147 7.812840621309674e-05
0.23296878493147102 0.457226984761275 4.872900385370688e-05
0.1962768777834516 0.47385430032505516 2.9348055322177656e-05
0.15844241297661554 0.48763560600845235 1.7068067512793055e-05
0.1196709569519183 0.49846540947832535 9.585231411816637e-06
0.08018364075334419 0.5062595832585863 5.1979737249233184e-06
0.04021316963493232 0.5109567664719735 2.72194148501712e-06
3.1382711989932655e-17 0.5125185810599844 1.376374813662665e-06
-0.04021099840470796 0.5109291783762142 6.72059734852001e-07
-0.0801733325370329 0.5061944997422383 3.168781274421239e-07
-0.11964120365934211 0.49834147809559864 1.4427459936325745e-07
-0.15837147423361786 0.4874172790069807 6.34308773289694e-08
-0.19612539820987843 0.4734885962841125 2.692928278361592e-08
-0.2326701987781726 0.4566409764400133 1.1039822294937214e-08
-0.2677805452439389 0.43697813453658896 4.370313642127772e-09
-0.3012399550563904 0.4146212278631647 1.6706149224186193e-09
-0.3328421301759097 0.3897080637004372 6.166707282180693e-10
-0.3623922274563801 0.36239222745638017 2.1980802246987806e-10
-0.3897080581466674 0.33284212543254227 7.56566263330841e-11
-0.41462120989179496 0.30123994199942616 2.514569427349326e-11
-0.4369780843243673 0.26778051447385 8.070371333186973e-12
-0.45664084367662355 0.23267013113184687 2.5011321115796076e-12
-0.47348826042137004 0.1961252590909755 7.485020145336344e-13
-0.4874164646040433 0.15837120961806295 2.163029997056371e-13
-0.49833958420460156 0.1196407489763418 6.035945897259181e-14
-0.5061902745552248 0.0801726633331527 1.6264524150382786e-14
-0.510920133538285 0.04021028656052508 4.232048267809349e-15
-0.5125000000000143 6.27631484563036e-17 1.063342299209146e-15
-0.5109201335382851 -0.040210286560524625 4.2320482678092734e-15
-0.506190274555225 -0.08017266333315251 1.6264524150382663e-14
-0.4983395842046016 -0.11964074897634158 6.035945897259137e-14
-0.48741646460404336 -0.15837120961806275 2.1630299970563554e-13
-0.4734882604213701 -0.19612525909097528 7.485020145336289e-13
-0.45664084367662366 -0.23267013113184667 2.50113211157959e-12
-0.4369780843243673 -0.26778051447385 8.070371333186973e-12
-0.41462120989179513 -0.30123994199942594 2.514569427349308e-11
-0.3897080581466678 -0.33284212543254205 7.565662633308329e-11
-0.36239222745638033 -0.36239222745638006 2.198080224698769e-10
-0.33284213017591 -0.3897080637004369 6.166707282180616e-10
-0.3012399550563904 -0.4146212278631647 1.6706149224186193e-09
-0.2677805452439387 -0.43697813453658907 4.370313642127795e-09
-0.2326701987781726 -0.4566409764400133 1.1039822294937214e-08
-0.19612539820987832 -0.47348859628411255 2.692928278361597e-08
-0.15837147423361797 -0.4874172790069806 6.343087732896926e-08
-0.11964120365934244 -0.49834147809559853 1.4427459936325642e-07
-0.0801733325370331 -0.5061944997422381 3.168781274421223e-07
-0.0402109984047083 -0.5109291783762142 6.720597348519969e-07
-8.241927385826921e-17 -0.5125185810599844 1.376374813662664e-06
0.04021316963493244 -0.5109567664719735 2.721941485017122e-06
0.08018364075334408 -0.5062595832585863 5.197973724923309e-06
0.1196709569519184 -0.49846540947832535 9.585231411816654e-06
0.15844241297661546 -0.4876356060084524 1.7068067512793024e-05
0.19627687778345124 -0.47385430032505527 2.9348055322177528e-05
0.23296878493147094 -0.45722698476127505 4.872900385370676e-05
0.26833161114840703 -0.4378773923625149 7.812840621309647e-05
0.302199775684657 -0.41594230762280626 0.00012096051406795407
0.33442763735778597 -0.3915644540964051 0.0001808387556677382
0.36488435938045266 -0.3648843593804528 0.00026106738767812753
0.3934440520413632 -0.33603296565901114 0.00036393763140371083
0.4199718522473607 -0.3051274112228915 0.0004899080010545003
0.4443082683401426 -0.27227245701592817 0.000636817995846568
0.4662557266240773 -0.23756915868748463 0.0007993359583315463
0.48557212123450905 -0.2011305581256068 0.0009688501261974417
0.5019756531837424 -0.16310177674877643 0.0011339582822248021
0.5151630731106064 -0.12367971131629335 0.0012815949334969092
0.5248399556206034 -0.08312648263092387 0.001398677902665502
0.530757809338984 -0.04177154550547335 0.0014740013208718408
0.5846666666666667 0.0 0.0013333333333333333
0.5825533120494445 0.04584793997462585 0.0013102233963305252
0.5762675539511074 0.09127181400973566 0.0012432692468137795
0.5659638339202808 0.1358758949318059 0.0011391954964416967
0.551873526862788 0.17931457870723974 0.0010079629175331578
0.5342729447097067 0.22130309970777126 0.000861200112175505
0.5134502596867764 0.2616159743599359 0.0007105208518502637
0.48967847900835937 0.3000753578714857 0.0005660604407525062
0.4631990902615371 0.3365338380084005 0.0004354737787151116
0.4342175979923262 0.37085686373358595 0.00032350011680329826
0.40290907291446326 0.40290907291446326 0.0002320599001583358
0.36942990524360797 0.4325468442634747 0.00016074556059354506
0.33393149530774774 0.4596172728174886 0.00010752045694929265
0.296572383767023 0.4839621448060233 6.944747218941932e-05
0.25752675324347946 0.5054247113642854 4.331467009218389e-05
0.2169887171814114 0.5238571039013031 2.608716028638014e-05
0.17517292202087464 0.5391268182625303 1.517161556692716e-05
0.13231255771902797 0.5511214662471421 8.520205699392566e-06
0.08865595456299828 0.559751667407092 4.6204210888207284e-06
0.0444627169785893 0.5649523850565464 2.4195035422374397e-06
3.469933731964766e-17 0.5666831831644306 1.2234442788112578e-06
-0.04446078699616762 0.5649278623047602 5.973864309795564e-07
-0.08864679170405486 0.5596938153925605 2.816694466152212e-07
-0.13228611034784912 0.5510113050180517 1.2824408832289552e-07
-0.17510986536043227 0.5389327498167777 5.6383002070195e-08
-0.2168540686715686 0.5235320336426874 2.393714025210304e-08
-0.25726134332943645 0.5049038150787194 9.813175373277523e-09
-0.29608254740749557 0.48316280451631155 3.884723237446908e-09
-0.33307832141595517 0.45844297969780723 1.4849910421498837e-09
-0.36802056552638446 0.4308967194670586 5.481517584160617e-10
-0.40069384453750984 0.4006938445375099 1.953849088621138e-10
-0.43089671453037465 0.3680205613100581 6.725033451829697e-11
-0.4584429637232563 0.3330783098097647 2.235172824310512e-11
-0.48316275988322566 0.2960825200563054 7.173663407277308e-12
-0.5049036970668174 0.2572612831993691 2.2232285436263177e-12
-0.5235317350980274 0.21685394501032154 6.653351240298972e-13
-0.5389320259030556 0.17510963014660566 1.922693330716774e-13
-0.5510096215593877 0.1322857061851822 5.365285242008161e-14
-0.5596900596707707 0.0886461968561614 1.4457354800340254e-14
-0.5649198224488231 0.044460154245782854 3.761820682497199e-15
-0.5666666666666794 6.939665195168491e-17 9.451931548525742e-16
-0.5649198224488232 -0.044460154245782355 3.761820682497131e-15
-0.5596900596707708 -0.08864619685616117 1.4457354800340146e-14
-0.5510096215593877 -0.13228570618518196 5.3652852420081226e-14
-0.5389320259030556 -0.17510963014660544 1.9226933307167604e-13
-0.5235317350980274 -0.21685394501032154 6.653351240298972e-13
-0.5049036970668173 -0.25726128319936903 2.2232285436263185e-12
-0.48316275988322555 -0.2960825200563057 7.173663407277359e-12
-0.4584429637232563 -0.3330783098097647 2.235172824310512e-11
-0.43089671453037487 -0.36802056131005767 6.725033451829626e-11
-0.40069384453751 -0.40069384453750967 1.9538490886211283e-10
-0.3680205655263847 -0.43089671946705854 5.481517584160577e-10
-0.33307832141595517 -0.45844297969780723 1.4849910421498837e-09
-0.2960825474074953 -0.48316280451631166 3.884723237446929e-09
-0.2572613433294367 -0.5049038150787193 9.81317537327747e-09
-0.21685406867156842 -0.5235320336426874 2.393714025210309e-08
-0.17510986536043235 -0.5389327498167776 5.638300207019491e-08
-0.1322861103478495 -0.5510113050180516 1.282440883228946e-07
-0.0886467917040551 -0.5596938153925602 2.816694466152198e-07
-0.044460786996168 -0.5649278623047602 5.973864309795527e-07
-9.112960620375749e-17 -0.5666831831644306 1.2234442788112567e-06
0.044462716978589424 -0.5649523850565464 2.4195035422374418e-06
0.08865595456299816 -0.559751667407092 4.62042108882072e-06
0.13231255771902808 -0.5511214662471421 8.520205699392581e-06
0.17517292202087456 -0.5391268182625303 1.5171615566927132e-05
0.21698871718141102 -0.5238571039013032 2.6087160286380024e-05
0.25752675324347934 -0.5054247113642855 4.331467009218379e-05
0.29657238376702266 -0.48396214480602345 6.944747218941908e-05
0.33393149530774774 -0.45961727281748865 0.00010752045694929255
0.36942990524360797 -0.4325468442634747 0.00016074556059354506
0.40290907291446315 -0.4029090729144633 0.00023205990015833557
0.4342175979923263 -0.37085686373358584 0.0003235001168032985
0.46319909026153705 -0.33653383800840053 0.00043547377871511135
0.48967847900835915 -0.30007535787148604 0.0005660604407525048
0.5134502596867763 -0.261615974359936 0.0007105208518502634
0.5342729447097065 -0.2213030997077716 0.0008612001121755038
0.551873526862788 -0.1793145787072399 0.0010079629175331574
0.5659638339202808 -0.13587589493180582 0.001139195496441697
0.5762675539511072 -0.09127181400973579 0.0012432692468137797
0.5825533120494445 -0.04584793997462573 0.0013102233963305252
0.6365833333333334 0.0 0.0011666666666666665
0.6343488147599049 0.04992433444377824 0.0011464454717892093
0.6276951522816112 0.09941714538854757 0.001087860590962057
0.6167645947299553 0.14807207854731833 0.0009967960593864845
0.6017714005418338 0.19552738066570322 0.0008819675528415129
0.5829737681849042 0.24147564128993612 0.0007535500981535668
0.5606447927494753 0.28566279003238726 0.0006217057453689807
0.535048689676576 0.3278782587270436 0.0004953028856584428
0.5064263282757133 0.36794026479390957 0.00038103955637572263
0.47499114394328934 0.4056807618081607 0.00028306260220288597
0.44093378644847386 0.44093378644847386 0.0002030524126385438
0.4044321731294299 0.47352923443054423 0.00014065236551935185
0.3656632149308385 0.5032922380121709 9.40803998306311e-05
0.3248131563856387 0.5300468972495318 6.0766538165741924e-05
0.28208472155548786 0.5536224379672956 3.79003363306609e-05
0.23770055657937122 0.5738599074775511 2.282626525058262e-05
0.19190343106513377 0.5906180305166082 1.3275163621061264e-05
0.14495415848613769 0.603777523015959 7.455179986968494e-06
0.09712826837265237 0.6132437515555977 4.042868452718137e-06
0.04871226432224626 0.6189480036411191 2.1170655994577598e-06
3.8015962649362664e-17 0.6208477852688769 1.0705137439598505e-06
-0.04871057558762727 0.6189265462333062 5.227131271071118e-07
-0.09712025087107683 0.6131931310428826 2.4646076578831855e-07
-0.1449310170363562 0.603681131940505 1.1221357728253356e-07
-0.19184825648724665 0.5904482206265748 4.933512681142063e-08
-0.23758273913325872 0.5735754710012624 2.0944997720590158e-08
-0.2818524878807002 0.5531666537174255 8.586528451617832e-09
-0.3243845495710523 0.5293474744960343 3.3991328327660444e-09
-0.36491668777551994 0.5022647315324498 1.2993671618811483e-09
-0.4031990008768594 0.47208537523368027 4.796327886140538e-10
-0.43899546161863956 0.4389954616186396 1.7096179525434957e-10
-0.47208537091408165 0.40319899718757385 5.884404270350984e-11
-0.5022647175547177 0.3649166776201032 1.9557762212716986e-11
-0.529347435442084 0.32438452563876086 6.276955481367647e-12
-0.5531665504570112 0.28185243526689135 1.945324975673028e-12
-0.5735752097746849 0.23758263092966758 5.8216823352616e-13
-0.5904475872020678 0.19184805067514843 1.6823566643771772e-13
-0.6036796589141739 0.14493066339402266 4.6946245867571407e-14
-0.6131898447863167 0.09711973037917011 1.2650185450297717e-14
-0.6189195113593612 0.04871002193104063 3.2915930971850494e-15
-0.6208333333333446 7.603015544706622e-17 8.270440104960023e-16
-0.6189195113593613 -0.04871002193104008 3.2915930971849902e-15
-0.6131898447863167 -0.09711973037916984 1.2650185450297628e-14
-0.603679658914174 -0.14493066339402239 4.6946245867571066e-14
-0.5904475872020679 -0.19184805067514818 1.682356664377165e-13
-0.5735752097746849 -0.2375826309296673 5.821682335261558e-13
-0.5531665504570114 -0.2818524352668911 1.945324975673014e-12
-0.5293474354420841 -0.3243845256387609 6.2769554813676446e-12
-0.5022647175547178 -0.3649166776201033 1.9557762212716977e-11
-0.4720853709140819 -0.40319899718757335 5.884404270350922e-11
-0.43899546161863956 -0.4389954616186396 1.7096179525434957e-10
-0.4031990008768596 -0.4720853752336801 4.796327886140505e-10
-0.36491668777552005 -0.5022647315324495 1.2993671618811371e-09
-0.32438454957105206 -0.5293474744960345 3.3991328327660614e-09
-0.2818524878807003 -0.5531666537174256 8.58652845161783e-09
-0.23758273913325859 -0.5735754710012624 2.0944997720590197e-08
-0.1918482564872468 -0.5904482206265746 4.933512681142054e-08
-0.1449310170363566 -0.6036811319405049 1.1221357728253277e-07
-0.0971202508710771 -0.6131931310428825 2.464607657883172e-07
-0.04871057558762769 -0.6189265462333062 5.227131271071087e-07
-9.983993854924578e-17 -0.6208477852688769 1.0705137439598496e-06
0.0487122643222464 -0.6189480036411191 2.1170655994577614e-06
0.09712826837265223 -0.6132437515555977 4.042868452718129e-06
0.1449541584861378 -0.603777523015959 7.455179986968509e-06
0.1919034310651337 -0.5906180305166083 1.327516362106124e-05
0.2377005565793708 -0.5738599074775512 2.282626525058252e-05
0.2820847215554878 -0.5536224379672957 3.7900336330660804e-05
0.3248131563856384 -0.5300468972495321 6.076653816574169e-05
0.3656632149308383 -0.503292238012171 9.408039983063092e-05
0.40443217312943003 -0.47352923443054423 0.0001406523655193519
0.4409337864484737 -0.4409337864484739 0.00020305241263854362
0.4749911439432894 -0.4056807618081606 0.0002830626022028862
0.5064263282757132 -0.3679402647939097 0.00038103955637572225
0.5350486896765758 -0.32787825872704396 0.0004953028856584416
0.5606447927494754 -0.2856627900323874 0.0006217057453689804
0.5829737681849041 -0.24147564128993648 0.0007535500981535656
0.6017714005418338 -0.19552738066570335 0.0008819675528415127
0.6167645947299555 -0.14807207854731824 0.0009967960593864848
0.6276951522816112 -0.0994171453885477 0.0010878605909620568
0.6343488147599049 -0.04992433444377811 0.0011464454717892093
0.6885 0.0 0.0009999999999999998
0.6861443174703654 0.054000728912930625 0.0009826675472478937
0.679122750612115 0.10756247676735949 0.0009324519351103345
0.6675653555396298 0.16026826216283077 0.0008543966223312723
0.6516692742208794 0.21174018262416666 0.0007559721881498686
0.6316745916601018 0.2616481828721009 0.0006459000841316287
0.6078393258121743 0.30970960570483863 0.0005328906388876977
0.5804189003447928 0.3556811595826016 0.00042454533056437944
0.5496535662898897 0.3993466915794187 0.0003266053340363337
0.5157646898942524 0.4405046598827354 0.00024262508760247364
0.47895849998248435 0.47895849998248435 0.00017404492511875183
0.4394344410152519 0.5145116245976138 0.00012055917044515871
0.3973949345539291 0.5469672032068533 8.064034271196948e-05
0.35305392900425453 0.5761316496930405 5.208560414206448e-05
0.3066426898674962 0.6018201645703058 3.248600256913792e-05
0.258412395977331 0.6238627110537991 1.95653702147851e-05
0.20863394010939287 0.6421092427706862 1.1378711675195368e-05
0.15759575925324737 0.6564335797847758 6.390154274544423e-06
0.10560058218230645 0.6667358357041036 3.4653158166155455e-06
0.052961811665903226 0.6729436222256918 1.8146276566780794e-06
4.133258797907766e-17 0.675012387373323 9.175832091084432e-07
-0.052960364179086936 0.6729252301618522 4.480398232346673e-07
-0.10559371003809878 0.6666924466932047 2.11252084961416e-07
-0.1575759237248632 0.6563509588629581 9.618306624217161e-08
-0.20858664761406104 0.6419636914363717 4.2287251552646253e-08
-0.25831140959494886 0.6236189083598372 1.7952855189077277e-08
-0.30644363243196404 0.6014294923561315 7.3598815299581405e-09
-0.35268655173460894 0.575532144475757 2.9135424280851796e-09
-0.3967550541350846 0.5460864833670923 1.1137432816124127e-09
-0.43837743622733427 0.5132740310003018 4.1111381881204627e-10
-0.4772970786997693 0.47729707869976934 1.4653868164658535e-10
-0.5132740272977887 0.43837743306508953 5.0437750888722723e-11
-0.5460864713861792 0.39675504543044193 1.6763796182328837e-11
-0.5755321110009424 0.35268653122121635 5.380247555457981e-12
-0.601429403847205 0.3064435873344135 1.6674214077197388e-12
-0.6236186844513423 0.25831131684901365 4.990013430224228e-13
-0.6419631485010802 0.20858647120369117 1.4420199980375804e-13
-0.6563496962689599 0.15757562060286306 4.02396393150612e-14
-0.6666896299018625 0.10559326390217881 1.0843016100255185e-14
-0.6729192002698994 0.05295988961629841 2.821365511872899e-15
-0.6750000000000096 8.266365894244751e-17 7.088948661394305e-16
-0.6729192002698995 -0.052959889616297814 2.8213655118728484e-15
-0.6666896299018625 -0.1055932639021785 1.0843016100255107e-14
-0.65634969626896 -0.15757562060286276 4.023963931506091e-14
-0.6419631485010804 -0.20858647120369062 1.44201999803756e-13
-0.6236186844513425 -0.2583113168490134 4.99001343022419e-13
-0.6014294038472052 -0.3064435873344133 1.6674214077197263e-12
-0.5755321110009423 -0.3526865312212167 5.380247555458019e-12
-0.5460864713861792 -0.39675504543044193 1.6763796182328837e-11
-0.513274027297789 -0.4383774330650891 5.043775088872219e-11
-0.4772970786997693 -0.47729707869976934 1.4653868164658535e-10
-0.43837743622733477 -0.5132740310003014 4.11113818812041e-10
-0.3967550541350846 -0.5460864833670923 1.1137432816124127e-09
-0.3526865517346089 -0.5755321444757568 2.9135424280851804e-09
-0.30644363243196426 -0.6014294923561314 7.359881529958102e-09
-0.2583114095949487 -0.6236189083598374 1.795285518907731e-08
-0.20858664761406118 -0.6419636914363717 4.2287251552646174e-08
-0.15757592372486365 -0.6563509588629579 9.618306624217092e-08
-0.1055937100380991 -0.6666924466932047 2.1125208496141475e-07
-0.05296036417908739 -0.6729252301618522 4.4803982323466447e-07
-1.0855027089473405e-16 -0.675012387373323 9.175832091084424e-07
0.05296181166590338 -0.6729436222256918 1.814627656678081e-06
0.10560058218230631 -0.6667358357041036 3.465315816615539e-06
0.1575957592532475 -0.6564335797847758 6.390154274544435e-06
0.20863394010939276 -0.6421092427706863 1.1378711675195348e-05
0.25841239597733057 -0.6238627110537992 1.9565370214785016e-05
0.3066426898674962 -0.6018201645703061 3.248600256913782e-05
0.35305392900425414 -0.5761316496930408 5.20856041420643e-05
0.39739493455392894 -0.5469672032068533 8.064034271196939e-05
0.4394344410152521 -0.5145116245976139 0.00012055917044515873
0.4789584999824842 -0.4789584999824844 0.00017404492511875167
0.5157646898942525 -0.4405046598827353 0.00024262508760247383
0.5496535662898897 -0.3993466915794188 0.00032660533403633336
0.5804189003447924 -0.355681159582602 0.0004245453305643784
0.6078393258121741 -0.3097096057048388 0.0005328906388876973
0.6316745916601016 -0.2616481828721014 0.0006459000841316275
0.6516692742208795 -0.21174018262416688 0.0007559721881498678
0.6675653555396299 -0.1602682621628307 0.0008543966223312726
0.679122750612115 -0.10756247676735964 0.0009324519351103343
0.6861443174703654 -0.0540007289129305 0.0009826675472478937
0.7404166666666667 0.0 0.0008333333333333331
0.7379398201808259 0.05807712338208302 0.000818889622706578
0.7305503489426189 0.11570780814617139 0.0007770432792586116
0.7183661163493044 0.17246444577834322 0.0007119971852760602
0.7015671478999252 0.22795298458263016 0.0006299768234582233
0.6803754151352993 0.28182072445426576 0.0005382500701096905
0.6550338588748733 0.33375642137729 0.0004440755324064147
0.6257891110130095 0.3834840604381595 0.0003537877754703161
0.592880804304066 0.43075311836492775 0.0002721711116969447
0.5565382358452156 0.47532855795731027 0.00020218757300206127
0.516983213516495 0.516983213516495 0.00014503743759895977
0.4744367089010739 0.5554940147646833 0.00010046597537096559
0.42912665417701984 0.5906421684015357 6.720028559330791e-05
0.38129470162287027 0.6222164021365492 4.3404670118387063e-05
0.33120065817950467 0.6500178911733162 2.707166880761493e-05
0.27912423537529085 0.6738655146300471 1.630447517898758e-05
0.22536444915365197 0.6936004550247641 9.482259729329471e-06
0.17023736002035708 0.7090896365535927 5.325128562120352e-06
0.11407289599196055 0.7202279198526094 2.887763180512953e-06
0.05721135900956019 0.7269392408102646 1.5121897138983993e-06
4.464921330879267e-17 0.7291769894777692 7.646526742570359e-07
-0.0572101527705466 0.7269239140903982 3.7336651936222267e-07
-0.11406716920512076 0.720191762343527 1.7604340413451322e-07
-0.17022083041337024 0.7090207857854112 8.015255520180967e-08
-0.22532503874087545 0.6934791622461688 3.523937629387187e-08
-0.27904008005663905 0.6736623457184122 1.4960712657564394e-08
-0.33103477698322786 0.6496923309948377 6.133234608298449e-09
-0.3809885538981656 0.6217168144554794 2.427952023404316e-09
-0.4285934204946494 0.5899082352017349 9.281194013436771e-10
-0.47355587157780915 0.5544626867669233 3.4259484901003846e-10
-0.515598695780899 0.5155986957808991 1.221155680388211e-10
-0.5544626836814958 0.4735558689426052 4.20314590739356e-11
-0.5899082252176404 0.4285934132407804 1.39698301519407e-11
-0.6217167865598007 0.3809885368036718 4.483539629548316e-12
-0.6496922572373987 0.33103473940193573 1.3895178397664487e-12
-0.6736621591279998 0.27904000276835966 4.158344525186856e-13
-0.6934787098000924 0.22532489173223388 1.2016833316979833e-13
-0.7090197336237462 0.1702205778117035 3.353303276255099e-14
-0.7201894150174083 0.11406679742518751 9.035846750212656e-15
-0.7269188891804377 0.057209757301556204 2.351137926560748e-15
-0.7291666666666747 8.929716243782882e-17 5.907457217828586e-16
-0.7269188891804376 -0.057209757301555544 2.351137926560707e-15
-0.7201894150174086 -0.11406679742518722 9.035846750212585e-15
-0.7090197336237463 -0.17022057781170316 3.3533032762550753e-14
-0.6934787098000924 -0.22532489173223358 1.2016833316979752e-13
-0.6736621591279998 -0.27904000276835966 4.158344525186856e-13
-0.649692257237399 -0.3310347394019355 1.3895178397664384e-12
-0.6217167865598006 -0.3809885368036721 4.483539629548348e-12
-0.5899082252176405 -0.4285934132407805 1.3969830151940695e-11
-0.5544626836814961 -0.4735558689426047 4.203145907393515e-11
-0.515598695780899 -0.5155986957808991 1.221155680388211e-10
-0.4735558715778095 -0.5544626867669232 3.4259484901003593e-10
-0.42859342049464955 -0.5899082352017346 9.281194013436692e-10
-0.3809885538981652 -0.6217168144554795 2.4279520234043296e-09
-0.33103477698322786 -0.6496923309948377 6.133234608298449e-09
-0.27904008005663883 -0.6736623457184122 1.496071265756443e-08
-0.22532503874087562 -0.6934791622461687 3.5239376293871804e-08
-0.17022083041337072 -0.7090207857854111 8.01525552018091e-08
-0.11406716920512108 -0.7201917623435268 1.7604340413451235e-07
-0.05721015277054709 -0.7269239140903984 3.733665193622202e-07
-1.1726060324022233e-16 -0.7291769894777692 7.646526742570352e-07
0.05721135900956036 -0.7269392408102647 1.5121897138984e-06
0.1140728959919604 -0.7202279198526094 2.887763180512948e-06
0.17023736002035725 -0.7090896365535928 5.32512856212036e-06
0.22536444915365186 -0.6936004550247641 9.482259729329454e-06
0.27912423537529035 -0.6738655146300472 1.630447517898751e-05
0.3312006581795046 -0.6500178911733163 2.707166880761486e-05
0.38129470162286977 -0.6222164021365494 4.340467011838693e-05
0.4291266541770197 -0.5906421684015358 6.720028559330779e-05
0.4744367089010741 -0.5554940147646834 0.00010046597537096559
0.5169832135164947 -0.5169832135164949 0.00014503743759895974
0.5565382358452157 -0.47532855795731005 0.0002021875730020615
0.5928808043040659 -0.4307531183649279 0.0002721711116969444
0.6257891110130089 -0.3834840604381598 0.0003537877754703154
0.6550338588748732 -0.33375642137729017 0.0004440755324064144
0.6803754151352991 -0.2818207244542662 0.0005382500701096896
0.7015671478999252 -0.22795298458263036 0.0006299768234582231
0.7183661163493044 -0.17246444577834308 0.0007119971852760604
0.7305503489426187 -0.11570780814617153 0.000777043279258612
0.7379398201808259 -0.058077123382082874 0.000818889622706578
0.7923333333333333 0.0 0.0006666666666666666
0.7897353228912861 0.062153517851235386 0.0006551116981652629
0.7819779472731225 0.12385313952498325 0.0006216346234068897
0.7691668771589786 0.1846606293938556 0.0005695977482208486
0.7514650215789709 0.24416578654109355 0.000503981458766579
0.7290762386104966 0.3019932660364305 0.0004306000560877527
0.7022283919375721 0.3578032370497413 0.00035526042592513184
0.6711593216812259 0.41128696129371733 0.0002830302203762529
0.6361080423182424 0.46215954515043683 0.0002177368893575557
0.5973117817961786 0.5101524560318849 0.00016175005840164913
0.5550079270505055 0.5550079270505055 0.0001160299500791679
0.5094389767868958 0.5964764049317527 8.037278029677249e-05
0.4608583738001105 0.6343171335962181 5.376022847464632e-05
0.40953547424148595 0.6683011545800577 3.472373609470966e-05
0.3557586264915131 0.6982156177763265 2.1657335046091954e-05
0.2998360747732506 0.7238683182062948 1.3043580143190075e-05
0.2420949581979111 0.745091667278842 7.5858077834635754e-06
0.1828789607874667 0.7617456933224093 4.260102849696285e-06
0.12254520980161461 0.7737200040011148 2.3102105444103642e-06
0.06146090635321714 0.7809348593948371 1.2097517711187205e-06
4.796583863850766e-17 0.7833415915822153 6.117221394056289e-07
-0.061459941362006235 0.7809225980189439 2.986932154897784e-07
-0.12254062837214272 0.7736910779938491 1.408347233076106e-07
-0.18286573710187723 0.7616906127078642 6.412204416144776e-08
-0.24206342986768978 0.7449946330559657 2.8191501035097507e-08
-0.29976875051832913 0.723705783076987 1.1968570126051525e-08
-0.3556259215344916 0.6979551696335436 4.9065876866387615e-09
-0.40929055606172227 0.667901484435202 1.942361618723453e-09
-0.4604317868542141 0.6337299870363774 7.424955210749419e-10
-0.508734306928284 0.5956513425335448 2.740758792080309e-10
-0.5539003128620287 0.5539003128620287 9.76924544310569e-11
-0.5956513400652028 0.5087343048201209 3.3625167259148474e-11
-0.6337299790491019 0.460431781051119 1.117586412155256e-11
-0.667901462118659 0.4092905423861272 3.586831703638654e-12
-0.6979551106275925 0.35562589146945794 1.1116142718131588e-12
-0.723705633804657 0.2997686886877057 3.326675620149486e-13
-0.7449942710991047 0.24206331226077663 9.613466653583865e-14
-0.761689770978532 0.18286553502054384 2.6826426210040818e-14
-0.7736892001329541 0.12254033094819618 7.228677400170128e-15
-0.7809185780909754 0.061459624986813954 1.8809103412486007e-15
-0.7833333333333397 9.59306659332101e-17 4.725965774262871e-16
-0.7809185780909758 -0.061459624986813274 1.8809103412485652e-15
-0.7736892001329543 -0.12254033094819586 7.228677400170073e-15
-0.7616897709785322 -0.18286553502054353 2.6826426210040613e-14
-0.7449942710991049 -0.24206331226077596 9.613466653583734e-14
-0.7237056338046571 -0.29976868868770534 3.3266756201494616e-13
-0.6979551106275927 -0.35562589146945767 1.111614271813151e-12
-0.667901462118659 -0.4092905423861272 3.586831703638654e-12
-0.6337299790491019 -0.460431781051119 1.117586412155256e-11
-0.5956513400652033 -0.5087343048201205 3.362516725914811e-11
-0.5539003128620287 -0.5539003128620288 9.769245443105685e-11
-0.5087343069282846 -0.5956513425335445 2.740758792080274e-10
-0.4604317868542141 -0.6337299870363774 7.424955210749419e-10
-0.4092905560617222 -0.6679014844352019 1.942361618723454e-09
-0.3556259215344916 -0.6979551696335436 4.9065876866387615e-09
-0.29976875051832896 -0.7237057830769872 1.1968570126051542e-08
-0.24206342986769 -0.7449946330559657 2.8191501035097437e-08
-0.18286573710187778 -0.7616906127078642 6.412204416144727e-08
-0.12254062837214305 -0.7736910779938488 1.4083472330760992e-07
-0.06145994136200676 -0.780922598018944 2.9869321548977637e-07
-1.2597093558571057e-16 -0.7833415915822153 6.117221394056284e-07
0.06146090635321731 -0.7809348593948371 1.2097517711187215e-06
0.12254520980161443 -0.7737200040011148 2.31021054441036e-06
0.18287896078746688 -0.7617456933224094 4.2601028496962905e-06
0.24209495819791094 -0.745091667278842 7.585807783463566e-06
0.2998360747732501 -0.723868318206295 1.3043580143190019e-05
0.35575862649151296 -0.6982156177763266 2.1657335046091893e-05
0.40953547424148545 -0.6683011545800579 3.472373609470956e-05
0.4608583738001103 -0.6343171335962181 5.3760228474646246e-05
0.5094389767868958 -0.5964764049317527 8.037278029677249e-05
0.5550079270505053 -0.5550079270505055 0.00011602995007916779
0.5973117817961786 -0.5101524560318845 0.00016175005840164932
0.6361080423182423 -0.46215954515043695 0.00021773688935755557
0.6711593216812254 -0.4112869612937177 0.0002830302203762525
0.702228391937572 -0.3578032370497415 0.00035526042592513163
0.7290762386104966 -0.30199326603643106 0.00043060005608775163
0.751465021578971 -0.2441657865410938 0.0005039814587665785
0.7691668771589788 -0.18466062939385552 0.0005695977482208485
0.7819779472731223 -0.12385313952498343 0.0006216346234068899
0.7897353228912861 -0.062153517851235233 0.0006551116981652629
0.8442500000000001 0.0 0.0004999999999999999
0.8415308256017466 0.06622991232038777 0.0004913337736239469
0.8334055456036263 0.13199847090379518 0.00046622596755516724
0.819967637968653 0.19685681300936805 0.00042719831116563644
0.8013628952580165 0.26037858849955703 0.00037798609407493406
0.7777770620856942 0.32216580761859537 0.00032295004206581434
0.7494229250002711 0.3818500527221927 0.00026644531944384884
0.7165295323494425 0.4390898621492752 0.00021227266528218977
0.6793352803324186 0.4935659719359459 0.00016330266701816684
0.6380853277471418 0.5449763541064596 0.00012131254380123682
0.593032640584516 0.593032640584516 8.702246255937592e-05
0.5444412446727178 0.6374587950988223 6.027958522257936e-05
0.49259009342320115 0.6779920987909004 4.0320171355984754e-05
0.4377762468601017 0.7143859070235664 2.604280207103224e-05
0.38031659480352153 0.7464133443793368 1.6243001284568955e-05
0.3205479141712104 0.7738711217825429 9.78268510739255e-06
0.25882546724217015 0.7965828795329198 5.689355837597684e-06
0.19552056155457642 0.8144017500912263 3.1950771372722115e-06
0.1310175236112687 0.8272120881496207 1.7326579083077727e-06
0.06571045369687412 0.8349304779794099 9.073138283390397e-07
5.128246396822266e-17 0.8375061936866615 4.587916045542216e-07
-0.06570972995346591 0.83492128194749 2.2401991161733364e-07
-0.1310140875391647 0.8271903936441712 1.0562604248070794e-07
-0.19551064379038427 0.8143604396303173 4.8091533121085806e-08
-0.2588018209945042 0.7965101038657627 2.1143625776323127e-08
-0.3204974209800193 0.773749220435562 8.976427594538639e-09
-0.3802170660857554 0.7462180082722497 3.6799407649790703e-09
-0.43759255822527887 0.7140861544149245 1.4567712140425902e-09
-0.4922701532137788 0.6775517388710198 5.568716408062066e-10
-0.543912742278759 0.6368399983001665 2.0555690940602303e-10
-0.5922019299431583 0.5922019299431585 7.326934082329267e-11
-0.6368399964489099 0.5439127406976367 2.5218875444361346e-11
-0.6775517328805633 0.49227014886145753 8.381898091164418e-12
-0.7140861376775173 0.4375925479685826 2.6901237777289904e-12
-0.7462179640177864 0.3802170435369802 8.33710703859869e-13
-0.7737491084813146 0.3204973746070518 2.495006715112114e-13
-0.7965098323981168 0.25880173278931934 7.210099990187902e-14
-0.8143598083333183 0.1955104922293843 2.01198196575306e-14
-0.8271889852484999 0.1310138644712049 5.421508050127596e-15
-0.8349182670015137 0.06570949267207174 1.4106827559364495e-15
-0.8375000000000048 1.0256416942859142e-16 3.5444743306971524e-16
-0.8349182670015138 -0.065709492672071 1.4106827559364242e-15
-0.8271889852485002 -0.13101386447120453 5.421508050127554e-15
-0.8143598083333184 -0.19551049222938394 2.0119819657530456e-14
-0.7965098323981171 -0.2588017327893186 7.2100999901878e-14
-0.7737491084813147 -0.32049737460705147 2.4950067151120944e-13
-0.7462179640177865 -0.3802170435369798 8.337107038598637e-13
-0.7140861376775173 -0.4375925479685826 2.6901237777289904e-12
-0.6775517328805631 -0.4922701488614575 8.381898091164423e-12
-0.6368399964489102 -0.5439127406976361 2.5218875444361093e-11
-0.5922019299431587 -0.5922019299431581 7.32693408232923e-11
-0.5439127422787593 -0.6368399983001662 2.0555690940602158e-10
-0.49227015321377915 -0.6775517388710197 5.568716408062014e-10
-0.4375925582252785 -0.7140861544149247 1.4567712140425979e-09
-0.3802170660857554 -0.7462180082722497 3.6799407649790703e-09
-0.3204974209800191 -0.773749220435562 8.976427594538655e-09
-0.2588018209945044 -0.7965101038657626 2.1143625776323087e-08
-0.1955106437903848 -0.814360439630317 4.8091533121085495e-08
-0.13101408753916505 -0.8271903936441711 1.0562604248070745e-07
-0.06570972995346647 -0.83492128194749 2.2401991161733223e-07
-1.3468126793119884e-16 -0.8375061936866615 4.587916045542212e-07
0.0657104536968743 -0.8349304779794099 9.073138283390405e-07
0.1310175236112685 -0.8272120881496207 1.7326579083077696e-06
0.1955205615545766 -0.8144017500912263 3.1950771372722174e-06
0.25882546724217004 -0.79658287953292 5.689355837597674e-06
0.32054791417120987 -0.7738711217825431 9.782685107392508e-06
0.3803165948035214 -0.7464133443793369 1.6243001284568917e-05
0.43777624686010125 -0.7143859070235666 2.604280207103215e-05
0.492590093423201 -0.6779920987909005 4.032017135598468e-05
0.544441244672718 -0.6374587950988223 6.0279585222579344e-05
0.5930326405845158 -0.5930326405845161 8.702246255937583e-05
0.6380853277471419 -0.5449763541064594 0.00012131254380123697
0.6793352803324184 -0.4935659719359461 0.00016330266701816668
0.7165295323494422 -0.43908986214927564 0.00021227266528218926
0.749422925000271 -0.3818500527221928 0.00026644531944384873
0.7777770620856941 -0.3221658076185959 0.00032295004206581385
0.8013628952580165 -0.2603785884995573 0.0003779860940749339
0.8199676379686532 -0.19685681300936791 0.0004271983111656363
0.8334055456036261 -0.13199847090379535 0.00046622596755516746
0.8415308256017466 -0.06622991232038762 0.0004913337736239469
0.8961666666666667 0.0 0.00033333333333333316
0.8933263283122072 0.07030630678954017 0.0003275558490826311
0.8848331439341302 0.14014380228260706 0.0003108173117034447
0.8707683987783277 0.20905299662488055 0.000284798874110424
0.8512607689370623 0.2765913904580205 0.0002519907293832893
0.8264778855608917 0.3423383492007602 0.00021530002804387614
0.7966174580629701 0.40589686839464406 0.00017763021296256584
0.7618997430176592 0.46689276300483307 0.00014151511018812646
0.7225625183465949 0.524972398721455 0.00010886844467877785
0.6788588736981048 0.5798002521810343 8.087502920082453e-05
0.6310573541185266 0.6310573541185266 5.801497503958386e-05
0.5794435125585399 0.6784411852658918 4.0186390148386225e-05
0.5243218130462919 0.7216670639855828 2.688011423732316e-05
0.4660170194787175 0.760470659467075 1.736186804735482e-05
0.40487456311552994 0.7946110709823471 1.0828667523045977e-05
0.34125975356917027 0.8238739253587909 6.521790071595031e-06
0.27555597628642925 0.8480740917869978 3.7929038917317877e-06
0.2081621623216861 0.867057806860043 2.1300514248481406e-06
0.13948983742092277 0.8807041722981264 1.1551052722051815e-06
0.06996000104053107 0.8889260965639826 6.048758855593596e-07
5.459908929793767e-17 0.8916707957911078 3.058610697028143e-07
-0.06995951854492556 0.8889199658760362 1.4934660774488906e-07
-0.13948754670618665 0.8806897092944934 7.041736165380534e-08
-0.2081555504788913 0.8670302665527706 3.206102208072386e-08
-0.27554021212131863 0.8480255746755598 1.4095750517548732e-08
-0.34122609144170946 0.8237926577941369 5.984285063025757e-09
-0.40480821063701916 0.7944808469109558 2.4532938433193795e-09
-0.4658945603888355 0.7602708243946471 9.711808093617266e-10
-0.5241085195733436 0.7213734907056624 3.7124776053747077e-10
-0.5790911776292338 0.6780286540667878 1.3703793960401546e-10
-0.6305035470242881 0.6305035470242882 4.884622721552843e-11
-0.6780286528326169 0.5790911765751524 1.6812583629574237e-11
-0.7213734867120246 0.5241085166717961 5.587932060776277e-12
-0.7602708132363756 0.46589455355103804 1.7934158518193263e-12
-0.7944808174079802 0.40480819560450243 5.558071359065797e-13
-0.823792583157972 0.3412260605263978 1.6633378100747421e-13
-0.8480253936971291 0.2755401533178621 4.8067333267919325e-14
-0.8670298456881044 0.20815544943822473 1.3413213105020396e-14
-0.8806887703640459 0.13948739799421359 3.61433870008506e-15
-0.8889179559120518 0.06995936035732951 9.404551706242994e-16
-0.8916666666666699 1.0919767292397273e-16 2.362982887131434e-16
-0.888917955912052 -0.06995936035732873 9.404551706242816e-16
-0.8806887703640459 -0.13948739799421317 3.614338700085038e-15
-0.8670298456881045 -0.2081554494382243 1.3413213105020298e-14
-0.8480253936971294 -0.27554015331786175 4.8067333267918934e-14
-0.8237925831579722 -0.3412260605263975 1.6633378100747283e-13
-0.7944808174079804 -0.40480819560450204 5.558071359065758e-13
-0.7602708132363754 -0.4658945535510385 1.7934158518193388e-12
-0.7213734867120246 -0.5241085166717961 5.587932060776277e-12
-0.678028652832617 -0.5790911765751521 1.6812583629574175e-11
-0.6305035470242881 -0.6305035470242882 4.884622721552843e-11
-0.5790911776292345 -0.6780286540667874 1.3703793960401362e-10
-0.5241085195733438 -0.7213734907056623 3.7124776053746746e-10
-0.4658945603888351 -0.7602708243946473 9.711808093617316e-10
-0.4048082106370195 -0.7944808469109554 2.4532938433193687e-09
-0.34122609144170923 -0.823792657794137 5.984285063025768e-09
-0.2755402121213188 -0.8480255746755596 1.4095750517548719e-08
-0.2081555504788919 -0.8670302665527704 3.2061022080723635e-08
-0.13948754670618707 -0.8806897092944934 7.041736165380489e-08
-0.06995951854492616 -0.8889199658760362 1.493466077448881e-07
-1.4339160027668713e-16 -0.8916707957911078 3.05861069702814e-07
0.06996000104053128 -0.8889260965639826 6.048758855593601e-07
0.13948983742092255 -0.8807041722981263 1.1551052722051804e-06
0.2081621623216863 -0.867057806860043 2.1300514248481444e-06
0.27555597628642914 -0.8480740917869979 3.792903891731781e-06
0.3412597535691696 -0.823873925358791 6.521790071595009e-06
0.40487456311552983 -0.7946110709823473 1.0828667523045942e-05
0.466017019478717 -0.7604706594670753 1.736186804735476e-05
0.5243218130462917 -0.7216670639855829 2.688011423732311e-05
0.5794435125585399 -0.6784411852658918 4.0186390148386245e-05
0.6310573541185263 -0.6310573541185266 5.801497503958392e-05
0.6788588736981049 -0.579800252181034 8.08750292008247e-05
0.7225625183465948 -0.5249723987214551 0.00010886844467877778
0.7618997430176587 -0.4668927630048337 0.00014151511018812608
0.79661745806297 -0.40589686839464434 0.00017763021296256568
0.8264778855608915 -0.3423383492007607 0.00021530002804387582
0.8512607689370623 -0.2765913904580207 0.00025199072938328923
0.8707683987783278 -0.20905299662488036 0.0002847988741104241
0.8848331439341302 -0.14014380228260728 0.00031081731170344465
0.8933263283122072 -0.07030630678954 0.0003275558490826311
0.9480833333333333 0.0 0.00016666666666666674
0.9451218310226674 0.07438270125869255 0.00016377792454131573
0.9362607422646341 0.148289133661419 0.00015540865585172222
0.921569159588002 0.22124918024039292 0.00014239943705521247
0.9011586426161077 0.2928041924164839 0.00012599536469164505
0.8751787090360891 0.362510890782925 0.00010765001402193841
0.8438119911256688 0.4299436840670954 8.8815106481283e-05
0.8072699536858756 0.4946956638603909 7.075755509406331e-05
0.7657897563607711 0.5563788255069642 5.4434222339388946e-05
0.7196324196490679 0.614624150255609 4.0437514600412303e-05
0.669082067652537 0.669082067652537 2.9007487519791987e-05
0.6144457804443617 0.7194235754329613 2.0093195074193133e-05
0.5560535326693824 0.7653420291802651 1.3440057118661594e-05
0.49425779209733317 0.8065554119105836 8.68093402367742e-06
0.42943253142753834 0.8428087975853573 5.4143337615230004e-06
0.36197159296713 0.8738767289350388 3.2608950357975187e-06
0.2922864853306883 0.8995653040410755 1.8964519458659e-06
0.22080376308879576 0.9197138636288597 1.0650257124240735e-06
0.14796215123057685 0.9341962564466322 5.775526361025902e-07
0.07420954838418803 0.9429217151485553 3.024379427796801e-07
5.791571462765266e-17 0.9458353978955538 1.529305348514073e-07
-0.07420930713638521 0.942918649804582 7.46733038724446e-08
-0.14796100587320862 0.9341890249448156 3.520868082690267e-08
-0.22080045716739832 0.9197000934752235 1.6030511040361947e-08
-0.292278603248133 0.8995410454853566 7.04787525877438e-09
-0.36195476190339954 0.8738360951527118 2.992142531512888e-09
-0.429399355188283 0.8427436855496618 1.226646921659691e-09
-0.49419656255239214 0.8064554943743697 4.855904046808637e-10
-0.5559468859329083 0.7651952425403049 1.8562388026873557e-10
-0.6142696129797086 0.7192173098334093 6.851896980200787e-11
-0.6688051641054177 0.6688051641054178 2.442311360776429e-11
-0.7192173092163239 0.6142696124526681 8.40629181478711e-12
-0.7651952405434859 0.5559468844821346 2.7939660303881412e-12
-0.8064554887952339 0.4941965591334935 8.96707925909664e-13
-0.8427436707981738 0.4293993476720246 2.7790356795329047e-13
-0.8738360578346294 0.3619547464457438 8.31668905037372e-14
-0.8995409549961411 0.2922785738464047 2.403366663395974e-14
-0.9196998830428904 0.2208004066470651 6.7066065525102195e-15
-0.9341885554795918 0.14796093151722228 1.807169350042532e-15
-0.9429176448225898 0.07420922804258728 4.702275853121502e-16
-0.9458333333333349 1.15831176419354e-16 1.1814914435657183e-16
-0.9429176448225899 -0.07420922804258645 4.702275853121417e-16
-0.934188555479592 -0.1479609315172219 1.8071693500425155e-15
-0.9196998830428906 -0.2208004066470647 6.706606552510156e-15
-0.8995409549961413 -0.2922785738464044 2.4033666633959514e-14
-0.8738360578346295 -0.36195474644574344 8.316689050373659e-14
-0.842743670798174 -0.4293993476720242 2.779035679532885e-13
-0.8064554887952339 -0.4941965591334935 8.96707925909664e-13
-0.7651952405434859 -0.5559468844821346 2.7939660303881412e-12
-0.7192173092163244 -0.6142696124526674 8.40629181478702e-12
-0.668805164105418 -0.6688051641054176 2.4423113607764113e-11
-0.6142696129797093 -0.7192173098334088 6.851896980200688e-11
-0.5559468859329083 -0.7651952425403049 1.8562388026873557e-10
-0.49419656255239175 -0.8064554943743699 4.855904046808663e-10
-0.42939935518828326 -0.8427436855496615 1.226646921659687e-09
-0.36195476190339937 -0.8738360951527119 2.992142531512887e-09
-0.29227860324813315 -0.8995410454853565 7.047875258774367e-09
-0.22080045716739893 -0.9197000934752233 1.603051104036183e-08
-0.14796100587320904 -0.9341890249448155 3.520868082690248e-08
-0.07420930713638585 -0.9429186498045821 7.467330387244399e-08
-1.521019326221754e-16 -0.9458353978955538 1.5293053485140717e-07
0.07420954838418825 -0.9429217151485554 3.0243794277967975e-07
0.14796215123057663 -0.9341962564466321 5.775526361025902e-07
0.22080376308879598 -0.9197138636288598 1.0650257124240733e-06
0.2922864853306882 -0.8995653040410757 1.8964519458658924e-06
0.36197159296712933 -0.8738767289350389 3.260895035797512e-06
0.42943253142753823 -0.8428087975853575 5.414333761522976e-06
0.4942577920973326 -0.8065554119105839 8.68093402367739e-06
0.5560535326693824 -0.7653420291802652 1.3440057118661575e-05
0.6144457804443618 -0.7194235754329613 2.0093195074193143e-05
0.6690820676525367 -0.6690820676525371 2.900748751979196e-05
0.7196324196490679 -0.6146241502556087 4.043751460041242e-05
0.7657897563607712 -0.5563788255069643 5.443422233938884e-05
0.8072699536858752 -0.4946956638603915 7.075755509406312e-05
0.8438119911256687 -0.42994368406709554 8.881510648128295e-05
0.8751787090360889 -0.36251089078292553 0.00010765001402193825
0.9011586426161078 -0.2928041924164842 0.00012599536469164472
0.9215691595880022 -0.22124918024039278 0.0001423994370552122
0.9362607422646338 -0.14828913366141916 0.00015540865585172249
0.9451218310226674 -0.07438270125869237 0.00016377792454131573
1.0 0.0 0.0
0.996917333733128 0.07845909572784494 0.0
0.9876883405951378 0.15643446504023087 0.0
0.9723699203976766 0.2334453638559054 0.0
0.9510565162951534 0.30901699437494734 2.5824545515699835e-19
0.9238795325112867 0.38268343236508984 0.0
0.8910065241883679 0.45399049973954675 0.0
0.8526401643540923 0.5224985647159488 0.0
0.8090169943749475 0.5877852522924731 0.0
0.7604059656000309 0.6494480483301837 0.0
0.7071067811865476 0.7071067811865476 0.0
0.6494480483301838 0.7604059656000308 0.0
0.5877852522924731 0.8090169943749475 0.0
0.5224985647159489 0.8526401643540922 0.0
0.45399049973954675 0.8910065241883677 1.1097448624704278e-20
0.38268343236508984 0.9238795325112867 0.0
0.3090169943749474 0.9510565162951534 3.887048520730149e-21
0.23344536385590547 0.9723699203976766 0.0
0.15643446504023092 0.9876883405951378 0.0
0.078459095727845 0.996917333733128 0.0
6.123233995736766e-17 1.0 0.0
-0.07845909572784487 0.996917333733128 0.0
-0.1564344650402306 0.9876883405951378 0.0
-0.23344536385590534 0.9723699203976767 0.0
-0.30901699437494734 0.9510565162951536 0.0
-0.3826834323650897 0.9238795325112867 0.0
-0.45399049973954675 0.8910065241883679 0.0
-0.5224985647159488 0.8526401643540923 0.0
-0.5877852522924729 0.8090169943749473 3.8046259531313245e-25
-0.6494480483301834 0.7604059656000308 1.4043939304206414e-25
-0.7071067811865475 0.7071067811865476 0.0
-0.7604059656000309 0.6494480483301838 0.0
-0.8090169943749473 0.5877852522924732 0.0
-0.8526401643540922 0.5224985647159489 0.0
-0.8910065241883678 0.45399049973954686 0.0
-0.9238795325112867 0.3826834323650899 0.0
-0.9510565162951535 0.3090169943749475 0.0
-0.9723699203976766 0.23344536385590553 0.0
-0.9876883405951375 0.15643446504023095 3.7040511171952566e-30
-0.996917333733128 0.07845909572784507 0.0
-1.0 1.2246467991473532e-16 0.0
-0.9969173337331281 -0.07845909572784418 0.0
-0.9876883405951378 -0.15643446504023054 0.0
-0.9723699203976767 -0.23344536385590509 0.0
-0.9510565162951539 -0.3090169943749467 0.0
-0.9238795325112868 -0.38268343236508945 0.0
-0.891006524188368 -0.45399049973954647 0.0
-0.8526401643540922 -0.5224985647159489 0.0
-0.8090169943749472 -0.5877852522924731 5.7266315389983924e-27
-0.7604059656000315 -0.6494480483301831 0.0
-0.7071067811865478 -0.7071067811865472 0.0
-0.6494480483301839 -0.7604059656000307 0.0
-0.5877852522924734 -0.8090169943749472 0.0
-0.5224985647159484 -0.8526401643540925 0.0
-0.45399049973954714 -0.8910065241883677 0.0
-0.3826834323650895 -0.9238795325112868 0.0
-0.30901699437494756 -0.9510565162951535 0.0
-0.233445363855906 -0.9723699203976764 0.0
-0.156434465040231 -0.9876883405951375 7.216520883822537e-23
-0.07845909572784554 -0.996917333733128 0.0
-1.6081226496766366e-16 -1.0 0.0
0.07845909572784522 -0.996917333733128 0.0
0.1564344650402307 -0.9876883405951378 0.0
0.23344536385590567 -0.9723699203976766 0.0
0.3090169943749473 -0.9510565162951536 0.0
0.38268343236508917 -0.923879532511287 0.0
0.45399049973954664 -0.8910065241883679 0.0
0.5224985647159484 -0.8526401643540925 0.0
0.5877852522924729 -0.8090169943749476 0.0
0.6494480483301839 -0.7604059656000308 0.0
0.7071067811865474 -0.7071067811865477 0.0
0.7604059656000309 -0.6494480483301833 8.288244880244988e-20
0.8090169943749473 -0.5877852522924732 0.0
0.8526401643540918 -0.5224985647159495 0.0
0.8910065241883678 -0.45399049973954697 0.0
0.9238795325112865 -0.3826834323650904 0.0
0.9510565162951535 -0.3090169943749477 0.0
0.9723699203976767 -0.2334453638559052 0.0
0.9876883405951375 -0.15643446504023106 3.1853218698946945e-19
0.996917333733128 -0.07845909572784475 0.0
3 0 80 81
3 0 81 1
3 1 81 82
3 1 82 2
3 2 82 83
3 2 83 3
3 3 83 84
3 3 84 4
3 4 84 85
3 4 85 5
3 5 85 86
3 5 86 6
3 6 86 87
3 6 87 7
3 7 87 88
3 7 88 8
3 8 88 89
3 8 89 9
3 9 89 90
3 9 90 10
3 10 90 91
3 10 91 11
3 11 91 92
3 11 92 12
3 12 92 93
3 12 93 13
3 13 93 94
3 13 94 14
3 14 94 95
3 14 95 15
3 15 95 96
3 15 96 16
3 16 96 97
3 16 97 17
3 17 97 98
3 17 98 18
3 18 98 99
3 18 99 19
3 19 99 100
3 19 100 20
3 20 100 101
3 20 101 21
3 21 101 102
3 21 102 22
3 22 102 103
3 22 103 23
3 23 103 104
3 23 104 24
3 24 104 105
3 24 105 25
3 25 105 106
3 25 106 26
3 26 106 107
3 26 107 27
3 27 107 108
3 27 108 28
3 28 108 109
3 28 109 29
3 29 109 110
3 29 110 30
3 30 110 111
3 30 111 31
3 31 111 112
3 31 112 32
3 32 112 113
3 32 113 33
3 33 113 114
3 33 114 34
3 34 114 115
3 34 115 35
3 35 115 116
3 35 116 36
3 36 116 117
3 36 117 37
3 37 117 118
3 37 118 38
3 38 118 119
3 38 119 39
3 39 119 120
3 39 120 40
3 40 120 121
3 40 121 41
3 41 121 122
3 41 122 42
3 42 122 123
3 42 123 43
3 43 123 124
3 43 124 44
3 44 124 125
3 44 125 45
3 45 125 126
3 45 126 46
3 46 126 127
3 46 127 47
3 47 127 128
3 47 128 48
3 48 128 129
3 48 129 49
3 49 129 130
3 49 130 50
3 50 130 131
3 50 131 51
3 51 131 132
3 51 132 52
3 52 132 133
3 52 133 53
3 53 133 134
3 53 134 54
3 54 134 135
3 54 135 55
3 55 135 136
3 55 136 56
3 56 136 137
3 56 137 57
3 57 137 138
3 57 138 58
3 58 138 139
3 58 139 59
3 59 139 140
3 59 140 60
3 60 140 141
3 60 141 61
3 61 141 142
3 61 142 62
3 62 142 143
3 62 143 63
3 63 143 144
3 63 144 64
3 64 144 145
3 64 145 65
3 65 145 146
3 65 146 66
3 66 146 147
3 66 147 67
3 67 147 148
3 67 148 68
3 68 148 149
3 68 149 69
3 69 149 150
3 69 150 70
3 70 150 151
3 70 151 71
3 71 151 152
3 71 152 72
3 72 152 153
3 72 153 73
3 73 153 154
3 73 154 74
3 74 154 155
3 74 155 75
3 75 155 156
3 75 156 76
3 76 156 157
3 76 157 77
3 77 157 158
3 77 158 78
3 78 158 159
3 78 159 79
3 79 159 80
3 79 80 0
3 80 160 161
3 80 161 81
3 81 161 162
3 81 162 82
3 82 162 163
3 82 163 83
3 83 163 164
3 83 164 84
3 84 164 165
3 84 165 85
3 85 165 166
3 85 166 86
3 86 166 167
3 86 167 87
3 87 167 168
3 87 168 88
3 88 168 169
3 88 169 89
3 89 169 170
3 89 170 90
3 90 170 171
3 90 171 91
3 91 171 172
3 91 172 92
3 92 172 173
3 92 173 93
3 93 173 174
3 93 174 94
3 94 174 175
3 94 175 95
3 95 175 176
3 95 176 96
3 96 176 177
3 96 177 97
3 97 177 178
3 97 178 98
3 98 178 179
3 98 179 99
3 99 179 180
3 99 180 100
3 100 180 181
3 100 181 101
3 101 181 182
3 101 182 102
3 102 182 183
3 102 183 103
3 103 183 184
3 103 184 104
3 104 184 185
3 104 185 105
3 105 185 186
3 105 186 106
3 106 186 187
3 106 187 107
3 107 187 188
3 107 188 108
3 108 188 189
3 108 189 109
3 109 189 190
3 109 190 110
3 110 190 191
3 110 191 111
3 111 191 192
3 111 192 112
3 112 192 193
3 112 193 113
3 113 193 194
3 113 194 114
3 114 194 195
3 114 195 115
3 115 195 196
3 115 196 116
3 116 196 197
3 116 197 117
3 117 197 198
3 117 198 118
3 118 198 199
3 118 199 119
3 119 199 200
3 119 200 120
3 120 200 201
3 120 201 121
3 121 201 202
3 121 202 122
3 122 202 203
3 122 203 123
3 123 203 204
3 123 204 124
3 124 204 205
3 124 205 125
3 125 205 206
3 125 206 126
3 126 206 207
3 126 207 127
3 127 207 208
3 127 208 128
3 128 208 209
3 128 209 129
3 129 209 210
3 129 210 130
3 130 210 211
3 130 211 131
3 131 211 212
3 131 212 132
3 132 212 213
3 132 213 133
3 133 213 214
3 133 214 134
3 134 214 215
3 134 215 135
3 135 215 216
3 135 216 136
3 136 216 217
3 136 217 137
3 137 217 218
3 137 218 138
3 138 218 219
3 138 219 139
3 139 219 220
3 139 220 140
3 140 220 221
3 140 221 141
3 141 221 222
3 141 222 142
3 142 222 223
3 142 223 143
3 143 223 224
3 143 224 144
3 144 224 225
3 144 225 145
3 145 225 226
3 145 226 146
3 146 226 227
3 146 227 147
3 147 227 228
3 147 228 148
3 148 228 229
3 148 229 149
3 149 229 230
3 149 230 150
3 150 230 231
3 150 231 151
3 151 231 232
3 151 232 152
3 152 232 233
3 152 233 153
3 153 233 234
3 153 234 154
3 154 234 235
3 154 235 155
3 155 235 236
3 155 236 156
3 156 236 237
3 156 237 157
3 157 237 238
3 157 238 158
3 158 238 239
3 158 239 159
3 159 239 160
3 159 160 80
3 160 240 241
3 160 241 161
3 161 241 242
3 161 242 162
3 162 242 243
3 162 243 163
3 163 243 244
3 163 244 164
3 164 244 245
3 164 245 165
3 165 245 246
3 165 246 166
3 166 246 247
3 166 247 167
3 167 247 248
3 167 248 168
3 168 248 249
3 168 249 169
3 169 249 250
3 169 250 170
3 170 250 251
3 170 251 171
3 171 251 252
3 171 252 172
3 172 252 253
3 172 253 173
3 173 253 254
3 173 254 174
3 174 254 255
3 174 255 175
3 175 255 256
3 175 256 176
3 176 256 257
3 176 257 177
3 177 257 258
3 177 258 178
3 178 258 259
3 178 259 179
3 179 259 260
3 179 260 180
3 180 260 261
3 180 261 181
3 181 261 262
3 181 262 182
3 182 262 263
3 182 263 183
3 183 263 264
3 183 264 184
3 184 264 265
3 184 265 185
3 185 265 266
3 185 266 186
3 186 266 267
3 186 267 187
3 187 267 268
3 187 268 188
3 188 268 269
3 188 269 189
3 189 269 270
3 189 270 190
3 190 270 271
3 190 271 191
3 191 271 272
3 191 272 192
3 192 272 273
3 192 273 193
3 193 273 274
3 193 274 194
3 194 274 275
3 194 275 195
3 195 275 276
3 195 276 196
3 196 276 277
3 196 277 197
3 197 277 278
3 197 278 198
3 198 278 279
3 198 279 199
3 199 279 280
3 199 280 200
3 200 280 281
3 200 281 201
3 201 281 282
3 201 282 202
3 202 282 283
3 202 283 203
3 203 283 284
3 203 284 204
3 204 284 285
3 204 285 205
3 205 285 286
3 205 286 206
3 206 286 287
3 206 287 207
3 207 287 288
3 207 288 208
3 208 288 289
3 208 289 209
3 209 289 290
3 209 290 210
3 210 290 291
3 210 291 211
3 211 291 292
3 211 292 212
3 212 292 293
3 212 293 213
3 213 293 294
3 213 294 214
3 214 294 295
3 214 295 215
3 215 295 296
3 215 296 216
3 216 296 297
3 216 297 217
3 217 297 298
3 217 298 218
3 218 298 299
3 218 299 219
3 219 299 300
3 219 300 220
3 220 300 301
3 220 301 221
3 221 301 302
3 221 302 222
3 222 302 303
3 222 303 223
3 223 303 304
3 223 304 224
3 224 304 305
3 224 305 225
3 225 305 306
3 225 306 226
3 226 306 307
3 226 307 227
3 227 307 308
3 227 308 228
3 228 308 309
3 228 309 229
3 229 309 310
3 229 310 230
3 230 310 311
3 230 311 231
3 231 311 312
3 231 312 232
3 232 312 313
3 232 313 233
3 233 313 314
3 233 314 234
3 234 314 315
3 234 315 235
3 235 315 316
3 235 316 236
3 236 316 317
3 236 317 237
3 237 317 318
3 237 318 238
3 238 318 319
3 238 319 239
3 239 319 240
3 239 240 160
3 240 320 321
3 240 321 241
3 241 321 322
3 241 322 242
3 242 322 323
3 242 323 243
3 243 323 324
3 243 324 244
3 244 324 325
3 244 325 245
3 245 325 326
3 245 326 246
3 246 326 327
3 246 327 247
3 247 327 328
3 247 328 248
3 248 328 329
3 248 329 249
3 249 329 330
3 249 330 250
3 250 330 331
3 250 331 251
3 251 331 332
3 251 332 252
3 252 332 333
3 252 333 253
3 253 333 334
3 253 334 254
3 254 334 335
3 254 335 255
3 255 335 336
3 255 336 256
3 256 336 337
3 256 337 257
3 257 337 338
3 257 338 258
3 258 338 339
3 258 339 259
3 259 339 340
3 259 340 260
3 260 340 341
3 260 341 261
3 261 341 342
3 261 342 262
3 262 342 343
3 262 343 263
3 263 343 344
3 263 344 264
3 264 344 345
3 264 345 265
3 265 345 346
3 265 346 266
3 266 346 347
3 266 347 267
3 267 347 348
3 267 348 268
3 268 348 349
3 268 349 269
3 269 349 350
3 269 350 270
3 270 350 351
3 270 351 271
3 271 351 352
3 271 352 272
3 272 352 353
3 272 353 273
3 273 353 354
3 273 354 274
3 274 354 355
3 274 355 275
3 275 355 356
3 275 356 276
3 276 356 357
3 276 357 277
3 277 357 358
3 277 358 278
3 278 358 359
3 278 359 279
3 279 359 360
3 279 360 280
3 280 360 361
3 280 361 281
3 281 361 362
3 281 362 282
3 282 362 363
3 282 363 283
3 283 363 364
3 283 364 284
3 284 364 365
3 284 365 285
3 285 365 366
3 285 366 286
3 286 366 367
3 286 367 287
3 287 367 368
3 287 368 288
3 288 368 369
3 288 369 289
3 289 369 370
3 289 370 290
3 290 370 371
3 290 371 291
3 291 371 372
3 291 372 292
3 292 372 373
3 292 373 293
3 293 373 374
3 293 374 294
3 294 374 375
3 294 375 295
3 295 375 376
3 295 376 296
3 296 376 377
3 296 377 297
3 297 377 378
3 297 378 298
3 298 378 379
3 298 379 299
3 299 379 380
3 299 380 300
3 300 380 381
3 300 381 301
3 301 381 382
3 301 382 302
3 302 382 383
3 302 383 303
3 303 383 384
3 303 384 304
3 304 384 385
3 304 385 305
3 305 385 386
3 305 386 306
3 306 386 387
3 306 387 307
3 307 387 388
3 307 388 308
3 308 388 389
3 308 389 309
3 309 389 390
3 309 390 310
3 310 390 391
3 310 391 311
3 311 391 392
3 311 392 312
3 312 392 393
3 312 393 313
3 313 393 394
3 313 394 314
3 314 394 395
3 314 395 315
3 315 395 396
3 315 396 316
3 316 396 397
3 316 397 317
3 317 397 398
3 317 398 318
3 318 398 399
3 318 399 319
3 319 399 320
3 319 320 240
3 320 400 401
3 320 401 321
3 321 401 402
3 321 402 322
3 322 402 403
3 322 403 323
3 323 403 404
3 323 404 324
3 324 404 405
3 324 405 325
3 325 405 406
3 325 406 326
3 326 406 407
3 326 407 327
3 327 407 408
3 327 408 328
3 328 408 409
3 328 409 329
3 329 409 410
3 329 410 330
3 330 410 411
3 330 411 331
3 331 411 412
3 331 412 332
3 332 412 413
3 332 413 333
3 333 413 414
3 333 414 334
3 334 414 415
3 334 415 335
3 335 415 416
3 335 416 336
3 336 416 417
3 336 417 337
3 337 417 418
3 337 418 338
3 338 418 419
3 338 419 339
3 339 419 420
3 339 420 340
3 340 420 421
3 340 421 341
3 341 421 422
3 341 422 342
3 342 422 423
3 342 423 343
3 343 423 424
3 343 424 344
3 344 424 425
3 344 425 345
3 345 425 426
3 345 426 346
3 346 426 427
3 346 427 347
3 347 427 428
3 347 428 348
3 348 428 429
3 348 429 349
3 349 429 430
3 349 430 350
3 350 430 431
3 350 431 351
3 351 431 432
3 351 432 352
3 352 432 433
3 352 433 353
3 353 433 434
3 353 434 354
3 354 434 435
3 354 435 355
3 355 435 436
3 355 436 356
3 356 436 437
3 356 437 357
3 357 437 438
3 357 438 358
3 358 438 439
3 358 439 359
3 359 439 440
3 359 440 360
3 360 440 441
3 360 441 361
3 361 441 442
3 361 442 362
3 362 442 443
3 362 443 363
3 363 443 444
3 363 444 364
3 364 444 445
3 364 445 365
3 365 445 446
3 365 446 366
3 366 446 447
3 366 447 367
3 367 447 448
3 367 448 368
3 368 448 449
3 368 449 369
3 369 449 450
3 369 450 370
3 370 450 451
3 370 451 371
3 371 451 452
3 371 452 372
3 372 452 453
3 372 453 373
3 373 453 454
3 373 454 374
3 374 454 455
3 374 455 375
3 375 455 456
3 375 456 376
3 376 456 457
3 376 457 377
3 377 457 458
3 377 458 378
3 378 458 459
3 378 459 379
3 379 459 460
3 379 460 380
3 380 460 461
3 380 461 381
3 381 461 462
3 381 462 382
3 382 462 463
3 382 463 383
3 383 463 464
3 383 464 384
3 384 464 465
3 384 465 385
3 385 465 466
3 385 466 386
3 386 466 467
3 386 467 387
3 387 467 468
3 387 468 388
3 388 468 469
3 388 469 389
3 389 469 470
3 389 470 390
3 390 470 471
3 390 471 391
3 391 471 472
3 391 472 392
3 392 472 473
3 392 473 393
3 393 473 474
3 393 474 394
3 394 474 475
3 394 475 395
3 395 475 476
3 395 476 396
3 396 476 477
3 396 477 397
3 397 477 478
3 397 478 398
3 398 478 479
3 398 479 399
3 399 479 400
3 399 400 320
3 400 480 481
3 400 481 401
3 401 481 482
3 401 482 402
3 402 482 483
3 402 483 403
3 403 483 484
3 403 484 404
3 404 484 485
3 404 485 405
3 405 485 486
3 405 486 406
3 406 486 487
3 406 487 407
3 407 487 488
3 407 488 408
3 408 488 489
3 408 489 409
3 409 489 490
3 409 490 410
3 410 490 491
3 410 491 411
3 411 491 492
3 411 492 412
3 412 492 493
3 412 493 413
3 413 493 494
3 413 494 414
3 414 494 495
3 414 495 415
3 415 495 496
3 415 496 416
3 416 496 497
3 416 497 417
3 417 497 498
3 417 498 418
3 418 498 499
3 418 499 419
3 419 499 500
3 419 500 420
3 420 500 501
3 420 501 421
3 421 501 502
3 421 502 422
3 422 502 503
3 422 503 423
3 423 503 504
3 423 504 424
3 424 504 505
3 424 505 425
3 425 505 506
3 425 506 426
3 426 506 507
3 426 507 427
3 427 507 508
3 427 508 428
3 428 508 509
3 428 509 429
3 429 509 510
3 429 510 430
3 430 510 511
3 430 511 431
3 431 511 512
3 431 512 432
3 432 512 513
3 432 513 433
3 433 513 514
3 433 514 434
3 434 514 515
3 434 515 435
3 435 515 516
3 435 516 436
3 436 516 517
3 436 517 437
3 437 517 518
3 437 518 438
3 438 518 519
3 438 519 439
3 439 519 520
3 439 520 440
3 440 520 521
3 440 521 441
3 441 521 522
3 441 522 442
3 442 522 523
3 442 523 443
3 443 523 524
3 443 524 444
3 444 524 525
3 444 525 445
3 445 525 526
3 445 526 446
3 446 526 527
3 446 527 447
3 447 527 528
3 447 528 448
3 448 528 529
3 448 529 449
3 449 529 530
3 449 530 450
3 450 530 531
3 450 531 451
3 451 531 532
3 451 532 452
3 452 532 533
3 452 533 453
3 453 533 534
3 453 534 454
3 454 534 535
3 454 535 455
3 455 535 536
3 455 536 456
3 456 536 537
3 456 537 457
3 457 537 538
3 457 538 458
3 458 538 539
3 458 539 459
3 459 539 540
3 459 540 460
3 460 540 541
3 460 541 461
3 461 541 542
3 461 542 462
3 462 542 543
3 462 543 463
3 463 543 544
3 463 544 464
3 464 544 545
3 464 545 465
3 465 545 546
3 465 546 466
3 466 546 547
3 466 547 467
3 467 547 548
3 467 548 468
3 468 548 549
3 468 549 469
3 469 549 550
3 469 550 470
3 470 550 551
3 470 551 471
3 471 551 552
3 471 552 472
3 472 552 553
3 472 553 473
3 473 553 554
3 473 554 474
3 474 554 555
3 474 555 475
3 475 555 556
3 475 556 476
3 476 556 557
3 476 557 477
3 477 557 558
3 477 558 478
3 478 558 559
3 478 559 479
3 479 559 480
3 479 480 400
3 480 560 561
3 480 561 481
3 481 561 562
3 481 562 482
3 482 562 563
3 482 563 483
3 483 563 564
3 483 564 484
3 484 564 565
3 484 565 485
3 485 565 566
3 485 566 486
3 486 566 567
3 486 567 487
3 487 567 568
3 487 568 488
3 488 568 569
3 488 569 489
3 489 569 570
3 489 570 490
3 490 570 571
3 490 571 491
3 491 571 572
3 491 572 492
3 492 572 573
3 492 573 493
3 493 573 574
3 493 574 494
3 494 574 575
3 494 575 495
3 495 575 576
3 495 576 496
3 496 576 577
3 496 577 497
3 497 577 578
3 497 578 498
3 498 578 579
3 498 579 499
3 499 579 580
3 499 580 500
3 500 580 581
3 500 581 501
3 501 581 582
3 501 582 502
3 502 582 583
3 502 583 503
3 503 583 584
3 503 584 504
3 504 584 585
3 504 585 505
3 505 585 586
3 505 586 506
3 506 586 587
3 506 587 507
3 507 587 588
3 507 588 508
3 508 588 589
3 508 589 509
3 509 589 590
3 509 590 510
3 510 590 591
3 510 591 511
3 511 591 592
3 511 592 512
3 512 592 593
3 512 593 513
3 513 593 594
3 513 594 514
3 514 594 595
3 514 595 515
3 515 595 596
3 515 596 516
3 516 596 597
3 516 597 517
3 517 597 598
3 517 598 518
3 518 598 599
3 518 599 519
3 519 599 600
3 519 600 520
3 520 600 601
3 520 601 521
3 521 601 602
3 521 602 522
3 522 602 603
3 522 603 523
3 523 603 604
3 523 604 524
3 524 604 605
3 524 605 525
3 525 605 606
3 525 606 526
3 526 606 607
3 526 607 527
3 527 607 608
3 527 608 528
3 528 608 609
3 528 609 529
3 529 609 610
3 529 610 530
3 530 610 611
3 530 611 531
3 531 611 612
3 531 612 532
3 532 612 613
3 532 613 533
3 533 613 614
3 533 614 534
3 534 614 615
3 534 615 535
3 535 615 616
3 535 616 536
3 536 616 617
3 536 617 537
3 537 617 618
3 537 618 538
3 538 618 619
3 538 619 539
3 539 619 620
3 539 620 540
3 540 620 621
3 540 621 541
3 541 621 622
3 541 622 542
3 542 622 623
3 542 623 543
3 543 623 624
3 543 624 544
3 544 624 625
3 544 625 545
3 545 625 626
3 545 626 546
3 546 626 627
3 546 627 547
3 547 627 628
3 547 628 548
3 548 628 629
3 548 629 549
3 549 629 630
3 549 630 550
3 550 630 631
3 550 631 551
3 551 631 632
3 551 632 552
3 552 632 633
3 552 633 553
3 553 633 634
3 553 634 554
3 554 634 635
3 554 635 555
3 555 635 636
3 555 636 556
3 556 636 637
3 556 637 557
3 557 637 638
3 557 638 558
3 558 638 639
3 558 639 559
3 559 639 560
3 559 560 480
3 560 640 641
3 560 641 561
3 561 641 642
3 561 642 562
3 562 642 643
3 562 643 563
3 563 643 644
3 563 644 564
3 564 644 645
3 564 645 565
3 565 645 646
3 565 646 566
3 566 646 647
3 566 647 567
3 567 647 648
3 567 648 568
3 568 648 649
3 568 649 569
3 569 649 650
3 569 650 570
3 570 650 651
3 570 651 571
3 571 651 652
3 571 652 572
3 572 652 653
3 572 653 573
3 573 653 654
3 573 654 574
3 574 654 655
3 574 655 575
3 575 655 656
3 575 656 576
3 576 656 657
3 576 657 577
3 577 657 658
3 577 658 578
3 578 658 659
3 578 659 579
3 579 659 660
3 579 660 580
3 580 660 661
3 580 661 581
3 581 661 662
3 581 662 582
3 582 662 663
3 582 663 583
3 583 663 664
3 583 664 584
3 584 664 665
3 584 665 585
3 585 665 666
3 585 666 586
3 586 666 667
3 586 667 587
3 587 667 668
3 587 668 588
3 588 668 669
3 588 669 589
3 589 669 670
3 589 670 590
3 590 670 671
3 590 671 591
3 591 671 672
3 591 672 592
3 592 672 673
3 592 673 593
3 593 673 674
3 593 674 594
3 594 674 675
3 594 675 595
3 595 675 676
3 595 676 596
3 596 676 677
3 596 677 597
3 597 677 678
3 597 678 598
3 598 678 679
3 598 679 599
3 599 679 680
3 599 680 600
3 600 680 681
3 600 681 601
3 601 681 682
3 601 682 602
3 602 682 683
3 602 683 603
3 603 683 684
3 603 684 604
3 604 684 685
3 604 685 605
3 605 685 686
3 605 686 606
3 606 686 687
3 606 687 607
3 607 687 688
3 607 688 608
3 608 688 689
3 608 689 609
3 609 689 690
3 609 690 610
3 610 690 691
3 610 691 611
3 611 691 692
3 611 692 612
3 612 692 693
3 612 693 613
3 613 693 694
3 613 694 614
3 614 694 695
3 614 695 615
3 615 695 696
3 615 696 616
3 616 696 697
3 616 697 617
3 617 697 698
3 617 698 618
3 618 698 699
3 618 699 619
3 619 699 700
3 619 700 620
3 620 700 701
3 620 701 621
3 621 701 702
3 621 702 622
3 622 702 703
3 622 703 623
3 623 703 704
3 623 704 624
3 624 704 705
3 624 705 625
3 625 705 706
3 625 706 626
3 626 706 707
3 626 707 627
3 627 707 708
3 627 708 628
3 628 708 709
3 628 709 629
3 629 709 710
3 629 710 630
3 630 710 711
3 630 711 631
3 631 711 712
3 631 712 632
3 632 712 713
3 632 713 633
3 633 713 714
3 633 714 634
3 634 714 715
3 634 715 635
3 635 715 716
3 635 716 636
3 636 716 717
3 636 717 637
3 637 717 718
3 637 718 638
3 638 718 719
3 638 719 639
3 639 719 640
3 639 640 560
3 640 720 721
3 640 721 641
3 641 721 722
3 641 722 642
3 642 722 723
3 642 723 643
3 643 723 724
3 643 724 644
3 644 724 725
3 644 725 645
3 645 725 726
3 645 726 646
3 646 726 727
3 646 727 647
3 647 727 728
3 647 728 648
3 648 728 729
3 648 729 649
3 649 729 730
3 649 730 650
3 650 730 731
3 650 731 651
3 651 731 732
3 651 732 652
3 652 732 733
3 652 733 653
3 653 733 734
3 653 734 654
3 654 734 735
3 654 735 655
3 655 735 736
3 655 736 656
3 656 736 737
3 656 737 657
3 657 737 738
3 657 738 658
3 658 738 739
3 658 739 659
3 659 739 740
3 659 740 660
3 660 740 741
3 660 741 661
3 661 741 742
3 661 742 662
3 662 742 743
3 662 743 663
3 663 743 744
3 663 744 664
3 664 744 745
3 664 745 665
3 665 745 746
3 665 746 666
3 666 746 747
3 666 747 667
3 667 747 748
3 667 748 668
3 668 748 749
3 668 749 669
3 669 749 750
3 669 750 670
3 670 750 751
3 670 751 671
3 671 751 752
3 671 752 672
3 672 752 753
3 672 753 673
3 673 753 754
3 673 754 674
3 674 754 755
3 674 755 675
3 675 755 756
3 675 756 676
3 676 756 757
3 676 757 677
3 677 757 758
3 677 758 678
3 678 758 759
3 678 759 679
3 679 759 760
3 679 760 680
3 680 760 761
3 680 761 681
3 681 761 762
3 681 762 682
3 682 762 763
3 682 763 683
3 683 763 764
3 683 764 684
3 684 764 765
3 684 765 685
3 685 765 766
3 685 766 686
3 686 766 767
3 686 767 687
3 687 767 768
3 687 768 688
3 688 768 769
3 688 769 689
3 689 769 770
3 689 770 690
3 690 770 771
3 690 771 691
3 691 771 772
3 691 772 692
3 692 772 773
3 692 773 693
3 693 773 774
3 693 774 694
3 694 774 775
3 694 775 695
3 695 775 776
3 695 776 696
3 696 776 777
3 696 777 697
3 697 777 778
3 697 778 698
3 698 778 779
3 698 779 699
3 699 779 780
3 699 780 700
3 700 780 781
3 700 781 701
3 701 781 782
3 701 782 702
3 702 782 783
3 702 783 703
3 703 783 784
3 703 784 704
3 704 784 785
3 704 785 705
3 705 785 786
3 705 786 706
3 706 786 787
3 706 787 707
3 707 787 788
3 707 788 708
3 708 788 789
3 708 789 709
3 709 789 790
3 709 790 710
3 710 790 791
3 710 791 711
3 711 791 792
3 711 792 712
3 712 792 793
3 712 793 713
3 713 793 794
3 713 794 714
3 714 794 795
3 714 795 715
3 715 795 796
3 715 796 716
3 716 796 797
3 716 797 717
3 717 797 798
3 717 798 718
3 718 798 799
3 718 799 719
3 719 799 720
3 719 720 640
3 720 800 801
3 720 801 721
3 721 801 802
3 721 802 722
3 722 802 803
3 722 803 723
3 723 803 804
3 723 804 724
3 724 804 805
3 724 805 725
3 725 805 806
3 725 806 726
3 726 806 807
3 726 807 727
3 727 807 808
3 727 808 728
3 728 808 809
3 728 809 729
3 729 809 810
3 729 810 730
3 730 810 811
3 730 811 731
3 731 811 812
3 731 812 732
3 732 812 813
3 732 813 733
3 733 813 814
3 733 814 734
3 734 814 815
3 734 815 735
3 735 815 816
3 735 816 736
3 736 816 817
3 736 817 737
3 737 817 818
3 737 818 738
3 738 818 819
3 738 819 739
3 739 819 820
3 739 820 740
3 740 820 821
3 740 821 741
3 741 821 822
3 741 822 742
3 742 822 823
3 742 823 743
3 743 823 824
3 743 824 744
3 744 824 825
3 744 825 745
3 745 825 826
3 745 826 746
3 746 826 827
3 746 827 747
3 747 827 828
3 747 828 748
3 748 828 829
3 748 829 749
3 749 829 830
3 749 830 750
3 750 830 831
3 750 831 751
3 751 831 832
3 751 832 752
3 752 832 833
3 752 833 753
3 753 833 834
3 753 834 754
3 754 834 835
3 754 835 755
3 755 835 836
3 755 836 756
3 756 836 837
3 756 837 757
3 757 837 838
3 757 838 758
3 758 838 839
3 758 839 759
3 759 839 840
3 759 840 760
3 760 840 841
3 760 841 761
3 761 841 842
3 761 842 762
3 762 842 843
3 762 843 763
3 763 843 844
3 763 844 764
3 764 844 845
3 764 845 765
3 765 845 846
3 765 846 766
3 766 846 847
3 766 847 767
3 767 847 848
3 767 848 768
3 768 848 849
3 768 849 769
3 769 849 850
3 769 850 770
3 770 850 851
3 770 851 771
3 771 851 852
3 771 852 772
3 772 852 853
3 772 853 773
3 773 853 854
3 773 854 774
3 774 854 855
3 774 855 775
3 775 855 856
3 775 856 776
3 776 856 857
3 776 857 777
3 777 857 858
3 777 858 778
3 778 858 859
3 778 859 779
3 779 859 860
3 779 860 780
3 780 860 861
3 780 861 781
3 781 861 862
3 781 862 782
3 782 862 863
3 782 863 783
3 783 863 864
3 783 864 784
3 784 864 865
3 784 865 785
3 785 865 866
3 785 866 786
3 786 866 867
3 786 867 787
3 787 867 868
3 787 868 788
3 788 868 869
3 788 869 789
3 789 869 870
3 789 870 790
3 790 870 871
3 790 871 791
3 791 871 872
3 791 872 792
3 792 872 873
3 792 873 793
3 793 873 874
3 793 874 794
3 794 874 875
3 794 875 795
3 795 875 876
3 795 876 796
3 796 876 877
3 796 877 797
3 797 877 878
3 797 878 798
3 798 878 879
3 798 879 799
3 799 879 800
3 799 800 720
3 800 880 881
3 800 881 801
3 801 881 882
3 801 882 802
3 802 882 883
3 802 883 803
3 803 883 884
3 803 884 804
3 804 884 885
3 804 885 805
3 805 885 886
3 805 886 806
3 806 886 887
3 806 887 807
3 807 887 888
3 807 888 808
3 808 888 889
3 808 889 809
3 809 889 890
3 809 890 810
3 810 890 891
3 810 891 811
3 811 891 892
3 811 892 812
3 812 892 893
3 812 893 813
3 813 893 894
3 813 894 814
3 814 894 895
3 814 895 815
3 815 895 896
3 815 896 816
3 816 896 897
3 816 897 817
3 817 897 898
3 817 898 818
3 818 898 899
3 818 899 819
3 819 899 900
3 819 900 820
3 820 900 901
3 820 901 821
3 821 901 902
3 821 902 822
3 822 902 903
3 822 903 823
3 823 903 904
3 823 904 824
3 824 904 905
3 824 905 825
3 825 905 906
3 825 906 826
3 826 906 907
3 826 907 827
3 827 907 908
3 827 908 828
3 828 908 909
3 828 909 829
3 829 909 910
3 829 910 830
3 830 910 911
3 830 911 831
3 831 911 912
3 831 912 832
3 832 912 913
3 832 913 833
3 833 913 914
3 833 914 834
3 834 914 915
3 834 915 835
3 835 915 916
3 835 916 836
3 836 916 917
3 836 917 837
3 837 917 918
3 837 918 838
3 838 918 919
3 838 919 839
3 839 919 920
3 839 920 840
3 840 920 921
3 840 921 841
3 841 921 922
3 841 922 842
3 842 922 923
3 842 923 843
3 843 923 924
3 843 924 844
3 844 924 925
3 844 925 845
3 845 925 926
3 845 926 846
3 846 926 927
3 846 927 847
3 847 927 928
3 847 928 848
3 848 928 929
3 848 929 849
3 849 929 930
3 849 930 850
3 850 930 931
3 850 931 851
3 851 931 932
3 851 932 852
3 852 932 933
3 852 933 853
3 853 933 934
3 853 934 854
3 854 934 935
3 854 935 855
3 855 935 936
3 855 936 856
3 856 936 937
3 856 937 857
3 857 937 938
3 857 938 858
3 858 938 939
3 858 939 859
3 859 939 940
3 859 940 860
3 860 940 941
3 860 941 861
3 861 941 942
3 861 942 862
3 862 942 943
3 862 943 863
3 863 943 944
3 863 944 864
3 864 944 945
3 864 945 865
3 865 945 946
3 865 946 866
3 866 946 947
3 866 947 867
3 867 947 948
3 867 948 868
3 868 948 949
3 868 949 869
3 869 949 950
3 869 950 870
3 870 950 951
3 870 951 871
3 871 951 952
3 871 952 872
3 872 952 953
3 872 953 873
3 873 953 954
3 873 954 874
3 874 954 955
3 874 955 875
3 875 955 956
3 875 956 876
3 876 956 957
3 876 957 877
3 877 957 958
3 877 958 878
3 878 958 959
3 878 959 879
3 879 959 880
3 879 880 800
3 880 960 961
3 880 961 881
3 881 961 962
3 881 962 882
3 882 962 963
3 882 963 883
3 883 963 964
3 883 964 884
3 884 964 965
3 884 965 885
3 885 965 966
3 885 966 886
3 886 966 967
3 886 967 887
3 887 967 968
3 887 968 888
3 888 968 969
3 888 969 889
3 889 969 970
3 889 970 890
3 890 970 971
3 890 971 891
3 891 971 972
3 891 972 892
3 892 972 973
3 892 973 893
3 893 973 974
3 893 974 894
3 894 974 975
3 894 975 895
3 895 975 976
3 895 976 896
3 896 976 977
3 896 977 897
3 897 977 978
3 897 978 898
3 898 978 979
3 898 979 899
3 899 979 980
3 899 980 900
3 900 980 981
3 900 981 901
3 901 981 982
3 901 982 902
3 902 982 983
3 902 983 903
3 903 983 984
3 903 984 904
3 904 984 985
3 904 985 905
3 905 985 986
3 905 986 906
3 906 986 987
3 906 987 907
3 907 987 988
3 907 988 908
3 908 988 989
3 908 989 909
3 909 989 990
3 909 990 910
3 910 990 991
3 910 991 911
3 911 991 992
3 911 992 912
3 912 992 993
3 912 993 913
3 913 993 994
3 913 994 914
3 914 994 995
3 914 995 915
3 915 995 996
3 915 996 916
3 916 996 997
3 916 997 917
3 917 997 998
3 917 998 918
3 918 998 999
3 918 999 919
3 919 999 1000
3 919 1000 920
3 920 1000 1001
3 920 1001 921
3 921 1001 1002
3 921 1002 922
3 922 1002 1003
3 922 1003 923
3 923 1003 1004
3 923 1004 924
3 924 1004 1005
3 924 1005 925
3 925 1005 1006
3 925 1006 926
3 926 1006 1007
3 926 1007 927
3 927 1007 1008
3 927 1008 928
3 928 1008 1009
3 928 1009 929
3 929 1009 1010
3 929 1010 930
3 930 1010 1011
3 930 1011 931
3 931 1011 1012
3 931 1012 932
3 932 1012 1013
3 932 1013 933
3 933 1013 1014
3 933 1014 934
3 934 1014 1015
3 934 1015 935
3 935 1015 1016
3 935 1016 936
3 936 1016 1017
3 936 1017 937
3 937 1017 1018
3 937 1018 938
3 938 1018 1019
3 938 1019 939
3 939 1019 1020
3 939 1020 940
3 940 1020 1021
3 940 1021 941
3 941 1021 1022
3 941 1022 942
3 942 1022 1023
3 942 1023 943
3 943 1023 1024
3 943 1024 944
3 944 1024 1025
3 944 1025 945
3 945 1025 1026
3 945 1026 946
3 946 1026 1027
3 946 1027 947
3 947 1027 1028
3 947 1028 948
3 948 1028 1029
3 948 1029 949
3 949 1029 1030
3 949 1030 950
3 950 1030 1031
3 950 1031 951
3 951 1031 1032
3 951 1032 952
3 952 1032 1033
3 952 1033 953
3 953 1033 1034
3 953 1034 954
3 954 1034 1035
3 954 1035 955
3 955 1035 1036
3 955 1036 956
3 956 1036 1037
3 956 1037 957
3 957 1037 1038
3 957 1038 958
3 958 1038 1039
3 958 1039 959
3 959 1039 960
3 959 960 880
