ply
format ascii 1.0
element vertex 729
property float x
property float y
property float z
element face 1280
property list uchar int vertex_indices
end_header
-1.2 -0.09 0.0
-1.2 -0.0675 0.0
-1.2 -0.045 0.0
-1.2 -0.0225 0.0
-1.2 0.0 0.0
-1.2 0.0225 0.0
-1.2 0.045 0.0
-1.2 0.0675 0.0
-1.2 0.09 0.0
-1.17 -0.09 0.0
-1.17 -0.0675 0.0
-1.17 -0.045 0.0
-1.17 -0.0225 0.0
-1.17 0.0 0.0
-1.17 0.0225 0.0
-1.17 0.045 0.0
-1.17 0.0675 0.0
-1.17 0.09 0.0
-1.14 -0.09 0.0
-1.14 -0.0675 0.0
-1.14 -0.045 0.0
-1.14 -0.0225 0.0
-1.14 0.0 0.0
-1.14 0.0225 0.0
-1.14 0.045 0.0
-1.14 0.0675 0.0
-1.14 0.09 0.0
-1.11 -0.09 0.0
-1.11 -0.0675 0.0
-1.11 -0.045 0.0
-1.11 -0.0225 0.0
-1.11 0.0 0.0
-1.11 0.0225 0.0
-1.11 0.045 0.0
-1.11 0.0675 0.0
-1.11 0.09 0.0
-1.08 -0.09 0.0
-1.08 -0.0675 0.0
-1.08 -0.045 0.0
-1.08 -0.0225 0.0
-1.08 0.0 0.0
-1.08 0.0225 0.0
-1.08 0.045 0.0
-1.08 0.0675 0.0
-1.08 0.09 0.0
-1.05 -0.09 0.0
-1.05 -0.0675 0.0
-1.05 -0.045 0.0
-1.05 -0.0225 0.0
-1.05 0.0 0.0
-1.05 0.0225 0.0
-1.05 0.045 0.0
-1.05 0.0675 0.0
-1.05 0.09 0.0
-1.02 -0.09 0.0
-1.02 -0.0675 0.0
-1.02 -0.045 0.0
-1.02 -0.0225 0.0
-1.02 0.0 0.0
-1.02 0.0225 0.0
-1.02 0.045 0.0
-1.02 0.0675 0.0
-1.02 0.09 0.0
-0.9899999999999999 -0.09 0.0
-0.9899999999999999 -0.0675 0.0
-0.9899999999999999 -0.045 0.0
-0.9899999999999999 -0.0225 0.0
-0.9899999999999999 0.0 0.0
-0.9899999999999999 0.0225 0.0
-0.9899999999999999 0.045 0.0
-0.9899999999999999 0.0675 0.0
-0.9899999999999999 0.09 0.0
-0.96 -0.09 0.0
-0.96 -0.0675 0.0
-0.96 -0.045 0.0
-0.96 -0.0225 0.0
-0.96 0.0 0.0
-0.96 0.0225 0.0
-0.96 0.045 0.0
-0.96 0.0675 0.0
-0.96 0.09 0.0
-0.9299999999999999 -0.09 0.0
-0.9299999999999999 -0.0675 0.0
-0.9299999999999999 -0.045 0.0
-0.9299999999999999 -0.0225 0.0
-0.9299999999999999 0.0 0.0
-0.9299999999999999 0.0225 0.0
-0.9299999999999999 0.045 0.0
-0.9299999999999999 0.0675 0.0
-0.9299999999999999 0.09 0.0
-0.8999999999999999 -0.09 0.0
-0.8999999999999999 -0.0675 0.0
-0.8999999999999999 -0.045 0.0
-0.8999999999999999 -0.0225 0.0
-0.8999999999999999 0.0 0.0
-0.8999999999999999 0.0225 0.0
-0.8999999999999999 0.045 0.0
-0.8999999999999999 0.0675 0.0
-0.8999999999999999 0.09 0.0
-0.87 -0.09 0.0
-0.87 -0.0675 0.0
-0.87 -0.045 0.0
-0.87 -0.0225 0.0
-0.87 0.0 0.0
-0.87 0.0225 0.0
-0.87 0.045 0.0
-0.87 0.0675 0.0
-0.87 0.09 0.0
-0.84 -0.09 0.0
-0.84 -0.0675 0.0
-0.84 -0.045 0.0
-0.84 -0.0225 0.0
-0.84 0.0 0.0
-0.84 0.0225 0.0
-0.84 0.045 0.0
-0.84 0.0675 0.0
-0.84 0.09 0.0
-0.81 -0.09 0.0
-0.81 -0.0675 0.0
-0.81 -0.045 0.0
-0.81 -0.0225 0.0
-0.81 0.0 0.0
-0.81 0.0225 0.0
-0.81 0.045 0.0
-0.81 0.0675 0.0
-0.81 0.09 0.0
-0.78 -0.09 0.0
-0.78 -0.0675 0.0
-0.78 -0.045 0.0
-0.78 -0.0225 0.0
-0.78 0.0 0.0
-0.78 0.0225 0.0
-0.78 0.045 0.0
-0.78 0.0675 0.0
-0.78 0.09 0.0
-0.75 -0.09 0.0
-0.75 -0.0675 0.0
-0.75 -0.045 0.0
-0.75 -0.0225 0.0
-0.75 0.0 0.0
-0.75 0.0225 0.0
-0.75 0.045 0.0
-0.75 0.0675 0.0
-0.75 0.09 0.0
-0.72 -0.09 0.0
-0.72 -0.0675 0.0
-0.72 -0.045 0.0
-0.72 -0.0225 0.0
-0.72 0.0 0.0
-0.72 0.0225 0.0
-0.72 0.045 0.0
-0.72 0.0675 0.0
-0.72 0.09 0.0
-0.69 -0.09 0.0
-0.69 -0.0675 0.0
-0.69 -0.045 0.0
-0.69 -0.0225 0.0
-0.69 0.0 0.0
-0.69 0.0225 0.0
-0.69 0.045 0.0
-0.69 0.0675 0.0
-0.69 0.09 0.0
-0.66 -0.09 0.0
-0.66 -0.0675 0.0
-0.66 -0.045 0.0
-0.66 -0.0225 0.0
-0.66 0.0 0.0
-0.66 0.0225 0.0
-0.66 0.045 0.0
-0.66 0.0675 0.0
-0.66 0.09 0.0
-0.63 -0.09 0.0
-0.63 -0.0675 0.0
-0.63 -0.045 0.0
-0.63 -0.0225 0.0
-0.63 0.0 0.0
-0.63 0.0225 0.0
-0.63 0.045 0.0
-0.63 0.0675 0.0
-0.63 0.09 0.0
-0.6 -0.09 0.0
-0.6 -0.0675 0.0
-0.6 -0.045 0.0
-0.6 -0.0225 0.0
-0.6 0.0 0.0
-0.6 0.0225 0.0
-0.6 0.045 0.0
-0.6 0.0675 0.0
-0.6 0.09 0.0
-0.57 -0.09 0.0
-0.57 -0.0675 0.0
-0.57 -0.045 0.0
-0.57 -0.0225 0.0
-0.57 0.0 0.0
-0.57 0.0225 0.0
-0.57 0.045 0.0
-0.57 0.0675 0.0
-0.57 0.09 0.0
-0.5399999999999999 -0.09 0.0
-0.5399999999999999 -0.0675 0.0
-0.5399999999999999 -0.045 0.0
-0.5399999999999999 -0.0225 0.0
-0.5399999999999999 0.0 0.0
-0.5399999999999999 0.0225 0.0
-0.5399999999999999 0.045 0.0
-0.5399999999999999 0.0675 0.0
-0.5399999999999999 0.09 0.0
-0.51 -0.09 0.0
-0.51 -0.0675 0.0
-0.51 -0.045 0.0
-0.51 -0.0225 0.0
-0.51 0.0 0.0
-0.51 0.0225 0.0
-0.51 0.045 0.0
-0.51 0.0675 0.0
-0.51 0.09 0.0
-0.48 -0.09 0.0
-0.48 -0.0675 0.0
-0.48 -0.045 0.0
-0.48 -0.0225 0.0
-0.48 0.0 0.0
-0.48 0.0225 0.0
-0.48 0.045 0.0
-0.48 0.0675 0.0
-0.48 0.09 0.0
-0.44999999999999996 -0.09 0.0
-0.44999999999999996 -0.0675 0.0
-0.44999999999999996 -0.045 0.0
-0.44999999999999996 -0.0225 0.0
-0.44999999999999996 0.0 0.0
-0.44999999999999996 0.0225 0.0
-0.44999999999999996 0.045 0.0
-0.44999999999999996 0.0675 0.0
-0.44999999999999996 0.09 0.0
-0.42 -0.09 0.0
-0.42 -0.0675 0.0
-0.42 -0.045 0.0
-0.42 -0.0225 0.0
-0.42 0.0 0.0
-0.42 0.0225 0.0
-0.42 0.045 0.0
-0.42 0.0675 0.0
-0.42 0.09 0.0
-0.38999999999999996 -0.09 0.0
-0.38999999999999996 -0.0675 0.0
-0.38999999999999996 -0.045 0.0
-0.38999999999999996 -0.0225 0.0
-0.38999999999999996 0.0 0.0
-0.38999999999999996 0.0225 0.0
-0.38999999999999996 0.045 0.0
-0.38999999999999996 0.0675 0.0
-0.38999999999999996 0.09 0.0
-0.36000000000000004 -0.09 0.0
-0.36000000000000004 -0.0675 0.0
-0.36000000000000004 -0.045 0.0
-0.36000000000000004 -0.0225 0.0
-0.36000000000000004 0.0 0.0
-0.36000000000000004 0.0225 0.0
-0.36000000000000004 0.045 0.0
-0.36000000000000004 0.0675 0.0
-0.36000000000000004 0.09 0.0
-0.33 -0.09 0.0
-0.33 -0.0675 0.0
-0.33 -0.045 0.0
-0.33 -0.0225 0.0
-0.33 0.0 0.0
-0.33 0.0225 0.0
-0.33 0.045 0.0
-0.33 0.0675 0.0
-0.33 0.09 0.0
-0.3 -0.09 0.0
-0.3 -0.0675 0.0
-0.3 -0.045 0.0
-0.3 -0.0225 0.0
-0.3 0.0 0.0
-0.3 0.0225 0.0
-0.3 0.045 0.0
-0.3 0.0675 0.0
-0.3 0.09 0.0
-0.26999999999999996 -0.09 0.0
-0.26999999999999996 -0.0675 0.0
-0.26999999999999996 -0.045 0.0
-0.26999999999999996 -0.0225 0.0
-0.26999999999999996 0.0 0.0
-0.26999999999999996 0.0225 0.0
-0.26999999999999996 0.045 0.0
-0.26999999999999996 0.0675 0.0
-0.26999999999999996 0.09 0.0
-0.23999999999999994 -0.09 0.0
-0.23999999999999994 -0.0675 0.0
-0.23999999999999994 -0.045 0.0
-0.23999999999999994 -0.0225 0.0
-0.23999999999999994 0.0 0.0
-0.23999999999999994 0.0225 0.0
-0.23999999999999994 0.045 0.0
-0.23999999999999994 0.0675 0.0
-0.23999999999999994 0.09 0.0
-0.21000000000000005 -0.09 0.0
-0.21000000000000005 -0.0675 0.0
-0.21000000000000005 -0.045 0.0
-0.21000000000000005 -0.0225 0.0
-0.21000000000000005 0.0 0.0
-0.21000000000000005 0.0225 0.0
-0.21000000000000005 0.045 0.0
-0.21000000000000005 0.0675 0.0
-0.21000000000000005 0.09 0.0
-0.18000000000000002 -0.09 0.0
-0.18000000000000002 -0.0675 0.0
-0.18000000000000002 -0.045 0.0
-0.18000000000000002 -0.0225 0.0
-0.18000000000000002 0.0 0.0
-0.18000000000000002 0.0225 0.0
-0.18000000000000002 0.045 0.0
-0.18000000000000002 0.0675 0.0
-0.18000000000000002 0.09 0.0
-0.15 -0.09 0.0
-0.15 -0.0675 0.0
-0.15 -0.045 0.0
-0.15 -0.0225 0.0
-0.15 0.0 0.0
-0.15 0.0225 0.0
-0.15 0.045 0.0
-0.15 0.0675 0.0
-0.15 0.09 0.0
-0.11999999999999997 -0.09 0.0
-0.11999999999999997 -0.0675 0.0
-0.11999999999999997 -0.045 0.0
-0.11999999999999997 -0.0225 0.0
-0.11999999999999997 0.0 0.0
-0.11999999999999997 0.0225 0.0
-0.11999999999999997 0.045 0.0
-0.11999999999999997 0.0675 0.0
-0.11999999999999997 0.09 0.0
-0.08999999999999994 -0.09 0.0
-0.08999999999999994 -0.0675 0.0
-0.08999999999999994 -0.045 0.0
-0.08999999999999994 -0.0225 0.0
-0.08999999999999994 0.0 0.0
-0.08999999999999994 0.0225 0.0
-0.08999999999999994 0.045 0.0
-0.08999999999999994 0.0675 0.0
-0.08999999999999994 0.09 0.0
-0.06000000000000005 -0.09 0.0
-0.06000000000000005 -0.0675 0.0
-0.06000000000000005 -0.045 0.0
-0.06000000000000005 -0.0225 0.0
-0.06000000000000005 0.0 0.0
-0.06000000000000005 0.0225 0.0
-0.06000000000000005 0.045 0.0
-0.06000000000000005 0.0675 0.0
-0.06000000000000005 0.09 0.0
-0.030000000000000027 -0.09 0.0
-0.030000000000000027 -0.0675 0.0
-0.030000000000000027 -0.045 0.0
-0.030000000000000027 -0.0225 0.0
-0.030000000000000027 0.0 0.0
-0.030000000000000027 0.0225 0.0
-0.030000000000000027 0.045 0.0
-0.030000000000000027 0.0675 0.0
-0.030000000000000027 0.09 0.0
0.0 -0.09 0.0
0.0 -0.0675 0.0
0.0 -0.045 0.0
0.0 -0.0225 0.0
0.0 0.0 0.0
0.0 0.0225 0.0
0.0 0.045 0.0
0.0 0.0675 0.0
0.0 0.09 0.0
0.02999999999999989 -0.09 0.0
0.02999999999999989 -0.0675 0.0
0.02999999999999989 -0.045 0.0
0.02999999999999989 -0.0225 0.0
0.02999999999999989 0.0 0.0
0.02999999999999989 0.0225 0.0
0.02999999999999989 0.045 0.0
0.02999999999999989 0.0675 0.0
0.02999999999999989 0.09 0.0
0.06000000000000005 -0.09 0.0
0.06000000000000005 -0.0675 0.0
0.06000000000000005 -0.045 0.0
0.06000000000000005 -0.0225 0.0
0.06000000000000005 0.0 0.0
0.06000000000000005 0.0225 0.0
0.06000000000000005 0.045 0.0
0.06000000000000005 0.0675 0.0
0.06000000000000005 0.09 0.0
0.08999999999999994 -0.09 0.0
0.08999999999999994 -0.0675 0.0
0.08999999999999994 -0.045 0.0
0.08999999999999994 -0.0225 0.0
0.08999999999999994 0.0 0.0
0.08999999999999994 0.0225 0.0
0.08999999999999994 0.045 0.0
0.08999999999999994 0.0675 0.0
0.08999999999999994 0.09 0.0
0.1200000000000001 -0.09 0.0
0.1200000000000001 -0.0675 0.0
0.1200000000000001 -0.045 0.0
0.1200000000000001 -0.0225 0.0
0.1200000000000001 0.0 0.0
0.1200000000000001 0.0225 0.0
0.1200000000000001 0.045 0.0
0.1200000000000001 0.0675 0.0
0.1200000000000001 0.09 0.0
0.15 -0.09 0.0
0.15 -0.0675 0.0
0.15 -0.045 0.0
0.15 -0.0225 0.0
0.15 0.0 0.0
0.15 0.0225 0.0
0.15 0.045 0.0
0.15 0.0675 0.0
0.15 0.09 0.0
0.17999999999999988 -0.09 0.0
0.17999999999999988 -0.0675 0.0
0.17999999999999988 -0.045 0.0
0.17999999999999988 -0.0225 0.0
0.17999999999999988 0.0 0.0
0.17999999999999988 0.0225 0.0
0.17999999999999988 0.045 0.0
0.17999999999999988 0.0675 0.0
0.17999999999999988 0.09 0.0
0.21000000000000005 -0.09 0.0
0.21000000000000005 -0.0675 0.0
0.21000000000000005 -0.045 0.0
0.21000000000000005 -0.0225 0.0
0.21000000000000005 0.0 0.0
0.21000000000000005 0.0225 0.0
0.21000000000000005 0.045 0.0
0.21000000000000005 0.0675 0.0
0.21000000000000005 0.09 0.0
0.23999999999999994 -0.09 0.0
0.23999999999999994 -0.0675 0.0
0.23999999999999994 -0.045 0.0
0.23999999999999994 -0.0225 0.0
0.23999999999999994 0.0 0.0
0.23999999999999994 0.0225 0.0
0.23999999999999994 0.045 0.0
0.23999999999999994 0.0675 0.0
0.23999999999999994 0.09 0.0
0.2700000000000001 -0.09 0.0
0.2700000000000001 -0.0675 0.0
0.2700000000000001 -0.045 0.0
0.2700000000000001 -0.0225 0.0
0.2700000000000001 0.0 0.0
0.2700000000000001 0.0225 0.0
0.2700000000000001 0.045 0.0
0.2700000000000001 0.0675 0.0
0.2700000000000001 0.09 0.0
0.3 -0.09 0.0
0.3 -0.0675 0.0
0.3 -0.045 0.0
0.3 -0.0225 0.0
0.3 0.0 0.0
0.3 0.0225 0.0
0.3 0.045 0.0
0.3 0.0675 0.0
0.3 0.09 0.0
0.3299999999999999 -0.09 0.0
0.3299999999999999 -0.0675 0.0
0.3299999999999999 -0.045 0.0
0.3299999999999999 -0.0225 0.0
0.3299999999999999 0.0 0.0
0.3299999999999999 0.0225 0.0
0.3299999999999999 0.045 0.0
0.3299999999999999 0.0675 0.0
0.3299999999999999 0.09 0.0
0.36000000000000004 -0.09 0.0
0.36000000000000004 -0.0675 0.0
0.36000000000000004 -0.045 0.0
0.36000000000000004 -0.0225 0.0
0.36000000000000004 0.0 0.0
0.36000000000000004 0.0225 0.0
0.36000000000000004 0.045 0.0
0.36000000000000004 0.0675 0.0
0.36000000000000004 0.09 0.0
0.38999999999999996 -0.09 0.0
0.38999999999999996 -0.0675 0.0
0.38999999999999996 -0.045 0.0
0.38999999999999996 -0.0225 0.0
0.38999999999999996 0.0 0.0
0.38999999999999996 0.0225 0.0
0.38999999999999996 0.045 0.0
0.38999999999999996 0.0675 0.0
0.38999999999999996 0.09 0.0
0.4200000000000001 -0.09 0.0
0.4200000000000001 -0.0675 0.0
0.4200000000000001 -0.045 0.0
0.4200000000000001 -0.0225 0.0
0.4200000000000001 0.0 0.0
0.4200000000000001 0.0225 0.0
0.4200000000000001 0.045 0.0
0.4200000000000001 0.0675 0.0
0.4200000000000001 0.09 0.0
0.44999999999999996 -0.09 0.0
0.44999999999999996 -0.0675 0.0
0.44999999999999996 -0.045 0.0
0.44999999999999996 -0.0225 0.0
0.44999999999999996 0.0 0.0
0.44999999999999996 0.0225 0.0
0.44999999999999996 0.045 0.0
0.44999999999999996 0.0675 0.0
0.44999999999999996 0.09 0.0
0.47999999999999987 -0.09 0.0
0.47999999999999987 -0.0675 0.0
0.47999999999999987 -0.045 0.0
0.47999999999999987 -0.0225 0.0
0.47999999999999987 0.0 0.0
0.47999999999999987 0.0225 0.0
0.47999999999999987 0.045 0.0
0.47999999999999987 0.0675 0.0
0.47999999999999987 0.09 0.0
0.51 -0.09 0.0
0.51 -0.0675 0.0
0.51 -0.045 0.0
0.51 -0.0225 0.0
0.51 0.0 0.0
0.51 0.0225 0.0
0.51 0.045 0.0
0.51 0.0675 0.0
0.51 0.09 0.0
0.5399999999999999 -0.09 0.0
0.5399999999999999 -0.0675 0.0
0.5399999999999999 -0.045 0.0
0.5399999999999999 -0.0225 0.0
0.5399999999999999 0.0 0.0
0.5399999999999999 0.0225 0.0
0.5399999999999999 0.045 0.0
0.5399999999999999 0.0675 0.0
0.5399999999999999 0.09 0.0
0.5700000000000001 -0.09 0.0
0.5700000000000001 -0.0675 0.0
0.5700000000000001 -0.045 0.0
0.5700000000000001 -0.0225 0.0
0.5700000000000001 0.0 0.0
0.5700000000000001 0.0225 0.0
0.5700000000000001 0.045 0.0
0.5700000000000001 0.0675 0.0
0.5700000000000001 0.09 0.0
0.6 -0.09 0.0
0.6 -0.0675 0.0
0.6 -0.045 0.0
0.6 -0.0225 0.0
0.6 0.0 0.0
0.6 0.0225 0.0
0.6 0.045 0.0
0.6 0.0675 0.0
0.6 0.09 0.0
0.6299999999999999 -0.09 0.0
0.6299999999999999 -0.0675 0.0
0.6299999999999999 -0.045 0.0
0.6299999999999999 -0.0225 0.0
0.6299999999999999 0.0 0.0
0.6299999999999999 0.0225 0.0
0.6299999999999999 0.045 0.0
0.6299999999999999 0.0675 0.0
0.6299999999999999 0.09 0.0
0.66 -0.09 0.0
0.66 -0.0675 0.0
0.66 -0.045 0.0
0.66 -0.0225 0.0
0.66 0.0 0.0
0.66 0.0225 0.0
0.66 0.045 0.0
0.66 0.0675 0.0
0.66 0.09 0.0
0.69 -0.09 0.0
0.69 -0.0675 0.0
0.69 -0.045 0.0
0.69 -0.0225 0.0
0.69 0.0 0.0
0.69 0.0225 0.0
0.69 0.045 0.0
0.69 0.0675 0.0
0.69 0.09 0.0
0.7200000000000001 -0.09 0.0
0.7200000000000001 -0.0675 0.0
0.7200000000000001 -0.045 0.0
0.7200000000000001 -0.0225 0.0
0.7200000000000001 0.0 0.0
0.7200000000000001 0.0225 0.0
0.7200000000000001 0.045 0.0
0.7200000000000001 0.0675 0.0
0.7200000000000001 0.09 0.0
0.75 -0.09 0.0
0.75 -0.0675 0.0
0.75 -0.045 0.0
0.75 -0.0225 0.0
0.75 0.0 0.0
0.75 0.0225 0.0
0.75 0.045 0.0
0.75 0.0675 0.0
0.75 0.09 0.0
0.7799999999999999 -0.09 0.0
0.7799999999999999 -0.0675 0.0
0.7799999999999999 -0.045 0.0
0.7799999999999999 -0.0225 0.0
0.7799999999999999 0.0 0.0
0.7799999999999999 0.0225 0.0
0.7799999999999999 0.045 0.0
0.7799999999999999 0.0675 0.0
0.7799999999999999 0.09 0.0
0.81 -0.09 0.0
0.81 -0.0675 0.0
0.81 -0.045 0.0
0.81 -0.0225 0.0
0.81 0.0 0.0
0.81 0.0225 0.0
0.81 0.045 0.0
0.81 0.0675 0.0
0.81 0.09 0.0
0.84 -0.09 0.0
0.84 -0.0675 0.0
0.84 -0.045 0.0
0.84 -0.0225 0.0
0.84 0.0 0.0
0.84 0.0225 0.0
0.84 0.045 0.0
0.84 0.0675 0.0
0.84 0.09 0.0
0.8700000000000001 -0.09 0.0
0.8700000000000001 -0.0675 0.0
0.8700000000000001 -0.045 0.0
0.8700000000000001 -0.0225 0.0
0.8700000000000001 0.0 0.0
0.8700000000000001 0.0225 0.0
0.8700000000000001 0.045 0.0
0.8700000000000001 0.0675 0.0
0.8700000000000001 0.09 0.0
0.8999999999999999 -0.09 0.0
0.8999999999999999 -0.0675 0.0
0.8999999999999999 -0.045 0.0
0.8999999999999999 -0.0225 0.0
0.8999999999999999 0.0 0.0
0.8999999999999999 0.0225 0.0
0.8999999999999999 0.045 0.0
0.8999999999999999 0.0675 0.0
0.8999999999999999 0.09 0.0
0.9299999999999998 -0.09 0.0
0.9299999999999998 -0.0675 0.0
0.9299999999999998 -0.045 0.0
0.9299999999999998 -0.0225 0.0
0.9299999999999998 0.0 0.0
0.9299999999999998 0.0225 0.0
0.9299999999999998 0.045 0.0
0.9299999999999998 0.0675 0.0
0.9299999999999998 0.09 0.0
0.96 -0.09 0.0
0.96 -0.0675 0.0
0.96 -0.045 0.0
0.96 -0.0225 0.0
0.96 0.0 0.0
0.96 0.0225 0.0
0.96 0.045 0.0
0.96 0.0675 0.0
0.96 0.09 0.0
0.9899999999999999 -0.09 0.0
0.9899999999999999 -0.0675 0.0
0.9899999999999999 -0.045 0.0
0.9899999999999999 -0.0225 0.0
0.9899999999999999 0.0 0.0
0.9899999999999999 0.0225 0.0
0.9899999999999999 0.045 0.0
0.9899999999999999 0.0675 0.0
0.9899999999999999 0.09 0.0
1.02 -0.09 0.0
1.02 -0.0675 0.0
1.02 -0.045 0.0
1.02 -0.0225 0.0
1.02 0.0 0.0
1.02 0.0225 0.0
1.02 0.045 0.0
1.02 0.0675 0.0
1.02 0.09 0.0
1.05 -0.09 0.0
1.05 -0.0675 0.0
1.05 -0.045 0.0
1.05 -0.0225 0.0
1.05 0.0 0.0
1.05 0.0225 0.0
1.05 0.045 0.0
1.05 0.0675 0.0
1.05 0.09 0.0
1.0799999999999998 -0.09 0.0
1.0799999999999998 -0.0675 0.0
1.0799999999999998 -0.045 0.0
1.0799999999999998 -0.0225 0.0
1.0799999999999998 0.0 0.0
1.0799999999999998 0.0225 0.0
1.0799999999999998 0.045 0.0
1.0799999999999998 0.0675 0.0
1.0799999999999998 0.09 0.0
1.11 -0.09 0.0
1.11 -0.0675 0.0
1.11 -0.045 0.0
1.11 -0.0225 0.0
1.11 0.0 0.0
1.11 0.0225 0.0
1.11 0.045 0.0
1.11 0.0675 0.0
1.11 0.09 0.0
1.14 -0.09 0.0
1.14 -0.0675 0.0
1.14 -0.045 0.0
1.14 -0.0225 0.0
1.14 0.0 0.0
1.14 0.0225 0.0
1.14 0.045 0.0
1.14 0.0675 0.0
1.14 0.09 0.0
1.1700000000000002 -0.09 0.0
1.1700000000000002 -0.0675 0.0
1.1700000000000002 -0.045 0.0
1.1700000000000002 -0.0225 0.0
1.1700000000000002 0.0 0.0
1.1700000000000002 0.0225 0.0
1.1700000000000002 0.045 0.0
1.1700000000000002 0.0675 0.0
1.1700000000000002 0.09 0.0
1.2 -0.09 0.0
1.2 -0.0675 0.0
1.2 -0.045 0.0
1.2 -0.0225 0.0
1.2 0.0 0.0
1.2 0.0225 0.0
1.2 0.045 0.0
1.2 0.0675 0.0
1.2 0.09 0.0
3 0 9 10
3 0 10 1
3 1 10 11
3 1 11 2
3 2 11 12
3 2 12 3
3 3 12 13
3 3 13 4
3 4 13 14
3 4 14 5
3 5 14 15
3 5 15 6
3 6 15 16
3 6 16 7
3 7 16 17
3 7 17 8
3 9 18 19
3 9 19 10
3 10 19 20
3 10 20 11
3 11 20 21
3 11 21 12
3 12 21 22
3 12 22 13
3 13 22 23
3 13 23 14
3 14 23 24
3 14 24 15
3 15 24 25
3 15 25 16
3 16 25 26
3 16 26 17
3 18 27 28
3 18 28 19
3 19 28 29
3 19 29 20
3 20 29 30
3 20 30 21
3 21 30 31
3 21 31 22
3 22 31 32
3 22 32 23
3 23 32 33
3 23 33 24
3 24 33 34
3 24 34 25
3 25 34 35
3 25 35 26
3 27 36 37
3 27 37 28
3 28 37 38
3 28 38 29
3 29 38 39
3 29 39 30
3 30 39 40
3 30 40 31
3 31 40 41
3 31 41 32
3 32 41 42
3 32 42 33
3 33 42 43
3 33 43 34
3 34 43 44
3 34 44 35
3 36 45 46
3 36 46 37
3 37 46 47
3 37 47 38
3 38 47 48
3 38 48 39
3 39 48 49
3 39 49 40
3 40 49 50
3 40 50 41
3 41 50 51
3 41 51 42
3 42 51 52
3 42 52 43
3 43 52 53
3 43 53 44
3 45 54 55
3 45 55 46
3 46 55 56
3 46 56 47
3 47 56 57
3 47 57 48
3 48 57 58
3 48 58 49
3 49 58 59
3 49 59 50
3 50 59 60
3 50 60 51
3 51 60 61
3 51 61 52
3 52 61 62
3 52 62 53
3 54 63 64
3 54 64 55
3 55 64 65
3 55 65 56
3 56 65 66
3 56 66 57
3 57 66 67
3 57 67 58
3 58 67 68
3 58 68 59
3 59 68 69
3 59 69 60
3 60 69 70
3 60 70 61
3 61 70 71
3 61 71 62
3 63 72 73
3 63 73 64
3 64 73 74
3 64 74 65
3 65 74 75
3 65 75 66
3 66 75 76
3 66 76 67
3 67 76 77
3 67 77 68
3 68 77 78
3 68 78 69
3 69 78 79
3 69 79 70
3 70 79 80
3 70 80 71
3 72 81 82
3 72 82 73
3 73 82 83
3 73 83 74
3 74 83 84
3 74 84 75
3 75 84 85
3 75 85 76
3 76 85 86
3 76 86 77
3 77 86 87
3 77 87 78
3 78 87 88
3 78 88 79
3 79 88 89
3 79 89 80
3 81 90 91
3 81 91 82
3 82 91 92
3 82 92 83
3 83 92 93
3 83 93 84
3 84 93 94
3 84 94 85
3 85 94 95
3 85 95 86
3 86 95 96
3 86 96 87
3 87 96 97
3 87 97 88
3 88 97 98
3 88 98 89
3 90 99 100
3 90 100 91
3 91 100 101
3 91 101 92
3 92 101 102
3 92 102 93
3 93 102 103
3 93 103 94
3 94 103 104
3 94 104 95
3 95 104 105
3 95 105 96
3 96 105 106
3 96 106 97
3 97 106 107
3 97 107 98
3 99 108 109
3 99 109 100
3 100 109 110
3 100 110 101
3 101 110 111
3 101 111 102
3 102 111 112
3 102 112 103
3 103 112 113
3 103 113 104
3 104 113 114
3 104 114 105
3 105 114 115
3 105 115 106
3 106 115 116
3 106 116 107
3 108 117 118
3 108 118 109
3 109 118 119
3 109 119 110
3 110 119 120
3 110 120 111
3 111 120 121
3 111 121 112
3 112 121 122
3 112 122 113
3 113 122 123
3 113 123 114
3 114 123 124
3 114 124 115
3 115 124 125
3 115 125 116
3 117 126 127
3 117 127 118
3 118 127 128
3 118 128 119
3 119 128 129
3 119 129 120
3 120 129 130
3 120 130 121
3 121 130 131
3 121 131 122
3 122 131 132
3 122 132 123
3 123 132 133
3 123 133 124
3 124 133 134
3 124 134 125
3 126 135 136
3 126 136 127
3 127 136 137
3 127 137 128
3 128 137 138
3 128 138 129
3 129 138 139
3 129 139 130
3 130 139 140
3 130 140 131
3 131 140 141
3 131 141 132
3 132 141 142
3 132 142 133
3 133 142 143
3 133 143 134
3 135 144 145
3 135 145 136
3 136 145 146
3 136 146 137
3 137 146 147
3 137 147 138
3 138 147 148
3 138 148 139
3 139 148 149
3 139 149 140
3 140 149 150
3 140 150 141
3 141 150 151
3 141 151 142
3 142 151 152
3 142 152 143
3 144 153 154
3 144 154 145
3 145 154 155
3 145 155 146
3 146 155 156
3 146 156 147
3 147 156 157
3 147 157 148
3 148 157 158
3 148 158 149
3 149 158 159
3 149 159 150
3 150 159 160
3 150 160 151
3 151 160 161
3 151 161 152
3 153 162 163
3 153 163 154
3 154 163 164
3 154 164 155
3 155 164 165
3 155 165 156
3 156 165 166
3 156 166 157
3 157 166 167
3 157 167 158
3 158 167 168
3 158 168 159
3 159 168 169
3 159 169 160
3 160 169 170
3 160 170 161
3 162 171 172
3 162 172 163
3 163 172 173
3 163 173 164
3 164 173 174
3 164 174 165
3 165 174 175
3 165 175 166
3 166 175 176
3 166 176 167
3 167 176 177
3 167 177 168
3 168 177 178
3 168 178 169
3 169 178 179
3 169 179 170
3 171 180 181
3 171 181 172
3 172 181 182
3 172 182 173
3 173 182 183
3 173 183 174
3 174 183 184
3 174 184 175
3 175 184 185
3 175 185 176
3 176 185 186
3 176 186 177
3 177 186 187
3 177 187 178
3 178 187 188
3 178 188 179
3 180 189 190
3 180 190 181
3 181 190 191
3 181 191 182
3 182 191 192
3 182 192 183
3 183 192 193
3 183 193 184
3 184 193 194
3 184 194 185
3 185 194 195
3 185 195 186
3 186 195 196
3 186 196 187
3 187 196 197
3 187 197 188
3 189 198 199
3 189 199 190
3 190 199 200
3 190 200 191
3 191 200 201
3 191 201 192
3 192 201 202
3 192 202 193
3 193 202 203
3 193 203 194
3 194 203 204
3 194 204 195
3 195 204 205
3 195 205 196
3 196 205 206
3 196 206 197
3 198 207 208
3 198 208 199
3 199 208 209
3 199 209 200
3 200 209 210
3 200 210 201
3 201 210 211
3 201 211 202
3 202 211 212
3 202 212 203
3 203 212 213
3 203 213 204
3 204 213 214
3 204 214 205
3 205 214 215
3 205 215 206
3 207 216 217
3 207 217 208
3 208 217 218
3 208 218 209
3 209 218 219
3 209 219 210
3 210 219 220
3 210 220 211
3 211 220 221
3 211 221 212
3 212 221 222
3 212 222 213
3 213 222 223
3 213 223 214
3 214 223 224
3 214 224 215
3 216 225 226
3 216 226 217
3 217 226 227
3 217 227 218
3 218 227 228
3 218 228 219
3 219 228 229
3 219 229 220
3 220 229 230
3 220 230 221
3 221 230 231
3 221 231 222
3 222 231 232
3 222 232 223
3 223 232 233
3 223 233 224
3 225 234 235
3 225 235 226
3 226 235 236
3 226 236 227
3 227 236 237
3 227 237 228
3 228 237 238
3 228 238 229
3 229 238 239
3 229 239 230
3 230 239 240
3 230 240 231
3 231 240 241
3 231 241 232
3 232 241 242
3 232 242 233
3 234 243 244
3 234 244 235
3 235 244 245
3 235 245 236
3 236 245 246
3 236 246 237
3 237 246 247
3 237 247 238
3 238 247 248
3 238 248 239
3 239 248 249
3 239 249 240
3 240 249 250
3 240 250 241
3 241 250 251
3 241 251 242
3 243 252 253
3 243 253 244
3 244 253 254
3 244 254 245
3 245 254 255
3 245 255 246
3 246 255 256
3 246 256 247
3 247 256 257
3 247 257 248
3 248 257 258
3 248 258 249
3 249 258 259
3 249 259 250
3 250 259 260
3 250 260 251
3 252 261 262
3 252 262 253
3 253 262 263
3 253 263 254
3 254 263 264
3 254 264 255
3 255 264 265
3 255 265 256
3 256 265 266
3 256 266 257
3 257 266 267
3 257 267 258
3 258 267 268
3 258 268 259
3 259 268 269
3 259 269 260
3 261 270 271
3 261 271 262
3 262 271 272
3 262 272 263
3 263 272 273
3 263 273 264
3 264 273 274
3 264 274 265
3 265 274 275
3 265 275 266
3 266 275 276
3 266 276 267
3 267 276 277
3 267 277 268
3 268 277 278
3 268 278 269
3 270 279 280
3 270 280 271
3 271 280 281
3 271 281 272
3 272 281 282
3 272 282 273
3 273 282 283
3 273 283 274
3 274 283 284
3 274 284 275
3 275 284 285
3 275 285 276
3 276 285 286
3 276 286 277
3 277 286 287
3 277 287 278
3 279 288 289
3 279 289 280
3 280 289 290
3 280 290 281
3 281 290 291
3 281 291 282
3 282 291 292
3 282 292 283
3 283 292 293
3 283 293 284
3 284 293 294
3 284 294 285
3 285 294 295
3 285 295 286
3 286 295 296
3 286 296 287
3 288 297 298
3 288 298 289
3 289 298 299
3 289 299 290
3 290 299 300
3 290 300 291
3 291 300 301
3 291 301 292
3 292 301 302
3 292 302 293
3 293 302 303
3 293 303 294
3 294 303 304
3 294 304 295
3 295 304 305
3 295 305 296
3 297 306 307
3 297 307 298
3 298 307 308
3 298 308 299
3 299 308 309
3 299 309 300
3 300 309 310
3 300 310 301
3 301 310 311
3 301 311 302
3 302 311 312
3 302 312 303
3 303 312 313
3 303 313 304
3 304 313 314
3 304 314 305
3 306 315 316
3 306 316 307
3 307 316 317
3 307 317 308
3 308 317 318
3 308 318 309
3 309 318 319
3 309 319 310
3 310 319 320
3 310 320 311
3 311 320 321
3 311 321 312
3 312 321 322
3 312 322 313
3 313 322 323
3 313 323 314
3 315 324 325
3 315 325 316
3 316 325 326
3 316 326 317
3 317 326 327
3 317 327 318
3 318 327 328
3 318 328 319
3 319 328 329
3 319 329 320
3 320 329 330
3 320 330 321
3 321 330 331
3 321 331 322
3 322 331 332
3 322 332 323
3 324 333 334
3 324 334 325
3 325 334 335
3 325 335 326
3 326 335 336
3 326 336 327
3 327 336 337
3 327 337 328
3 328 337 338
3 328 338 329
3 329 338 339
3 329 339 330
3 330 339 340
3 330 340 331
3 331 340 341
3 331 341 332
3 333 342 343
3 333 343 334
3 334 343 344
3 334 344 335
3 335 344 345
3 335 345 336
3 336 345 346
3 336 346 337
3 337 346 347
3 337 347 338
3 338 347 348
3 338 348 339
3 339 348 349
3 339 349 340
3 340 349 350
3 340 350 341
3 342 351 352
3 342 352 343
3 343 352 353
3 343 353 344
3 344 353 354
3 344 354 345
3 345 354 355
3 345 355 346
3 346 355 356
3 346 356 347
3 347 356 357
3 347 357 348
3 348 357 358
3 348 358 349
3 349 358 359
3 349 359 350
3 351 360 361
3 351 361 352
3 352 361 362
3 352 362 353
3 353 362 363
3 353 363 354
3 354 363 364
3 354 364 355
3 355 364 365
3 355 365 356
3 356 365 366
3 356 366 357
3 357 366 367
3 357 367 358
3 358 367 368
3 358 368 359
3 360 369 370
3 360 370 361
3 361 370 371
3 361 371 362
3 362 371 372
3 362 372 363
3 363 372 373
3 363 373 364
3 364 373 374
3 364 374 365
3 365 374 375
3 365 375 366
3 366 375 376
3 366 376 367
3 367 376 377
3 367 377 368
3 369 378 379
3 369 379 370
3 370 379 380
3 370 380 371
3 371 380 381
3 371 381 372
3 372 381 382
3 372 382 373
3 373 382 383
3 373 383 374
3 374 383 384
3 374 384 375
3 375 384 385
3 375 385 376
3 376 385 386
3 376 386 377
3 378 387 388
3 378 388 379
3 379 388 389
3 379 389 380
3 380 389 390
3 380 390 381
3 381 390 391
3 381 391 382
3 382 391 392
3 382 392 383
3 383 392 393
3 383 393 384
3 384 393 394
3 384 394 385
3 385 394 395
3 385 395 386
3 387 396 397
3 387 397 388
3 388 397 398
3 388 398 389
3 389 398 399
3 389 399 390
3 390 399 400
3 390 400 391
3 391 400 401
3 391 401 392
3 392 401 402
3 392 402 393
3 393 402 403
3 393 403 394
3 394 403 404
3 394 404 395
3 396 405 406
3 396 406 397
3 397 406 407
3 397 407 398
3 398 407 408
3 398 408 399
3 399 408 409
3 399 409 400
3 400 409 410
3 400 410 401
3 401 410 411
3 401 411 402
3 402 411 412
3 402 412 403
3 403 412 413
3 403 413 404
3 405 414 415
3 405 415 406
3 406 415 416
3 406 416 407
3 407 416 417
3 407 417 408
3 408 417 418
3 408 418 409
3 409 418 419
3 409 419 410
3 410 419 420
3 410 420 411
3 411 420 421
3 411 421 412
3 412 421 422
3 412 422 413
3 414 423 424
3 414 424 415
3 415 424 425
3 415 425 416
3 416 425 426
3 416 426 417
3 417 426 427
3 417 427 418
3 418 427 428
3 418 428 419
3 419 428 429
3 419 429 420
3 420 429 430
3 420 430 421
3 421 430 431
3 421 431 422
3 423 432 433
3 423 433 424
3 424 433 434
3 424 434 425
3 425 434 435
3 425 435 426
3 426 435 436
3 426 436 427
3 427 436 437
3 427 437 428
3 428 437 438
3 428 438 429
3 429 438 439
3 429 439 430
3 430 439 440
3 430 440 431
3 432 441 442
3 432 442 433
3 433 442 443
3 433 443 434
3 434 443 444
3 434 444 435
3 435 444 445
3 435 445 436
3 436 445 446
3 436 446 437
3 437 446 447
3 437 447 438
3 438 447 448
3 438 448 439
3 439 448 449
3 439 449 440
3 441 450 451
3 441 451 442
3 442 451 452
3 442 452 443
3 443 452 453
3 443 453 444
3 444 453 454
3 444 454 445
3 445 454 455
3 445 455 446
3 446 455 456
3 446 456 447
3 447 456 457
3 447 457 448
3 448 457 458
3 448 458 449
3 450 459 460
3 450 460 451
3 451 460 461
3 451 461 452
3 452 461 462
3 452 462 453
3 453 462 463
3 453 463 454
3 454 463 464
3 454 464 455
3 455 464 465
3 455 465 456
3 456 465 466
3 456 466 457
3 457 466 467
3 457 467 458
3 459 468 469
3 459 469 460
3 460 469 470
3 460 470 461
3 461 470 471
3 461 471 462
3 462 471 472
3 462 472 463
3 463 472 473
3 463 473 464
3 464 473 474
3 464 474 465
3 465 474 475
3 465 475 466
3 466 475 476
3 466 476 467
3 468 477 478
3 468 478 469
3 469 478 479
3 469 479 470
3 470 479 480
3 470 480 471
3 471 480 481
3 471 481 472
3 472 481 482
3 472 482 473
3 473 482 483
3 473 483 474
3 474 483 484
3 474 484 475
3 475 484 485
3 475 485 476
3 477 486 487
3 477 487 478
3 478 487 488
3 478 488 479
3 479 488 489
3 479 489 480
3 480 489 490
3 480 490 481
3 481 490 491
3 481 491 482
3 482 491 492
3 482 492 483
3 483 492 493
3 483 493 484
3 484 493 494
3 484 494 485
3 486 495 496
3 486 496 487
3 487 496 497
3 487 497 488
3 488 497 498
3 488 498 489
3 489 498 499
3 489 499 490
3 490 499 500
3 490 500 491
3 491 500 501
3 491 501 492
3 492 501 502
3 492 502 493
3 493 502 503
3 493 503 494
3 495 504 505
3 495 505 496
3 496 505 506
3 496 506 497
3 497 506 507
3 497 507 498
3 498 507 508
3 498 508 499
3 499 508 509
3 499 509 500
3 500 509 510
3 500 510 501
3 501 510 511
3 501 511 502
3 502 511 512
3 502 512 503
3 504 513 514
3 504 514 505
3 505 514 515
3 505 515 506
3 506 515 516
3 506 516 507
3 507 516 517
3 507 517 508
3 508 517 518
3 508 518 509
3 509 518 519
3 509 519 510
3 510 519 520
3 510 520 511
3 511 520 521
3 511 521 512
3 513 522 523
3 513 523 514
3 514 523 524
3 514 524 515
3 515 524 525
3 515 525 516
3 516 525 526
3 516 526 517
3 517 526 527
3 517 527 518
3 518 527 528
3 518 528 519
3 519 528 529
3 519 529 520
3 520 529 530
3 520 530 521
3 522 531 532
3 522 532 523
3 523 532 533
3 523 533 524
3 524 533 534
3 524 534 525
3 525 534 535
3 525 535 526
3 526 535 536
3 526 536 527
3 527 536 537
3 527 537 528
3 528 537 538
3 528 538 529
3 529 538 539
3 529 539 530
3 531 540 541
3 531 541 532
3 532 541 542
3 532 542 533
3 533 542 543
3 533 543 534
3 534 543 544
3 534 544 535
3 535 544 545
3 535 545 536
3 536 545 546
3 536 546 537
3 537 546 547
3 537 547 538
3 538 547 548
3 538 548 539
3 540 549 550
3 540 550 541
3 541 550 551
3 541 551 542
3 542 551 552
3 542 552 543
3 543 552 553
3 543 553 544
3 544 553 554
3 544 554 545
3 545 554 555
3 545 555 546
3 546 555 556
3 546 556 547
3 547 556 557
3 547 557 548
3 549 558 559
3 549 559 550
3 550 559 560
3 550 560 551
3 551 560 561
3 551 561 552
3 552 561 562
3 552 562 553
3 553 562 563
3 553 563 554
3 554 563 564
3 554 564 555
3 555 564 565
3 555 565 556
3 556 565 566
3 556 566 557
3 558 567 568
3 558 568 559
3 559 568 569
3 559 569 560
3 560 569 570
3 560 570 561
3 561 570 571
3 561 571 562
3 562 571 572
3 562 572 563
3 563 572 573
3 563 573 564
3 564 573 574
3 564 574 565
3 565 574 575
3 565 575 566
3 567 576 577
3 567 577 568
3 568 577 578
3 568 578 569
3 569 578 579
3 569 579 570
3 570 579 580
3 570 580 571
3 571 580 581
3 571 581 572
3 572 581 582
3 572 582 573
3 573 582 583
3 573 583 574
3 574 583 584
3 574 584 575
3 576 585 586
3 576 586 577
3 577 586 587
3 577 587 578
3 578 587 588
3 578 588 579
3 579 588 589
3 579 589 580
3 580 589 590
3 580 590 581
3 581 590 591
3 581 591 582
3 582 591 592
3 582 592 583
3 583 592 593
3 583 593 584
3 585 594 595
3 585 595 586
3 586 595 596
3 586 596 587
3 587 596 597
3 587 597 588
3 588 597 598
3 588 598 589
3 589 598 599
3 589 599 590
3 590 599 600
3 590 600 591
3 591 600 601
3 591 601 592
3 592 601 602
3 592 602 593
3 594 603 604
3 594 604 595
3 595 604 605
3 595 605 596
3 596 605 606
3 596 606 597
3 597 606 607
3 597 607 598
3 598 607 608
3 598 608 599
3 599 608 609
3 599 609 600
3 600 609 610
3 600 610 601
3 601 610 611
3 601 611 602
3 603 612 613
3 603 613 604
3 604 613 614
3 604 614 605
3 605 614 615
3 605 615 606
3 606 615 616
3 606 616 607
3 607 616 617
3 607 617 608
3 608 617 618
3 608 618 609
3 609 618 619
3 609 619 610
3 610 619 620
3 610 620 611
3 612 621 622
3 612 622 613
3 613 622 623
3 613 623 614
3 614 623 624
3 614 624 615
3 615 624 625
3 615 625 616
3 616 625 626
3 616 626 617
3 617 626 627
3 617 627 618
3 618 627 628
3 618 628 619
3 619 628 629
3 619 629 620
3 621 630 631
3 621 631 622
3 622 631 632
3 622 632 623
3 623 632 633
3 623 633 624
3 624 633 634
3 624 634 625
3 625 634 635
3 625 635 626
3 626 635 636
3 626 636 627
3 627 636 637
3 627 637 628
3 628 637 638
3 628 638 629
3 630 639 640
3 630 640 631
3 631 640 641
3 631 641 632
3 632 641 642
3 632 642 633
3 633 642 643
3 633 643 634
3 634 643 644
3 634 644 635
3 635 644 645
3 635 645 636
3 636 645 646
3 636 646 637
3 637 646 647
3 637 647 638
3 639 648 649
3 639 649 640
3 640 649 650
3 640 650 641
3 641 650 651
3 641 651 642
3 642 651 652
3 642 652 643
3 643 652 653
3 643 653 644
3 644 653 654
3 644 654 645
3 645 654 655
3 645 655 646
3 646 655 656
3 646 656 647
3 648 657 658
3 648 658 649
3 649 658 659
3 649 659 650
3 650 659 660
3 650 660 651
3 651 660 661
3 651 661 652
3 652 661 662
3 652 662 653
3 653 662 663
3 653 663 654
3 654 663 664
3 654 664 655
3 655 664 665
3 655 665 656
3 657 666 667
3 657 667 658
3 658 667 668
3 658 668 659
3 659 668 669
3 659 669 660
3 660 669 670
3 660 670 661
3 661 670 671
3 661 671 662
3 662 671 672
3 662 672 663
3 663 672 673
3 663 673 664
3 664 673 674
3 664 674 665
3 666 675 676
3 666 676 667
3 667 676 677
3 667 677 668
3 668 677 678
3 668 678 669
3 669 678 679
3 669 679 670
3 670 679 680
3 670 680 671
3 671 680 681
3 671 681 672
3 672 681 682
3 672 682 673
3 673 682 683
3 673 683 674
3 675 684 685
3 675 685 676
3 676 685 686
3 676 686 677
3 677 686 687
3 677 687 678
3 678 687 688
3 678 688 679
3 679 688 689
3 679 689 680
3 680 689 690
3 680 690 681
3 681 690 691
3 681 691 682
3 682 691 692
3 682 692 683
3 684 693 694
3 684 694 685
3 685 694 695
3 685 695 686
3 686 695 696
3 686 696 687
3 687 696 697
3 687 697 688
3 688 697 698
3 688 698 689
3 689 698 699
3 689 699 690
3 690 699 700
3 690 700 691
3 691 700 701
3 691 701 692
3 693 702 703
3 693 703 694
3 694 703 704
3 694 704 695
3 695 704 705
3 695 705 696
3 696 705 706
3 696 706 697
3 697 706 707
3 697 707 698
3 698 707 708
3 698 708 699
3 699 708 709
3 699 709 700
3 700 709 710
3 700 710 701
3 702 711 712
3 702 712 703
3 703 712 713
3 703 713 704
3 704 713 714
3 704 714 705
3 705 714 715
3 705 715 706
3 706 715 716
3 706 716 707
3 707 716 717
3 707 717 708
3 708 717 718
3 708 718 709
3 709 718 719
3 709 719 710
3 711 720 721
3 711 721 712
3 712 721 722
3 712 722 713
3 713 722 723
3 713 723 714
3 714 723 724
3 714 724 715
3 715 724 725
3 715 725 716
3 716 725 726
3 716 726 717
3 717 726 727
3 717 727 718
3 718 727 728
3 718 728 719
