ply
format ascii 1.0
element vertex 50
property float x
property float y
property float z
element face 64
property list uchar int vertex_indices
end_header
-0.49317598342895507812 0.90936028957366943359 0
-0.24311806261539459229 0.91094708442687988281 0
0.0069393278099596500397 0.91253411769866943359 0
0.25699672102928161621 0.91412109136581420898 0
0.50705468654632568359 0.91570848226547241211 0
-0.49476322531700134277 1.1594166755676269531 0
-0.24470543861389160156 1.1610034704208374023 0
0.0053522521629929542542 1.1625905036926269531 0
0.25540992617607116699 1.1641775369644165039 0
0.50546783208847045898 1.165764927864074707 0
-0.49635016918182373047 1.4094728231430053711 0
-0.24629241228103637695 1.4110599756240844727 0
0.0037651997990906238556 1.4126471281051635742 0
0.25382280349731445312 1.4142340421676635742 0
0.50388062000274658203 1.4158209562301635742 0
-0.49793708324432373047 1.6595292091369628906 0
-0.24787935614585876465 1.6611168384552001953 0
0.0021781632676720619202 1.6627039909362792969 0
0.25223568081855773926 1.6642909049987792969 0
0.50229334831237792969 1.6658773422241210938 0
-0.4995237886905670166 1.9095863103866577148 0
-0.24946607649326324463 1.9111740589141845703 0
0.00059112400049343705177 1.9127612113952636719 0
0.25064831972122192383 1.9143481254577636719 0
0.50070595741271972656 1.915934443473815918 0
-0.50000607967376708984 -0.50065988302230834961 0
-0.25000527501106262207 -0.50066494941711425781 0
-3.7765796605526702479e-06 -0.50066542625427246094 0
0.24999782443046569824 -0.5006631016731262207 0
0.50000053644180297852 -0.50065523386001586914 0
-0.50000596046447753906 -0.25066289305686950684 0
-0.25000491738319396973 -0.2506650388240814209 0
-4.5396336645353585482e-06 -0.25066542625427246094 0
0.24999588727951049805 -0.25066339969635009766 0
0.49999657273292541504 -0.25065904855728149414 0
-0.50000679492950439453 -0.0006646563415415585041 0
-0.25000590085983276367 -0.00066564918961375951767 0
-5.3813660088053438812e-06 -0.00066563062136992812157 0
0.24999494850635528564 -0.00066375313326716423035 0
0.49999523162841796875 -0.00066087848972529172897 0
-0.50000739097595214844 0.2493353039026260376 0
-0.25000679492950439453 0.2493336796760559082 0
-6.4111718529602512717e-06 0.24933364987373352051 0
0.24999403953552246094 0.24933587014675140381 0
0.49999403953552246094 0.24933901429176330566 0
-0.50000470876693725586 0.49933838844299316406 0
-0.25000616908073425293 0.49933335185050964355 0
-7.5544912760960869491e-06 0.49933299422264099121 0
0.24999116361141204834 0.49933522939682006836 0
0.49999153614044189453 0.49934127926826477051 0
3 0 1 6
3 0 6 5
3 1 2 7
3 1 7 6
3 2 3 8
3 2 8 7
3 3 4 9
3 3 9 8
3 5 6 11
3 5 11 10
3 6 7 12
3 6 12 11
3 7 8 13
3 7 13 12
3 8 9 14
3 8 14 13
3 10 11 16
3 10 16 15
3 11 12 17
3 11 17 16
3 12 13 18
3 12 18 17
3 13 14 19
3 13 19 18
3 15 16 21
3 15 21 20
3 16 17 22
3 16 22 21
3 17 18 23
3 17 23 22
3 18 19 24
3 18 24 23
3 25 26 31
3 25 31 30
3 26 27 32
3 26 32 31
3 27 28 33
3 27 33 32
3 28 29 34
3 28 34 33
3 30 31 36
3 30 36 35
3 31 32 37
3 31 37 36
3 32 33 38
3 32 38 37
3 33 34 39
3 33 39 38
3 35 36 41
3 35 41 40
3 36 37 42
3 36 42 41
3 37 38 43
3 37 43 42
3 38 39 44
3 38 44 43
3 40 41 46
3 40 46 45
3 41 42 47
3 41 47 46
3 42 43 48
3 42 48 47
3 43 44 49
3 43 49 48
