ply
format ascii 1.0
element vertex 50
property float x
property float y
property float z
element face 64
property list uchar int vertex_indices
end_header
-1.0130294561386108398 0.33289170265197753906 0
-0.8334064483642578125 0.50996559858322143555 0
-0.65378409624099731445 0.68703985214233398438 0
-0.47415992617607116699 0.86411166191101074219 0
-0.29453513026237487793 1.0411829948425292969 0
-1.1901018619537353516 0.51251459121704101562 0
-1.0104783773422241211 0.68958765268325805664 0
-0.83085519075393676758 0.86666131019592285156 0
-0.65123093128204345703 1.0437340736389160156 0
-0.47160649299621582031 1.2208067178726196289 0
-1.3671734333038330078 0.6921374201774597168 0
-1.1875499486923217773 0.8692105412483215332 0
-1.0079265832901000977 1.0462836027145385742 0
-0.82830250263214111328 1.2233563661575317383 0
-0.64867812395095825195 1.4004288911819458008 0
-1.5442448854446411133 0.87176036834716796875 0
-1.3646217584609985352 1.0488336086273193359 0
-1.1849982738494873047 1.2259066104888916016 0
-1.0053743124008178711 1.4029791355133056641 0
-0.82574987411499023438 1.5800511837005615234 0
-1.7213169336318969727 1.0513838529586791992 0
-1.5416936874389648438 1.2284572124481201172 0
-1.3620704412460327148 1.4055298566818237305 0
-1.182446599006652832 1.5826022624969482422 0
-1.0028221607208251953 1.7596741914749145508 0
-0.49945998191833496094 -0.50082659721374511719 0
-0.24945636093616485596 -0.50082349777221679688 0
0.00054632825776934623718 -0.50081312656402587891 0
0.25054720044136047363 -0.50079947710037231445 0
0.50054699182510375977 -0.50078213214874267578 0
-0.49946540594100952148 -0.25083091855049133301 0
-0.24946397542953491211 -0.25082427263259887695 0
0.00053652544738724827766 -0.25081336498260498047 0
0.25053673982620239258 -0.25079959630966186523 0
0.50053691864013671875 -0.25078469514846801758 0
-0.49947470426559448242 -0.00083491037366911768913 0
-0.24947367608547210693 -0.00082535453839227557182 0
0.00052639498608186841011 -0.00081353093264624476433 0
0.25052630901336669922 -0.00079950469080358743668 0
0.50052607059478759766 -0.00078495126217603683472 0
-0.49948489665985107422 0.24916240572929382324 0
-0.24948468804359436035 0.24917341768741607666 0
0.00051462621195241808891 0.24918617308139801025 0
0.25051394104957580566 0.24920094013214111328 0
0.50051313638687133789 0.24921731650829315186 0
-0.49949511885643005371 0.49916326999664306641 0
-0.24949590861797332764 0.49917292594909667969 0
0.00050104153342545032501 0.49918666481971740723 0
0.25049740076065063477 0.49920195341110229492 0
0.5004946589469909668 0.4992217719554901123 0
3 0 1 6
3 0 6 5
3 1 2 7
3 1 7 6
3 2 3 8
3 2 8 7
3 3 4 9
3 3 9 8
3 5 6 11
3 5 11 10
3 6 7 12
3 6 12 11
3 7 8 13
3 7 13 12
3 8 9 14
3 8 14 13
3 10 11 16
3 10 16 15
3 11 12 17
3 11 17 16
3 12 13 18
3 12 18 17
3 13 14 19
3 13 19 18
3 15 16 21
3 15 21 20
3 16 17 22
3 16 22 21
3 17 18 23
3 17 23 22
3 18 19 24
3 18 24 23
3 25 26 31
3 25 31 30
3 26 27 32
3 26 32 31
3 27 28 33
3 27 33 32
3 28 29 34
3 28 34 33
3 30 31 36
3 30 36 35
3 31 32 37
3 31 37 36
3 32 33 38
3 32 38 37
3 33 34 39
3 33 39 38
3 35 36 41
3 35 41 40
3 36 37 42
3 36 42 41
3 37 38 43
3 37 43 42
3 38 39 44
3 38 44 43
3 40 41 46
3 40 46 45
3 41 42 47
3 41 47 46
3 42 43 48
3 42 48 47
3 43 44 49
3 43 49 48
