ply
format ascii 1.0
element vertex 50
property float x
property float y
property float z
element face 64
property list uchar int vertex_indices
end_header
-1.1243107318878173828 -0.10559258610010147095 0
-0.99828648567199707031 0.11372897028923034668 0
-0.87226557731628417969 0.33305257558822631836 0
-0.74624496698379516602 0.55237823724746704102 0
-0.62022125720977783203 0.77170342206954956055 0
-1.3436318635940551758 0.020432159304618835449 0
-1.2176070213317871094 0.23975300788879394531 0
-1.0915844440460205078 0.45907539129257202148 0
-0.96556174755096435547 0.67839872837066650391 0
-0.83953714370727539062 0.89772212505340576172 0
-1.5629519224166870117 0.14645740389823913574 0
-1.4369268417358398438 0.36577814817428588867 0
-1.3109030723571777344 0.58509969711303710938 0
-1.1848790645599365234 0.80442166328430175781 0
-1.0588532686233520508 1.0237433910369873047 0
-1.7822713851928710938 0.27248314023017883301 0
-1.6562463045120239258 0.49180394411087036133 0
-1.5302219390869140625 0.7111250758171081543 0
-1.4041972160339355469 0.93044632673263549805 0
-1.2781703472137451172 1.1497666835784912109 0
-2.0015909671783447266 0.39850947260856628418 0
-1.8755658864974975586 0.61783021688461303711 0
-1.7495414018630981445 0.83715093135833740234 0
-1.6235163211822509766 1.0564719438552856445 0
-1.4974889755249023438 1.2757921218872070312 0
-0.49879592657089233398 -0.50120216608047485352 0
-0.24878881871700286865 -0.5012219548225402832 0
0.0012158666504546999931 -0.50123029947280883789 0
0.25121662020683288574 -0.50123375654220581055 0
0.50121390819549560547 -0.50123333930969238281 0
-0.49877634644508361816 -0.25120887160301208496 0
-0.24877440929412841797 -0.25122359395027160645 0
0.00122626451775431633 -0.25123101472854614258 0
0.2512263953685760498 -0.2512340545654296875 0
0.50122606754302978516 -0.25123625993728637695 0
-0.49876448512077331543 -0.0012156496522948145866 0
-0.24876356124877929688 -0.0012252047890797257423 0
0.0012359151151031255722 -0.0012313097249716520309 0
0.25123545527458190918 -0.0012338521191850304604 0
0.50123465061187744141 -0.0012355087092146277428 0
-0.49875465035438537598 0.24877928197383880615 0
-0.2487557828426361084 0.24877329170703887939 0
0.0012420343700796365738 0.24876846373081207275 0
0.25124016404151916504 0.24876692891120910645 0
0.50123834609985351562 0.24876929819583892822 0
-0.49874949455261230469 0.49877998232841491699 0
-0.2487503737211227417 0.4987735450267791748 0
0.001244248589500784874 0.4987697303295135498 0
0.25123730301856994629 0.49876895546913146973 0
0.50123047828674316406 0.49877658486366271973 0
3 0 1 6
3 0 6 5
3 1 2 7
3 1 7 6
3 2 3 8
3 2 8 7
3 3 4 9
3 3 9 8
3 5 6 11
3 5 11 10
3 6 7 12
3 6 12 11
3 7 8 13
3 7 13 12
3 8 9 14
3 8 14 13
3 10 11 16
3 10 16 15
3 11 12 17
3 11 17 16
3 12 13 18
3 12 18 17
3 13 14 19
3 13 19 18
3 15 16 21
3 15 21 20
3 16 17 22
3 16 22 21
3 17 18 23
3 17 23 22
3 18 19 24
3 18 24 23
3 25 26 31
3 25 31 30
3 26 27 32
3 26 32 31
3 27 28 33
3 27 33 32
3 28 29 34
3 28 34 33
3 30 31 36
3 30 36 35
3 31 32 37
3 31 37 36
3 32 33 38
3 32 38 37
3 33 34 39
3 33 39 38
3 35 36 41
3 35 41 40
3 36 37 42
3 36 42 41
3 37 38 43
3 37 43 42
3 38 39 44
3 38 44 43
3 40 41 46
3 40 46 45
3 41 42 47
3 41 47 46
3 42 43 48
3 42 48 47
3 43 44 49
3 43 49 48
