ply
format ascii 1.0
element vertex 50
property float x
property float y
property float z
element face 64
property list uchar int vertex_indices
end_header
-0.90458917617797851562 0.71905004978179931641 0
-0.66116845607757568359 0.77770864963531494141 0
-0.41774773597717285156 0.83636760711669921875 0
-0.17432658374309539795 0.89502507448196411133 0
0.069094575941562652588 0.95368266105651855469 0
-0.96324688196182250977 0.9624703526496887207 0
-0.71982598304748535156 1.0211282968521118164 0
-0.47640505433082580566 1.0797866582870483398 0
-0.23298382759094238281 1.1384445428848266602 0
0.010437421500682830811 1.1971024274826049805 0
-1.0219041109085083008 1.2058901786804199219 0
-0.77848321199417114258 1.264548182487487793 0
-0.53506237268447875977 1.3232063055038452148 0
-0.29164132475852966309 1.3818640708923339844 0
-0.048220161348581314087 1.4405217170715332031 0
-1.0805612802505493164 1.4493099451065063477 0
-0.83714050054550170898 1.5079684257507324219 0
-0.59371978044509887695 1.5666263103485107422 0
-0.35029888153076171875 1.6252840757369995117 0
-0.10687777400016784668 1.6839411258697509766 0
-1.1392185688018798828 1.6927305459976196289 0
-0.89579778909683227539 1.7513890266418457031 0
-0.65237736701965332031 1.8100467920303344727 0
-0.40895676612854003906 1.8687043190002441406 0
-0.16553564369678497314 1.9273613691329956055 0
-0.49978795647621154785 -0.50073283910751342773 0
-0.24978600442409515381 -0.50072026252746582031 0
0.00021593937708530575037 -0.50070202350616455078 0
0.25021713972091674805 -0.50068086385726928711 0
0.50021851062774658203 -0.50065535306930541992 0
-0.49980443716049194336 -0.25073641538619995117 0
-0.24980318546295166016 -0.25072070956230163574 0
0.00019728291954379528761 -0.25070214271545410156 0
0.25019761919975280762 -0.25068104267120361328 0
0.50019806623458862305 -0.25065830349922180176 0
-0.49982309341430664062 -0.00073919130954891443253 0
-0.2498219907283782959 -0.00072161527350544929504 0
0.00017845910042524337769 -0.00070233049336820840836 0
0.2501786351203918457 -0.00068109022686257958412 0
0.5001786351203918457 -0.00065931497374549508095 0
-0.49984222650527954102 0.24925951659679412842 0
-0.2498413771390914917 0.24927721917629241943 0
0.00015887372137513011694 0.24929706752300262451 0
0.2501589357852935791 0.24931906163692474365 0
0.50015854835510253906 0.24934171140193939209 0
-0.49985891580581665039 0.49926126003265380859 0
-0.24985980987548828125 0.49927625060081481934 0
0.00013850913092028349638 0.49929669499397277832 0
0.25013652443885803223 0.49931934475898742676 0
0.50013577938079833984 0.4993451535701751709 0
3 0 1 6
3 0 6 5
3 1 2 7
3 1 7 6
3 2 3 8
3 2 8 7
3 3 4 9
3 3 9 8
3 5 6 11
3 5 11 10
3 6 7 12
3 6 12 11
3 7 8 13
3 7 13 12
3 8 9 14
3 8 14 13
3 10 11 16
3 10 16 15
3 11 12 17
3 11 17 16
3 12 13 18
3 12 18 17
3 13 14 19
3 13 19 18
3 15 16 21
3 15 21 20
3 16 17 22
3 16 22 21
3 17 18 23
3 17 23 22
3 18 19 24
3 18 24 23
3 25 26 31
3 25 31 30
3 26 27 32
3 26 32 31
3 27 28 33
3 27 33 32
3 28 29 34
3 28 34 33
3 30 31 36
3 30 36 35
3 31 32 37
3 31 37 36
3 32 33 38
3 32 38 37
3 33 34 39
3 33 39 38
3 35 36 41
3 35 41 40
3 36 37 42
3 36 42 41
3 37 38 43
3 37 43 42
3 38 39 44
3 38 44 43
3 40 41 46
3 40 46 45
3 41 42 47
3 41 47 46
3 42 43 48
3 42 48 47
3 43 44 49
3 43 49 48
