ply
format ascii 1.0
element vertex 50
property float x
property float y
property float z
element face 64
property list uchar int vertex_indices
end_header
0.29905554652214050293 1.0408113002777099609 0
0.47856423258781433105 0.86361968517303466797 0
0.65807223320007324219 0.68642789125442504883 0
0.83757770061492919922 0.50923424959182739258 0
1.0170837640762329102 0.33204072713851928711 0
0.47624704241752624512 1.2203179597854614258 0
0.65575480461120605469 1.0431257486343383789 0
0.83526277542114257812 0.86593335866928100586 0
1.0147696733474731445 0.68873995542526245117 0
1.1942765712738037109 0.51154679059982299805 0
0.65343844890594482422 1.3998239040374755859 0
0.83294624090194702148 1.2226316928863525391 0
1.0124537944793701172 1.0454392433166503906 0
1.1919609308242797852 0.86824625730514526367 0
1.3714680671691894531 0.69105321168899536133 0
0.83062994480133056641 1.5793299674987792969 0
1.0101379156112670898 1.4021379947662353516 0
1.1896454095840454102 1.2249456644058227539 0
1.3691524267196655273 1.0477528572082519531 0
1.548659205436706543 0.87055975198745727539 0
1.0078219175338745117 1.7588365077972412109 0
1.1873301267623901367 1.5816446542739868164 0
1.3668373823165893555 1.4044525623321533203 0
1.5463442802429199219 1.2272599935531616211 0
1.7258509397506713867 1.050066828727722168 0
-0.50054794549942016602 -0.50078183412551879883 0
-0.25054970383644104004 -0.50079929828643798828 0
-0.00054869824089109897614 -0.50081270933151245117 0
0.24945440888404846191 -0.50082236528396606445 0
0.49946111440658569336 -0.5008220672607421875 0
-0.50053983926773071289 -0.25078490376472473145 0
-0.25053900480270385742 -0.25079879164695739746 0
-0.00053897994803264737129 -0.250812530517578125 0
0.24946153163909912109 -0.25082311034202575684 0
0.49946284294128417969 -0.25082895159721374512 0
-0.50052964687347412109 -0.00078495882917195558548 0
-0.25052922964096069336 -0.00079900398850440979004 0
-0.00052911433158442378044 -0.00081260275328531861305 0
0.24947082996368408203 -0.00082408753223717212677 0
0.49947139620780944824 -0.00083309609908610582352 0
-0.50051665306091308594 0.24921771883964538574 0
-0.25051715970039367676 0.24920129776000976562 0
-0.00051790970610454678535 0.24918697774410247803 0
0.24948157370090484619 0.24917492270469665527 0
0.49948096275329589844 0.24916391074657440186 0
-0.50049513578414916992 0.49922466278076171875 0
-0.25050079822540283203 0.49920248985290527344 0
-0.00050469697453081607819 0.49918735027313232422 0
0.24949172139167785645 0.49917373061180114746 0
0.49949184060096740723 0.499164581298828125 0
3 0 1 6
3 0 6 5
3 1 2 7
3 1 7 6
3 2 3 8
3 2 8 7
3 3 4 9
3 3 9 8
3 5 6 11
3 5 11 10
3 6 7 12
3 6 12 11
3 7 8 13
3 7 13 12
3 8 9 14
3 8 14 13
3 10 11 16
3 10 16 15
3 11 12 17
3 11 17 16
3 12 13 18
3 12 18 17
3 13 14 19
3 13 19 18
3 15 16 21
3 15 21 20
3 16 17 22
3 16 22 21
3 17 18 23
3 17 23 22
3 18 19 24
3 18 24 23
3 25 26 31
3 25 31 30
3 26 27 32
3 26 32 31
3 27 28 33
3 27 33 32
3 28 29 34
3 28 34 33
3 30 31 36
3 30 36 35
3 31 32 37
3 31 37 36
3 32 33 38
3 32 38 37
3 33 34 39
3 33 39 38
3 35 36 41
3 35 41 40
3 36 37 42
3 36 42 41
3 37 38 43
3 37 43 42
3 38 39 44
3 38 44 43
3 40 41 46
3 40 46 45
3 41 42 47
3 41 47 46
3 42 43 48
3 42 48 47
3 43 44 49
3 43 49 48
