ply
format ascii 1.0
element vertex 50
property float x
property float y
property float z
element face 64
property list uchar int vertex_indices
end_header
0.61649745702743530273 0.76915049552917480469 0
0.74231123924255371094 0.5497061610221862793 0
0.86812055110931396484 0.33026123046875 0
0.9939295649528503418 0.11081755161285400391 0
1.1197421550750732422 -0.10862469673156738281 0
0.83593380451202392578 0.89496016502380371094 0
0.96174800395965576172 0.67551690340042114258 0
1.0875600576400756836 0.45607298612594604492 0
1.2133715152740478516 0.2366298288106918335 0
1.3391846418380737305 0.017187992110848426819 0
1.0553706884384155273 1.0207712650299072266 0
1.1811859607696533203 0.80132901668548583984 0
1.30699920654296875 0.58188623189926147461 0
1.4328119754791259766 0.36244371533393859863 0
1.5586258172988891602 0.14300201833248138428 0
1.2748086452484130859 1.1465839147567749023 0
1.4006246328353881836 0.92714262008666992188 0
1.526438593864440918 0.70770049095153808594 0
1.6522519588470458984 0.48825842142105102539 0
1.7780660390853881836 0.26881679892539978027 0
1.4942477941513061523 1.2723982334136962891 0
1.6200643777847290039 1.0529571771621704102 0
1.7458786964416503906 0.83351522684097290039 0
1.8716921806335449219 0.61407357454299926758 0
1.9975061416625976562 0.39463207125663757324 0
-0.50121265649795532227 -0.50123310089111328125 0
-0.25121727585792541504 -0.50123524665832519531 0
-0.0012162432540208101273 -0.50123178958892822266 0
0.24878920614719390869 -0.50122237205505371094 0
0.49880141019821166992 -0.50119644403457641602 0
-0.50122714042663574219 -0.2512378394603729248 0
-0.25122618675231933594 -0.25123420357704162598 0
-0.0012265401892364025116 -0.25123146176338195801 0
0.24877400696277618408 -0.25122380256652832031 0
0.49877595901489257812 -0.25120812654495239258 0
-0.50123637914657592773 -0.0012368024326860904694 0
-0.25123608112335205078 -0.0012344437418505549431 0
-0.0012363167479634284973 -0.0012314772466197609901 0
0.24876284599304199219 -0.0012253776658326387405 0
0.49876332283020019531 -0.0012153155403211712837 0
-0.50123959779739379883 0.24876874685287475586 0
-0.25124108791351318359 0.24876622855663299561 0
-0.0012428561458364129066 0.24876815080642700195 0
0.24875524640083312988 0.24877355992794036865 0
0.49875268340110778809 0.24877861142158508301 0
-0.50122612714767456055 0.49878114461898803711 0
-0.25123804807662963867 0.49876821041107177734 0
-0.0012453403323888778687 0.49876880645751953125 0
0.24874886870384216309 0.49877253174781799316 0
0.49874866008758544922 0.49877998232841491699 0
3 0 1 6
3 0 6 5
3 1 2 7
3 1 7 6
3 2 3 8
3 2 8 7
3 3 4 9
3 3 9 8
3 5 6 11
3 5 11 10
3 6 7 12
3 6 12 11
3 7 8 13
3 7 13 12
3 8 9 14
3 8 14 13
3 10 11 16
3 10 16 15
3 11 12 17
3 11 17 16
3 12 13 18
3 12 18 17
3 13 14 19
3 13 19 18
3 15 16 21
3 15 21 20
3 16 17 22
3 16 22 21
3 17 18 23
3 17 23 22
3 18 19 24
3 18 24 23
3 25 26 31
3 25 31 30
3 26 27 32
3 26 32 31
3 27 28 33
3 27 33 32
3 28 29 34
3 28 34 33
3 30 31 36
3 30 36 35
3 31 32 37
3 31 37 36
3 32 33 38
3 32 38 37
3 33 34 39
3 33 39 38
3 35 36 41
3 35 41 40
3 36 37 42
3 36 42 41
3 37 38 43
3 37 43 42
3 38 39 44
3 38 44 43
3 40 41 46
3 40 46 45
3 41 42 47
3 41 47 46
3 42 43 48
3 42 48 47
3 43 44 49
3 43 49 48
