ply
format ascii 1.0
element vertex 50
property float x
property float y
property float z
element face 64
property list uchar int vertex_indices
end_header
-0.60000002384185791016 0.69999998807907104492 0
-0.34999999403953552246 0.69999998807907104492 0
-0.10000000149011611938 0.69999998807907104492 0
0.15000000596046447754 0.69999998807907104492 0
0.40000000596046447754 0.69999998807907104492 0
-0.60000002384185791016 0.94999992847442626953 0
-0.34999999403953552246 0.94999992847442626953 0
-0.10000000149011611938 0.94999992847442626953 0
0.15000000596046447754 0.94999992847442626953 0
0.40000000596046447754 0.94999992847442626953 0
-0.60000002384185791016 1.1999999284744262695 0
-0.34999999403953552246 1.1999999284744262695 0
-0.10000000149011611938 1.1999999284744262695 0
0.15000000596046447754 1.1999999284744262695 0
0.40000000596046447754 1.1999999284744262695 0
-0.60000002384185791016 1.4499999284744262695 0
-0.34999999403953552246 1.4499999284744262695 0
-0.10000000149011611938 1.4499999284744262695 0
0.15000000596046447754 1.4499999284744262695 0
0.40000000596046447754 1.4499999284744262695 0
-0.60000002384185791016 1.6999999284744262695 0
-0.34999999403953552246 1.6999999284744262695 0
-0.10000000149011611938 1.6999999284744262695 0
0.15000000596046447754 1.6999999284744262695 0
0.40000000596046447754 1.6999999284744262695 0
-0.50000661611557006836 -0.50000661611557006836 0
-0.25000661611557006836 -0.50000661611557006836 0
-6.6199768298247363418e-06 -0.50000667572021484375 0
0.24999341368675231934 -0.50000661611557006836 0
0.49999347329139709473 -0.50000649690628051758 0
-0.50000661611557006836 -0.25000661611557006836 0
-0.25000664591789245605 -0.25000664591789245605 0
-6.6378029259794857353e-06 -0.25000664591789245605 0
0.24999336898326873779 -0.25000664591789245605 0
0.49999335408210754395 -0.25000658631324768066 0
-0.50000667572021484375 -6.6199768298247363418e-06 0
-0.25000664591789245605 -6.6378029259794857353e-06 0
-6.6464208430261351168e-06 -6.6464208430261351168e-06 0
0.24999335408210754395 -6.6378029259794857353e-06 0
0.49999335408210754395 -6.6199768298247363418e-06 0
-0.50000661611557006836 0.24999341368675231934 0
-0.25000664591789245605 0.24999336898326873779 0
-6.6378029259794857353e-06 0.24999335408210754395 0
0.24999336898326873779 0.24999336898326873779 0
0.49999335408210754395 0.24999336898326873779 0
-0.50000649690628051758 0.49999347329139709473 0
-0.25000658631324768066 0.49999335408210754395 0
-6.6199768298247363418e-06 0.49999335408210754395 0
0.24999336898326873779 0.49999335408210754395 0
0.49999341368675231934 0.49999341368675231934 0
3 0 1 6
3 0 6 5
3 1 2 7
3 1 7 6
3 2 3 8
3 2 8 7
3 3 4 9
3 3 9 8
3 5 6 11
3 5 11 10
3 6 7 12
3 6 12 11
3 7 8 13
3 7 13 12
3 8 9 14
3 8 14 13
3 10 11 16
3 10 16 15
3 11 12 17
3 11 17 16
3 12 13 18
3 12 18 17
3 13 14 19
3 13 19 18
3 15 16 21
3 15 21 20
3 16 17 22
3 16 22 21
3 17 18 23
3 17 23 22
3 18 19 24
3 18 24 23
3 25 26 31
3 25 31 30
3 26 27 32
3 26 32 31
3 27 28 33
3 27 33 32
3 28 29 34
3 28 34 33
3 30 31 36
3 30 36 35
3 31 32 37
3 31 37 36
3 32 33 38
3 32 38 37
3 33 34 39
3 33 39 38
3 35 36 41
3 35 41 40
3 36 37 42
3 36 42 41
3 37 38 43
3 37 43 42
3 38 39 44
3 38 44 43
3 40 41 46
3 40 46 45
3 41 42 47
3 41 47 46
3 42 43 48
3 42 48 47
3 43 44 49
3 43 49 48
