ply
format ascii 1.0
element vertex 578
property float x
property float y
property float z
element face 1024
property list uchar int vertex_indices
end_header
0.8 -0.5 0.0
0.8625 -0.5 0.0
0.925 -0.5 0.0
0.9875 -0.5 0.0
1.05 -0.5 0.0
1.1125 -0.5 0.0
1.175 -0.5 0.0
1.2375 -0.5 0.0
1.3 -0.5 0.0
1.3625 -0.5 0.0
1.425 -0.5 0.0
1.4875 -0.5 0.0
1.55 -0.5 0.0
1.6125 -0.5 0.0
1.675 -0.5 0.0
1.7375 -0.5 0.0
1.8 -0.5 0.0
0.8 -0.4375 0.0
0.8625 -0.4375 0.0
0.925 -0.4375 0.0
0.9875 -0.4375 0.0
1.05 -0.4375 0.0
1.1125 -0.4375 0.0
1.175 -0.4375 0.0
1.2375 -0.4375 0.0
1.3 -0.4375 0.0
1.3625 -0.4375 0.0
1.425 -0.4375 0.0
1.4875 -0.4375 0.0
1.55 -0.4375 0.0
1.6125 -0.4375 0.0
1.675 -0.4375 0.0
1.7375 -0.4375 0.0
1.8 -0.4375 0.0
0.8 -0.375 0.0
0.8625 -0.375 0.0
0.925 -0.375 0.0
0.9875 -0.375 0.0
1.05 -0.375 0.0
1.1125 -0.375 0.0
1.175 -0.375 0.0
1.2375 -0.375 0.0
1.3 -0.375 0.0
1.3625 -0.375 0.0
1.425 -0.375 0.0
1.4875 -0.375 0.0
1.55 -0.375 0.0
1.6125 -0.375 0.0
1.675 -0.375 0.0
1.7375 -0.375 0.0
1.8 -0.375 0.0
0.8 -0.3125 0.0
0.8625 -0.3125 0.0
0.925 -0.3125 0.0
0.9875 -0.3125 0.0
1.05 -0.3125 0.0
1.1125 -0.3125 0.0
1.175 -0.3125 0.0
1.2375 -0.3125 0.0
1.3 -0.3125 0.0
1.3625 -0.3125 0.0
1.425 -0.3125 0.0
1.4875 -0.3125 0.0
1.55 -0.3125 0.0
1.6125 -0.3125 0.0
1.675 -0.3125 0.0
1.7375 -0.3125 0.0
1.8 -0.3125 0.0
0.8 -0.25 0.0
0.8625 -0.25 0.0
0.925 -0.25 0.0
0.9875 -0.25 0.0
1.05 -0.25 0.0
1.1125 -0.25 0.0
1.175 -0.25 0.0
1.2375 -0.25 0.0
1.3 -0.25 0.0
1.3625 -0.25 0.0
1.425 -0.25 0.0
1.4875 -0.25 0.0
1.55 -0.25 0.0
1.6125 -0.25 0.0
1.675 -0.25 0.0
1.7375 -0.25 0.0
1.8 -0.25 0.0
0.8 -0.1875 0.0
0.8625 -0.1875 0.0
0.925 -0.1875 0.0
0.9875 -0.1875 0.0
1.05 -0.1875 0.0
1.1125 -0.1875 0.0
1.175 -0.1875 0.0
1.2375 -0.1875 0.0
1.3 -0.1875 0.0
1.3625 -0.1875 0.0
1.425 -0.1875 0.0
1.4875 -0.1875 0.0
1.55 -0.1875 0.0
1.6125 -0.1875 0.0
1.675 -0.1875 0.0
1.7375 -0.1875 0.0
1.8 -0.1875 0.0
0.8 -0.125 0.0
0.8625 -0.125 0.0
0.925 -0.125 0.0
0.9875 -0.125 0.0
1.05 -0.125 0.0
1.1125 -0.125 0.0
1.175 -0.125 0.0
1.2375 -0.125 0.0
1.3 -0.125 0.0
1.3625 -0.125 0.0
1.425 -0.125 0.0
1.4875 -0.125 0.0
1.55 -0.125 0.0
1.6125 -0.125 0.0
1.675 -0.125 0.0
1.7375 -0.125 0.0
1.8 -0.125 0.0
0.8 -0.0625 0.0
0.8625 -0.0625 0.0
0.925 -0.0625 0.0
0.9875 -0.0625 0.0
1.05 -0.0625 0.0
1.1125 -0.0625 0.0
1.175 -0.0625 0.0
1.2375 -0.0625 0.0
1.3 -0.0625 0.0
1.3625 -0.0625 0.0
1.425 -0.0625 0.0
1.4875 -0.0625 0.0
1.55 -0.0625 0.0
1.6125 -0.0625 0.0
1.675 -0.0625 0.0
1.7375 -0.0625 0.0
1.8 -0.0625 0.0
0.8 0.0 0.0
0.8625 0.0 0.0
0.925 0.0 0.0
0.9875 0.0 0.0
1.05 0.0 0.0
1.1125 0.0 0.0
1.175 0.0 0.0
1.2375 0.0 0.0
1.3 0.0 0.0
1.3625 0.0 0.0
1.425 0.0 0.0
1.4875 0.0 0.0
1.55 0.0 0.0
1.6125 0.0 0.0
1.675 0.0 0.0
1.7375 0.0 0.0
1.8 0.0 0.0
0.8 0.0625 0.0
0.8625 0.0625 0.0
0.925 0.0625 0.0
0.9875 0.0625 0.0
1.05 0.0625 0.0
1.1125 0.0625 0.0
1.175 0.0625 0.0
1.2375 0.0625 0.0
1.3 0.0625 0.0
1.3625 0.0625 0.0
1.425 0.0625 0.0
1.4875 0.0625 0.0
1.55 0.0625 0.0
1.6125 0.0625 0.0
1.675 0.0625 0.0
1.7375 0.0625 0.0
1.8 0.0625 0.0
0.8 0.125 0.0
0.8625 0.125 0.0
0.925 0.125 0.0
0.9875 0.125 0.0
1.05 0.125 0.0
1.1125 0.125 0.0
1.175 0.125 0.0
1.2375 0.125 0.0
1.3 0.125 0.0
1.3625 0.125 0.0
1.425 0.125 0.0
1.4875 0.125 0.0
1.55 0.125 0.0
1.6125 0.125 0.0
1.675 0.125 0.0
1.7375 0.125 0.0
1.8 0.125 0.0
0.8 0.1875 0.0
0.8625 0.1875 0.0
0.925 0.1875 0.0
0.9875 0.1875 0.0
1.05 0.1875 0.0
1.1125 0.1875 0.0
1.175 0.1875 0.0
1.2375 0.1875 0.0
1.3 0.1875 0.0
1.3625 0.1875 0.0
1.425 0.1875 0.0
1.4875 0.1875 0.0
1.55 0.1875 0.0
1.6125 0.1875 0.0
1.675 0.1875 0.0
1.7375 0.1875 0.0
1.8 0.1875 0.0
0.8 0.25 0.0
0.8625 0.25 0.0
0.925 0.25 0.0
0.9875 0.25 0.0
1.05 0.25 0.0
1.1125 0.25 0.0
1.175 0.25 0.0
1.2375 0.25 0.0
1.3 0.25 0.0
1.3625 0.25 0.0
1.425 0.25 0.0
1.4875 0.25 0.0
1.55 0.25 0.0
1.6125 0.25 0.0
1.675 0.25 0.0
1.7375 0.25 0.0
1.8 0.25 0.0
0.8 0.3125 0.0
0.8625 0.3125 0.0
0.925 0.3125 0.0
0.9875 0.3125 0.0
1.05 0.3125 0.0
1.1125 0.3125 0.0
1.175 0.3125 0.0
1.2375 0.3125 0.0
1.3 0.3125 0.0
1.3625 0.3125 0.0
1.425 0.3125 0.0
1.4875 0.3125 0.0
1.55 0.3125 0.0
1.6125 0.3125 0.0
1.675 0.3125 0.0
1.7375 0.3125 0.0
1.8 0.3125 0.0
0.8 0.375 0.0
0.8625 0.375 0.0
0.925 0.375 0.0
0.9875 0.375 0.0
1.05 0.375 0.0
1.1125 0.375 0.0
1.175 0.375 0.0
1.2375 0.375 0.0
1.3 0.375 0.0
1.3625 0.375 0.0
1.425 0.375 0.0
1.4875 0.375 0.0
1.55 0.375 0.0
1.6125 0.375 0.0
1.675 0.375 0.0
1.7375 0.375 0.0
1.8 0.375 0.0
0.8 0.4375 0.0
0.8625 0.4375 0.0
0.925 0.4375 0.0
0.9875 0.4375 0.0
1.05 0.4375 0.0
1.1125 0.4375 0.0
1.175 0.4375 0.0
1.2375 0.4375 0.0
1.3 0.4375 0.0
1.3625 0.4375 0.0
1.425 0.4375 0.0
1.4875 0.4375 0.0
1.55 0.4375 0.0
1.6125 0.4375 0.0
1.675 0.4375 0.0
1.7375 0.4375 0.0
1.8 0.4375 0.0
0.8 0.5 0.0
0.8625 0.5 0.0
0.925 0.5 0.0
0.9875 0.5 0.0
1.05 0.5 0.0
1.1125 0.5 0.0
1.175 0.5 0.0
1.2375 0.5 0.0
1.3 0.5 0.0
1.3625 0.5 0.0
1.425 0.5 0.0
1.4875 0.5 0.0
1.55 0.5 0.0
1.6125 0.5 0.0
1.675 0.5 0.0
1.7375 0.5 0.0
1.8 0.5 0.0
-0.5 -0.5 0.0
-0.4375 -0.5 0.0
-0.375 -0.5 0.0
-0.3125 -0.5 0.0
-0.25 -0.5 0.0
-0.1875 -0.5 0.0
-0.125 -0.5 0.0
-0.0625 -0.5 0.0
0.0 -0.5 0.0
0.0625 -0.5 0.0
0.125 -0.5 0.0
0.1875 -0.5 0.0
0.25 -0.5 0.0
0.3125 -0.5 0.0
0.375 -0.5 0.0
0.4375 -0.5 0.0
0.5 -0.5 0.0
-0.5 -0.4375 0.0
-0.4375 -0.4375 0.0
-0.375 -0.4375 0.0
-0.3125 -0.4375 0.0
-0.25 -0.4375 0.0
-0.1875 -0.4375 0.0
-0.125 -0.4375 0.0
-0.0625 -0.4375 0.0
0.0 -0.4375 0.0
0.0625 -0.4375 0.0
0.125 -0.4375 0.0
0.1875 -0.4375 0.0
0.25 -0.4375 0.0
0.3125 -0.4375 0.0
0.375 -0.4375 0.0
0.4375 -0.4375 0.0
0.5 -0.4375 0.0
-0.5 -0.375 0.0
-0.4375 -0.375 0.0
-0.375 -0.375 0.0
-0.3125 -0.375 0.0
-0.25 -0.375 0.0
-0.1875 -0.375 0.0
-0.125 -0.375 0.0
-0.0625 -0.375 0.0
0.0 -0.375 0.0
0.0625 -0.375 0.0
0.125 -0.375 0.0
0.1875 -0.375 0.0
0.25 -0.375 0.0
0.3125 -0.375 0.0
0.375 -0.375 0.0
0.4375 -0.375 0.0
0.5 -0.375 0.0
-0.5 -0.3125 0.0
-0.4375 -0.3125 0.0
-0.375 -0.3125 0.0
-0.3125 -0.3125 0.0
-0.25 -0.3125 0.0
-0.1875 -0.3125 0.0
-0.125 -0.3125 0.0
-0.0625 -0.3125 0.0
0.0 -0.3125 0.0
0.0625 -0.3125 0.0
0.125 -0.3125 0.0
0.1875 -0.3125 0.0
0.25 -0.3125 0.0
0.3125 -0.3125 0.0
0.375 -0.3125 0.0
0.4375 -0.3125 0.0
0.5 -0.3125 0.0
-0.5 -0.25 0.0
-0.4375 -0.25 0.0
-0.375 -0.25 0.0
-0.3125 -0.25 0.0
-0.25 -0.25 0.0
-0.1875 -0.25 0.0
-0.125 -0.25 0.0
-0.0625 -0.25 0.0
0.0 -0.25 0.0
0.0625 -0.25 0.0
0.125 -0.25 0.0
0.1875 -0.25 0.0
0.25 -0.25 0.0
0.3125 -0.25 0.0
0.375 -0.25 0.0
0.4375 -0.25 0.0
0.5 -0.25 0.0
-0.5 -0.1875 0.0
-0.4375 -0.1875 0.0
-0.375 -0.1875 0.0
-0.3125 -0.1875 0.0
-0.25 -0.1875 0.0
-0.1875 -0.1875 0.0
-0.125 -0.1875 0.0
-0.0625 -0.1875 0.0
0.0 -0.1875 0.0
0.0625 -0.1875 0.0
0.125 -0.1875 0.0
0.1875 -0.1875 0.0
0.25 -0.1875 0.0
0.3125 -0.1875 0.0
0.375 -0.1875 0.0
0.4375 -0.1875 0.0
0.5 -0.1875 0.0
-0.5 -0.125 0.0
-0.4375 -0.125 0.0
-0.375 -0.125 0.0
-0.3125 -0.125 0.0
-0.25 -0.125 0.0
-0.1875 -0.125 0.0
-0.125 -0.125 0.0
-0.0625 -0.125 0.0
0.0 -0.125 0.0
0.0625 -0.125 0.0
0.125 -0.125 0.0
0.1875 -0.125 0.0
0.25 -0.125 0.0
0.3125 -0.125 0.0
0.375 -0.125 0.0
0.4375 -0.125 0.0
0.5 -0.125 0.0
-0.5 -0.0625 0.0
-0.4375 -0.0625 0.0
-0.375 -0.0625 0.0
-0.3125 -0.0625 0.0
-0.25 -0.0625 0.0
-0.1875 -0.0625 0.0
-0.125 -0.0625 0.0
-0.0625 -0.0625 0.0
0.0 -0.0625 0.0
0.0625 -0.0625 0.0
0.125 -0.0625 0.0
0.1875 -0.0625 0.0
0.25 -0.0625 0.0
0.3125 -0.0625 0.0
0.375 -0.0625 0.0
0.4375 -0.0625 0.0
0.5 -0.0625 0.0
-0.5 0.0 0.0
-0.4375 0.0 0.0
-0.375 0.0 0.0
-0.3125 0.0 0.0
-0.25 0.0 0.0
-0.1875 0.0 0.0
-0.125 0.0 0.0
-0.0625 0.0 0.0
0.0 0.0 0.0
0.0625 0.0 0.0
0.125 0.0 0.0
0.1875 0.0 0.0
0.25 0.0 0.0
0.3125 0.0 0.0
0.375 0.0 0.0
0.4375 0.0 0.0
0.5 0.0 0.0
-0.5 0.0625 0.0
-0.4375 0.0625 0.0
-0.375 0.0625 0.0
-0.3125 0.0625 0.0
-0.25 0.0625 0.0
-0.1875 0.0625 0.0
-0.125 0.0625 0.0
-0.0625 0.0625 0.0
0.0 0.0625 0.0
0.0625 0.0625 0.0
0.125 0.0625 0.0
0.1875 0.0625 0.0
0.25 0.0625 0.0
0.3125 0.0625 0.0
0.375 0.0625 0.0
0.4375 0.0625 0.0
0.5 0.0625 0.0
-0.5 0.125 0.0
-0.4375 0.125 0.0
-0.375 0.125 0.0
-0.3125 0.125 0.0
-0.25 0.125 0.0
-0.1875 0.125 0.0
-0.125 0.125 0.0
-0.0625 0.125 0.0
0.0 0.125 0.0
0.0625 0.125 0.0
0.125 0.125 0.0
0.1875 0.125 0.0
0.25 0.125 0.0
0.3125 0.125 0.0
0.375 0.125 0.0
0.4375 0.125 0.0
0.5 0.125 0.0
-0.5 0.1875 0.0
-0.4375 0.1875 0.0
-0.375 0.1875 0.0
-0.3125 0.1875 0.0
-0.25 0.1875 0.0
-0.1875 0.1875 0.0
-0.125 0.1875 0.0
-0.0625 0.1875 0.0
0.0 0.1875 0.0
0.0625 0.1875 0.0
0.125 0.1875 0.0
0.1875 0.1875 0.0
0.25 0.1875 0.0
0.3125 0.1875 0.0
0.375 0.1875 0.0
0.4375 0.1875 0.0
0.5 0.1875 0.0
-0.5 0.25 0.0
-0.4375 0.25 0.0
-0.375 0.25 0.0
-0.3125 0.25 0.0
-0.25 0.25 0.0
-0.1875 0.25 0.0
-0.125 0.25 0.0
-0.0625 0.25 0.0
0.0 0.25 0.0
0.0625 0.25 0.0
0.125 0.25 0.0
0.1875 0.25 0.0
0.25 0.25 0.0
0.3125 0.25 0.0
0.375 0.25 0.0
0.4375 0.25 0.0
0.5 0.25 0.0
-0.5 0.3125 0.0
-0.4375 0.3125 0.0
-0.375 0.3125 0.0
-0.3125 0.3125 0.0
-0.25 0.3125 0.0
-0.1875 0.3125 0.0
-0.125 0.3125 0.0
-0.0625 0.3125 0.0
0.0 0.3125 0.0
0.0625 0.3125 0.0
0.125 0.3125 0.0
0.1875 0.3125 0.0
0.25 0.3125 0.0
0.3125 0.3125 0.0
0.375 0.3125 0.0
0.4375 0.3125 0.0
0.5 0.3125 0.0
-0.5 0.375 0.0
-0.4375 0.375 0.0
-0.375 0.375 0.0
-0.3125 0.375 0.0
-0.25 0.375 0.0
-0.1875 0.375 0.0
-0.125 0.375 0.0
-0.0625 0.375 0.0
0.0 0.375 0.0
0.0625 0.375 0.0
0.125 0.375 0.0
0.1875 0.375 0.0
0.25 0.375 0.0
0.3125 0.375 0.0
0.375 0.375 0.0
0.4375 0.375 0.0
0.5 0.375 0.0
-0.5 0.4375 0.0
-0.4375 0.4375 0.0
-0.375 0.4375 0.0
-0.3125 0.4375 0.0
-0.25 0.4375 0.0
-0.1875 0.4375 0.0
-0.125 0.4375 0.0
-0.0625 0.4375 0.0
0.0 0.4375 0.0
0.0625 0.4375 0.0
0.125 0.4375 0.0
0.1875 0.4375 0.0
0.25 0.4375 0.0
0.3125 0.4375 0.0
0.375 0.4375 0.0
0.4375 0.4375 0.0
0.5 0.4375 0.0
-0.5 0.5 0.0
-0.4375 0.5 0.0
-0.375 0.5 0.0
-0.3125 0.5 0.0
-0.25 0.5 0.0
-0.1875 0.5 0.0
-0.125 0.5 0.0
-0.0625 0.5 0.0
0.0 0.5 0.0
0.0625 0.5 0.0
0.125 0.5 0.0
0.1875 0.5 0.0
0.25 0.5 0.0
0.3125 0.5 0.0
0.375 0.5 0.0
0.4375 0.5 0.0
0.5 0.5 0.0
3 0 1 18
3 0 18 17
3 1 2 19
3 1 19 18
3 2 3 20
3 2 20 19
3 3 4 21
3 3 21 20
3 4 5 22
3 4 22 21
3 5 6 23
3 5 23 22
3 6 7 24
3 6 24 23
3 7 8 25
3 7 25 24
3 8 9 26
3 8 26 25
3 9 10 27
3 9 27 26
3 10 11 28
3 10 28 27
3 11 12 29
3 11 29 28
3 12 13 30
3 12 30 29
3 13 14 31
3 13 31 30
3 14 15 32
3 14 32 31
3 15 16 33
3 15 33 32
3 17 18 35
3 17 35 34
3 18 19 36
3 18 36 35
3 19 20 37
3 19 37 36
3 20 21 38
3 20 38 37
3 21 22 39
3 21 39 38
3 22 23 40
3 22 40 39
3 23 24 41
3 23 41 40
3 24 25 42
3 24 42 41
3 25 26 43
3 25 43 42
3 26 27 44
3 26 44 43
3 27 28 45
3 27 45 44
3 28 29 46
3 28 46 45
3 29 30 47
3 29 47 46
3 30 31 48
3 30 48 47
3 31 32 49
3 31 49 48
3 32 33 50
3 32 50 49
3 34 35 52
3 34 52 51
3 35 36 53
3 35 53 52
3 36 37 54
3 36 54 53
3 37 38 55
3 37 55 54
3 38 39 56
3 38 56 55
3 39 40 57
3 39 57 56
3 40 41 58
3 40 58 57
3 41 42 59
3 41 59 58
3 42 43 60
3 42 60 59
3 43 44 61
3 43 61 60
3 44 45 62
3 44 62 61
3 45 46 63
3 45 63 62
3 46 47 64
3 46 64 63
3 47 48 65
3 47 65 64
3 48 49 66
3 48 66 65
3 49 50 67
3 49 67 66
3 51 52 69
3 51 69 68
3 52 53 70
3 52 70 69
3 53 54 71
3 53 71 70
3 54 55 72
3 54 72 71
3 55 56 73
3 55 73 72
3 56 57 74
3 56 74 73
3 57 58 75
3 57 75 74
3 58 59 76
3 58 76 75
3 59 60 77
3 59 77 76
3 60 61 78
3 60 78 77
3 61 62 79
3 61 79 78
3 62 63 80
3 62 80 79
3 63 64 81
3 63 81 80
3 64 65 82
3 64 82 81
3 65 66 83
3 65 83 82
3 66 67 84
3 66 84 83
3 68 69 86
3 68 86 85
3 69 70 87
3 69 87 86
3 70 71 88
3 70 88 87
3 71 72 89
3 71 89 88
3 72 73 90
3 72 90 89
3 73 74 91
3 73 91 90
3 74 75 92
3 74 92 91
3 75 76 93
3 75 93 92
3 76 77 94
3 76 94 93
3 77 78 95
3 77 95 94
3 78 79 96
3 78 96 95
3 79 80 97
3 79 97 96
3 80 81 98
3 80 98 97
3 81 82 99
3 81 99 98
3 82 83 100
3 82 100 99
3 83 84 101
3 83 101 100
3 85 86 103
3 85 103 102
3 86 87 104
3 86 104 103
3 87 88 105
3 87 105 104
3 88 89 106
3 88 106 105
3 89 90 107
3 89 107 106
3 90 91 108
3 90 108 107
3 91 92 109
3 91 109 108
3 92 93 110
3 92 110 109
3 93 94 111
3 93 111 110
3 94 95 112
3 94 112 111
3 95 96 113
3 95 113 112
3 96 97 114
3 96 114 113
3 97 98 115
3 97 115 114
3 98 99 116
3 98 116 115
3 99 100 117
3 99 117 116
3 100 101 118
3 100 118 117
3 102 103 120
3 102 120 119
3 103 104 121
3 103 121 120
3 104 105 122
3 104 122 121
3 105 106 123
3 105 123 122
3 106 107 124
3 106 124 123
3 107 108 125
3 107 125 124
3 108 109 126
3 108 126 125
3 109 110 127
3 109 127 126
3 110 111 128
3 110 128 127
3 111 112 129
3 111 129 128
3 112 113 130
3 112 130 129
3 113 114 131
3 113 131 130
3 114 115 132
3 114 132 131
3 115 116 133
3 115 133 132
3 116 117 134
3 116 134 133
3 117 118 135
3 117 135 134
3 119 120 137
3 119 137 136
3 120 121 138
3 120 138 137
3 121 122 139
3 121 139 138
3 122 123 140
3 122 140 139
3 123 124 141
3 123 141 140
3 124 125 142
3 124 142 141
3 125 126 143
3 125 143 142
3 126 127 144
3 126 144 143
3 127 128 145
3 127 145 144
3 128 129 146
3 128 146 145
3 129 130 147
3 129 147 146
3 130 131 148
3 130 148 147
3 131 132 149
3 131 149 148
3 132 133 150
3 132 150 149
3 133 134 151
3 133 151 150
3 134 135 152
3 134 152 151
3 136 137 154
3 136 154 153
3 137 138 155
3 137 155 154
3 138 139 156
3 138 156 155
3 139 140 157
3 139 157 156
3 140 141 158
3 140 158 157
3 141 142 159
3 141 159 158
3 142 143 160
3 142 160 159
3 143 144 161
3 143 161 160
3 144 145 162
3 144 162 161
3 145 146 163
3 145 163 162
3 146 147 164
3 146 164 163
3 147 148 165
3 147 165 164
3 148 149 166
3 148 166 165
3 149 150 167
3 149 167 166
3 150 151 168
3 150 168 167
3 151 152 169
3 151 169 168
3 153 154 171
3 153 171 170
3 154 155 172
3 154 172 171
3 155 156 173
3 155 173 172
3 156 157 174
3 156 174 173
3 157 158 175
3 157 175 174
3 158 159 176
3 158 176 175
3 159 160 177
3 159 177 176
3 160 161 178
3 160 178 177
3 161 162 179
3 161 179 178
3 162 163 180
3 162 180 179
3 163 164 181
3 163 181 180
3 164 165 182
3 164 182 181
3 165 166 183
3 165 183 182
3 166 167 184
3 166 184 183
3 167 168 185
3 167 185 184
3 168 169 186
3 168 186 185
3 170 171 188
3 170 188 187
3 171 172 189
3 171 189 188
3 172 173 190
3 172 190 189
3 173 174 191
3 173 191 190
3 174 175 192
3 174 192 191
3 175 176 193
3 175 193 192
3 176 177 194
3 176 194 193
3 177 178 195
3 177 195 194
3 178 179 196
3 178 196 195
3 179 180 197
3 179 197 196
3 180 181 198
3 180 198 197
3 181 182 199
3 181 199 198
3 182 183 200
3 182 200 199
3 183 184 201
3 183 201 200
3 184 185 202
3 184 202 201
3 185 186 203
3 185 203 202
3 187 188 205
3 187 205 204
3 188 189 206
3 188 206 205
3 189 190 207
3 189 207 206
3 190 191 208
3 190 208 207
3 191 192 209
3 191 209 208
3 192 193 210
3 192 210 209
3 193 194 211
3 193 211 210
3 194 195 212
3 194 212 211
3 195 196 213
3 195 213 212
3 196 197 214
3 196 214 213
3 197 198 215
3 197 215 214
3 198 199 216
3 198 216 215
3 199 200 217
3 199 217 216
3 200 201 218
3 200 218 217
3 201 202 219
3 201 219 218
3 202 203 220
3 202 220 219
3 204 205 222
3 204 222 221
3 205 206 223
3 205 223 222
3 206 207 224
3 206 224 223
3 207 208 225
3 207 225 224
3 208 209 226
3 208 226 225
3 209 210 227
3 209 227 226
3 210 211 228
3 210 228 227
3 211 212 229
3 211 229 228
3 212 213 230
3 212 230 229
3 213 214 231
3 213 231 230
3 214 215 232
3 214 232 231
3 215 216 233
3 215 233 232
3 216 217 234
3 216 234 233
3 217 218 235
3 217 235 234
3 218 219 236
3 218 236 235
3 219 220 237
3 219 237 236
3 221 222 239
3 221 239 238
3 222 223 240
3 222 240 239
3 223 224 241
3 223 241 240
3 224 225 242
3 224 242 241
3 225 226 243
3 225 243 242
3 226 227 244
3 226 244 243
3 227 228 245
3 227 245 244
3 228 229 246
3 228 246 245
3 229 230 247
3 229 247 246
3 230 231 248
3 230 248 247
3 231 232 249
3 231 249 248
3 232 233 250
3 232 250 249
3 233 234 251
3 233 251 250
3 234 235 252
3 234 252 251
3 235 236 253
3 235 253 252
3 236 237 254
3 236 254 253
3 238 239 256
3 238 256 255
3 239 240 257
3 239 257 256
3 240 241 258
3 240 258 257
3 241 242 259
3 241 259 258
3 242 243 260
3 242 260 259
3 243 244 261
3 243 261 260
3 244 245 262
3 244 262 261
3 245 246 263
3 245 263 262
3 246 247 264
3 246 264 263
3 247 248 265
3 247 265 264
3 248 249 266
3 248 266 265
3 249 250 267
3 249 267 266
3 250 251 268
3 250 268 267
3 251 252 269
3 251 269 268
3 252 253 270
3 252 270 269
3 253 254 271
3 253 271 270
3 255 256 273
3 255 273 272
3 256 257 274
3 256 274 273
3 257 258 275
3 257 275 274
3 258 259 276
3 258 276 275
3 259 260 277
3 259 277 276
3 260 261 278
3 260 278 277
3 261 262 279
3 261 279 278
3 262 263 280
3 262 280 279
3 263 264 281
3 263 281 280
3 264 265 282
3 264 282 281
3 265 266 283
3 265 283 282
3 266 267 284
3 266 284 283
3 267 268 285
3 267 285 284
3 268 269 286
3 268 286 285
3 269 270 287
3 269 287 286
3 270 271 288
3 270 288 287
3 289 290 307
3 289 307 306
3 290 291 308
3 290 308 307
3 291 292 309
3 291 309 308
3 292 293 310
3 292 310 309
3 293 294 311
3 293 311 310
3 294 295 312
3 294 312 311
3 295 296 313
3 295 313 312
3 296 297 314
3 296 314 313
3 297 298 315
3 297 315 314
3 298 299 316
3 298 316 315
3 299 300 317
3 299 317 316
3 300 301 318
3 300 318 317
3 301 302 319
3 301 319 318
3 302 303 320
3 302 320 319
3 303 304 321
3 303 321 320
3 304 305 322
3 304 322 321
3 306 307 324
3 306 324 323
3 307 308 325
3 307 325 324
3 308 309 326
3 308 326 325
3 309 310 327
3 309 327 326
3 310 311 328
3 310 328 327
3 311 312 329
3 311 329 328
3 312 313 330
3 312 330 329
3 313 314 331
3 313 331 330
3 314 315 332
3 314 332 331
3 315 316 333
3 315 333 332
3 316 317 334
3 316 334 333
3 317 318 335
3 317 335 334
3 318 319 336
3 318 336 335
3 319 320 337
3 319 337 336
3 320 321 338
3 320 338 337
3 321 322 339
3 321 339 338
3 323 324 341
3 323 341 340
3 324 325 342
3 324 342 341
3 325 326 343
3 325 343 342
3 326 327 344
3 326 344 343
3 327 328 345
3 327 345 344
3 328 329 346
3 328 346 345
3 329 330 347
3 329 347 346
3 330 331 348
3 330 348 347
3 331 332 349
3 331 349 348
3 332 333 350
3 332 350 349
3 333 334 351
3 333 351 350
3 334 335 352
3 334 352 351
3 335 336 353
3 335 353 352
3 336 337 354
3 336 354 353
3 337 338 355
3 337 355 354
3 338 339 356
3 338 356 355
3 340 341 358
3 340 358 357
3 341 342 359
3 341 359 358
3 342 343 360
3 342 360 359
3 343 344 361
3 343 361 360
3 344 345 362
3 344 362 361
3 345 346 363
3 345 363 362
3 346 347 364
3 346 364 363
3 347 348 365
3 347 365 364
3 348 349 366
3 348 366 365
3 349 350 367
3 349 367 366
3 350 351 368
3 350 368 367
3 351 352 369
3 351 369 368
3 352 353 370
3 352 370 369
3 353 354 371
3 353 371 370
3 354 355 372
3 354 372 371
3 355 356 373
3 355 373 372
3 357 358 375
3 357 375 374
3 358 359 376
3 358 376 375
3 359 360 377
3 359 377 376
3 360 361 378
3 360 378 377
3 361 362 379
3 361 379 378
3 362 363 380
3 362 380 379
3 363 364 381
3 363 381 380
3 364 365 382
3 364 382 381
3 365 366 383
3 365 383 382
3 366 367 384
3 366 384 383
3 367 368 385
3 367 385 384
3 368 369 386
3 368 386 385
3 369 370 387
3 369 387 386
3 370 371 388
3 370 388 387
3 371 372 389
3 371 389 388
3 372 373 390
3 372 390 389
3 374 375 392
3 374 392 391
3 375 376 393
3 375 393 392
3 376 377 394
3 376 394 393
3 377 378 395
3 377 395 394
3 378 379 396
3 378 396 395
3 379 380 397
3 379 397 396
3 380 381 398
3 380 398 397
3 381 382 399
3 381 399 398
3 382 383 400
3 382 400 399
3 383 384 401
3 383 401 400
3 384 385 402
3 384 402 401
3 385 386 403
3 385 403 402
3 386 387 404
3 386 404 403
3 387 388 405
3 387 405 404
3 388 389 406
3 388 406 405
3 389 390 407
3 389 407 406
3 391 392 409
3 391 409 408
3 392 393 410
3 392 410 409
3 393 394 411
3 393 411 410
3 394 395 412
3 394 412 411
3 395 396 413
3 395 413 412
3 396 397 414
3 396 414 413
3 397 398 415
3 397 415 414
3 398 399 416
3 398 416 415
3 399 400 417
3 399 417 416
3 400 401 418
3 400 418 417
3 401 402 419
3 401 419 418
3 402 403 420
3 402 420 419
3 403 404 421
3 403 421 420
3 404 405 422
3 404 422 421
3 405 406 423
3 405 423 422
3 406 407 424
3 406 424 423
3 408 409 426
3 408 426 425
3 409 410 427
3 409 427 426
3 410 411 428
3 410 428 427
3 411 412 429
3 411 429 428
3 412 413 430
3 412 430 429
3 413 414 431
3 413 431 430
3 414 415 432
3 414 432 431
3 415 416 433
3 415 433 432
3 416 417 434
3 416 434 433
3 417 418 435
3 417 435 434
3 418 419 436
3 418 436 435
3 419 420 437
3 419 437 436
3 420 421 438
3 420 438 437
3 421 422 439
3 421 439 438
3 422 423 440
3 422 440 439
3 423 424 441
3 423 441 440
3 425 426 443
3 425 443 442
3 426 427 444
3 426 444 443
3 427 428 445
3 427 445 444
3 428 429 446
3 428 446 445
3 429 430 447
3 429 447 446
3 430 431 448
3 430 448 447
3 431 432 449
3 431 449 448
3 432 433 450
3 432 450 449
3 433 434 451
3 433 451 450
3 434 435 452
3 434 452 451
3 435 436 453
3 435 453 452
3 436 437 454
3 436 454 453
3 437 438 455
3 437 455 454
3 438 439 456
3 438 456 455
3 439 440 457
3 439 457 456
3 440 441 458
3 440 458 457
3 442 443 460
3 442 460 459
3 443 444 461
3 443 461 460
3 444 445 462
3 444 462 461
3 445 446 463
3 445 463 462
3 446 447 464
3 446 464 463
3 447 448 465
3 447 465 464
3 448 449 466
3 448 466 465
3 449 450 467
3 449 467 466
3 450 451 468
3 450 468 467
3 451 452 469
3 451 469 468
3 452 453 470
3 452 470 469
3 453 454 471
3 453 471 470
3 454 455 472
3 454 472 471
3 455 456 473
3 455 473 472
3 456 457 474
3 456 474 473
3 457 458 475
3 457 475 474
3 459 460 477
3 459 477 476
3 460 461 478
3 460 478 477
3 461 462 479
3 461 479 478
3 462 463 480
3 462 480 479
3 463 464 481
3 463 481 480
3 464 465 482
3 464 482 481
3 465 466 483
3 465 483 482
3 466 467 484
3 466 484 483
3 467 468 485
3 467 485 484
3 468 469 486
3 468 486 485
3 469 470 487
3 469 487 486
3 470 471 488
3 470 488 487
3 471 472 489
3 471 489 488
3 472 473 490
3 472 490 489
3 473 474 491
3 473 491 490
3 474 475 492
3 474 492 491
3 476 477 494
3 476 494 493
3 477 478 495
3 477 495 494
3 478 479 496
3 478 496 495
3 479 480 497
3 479 497 496
3 480 481 498
3 480 498 497
3 481 482 499
3 481 499 498
3 482 483 500
3 482 500 499
3 483 484 501
3 483 501 500
3 484 485 502
3 484 502 501
3 485 486 503
3 485 503 502
3 486 487 504
3 486 504 503
3 487 488 505
3 487 505 504
3 488 489 506
3 488 506 505
3 489 490 507
3 489 507 506
3 490 491 508
3 490 508 507
3 491 492 509
3 491 509 508
3 493 494 511
3 493 511 510
3 494 495 512
3 494 512 511
3 495 496 513
3 495 513 512
3 496 497 514
3 496 514 513
3 497 498 515
3 497 515 514
3 498 499 516
3 498 516 515
3 499 500 517
3 499 517 516
3 500 501 518
3 500 518 517
3 501 502 519
3 501 519 518
3 502 503 520
3 502 520 519
3 503 504 521
3 503 521 520
3 504 505 522
3 504 522 521
3 505 506 523
3 505 523 522
3 506 507 524
3 506 524 523
3 507 508 525
3 507 525 524
3 508 509 526
3 508 526 525
3 510 511 528
3 510 528 527
3 511 512 529
3 511 529 528
3 512 513 530
3 512 530 529
3 513 514 531
3 513 531 530
3 514 515 532
3 514 532 531
3 515 516 533
3 515 533 532
3 516 517 534
3 516 534 533
3 517 518 535
3 517 535 534
3 518 519 536
3 518 536 535
3 519 520 537
3 519 537 536
3 520 521 538
3 520 538 537
3 521 522 539
3 521 539 538
3 522 523 540
3 522 540 539
3 523 524 541
3 523 541 540
3 524 525 542
3 524 542 541
3 525 526 543
3 525 543 542
3 527 528 545
3 527 545 544
3 528 529 546
3 528 546 545
3 529 530 547
3 529 547 546
3 530 531 548
3 530 548 547
3 531 532 549
3 531 549 548
3 532 533 550
3 532 550 549
3 533 534 551
3 533 551 550
3 534 535 552
3 534 552 551
3 535 536 553
3 535 553 552
3 536 537 554
3 536 554 553
3 537 538 555
3 537 555 554
3 538 539 556
3 538 556 555
3 539 540 557
3 539 557 556
3 540 541 558
3 540 558 557
3 541 542 559
3 541 559 558
3 542 543 560
3 542 560 559
3 544 545 562
3 544 562 561
3 545 546 563
3 545 563 562
3 546 547 564
3 546 564 563
3 547 548 565
3 547 565 564
3 548 549 566
3 548 566 565
3 549 550 567
3 549 567 566
3 550 551 568
3 550 568 567
3 551 552 569
3 551 569 568
3 552 553 570
3 552 570 569
3 553 554 571
3 553 571 570
3 554 555 572
3 554 572 571
3 555 556 573
3 555 573 572
3 556 557 574
3 556 574 573
3 557 558 575
3 557 575 574
3 558 559 576
3 558 576 575
3 559 560 577
3 559 577 576
